<?xml version="1.0" encoding="UTF-8" standalone="no"?>
<!-- Created with Inkscape (http://www.inkscape.org/) -->

<svg
   xmlns:dc="http://purl.org/dc/elements/1.1/"
   xmlns:cc="http://creativecommons.org/ns#"
   xmlns:rdf="http://www.w3.org/1999/02/22-rdf-syntax-ns#"
   xmlns:svg="http://www.w3.org/2000/svg"
   xmlns="http://www.w3.org/2000/svg"
   xmlns:sodipodi="http://sodipodi.sourceforge.net/DTD/sodipodi-0.dtd"
   xmlns:inkscape="http://www.inkscape.org/namespaces/inkscape"
   version="1.1"
   id="svg2"
   xml:space="preserve"
   width="602.96002"
   height="571.28003"
   viewBox="0 0 602.96002 571.28003"
   sodipodi:docname="find_email_fail.svg"
   inkscape:version="0.92.5 (2060ec1f9f, 2020-04-08)"><metadata
     id="metadata8"><rdf:RDF><cc:Work
         rdf:about=""><dc:format>image/svg+xml</dc:format><dc:type
           rdf:resource="http://purl.org/dc/dcmitype/StillImage" /><dc:title /></cc:Work></rdf:RDF></metadata><defs
     id="defs6" /><sodipodi:namedview
     pagecolor="#ffffff"
     bordercolor="#666666"
     borderopacity="1"
     objecttolerance="10"
     gridtolerance="10"
     guidetolerance="10"
     inkscape:pageopacity="0"
     inkscape:pageshadow="2"
     inkscape:window-width="768"
     inkscape:window-height="427"
     id="namedview4"
     showgrid="false"
     inkscape:zoom="0.3607718"
     inkscape:cx="283.65752"
     inkscape:cy="164.01632"
     inkscape:window-x="497"
     inkscape:window-y="416"
     inkscape:window-maximized="0"
     inkscape:current-layer="g12" /><g
     id="g10"
     inkscape:groupmode="layer"
     inkscape:label="ink_ext_XXXXXX"
     transform="matrix(1.3333333,0,0,-1.3333333,0,571.28)"><g
       id="g12"
       transform="scale(0.1)"><path
         d="m 1664.76,155.141 c -13.94,11.961 -45.03,49.82 -21.05,93.871 8.79,16.136 27.45,24.129 44.35,31.25 16.9,7.109 34.65,13.289 48.64,25.179 26.36,22.45 33.64,59.707 51.14,89.629 20.09,34.36 57.6,60.102 97.22,58.289 45.38,-2.058 83.22,-39.121 100.38,-81.367 17.15,-42.262 17.75,-89.172 18.1,-134.812 0.2,-25.231 -0.92,-53.68 -19.45,-70.719 -17.08,-15.711 -42.79,-15.902 -65.94,-15.191 -82.65,2.539 -165.31,5.082 -247.97,7.621"
         style="fill:#f3f2f1;fill-opacity:1;fill-rule:nonzero;stroke:none"
         id="path14"
         inkscape:connector-curvature="0" /><path
         d="m 2109.66,642.262 h -65.62 l 16.08,188.258 h 71.63 z m -56.01,-477.391 h -50.4 l 15.09,176.598 h 56.03 z m -492.5,665.649 c 2.59,-13.61 14.49,-87.688 30.43,-188.258 h -65.45 l -31.58,188.258 z m 396.31,-188.258 6.25,188.258 h 89.92 l -16.09,-188.258 z m -15.86,-477.391 5.87,176.598 h 64.37 l -15.08,-176.598 z m -302.61,176.598 c 9.59,-61.11 19.03,-121.367 27.67,-176.598 h -60.46 l -29.62,176.598 z m -7.66,48.75 h -62.93 l -34.1,203.293 h 65 c 9.94,-62.832 20.95,-132.75 32.03,-203.293 z m 87.09,203.293 15.79,-203.293 h -96.33 c -3.24,20.633 -6.52,41.492 -9.81,62.371 -7.54,47.992 -15.1,95.969 -22.21,140.922 z m -3.79,48.75 h -116.49 c -4.12,26 -8.03,50.617 -11.57,72.758 -12.15,76.109 -16.71,104.73 -19.25,115.5 h 132.67 z m 116.58,0 h -110.1 l -14.63,188.258 h 120.39 z m 6.47,0 -4.33,188.258 h 123.88 l -6.26,-188.258 z m 5.81,-252.043 -4.68,203.293 h 110.55 l -6.75,-203.293 z m -102.79,0 -15.8,203.293 h 107.43 l 4.68,-203.293 z m 11.03,-225.348 h -78.51 c -7.47,47.668 -17.17,109.649 -27.69,176.598 H 1738 Z m -7.24,176.598 h 93.64 l 4.07,-176.598 h -83.98 z m 104.19,-176.598 -4.07,176.598 h 96.37 l -5.86,-176.598 z m 191.19,428.641 h 64.07 l -23.85,-203.293 h -57.59 z m -23.86,-203.293 h -66.93 l 6.76,203.293 h 77.54 z m 123.02,446.812 H 1486.9 L 1604.38,136.57 c 5.13,-30.59 27.27,-54.1716 55.67,-62.3591 l 2.29,-0.6211 c 1.94,-0.5 3.81,-1.1484 5.8,-1.5 4.3,-0.8906 8.75,-1.3398 13.26,-1.5312 l 0.11,-0.668 3.18,0.5078 h 0.02 290.64 c 5.47,0 10.8,0.5625 15.98,1.5938 34.32,5.2969 61.79,32.8478 65.97,68.4488 l 56.63,482.629 2.55,19.192 h -0.3 l 22.43,191.129 0.42,3.64"
         style="fill:#dadbd8;fill-opacity:1;fill-rule:nonzero;stroke:none"
         id="path16"
         inkscape:connector-curvature="0" /><path
         d="m 2749.2483,3330.5716 -998.41,-169.18 -114.03,672.97 998.42,169.17 114.02,-672.96"
         style="fill:#e7e8e5;fill-opacity:1;fill-rule:nonzero;stroke:none"
         id="path18"
         inkscape:connector-curvature="0" /><path
         d="m 2635.2283,4003.5316 c 0.25,-0.2 -2.44,-3.82 -7.78,-10.53 -5.97,-7.33 -13.84,-16.99 -23.67,-29.07 -21.51,-25.75 -51.56,-61.73 -88.43,-105.9 -75.96,-89.57 -179.92,-212.17 -295.08,-347.97 l -2.42,-2.87 -3.3,1.83 c -2.52,1.39 -5.25,2.9 -7.97,4.42 -157.34,87.76 -299.73,167.19 -403.83,225.27 -50.8,28.84 -92.22,52.35 -121.85,69.19 -13.69,7.98 -24.62,14.37 -32.91,19.21 -7.48,4.48 -11.33,6.98 -11.18,7.25 0.16,0.28 4.31,-1.67 12.07,-5.63 8.5,-4.46 19.72,-10.34 33.74,-17.71 29.99,-16.21 71.89,-38.85 123.29,-66.63 104.43,-57.46 247.28,-136.06 405.12,-222.91 2.74,-1.52 5.45,-3.02 7.97,-4.42 l -5.72,-1.04 c 115.97,135.11 220.66,257.09 297.16,346.21 37.8,43.37 68.59,78.71 90.64,104.01 10.37,11.61 18.67,20.9 24.97,27.95 5.79,6.32 8.94,9.55 9.18,9.34"
         style="fill:#fafaf9;fill-opacity:1;fill-rule:nonzero;stroke:none"
         id="path20"
         inkscape:connector-curvature="0" /><path
         d="m 1750.8383,3161.3916 c -2.19,1.29 57.26,106.26 132.77,234.43 75.53,128.21 138.52,231.07 140.7,229.78 2.19,-1.28 -57.25,-106.23 -132.78,-234.44 -75.51,-128.17 -138.51,-231.05 -140.69,-229.77"
         style="fill:#fafaf9;fill-opacity:1;fill-rule:nonzero;stroke:none"
         id="path22"
         inkscape:connector-curvature="0" /><path
         d="m 2354.7583,3690.2516 c 1.71,1.88 91.42,-77.13 200.33,-176.43 108.97,-99.35 195.87,-181.38 194.16,-183.25 -1.7,-1.88 -91.39,77.11 -200.35,176.45 -108.91,99.31 -195.85,181.36 -194.14,183.23"
         style="fill:#fafaf9;fill-opacity:1;fill-rule:nonzero;stroke:none"
         id="path24"
         inkscape:connector-curvature="0" /><path
         d="m 815.969,1848.64 -506.676,-45.01 -30.336,341.51 506.676,45.01 30.336,-341.51"
         style="fill:#f3f2f1;fill-opacity:1;fill-rule:nonzero;stroke:none"
         id="path26"
         inkscape:connector-curvature="0" /><path
         d="m 785.633,2190.15 c 0.113,-0.12 -1.379,-1.81 -4.313,-4.97 -3.281,-3.43 -7.605,-7.95 -13.011,-13.61 -11.797,-12.04 -28.266,-28.86 -48.493,-49.5 -41.597,-41.84 -98.531,-99.1 -161.589,-162.52 l -1.336,-1.34 -1.575,1.04 c -1.207,0.8 -2.511,1.66 -3.812,2.53 -75.301,50.21 -143.441,95.65 -193.258,128.87 -24.293,16.45 -44.094,29.88 -58.269,39.48 -6.532,4.55 -11.758,8.19 -15.711,10.94 -3.567,2.54 -5.395,3.94 -5.309,4.07 0.09,0.14 2.09,-1 5.82,-3.3 4.078,-2.57 9.465,-5.97 16.192,-10.2 14.375,-9.32 34.453,-22.32 59.082,-38.28 50.012,-32.93 118.414,-77.95 194,-127.73 1.308,-0.86 2.613,-1.73 3.812,-2.52 l -2.902,-0.29 c 63.441,63.03 120.715,119.96 162.562,161.54 20.653,20.22 37.481,36.68 49.524,48.48 5.656,5.4 10.187,9.72 13.621,13 3.148,2.93 4.852,4.42 4.965,4.31"
         style="fill:#dadbd8;fill-opacity:1;fill-rule:nonzero;stroke:none"
         id="path28"
         inkscape:connector-curvature="0" /><path
         d="m 309.293,1803.63 c -1.043,0.73 32.902,50.93 75.809,112.11 42.918,61.19 78.546,110.19 79.589,109.46 1.043,-0.73 -32.89,-50.92 -75.812,-112.12 -42.906,-61.17 -78.539,-110.18 -79.586,-109.45"
         style="fill:#dadbd8;fill-opacity:1;fill-rule:nonzero;stroke:none"
         id="path30"
         inkscape:connector-curvature="0" /><path
         d="m 632.73,2044.43 c 0.934,0.87 42.711,-42.26 93.301,-96.32 50.614,-54.07 90.871,-98.6 89.938,-99.47 -0.934,-0.88 -42.699,42.24 -93.309,96.32 -50.594,54.06 -90.855,98.6 -89.93,99.47"
         style="fill:#dadbd8;fill-opacity:1;fill-rule:nonzero;stroke:none"
         id="path32"
         inkscape:connector-curvature="0" /><path
         d="m 4385.29,2558.44 c 0,0 0.33,2.7 1.15,7.7 0.88,5.16 2.11,12.5 3.72,21.99 3.35,19.38 8.22,47.52 14.44,83.45 12.66,71.99 30.78,175.15 52.85,300.67 l 1.63,-2.34 c -166.8,29.78 -375.76,67.08 -601.97,107.46 l -0.05,0.01 2.91,2.03 c -26.54,-147.58 -51.76,-287.8 -74.36,-413.41 l -1.86,2.66 c 177.08,-32.23 327.18,-59.55 433.23,-78.85 52.94,-9.76 94.89,-17.5 123.81,-22.83 14.26,-2.68 25.31,-4.75 32.98,-6.2 3.63,-0.71 6.45,-1.26 8.55,-1.67 1.93,-0.39 2.93,-0.61 2.97,-0.67 0.02,-0.05 -0.9,0.07 -2.76,0.36 -2.05,0.34 -4.78,0.79 -8.33,1.36 -7.61,1.3 -18.52,3.16 -32.64,5.57 -28.84,5.03 -70.69,12.32 -123.52,21.53 -106.5,18.82 -257.25,45.46 -435.1,76.89 l -2.25,0.4 0.41,2.26 c 22.46,125.64 47.54,265.88 73.93,413.49 l 0.44,2.47 2.48,-0.45 0.05,-0.01 c 226.14,-40.74 435.04,-78.38 601.8,-108.43 l 1.99,-0.36 -0.36,-1.98 c -23.03,-125.88 -41.95,-229.33 -55.16,-301.53 -6.62,-35.67 -11.81,-63.6 -15.38,-82.83 -1.77,-9.3 -3.13,-16.48 -4.09,-21.54 -0.95,-4.83 -1.51,-7.2 -1.51,-7.2"
         style="fill:#dadbd8;fill-opacity:1;fill-rule:nonzero;stroke:none"
         id="path34"
         inkscape:connector-curvature="0" /><path
         d="m 4459.44,2971.89 c 0.09,-0.14 -2.27,-1.85 -6.86,-4.97 -4.98,-3.31 -11.71,-7.78 -20.18,-13.41 -18.05,-11.73 -43.48,-28.26 -74.74,-48.57 -63.71,-40.83 -151.08,-96.8 -247.59,-158.65 -6.74,1.2 -1.92,0.41 -3.46,0.71 l -0.09,0.14 -0.21,0.26 -0.41,0.54 -0.81,1.07 -1.62,2.14 -3.24,4.28 -6.44,8.5 c -4.29,5.66 -8.53,11.27 -12.75,16.84 -8.44,11.15 -16.75,22.14 -24.91,32.94 -16.31,21.6 -32.05,42.44 -47.05,62.31 -29.83,39.7 -56.72,75.48 -79.42,105.69 -22.25,29.91 -40.35,54.24 -53.19,71.51 -5.99,8.23 -10.74,14.76 -14.27,19.6 -3.21,4.51 -4.83,6.93 -4.7,7.03 0.14,0.11 2.03,-2.11 5.51,-6.42 3.7,-4.7 8.71,-11.04 15.01,-19.03 13.15,-17.04 31.69,-41.04 54.47,-70.55 22.94,-30.01 50.12,-65.58 80.28,-105.03 15.07,-19.82 30.88,-40.6 47.27,-62.14 8.19,-10.78 16.52,-21.75 24.98,-32.89 4.22,-5.57 8.48,-11.18 12.77,-16.83 l 6.44,-8.5 3.24,-4.28 1.62,-2.13 0.81,-1.07 0.41,-0.54 0.2,-0.27 0.11,-0.14 c -1.47,0.24 3.41,-0.71 -3.24,0.5 96.81,61.36 184.46,116.9 248.37,157.4 31.62,19.75 57.34,35.82 75.6,47.22 8.68,5.3 15.59,9.51 20.69,12.63 4.76,2.84 7.31,4.26 7.4,4.11"
         style="fill:#dadbd8;fill-opacity:1;fill-rule:nonzero;stroke:none"
         id="path36"
         inkscape:connector-curvature="0" /><path
         d="m 4024.8,2859.11 c 0.87,-1.08 -52.76,-45.44 -119.75,-99.07 -67.02,-53.65 -122.04,-96.25 -122.91,-95.16 -0.86,1.08 52.75,45.43 119.77,99.08 67,53.63 122.03,96.23 122.89,95.15"
         style="fill:#dadbd8;fill-opacity:1;fill-rule:nonzero;stroke:none"
         id="path38"
         inkscape:connector-curvature="0" /><path
         d="m 4388.29,2552.93 c -1.22,-0.66 -36.09,60.85 -77.89,137.38 -41.8,76.55 -74.69,139.13 -73.48,139.79 1.22,0.67 36.08,-60.83 77.9,-137.38 41.78,-76.53 74.68,-139.13 73.47,-139.79"
         style="fill:#dadbd8;fill-opacity:1;fill-rule:nonzero;stroke:none"
         id="path40"
         inkscape:connector-curvature="0" /><path
         d="m 1713.71,1779.36 v -116.21 h -499.72 c -32.09,0 -58.11,26.02 -58.11,58.11 0,32.09 26.02,58.1 58.11,58.1"
         style="fill:#dadbd8;fill-opacity:1;fill-rule:nonzero;stroke:none"
         id="path42"
         inkscape:connector-curvature="0" /><path
         d="m 1713.71,1687.51 h -165.54 c -18.09,0 -32.76,14.66 -32.76,32.75 v 1.99 c 0,18.09 14.67,32.76 32.76,32.76 h 165.54 v -67.5"
         style="fill:#fafaf9;fill-opacity:1;fill-rule:nonzero;stroke:none"
         id="path44"
         inkscape:connector-curvature="0" /><path
         d="m 1713.71,1895.58 v -116.22 h -499.72 c -32.09,0 -58.11,26.02 -58.11,58.11 v 0.01 c 0,32.09 26.02,58.1 58.11,58.1 h 499.72"
         style="fill:#f3f2f1;fill-opacity:1;fill-rule:nonzero;stroke:none"
         id="path46"
         inkscape:connector-curvature="0" /><path
         d="m 1713.71,1803.73 h -165.54 c -18.09,0 -32.76,14.65 -32.76,32.75 v 1.98 c 0,18.1 14.67,32.76 32.76,32.76 h 165.54 v -67.49"
         style="fill:#dadbd8;fill-opacity:1;fill-rule:nonzero;stroke:none"
         id="path48"
         inkscape:connector-curvature="0" /><path
         d="m 1352.81,2081.99 -79.37,-186.41 h 51.09 l 35.26,99.56 -6.98,86.85"
         style="fill:#dadbd8;fill-opacity:1;fill-rule:nonzero;stroke:none"
         id="path50"
         inkscape:connector-curvature="0" /><path
         d="m 1596.51,2250.68 30.66,-355.1 h -259.39 l -28.5,355.1 h 257.23"
         style="fill:#e7e8e5;fill-opacity:1;fill-rule:nonzero;stroke:none"
         id="path52"
         inkscape:connector-curvature="0" /><path
         d="m 1571.17,2222.52 26.86,-297.45 -194.71,-2.55 -26.31,301.71 194.16,-1.71"
         style="fill:#fafaf9;fill-opacity:1;fill-rule:nonzero;stroke:none"
         id="path54"
         inkscape:connector-curvature="0" /><path
         d="m 1529.86,2181.33 15.27,-204.66 h -103.86 l -18.32,204.66 h 106.91"
         style="fill:#dadbd8;fill-opacity:1;fill-rule:nonzero;stroke:none"
         id="path56"
         inkscape:connector-curvature="0" /><path
         d="m 4522.18,69.8906 c 0,-1.4414 -1012.4,-2.6015 -2260.98,-2.6015 -1249.01,0 -2261.20390625,1.1601 -2261.20390625,2.6015 C -0.00390625,71.332 1012.19,72.5 2261.2,72.5 c 1248.58,0 2260.98,-1.168 2260.98,-2.6094"
         style="fill:#17282f;fill-opacity:1;fill-rule:nonzero;stroke:none"
         id="path58"
         inkscape:connector-curvature="0" /><path
         d="M 2928.95,4282.22 H 231.273 v -1830 H 2928.95 v 1830 m 2.06,-1831.38 H 229.23 V 4283.58 H 2931.01 V 2450.84"
         style="fill:#fafaf9;fill-opacity:1;fill-rule:nonzero;stroke:none"
         id="path62"
         inkscape:connector-curvature="0" /><path
         d="M 2928.95,4282.22 H 231.273 v -1830 H 2928.95 v 1830 m 2.06,-1831.38 H 229.23 V 4283.58 H 2931.01 V 2450.84"
         style="fill:#fafaf9;fill-opacity:1;fill-rule:nonzero;stroke:none"
         id="path64"
         inkscape:connector-curvature="0" /><path
         d="M 3026.6,1862.67 H 1815.83 c -52.14,0 -94.41,42.27 -94.41,94.42 v 817.66 c 0,23.65 19.17,42.82 42.82,42.82 h 1313.97 c 23.64,0 42.81,-19.17 42.81,-42.82 v -817.66 c 0,-52.15 -42.27,-94.42 -94.42,-94.42"
         style="fill:#0c0305;fill-opacity:1;fill-rule:nonzero;stroke:none"
         id="path162"
         inkscape:connector-curvature="0" /><path
         d="m 3026.6,1862.67 c 0,0 1.01,0.14 2.98,0.29 1.98,0.24 4.95,0.11 8.81,0.8 7.72,0.94 19.28,3.55 32.75,10.66 13.19,7.32 28.33,19.84 38.59,39.67 5.1,9.83 8.81,21.41 9.95,34.13 0.85,12.68 0.17,26.52 0.32,41 -0.19,116.27 -0.48,284.32 -0.82,491.97 -0.06,51.93 -0.12,106.33 -0.17,163.01 -0.02,28.34 -0.05,57.26 -0.08,86.71 -0.02,14.72 -0.05,29.57 -0.07,44.56 -0.1,14.33 -8.58,28.27 -21.44,35.11 -6.46,3.38 -13.62,5.06 -21.13,4.81 -7.7,0 -15.43,-0.01 -23.19,-0.01 -15.53,-0.01 -31.17,-0.03 -46.95,-0.04 -31.55,-0.02 -63.6,-0.04 -96.13,-0.06 -65.05,-0.04 -131.99,-0.07 -200.64,-0.11 -274.63,-0.06 -576.54,-0.13 -893.44,-0.2 h -29.67 -14.81 c -1.13,-0.02 -2.26,-0.01 -3.37,0 -3.8,0.02 -7.46,0.04 -10.91,-0.66 -18.5,-2.92 -33.14,-20.23 -33.12,-38.81 -0.01,-39.12 -0.03,-77.98 -0.05,-116.55 -0.01,-77.18 -0.03,-153.23 -0.04,-227.96 -0.05,-149.45 -0.1,-293.61 -0.15,-430.95 0.17,-17.07 -0.42,-34.43 0.38,-50.95 1.47,-16.43 7.27,-32.43 16.89,-45.61 9.45,-13.32 22.48,-23.83 37.17,-30.42 14.76,-6.9 30.76,-8.5 47.02,-8.1 65.05,-0.04 128.21,-0.09 189.28,-0.13 122.12,-0.12 235.88,-0.23 339.74,-0.32 207.64,-0.34 375.67,-0.63 491.93,-0.82 58,-0.22 103.07,-0.38 133.74,-0.49 15.22,-0.12 26.85,-0.21 34.79,-0.27 7.83,-0.08 11.84,-0.26 11.84,-0.26 0,0 -4.01,-0.17 -11.84,-0.26 -7.94,-0.06 -19.57,-0.15 -34.79,-0.27 -30.67,-0.1 -75.74,-0.27 -133.74,-0.48 -116.26,-0.2 -284.29,-0.48 -491.93,-0.83 -103.86,-0.1 -217.62,-0.2 -339.74,-0.32 -61.07,-0.05 -124.23,-0.09 -189.28,-0.13 -16.12,-0.45 -33.6,1.21 -48.92,8.44 -15.43,6.92 -29.13,17.93 -39.09,31.92 -10.11,13.84 -16.24,30.67 -17.8,47.94 -0.85,17.33 -0.25,34.12 -0.45,51.36 -0.05,137.34 -0.1,281.5 -0.15,430.95 -0.02,74.73 -0.03,150.78 -0.04,227.96 0.01,38.6 0.02,77.5 0.03,116.64 0.12,10.39 4.09,20.66 10.82,28.59 6.69,7.99 16.32,13.41 26.59,15.25 4.05,0.79 8.04,0.77 11.87,0.74 1.12,0 2.23,-0.01 3.32,0 h 14.81 29.67 c 316.9,-0.07 618.81,-0.14 893.44,-0.2 68.65,-0.04 135.59,-0.08 200.64,-0.11 32.53,-0.02 64.58,-0.05 96.13,-0.06 15.78,-0.01 31.42,-0.02 46.95,-0.04 7.76,0 15.49,-0.01 23.19,-0.01 7.89,0.26 16.12,-1.61 23.18,-5.36 14.2,-7.58 23.55,-23.02 23.64,-38.84 0,-15.01 0,-29.9 0,-44.64 -0.03,-29.45 -0.06,-58.37 -0.08,-86.71 -0.06,-56.68 -0.12,-111.08 -0.17,-163.01 -0.35,-207.65 -0.63,-375.7 -0.83,-491.97 -0.24,-14.55 0.38,-28.15 -0.57,-41.17 -1.24,-12.96 -5.1,-24.71 -10.35,-34.68 -10.57,-20.06 -26.06,-32.61 -39.48,-39.88 -13.7,-7.04 -25.39,-9.48 -33.17,-10.27 -7.82,-0.74 -11.86,-0.55 -11.86,-0.55"
         style="fill:#17282f;fill-opacity:1;fill-rule:nonzero;stroke:none"
         id="path164"
         inkscape:connector-curvature="0" /><path
         d="m 2542.42,1862.67 h -243.08 c 0,0 -74.8,-124.72 0,-199.52 h 251.42 c 0,0 -123.93,81.15 -8.34,199.52"
         style="fill:#0a0a0a;fill-opacity:1;fill-rule:nonzero;stroke:none"
         id="path166"
         inkscape:connector-curvature="0" /><path
         d="m 2509.82,1820.48 h -0.01 c 7.39,12.97 17.57,26.55 31.13,40.66 0.05,0 0.07,0 0.12,0 -14.08,-15.92 -31.24,-40.66 -31.24,-40.66"
         style="fill:#a7a9a8;fill-opacity:1;fill-rule:nonzero;stroke:none"
         id="path168"
         inkscape:connector-curvature="0" /><path
         d="m 2540.94,1861.14 c 0.49,0.51 0.98,1.02 1.48,1.53 v 0 c -0.45,-0.5 -0.9,-1.01 -1.36,-1.53 -0.05,0 -0.07,0 -0.12,0"
         style="fill:#0f191d;fill-opacity:1;fill-rule:nonzero;stroke:none"
         id="path170"
         inkscape:connector-curvature="0" /><path
         d="m 2509.81,1820.48 -222.8,17.47 12.33,24.72 h 243.08 c -0.5,-0.51 -0.99,-1.02 -1.48,-1.53 -13.56,-14.11 -23.74,-27.69 -31.13,-40.66"
         style="fill:#010101;fill-opacity:1;fill-rule:nonzero;stroke:none"
         id="path172"
         inkscape:connector-curvature="0" /><path
         d="m 2478.5,1955.36 c 0,-15.22 -12.34,-27.56 -27.56,-27.56 -15.21,0 -27.55,12.34 -27.55,27.56 0,15.21 12.34,27.56 27.55,27.56 15.22,0 27.56,-12.35 27.56,-27.56"
         style="fill:#fafaf9;fill-opacity:1;fill-rule:nonzero;stroke:none"
         id="path174"
         inkscape:connector-curvature="0" /><path
         d="m 1788.52,2036.7 h 1265.4 v 728.27 h -1265.4 z"
         style="fill:#fafaf9;fill-opacity:1;fill-rule:nonzero;stroke:none"
         id="path176"
         inkscape:connector-curvature="0" /><path
         d="m 3053.92,2036.7 c 0,0 -0.15,4.54 -0.22,13.16 -0.05,8.72 -0.12,21.47 -0.22,38.14 -0.12,33.51 -0.28,82.66 -0.51,145.76 -0.25,126.13 -0.61,307.94 -1.06,531.2 l 2.01,-2 c -339.2,-0.16 -782.19,-0.37 -1265.3,-0.6 h -0.1 l 2.61,2.6 c -0.07,-257.71 -0.13,-503.98 -0.18,-728.26 l -2.43,2.43 c 370.52,-0.48 686.53,-0.89 910.07,-1.18 111.85,-0.29 200.53,-0.5 261.39,-0.66 30.36,-0.13 53.76,-0.23 69.71,-0.3 7.85,-0.06 13.86,-0.11 18.02,-0.15 4.06,-0.04 6.21,-0.14 6.21,-0.14 0,0 -1.96,-0.09 -5.92,-0.14 -4.1,-0.04 -10.01,-0.09 -17.75,-0.15 -15.83,-0.07 -39.06,-0.16 -69.21,-0.29 -60.73,-0.16 -149.23,-0.38 -260.84,-0.67 -223.94,-0.29 -540.51,-0.69 -911.68,-1.17 l -2.42,-0.01 v 2.43 c -0.06,224.28 -0.12,470.55 -0.18,728.26 v 2.61 h 2.6 0.1 c 483.11,-0.23 926.1,-0.44 1265.3,-0.6 h 2 v -2.01 c -0.45,-223.78 -0.81,-406.01 -1.06,-532.44 -0.22,-62.91 -0.39,-111.9 -0.51,-145.31 -0.1,-16.5 -0.17,-29.13 -0.22,-37.76 -0.08,-8.5 -0.21,-12.75 -0.21,-12.75"
         style="fill:#17282f;fill-opacity:1;fill-rule:nonzero;stroke:none"
         id="path178"
         inkscape:connector-curvature="0" /><path
         d="m 1802.71,2703.309 h 297.809 V 2054.52 H 1802.71 Z"
         style="fill:#66aafc;fill-opacity:0.97354497;fill-rule:nonzero;stroke:none"
         id="path180"
         inkscape:connector-curvature="0" /><path
         d="m 1802.71,2399.68 h 297.688 v 58.082 H 1802.71 Z"
         style="fill:#ffffff;fill-opacity:1;fill-rule:nonzero;stroke:none"
         id="path182"
         inkscape:connector-curvature="0" /><path
         d="m 1802.71,2281.1 h 297.688 v 58.0781 H 1802.71 Z"
         style="fill:#ffffff;fill-opacity:1;fill-rule:nonzero;stroke:none"
         id="path184"
         inkscape:connector-curvature="0" /><path
         d="m 1802.71,2197.5488 h 297.688 V 2133.33 H 1802.71 Z"
         style="fill:#eaeaea;fill-opacity:1;fill-rule:nonzero;stroke:none"
         id="path186"
         inkscape:connector-curvature="0" /><path
         d="m 2048.73,2369.22 c 0,-1.44 -42.88,-2.6 -95.75,-2.6 -52.9,0 -95.76,1.16 -95.76,2.6 0,1.43 42.86,2.6 95.76,2.6 52.87,0 95.75,-1.17 95.75,-2.6"
         style="fill:#17282f;fill-opacity:1;fill-rule:nonzero;stroke:none"
         id="path188"
         inkscape:connector-curvature="0" /><path
         d="m 2048.73,2429.82 c 0,-1.43 -42.88,-2.6 -95.75,-2.6 -52.9,0 -95.76,1.17 -95.76,2.6 0,1.45 42.86,2.61 95.76,2.61 52.87,0 95.75,-1.16 95.75,-2.61"
         style="fill:#17282f;fill-opacity:1;fill-rule:nonzero;stroke:none"
         id="path190"
         inkscape:connector-curvature="0" /><path
         d="m 2100.52,2133.33 c 0,-1.45 -66.07,-2.61 -147.54,-2.61 -81.5,0 -147.55,1.16 -147.55,2.61 0,1.43 66.05,2.59 147.55,2.59 81.47,0 147.54,-1.16 147.54,-2.59"
         style="fill:#17282f;fill-opacity:1;fill-rule:nonzero;stroke:none"
         id="path192"
         inkscape:connector-curvature="0" /><path
         d="m 2003.38,2308.02 c 0,-1.44 -32.72,-2.6 -73.08,-2.6 -40.37,0 -73.08,1.16 -73.08,2.6 0,1.44 32.71,2.61 73.08,2.61 40.36,0 73.08,-1.17 73.08,-2.61"
         style="fill:#17282f;fill-opacity:1;fill-rule:nonzero;stroke:none"
         id="path194"
         inkscape:connector-curvature="0" /><path
         d="m 2023.99,2172.41 c 0,-1.45 -32.73,-2.61 -73.08,-2.61 -40.37,0 -73.09,1.16 -73.09,2.61 0,1.43 32.72,2.6 73.09,2.6 40.35,0 73.08,-1.17 73.08,-2.6"
         style="fill:#17282f;fill-opacity:1;fill-rule:nonzero;stroke:none"
         id="path196"
         inkscape:connector-curvature="0" /><path
         d="m 2048.73,2240.95 c 0,-1.44 -42.88,-2.6 -95.75,-2.6 -52.9,0 -95.76,1.16 -95.76,2.6 0,1.44 42.86,2.61 95.76,2.61 52.87,0 95.75,-1.17 95.75,-2.61"
         style="fill:#17282f;fill-opacity:1;fill-rule:nonzero;stroke:none"
         id="path198"
         inkscape:connector-curvature="0" /><path
         d="m 2048.73,2095.31 c 0,-1.45 -42.88,-2.61 -95.75,-2.61 -52.9,0 -95.76,1.16 -95.76,2.61 0,1.43 42.86,2.6 95.76,2.6 52.87,0 95.75,-1.17 95.75,-2.6"
         style="fill:#17282f;fill-opacity:1;fill-rule:nonzero;stroke:none"
         id="path200"
         inkscape:connector-curvature="0" /><path
         d="m 1948.98,2585.57 c -13.81,0 -25,11.19 -25,25 0,13.81 11.19,25 25,25 13.81,0 25,-11.19 25,-25 0,-13.81 -11.19,-25 -25,-25 z m -1.4,73.98 c -39.17,0 -70.93,-31.76 -70.93,-70.93 0,-27.64 15.85,-51.53 38.92,-63.24 v 21.7 c 0,18.44 14.96,33.4 33.41,33.4 18.45,0 33.41,-14.96 33.41,-33.4 v -20.22 c 21.54,12.17 36.11,35.24 36.11,61.76 0,39.17 -31.75,70.93 -70.92,70.93"
         style="fill:#fafaf9;fill-opacity:1;fill-rule:nonzero;stroke:none"
         id="path202"
         inkscape:connector-curvature="0" /><path
         d="m 1948.98,2580.48 c -18.45,0 -33.41,-14.96 -33.41,-33.4 v -21.7 c 9.63,-4.88 20.48,-7.69 32.01,-7.69 12.66,0 24.52,3.36 34.81,9.17 v 20.22 c 0,18.44 -14.96,33.4 -33.41,33.4"
         style="fill:#66aafc;fill-opacity:0;fill-rule:nonzero;stroke:none"
         id="path204"
         inkscape:connector-curvature="0" /><path
         d="m 1948.98,2635.57 c -13.81,0 -25,-11.19 -25,-25 0,-13.81 11.19,-25 25,-25 13.81,0 25,11.19 25,25 0,13.81 -11.19,25 -25,25"
         style="fill:#1c0005;fill-opacity:1;fill-rule:nonzero;stroke:none"
         id="path206"
         inkscape:connector-curvature="0" /><path
         d="m 2018.95,2588.62 c -0.57,-0.04 -0.3,6.32 -3.2,17.07 -2.86,10.55 -10.03,25.98 -25.92,37.84 -7.88,5.8 -17.75,10.7 -29.11,12.64 -11.28,1.86 -23.98,1.45 -36.03,-3.19 -12.06,-4.37 -23.56,-12.59 -31.72,-23.95 -8.4,-11.2 -13.12,-25.58 -13.27,-40.4 0.15,-14.83 4.86,-29.21 13.26,-40.42 8.17,-11.36 19.66,-19.59 31.73,-23.95 12.06,-4.64 24.76,-5.05 36.04,-3.19 11.35,1.94 21.23,6.85 29.1,12.64 15.89,11.87 23.07,27.3 25.92,37.84 2.9,10.75 2.63,17.1 3.2,17.07 0.18,0 0.28,-1.56 0.3,-4.55 0.08,-2.99 -0.29,-7.44 -1.53,-13.02 -2.33,-10.98 -9.22,-27.37 -25.66,-40.27 -8.14,-6.3 -18.5,-11.7 -30.54,-13.95 -11.96,-2.18 -25.5,-1.91 -38.47,2.92 -12.96,4.55 -25.36,13.28 -34.2,25.44 -9.07,12 -14.22,27.5 -14.35,43.44 0.13,15.94 5.28,31.43 14.35,43.43 8.84,12.15 21.24,20.88 34.2,25.43 12.97,4.82 26.51,5.1 38.47,2.92 12.03,-2.25 22.4,-7.65 30.54,-13.95 16.43,-12.89 23.32,-29.28 25.66,-40.28 1.24,-5.57 1.61,-10.02 1.53,-13.01 -0.02,-2.99 -0.12,-4.55 -0.3,-4.55"
         style="fill:#fafaf9;fill-opacity:1;fill-rule:nonzero;stroke:none"
         id="path208"
         inkscape:connector-curvature="0" /><path
         d="m 3033.04,2659.55 h -932.52 v 43.76 h 932.52 v -43.76"
         style="fill:#f3f2f1;fill-opacity:1;fill-rule:nonzero;stroke:none"
         id="path212"
         inkscape:connector-curvature="0" /><path
         d="m 2853.14,2673.08 h -41.89 c -3.97,0 -7.19,3.22 -7.19,7.19 v 2.74 c 0,3.97 3.22,7.2 7.19,7.2 h 41.89 c 3.97,0 7.19,-3.23 7.19,-7.2 v -2.74 c 0,-3.97 -3.22,-7.19 -7.19,-7.19"
         style="fill:#dadbd8;fill-opacity:1;fill-rule:nonzero;stroke:none"
         id="path216"
         inkscape:connector-curvature="0" /><path
         d="m 2897.28,2684.38 h -7.06 v 7.05 h 7.06 v -7.05"
         style="fill:#dadbd8;fill-opacity:1;fill-rule:nonzero;stroke:none"
         id="path218"
         inkscape:connector-curvature="0" /><path
         d="m 2897.28,2675.03 h -7.06 v 7.06 h 7.06 v -7.06"
         style="fill:#dadbd8;fill-opacity:1;fill-rule:nonzero;stroke:none"
         id="path220"
         inkscape:connector-curvature="0" /><path
         d="m 2908.24,2684.38 h -7.05 v 7.05 h 7.05 v -7.05"
         style="fill:#dadbd8;fill-opacity:1;fill-rule:nonzero;stroke:none"
         id="path222"
         inkscape:connector-curvature="0" /><path
         d="m 2908.24,2675.03 h -7.05 v 7.06 h 7.05 v -7.06"
         style="fill:#dadbd8;fill-opacity:1;fill-rule:nonzero;stroke:none"
         id="path224"
         inkscape:connector-curvature="0" /><path
         d="m 3033.04,2312.43 h -932.52 v 87.25 h 932.52 v -87.25"
         style="fill:#fafaf9;fill-opacity:1;fill-rule:nonzero;stroke:none"
         id="path234"
         inkscape:connector-curvature="0" /><path
         d="m 2149.41,2258.83 h -26.65 v 26.4 h 26.65 v -26.4"
         style="fill:#ffffff;fill-opacity:1;fill-rule:nonzero;stroke:none"
         id="path244"
         inkscape:connector-curvature="0" /><path
         d="m 2149.41,2172.87 h -26.65 v 26.39 h 26.65 v -26.39"
         style="fill:#ffffff;fill-opacity:1;fill-rule:nonzero;stroke:none"
         id="path252"
         inkscape:connector-curvature="0" /><path
         d="m 2149.41,2086.89 h -26.65 v 26.4 h 26.65 v -26.4"
         style="fill:#ffffff;fill-opacity:1;fill-rule:nonzero;stroke:none"
         id="path260"
         inkscape:connector-curvature="0" /><path
         d="m 2152.71,2518.52 h -26.4 v 26.39 h 26.4 v -26.39"
         style="fill:#ffffff;fill-opacity:1;fill-rule:nonzero;stroke:none"
         id="path268"
         inkscape:connector-curvature="0" /><path
         d="m 1844.24,2724.76 c 0,-4.39 -3.56,-7.95 -7.96,-7.95 -4.39,0 -7.95,3.56 -7.95,7.95 0,4.4 3.56,7.96 7.95,7.96 4.4,0 7.96,-3.56 7.96,-7.96"
         style="fill:#17282f;fill-opacity:1;fill-rule:nonzero;stroke:none"
         id="path280"
         inkscape:connector-curvature="0" /><path
         d="m 1875.25,2724.76 c 0,-4.39 -3.56,-7.95 -7.96,-7.95 -4.39,0 -7.95,3.56 -7.95,7.95 0,4.4 3.56,7.96 7.95,7.96 4.4,0 7.96,-3.56 7.96,-7.96"
         style="fill:#17282f;fill-opacity:1;fill-rule:nonzero;stroke:none"
         id="path282"
         inkscape:connector-curvature="0" /><path
         d="m 1906.25,2724.76 c 0,-4.39 -3.56,-7.95 -7.95,-7.95 -4.39,0 -7.95,3.56 -7.95,7.95 0,4.4 3.56,7.96 7.95,7.96 4.39,0 7.95,-3.56 7.95,-7.96"
         style="fill:#17282f;fill-opacity:1;fill-rule:nonzero;stroke:none"
         id="path284"
         inkscape:connector-curvature="0" /><path
         d="m 3033.04,2054.52 c -0.03,15.96 -0.47,268.42 -1.2,692.62 l 1.2,-1.19 c -328.6,-0.1 -759.69,-0.23 -1230.24,-0.37 h -0.09 l 1.56,1.56 c -0.04,-244.96 -0.07,-479.21 -0.11,-692.62 l -1.45,1.46 c 719.42,-0.86 1208.24,-1.43 1230.33,-1.46 -22.08,-0.02 -510.91,-0.61 -1230.33,-1.46 h -1.46 v 1.46 c -0.03,213.41 -0.07,447.66 -0.1,692.62 v 1.57 h 1.56 0.09 c 470.55,-0.14 901.64,-0.27 1230.24,-0.37 h 1.2 l -0.01,-1.2 c -0.73,-424.2 -1.16,-676.67 -1.19,-692.62"
         style="fill:#17282f;fill-opacity:1;fill-rule:nonzero;stroke:none"
         id="path286"
         inkscape:connector-curvature="0" /><path
         d="m 3634.5,69.8906 h -75.2 L 3391.55,1576.15 h 98.69 L 3634.5,69.8906"
         style="fill:#33535f;fill-opacity:1;fill-rule:nonzero;stroke:none"
         id="path288"
         inkscape:connector-curvature="0" /><path
         d="m 3158.99,69.8906 h -75.21 L 2914.77,1576.15 h 98.68 L 3158.99,69.8906"
         style="fill:#33535f;fill-opacity:1;fill-rule:nonzero;stroke:none"
         id="path290"
         inkscape:connector-curvature="0" /><path
         d="M 3657.58,1576.15 H 1006.76 v 87 h 2650.82 v -87"
         style="fill:#33535f;fill-opacity:1;fill-rule:nonzero;stroke:none"
         id="path292"
         inkscape:connector-curvature="0" /><path
         d="m 1556.95,69.8906 h 75.2 L 1793.5,1576.15 h -98.68 L 1556.95,69.8906"
         style="fill:#17282f;fill-opacity:1;fill-rule:nonzero;stroke:none"
         id="path294"
         inkscape:connector-curvature="0" /><path
         d="m 911.828,69.8906 h 75.207 L 1155.88,1576.15 H 1057.2 L 911.828,69.8906"
         style="fill:#17282f;fill-opacity:1;fill-rule:nonzero;stroke:none"
         id="path296"
         inkscape:connector-curvature="0" /><path
         d="m 1823.48,1663.15 v -87 h -816.72 v 87 h 816.72"
         style="fill:#17282f;fill-opacity:1;fill-rule:nonzero;stroke:none"
         id="path298"
         inkscape:connector-curvature="0" /><path
         d="m 2761.48,1663.15 h -563.97 v 26.01 h 563.97 v -26.01"
         style="fill:#17282f;fill-opacity:1;fill-rule:nonzero;stroke:none"
         id="path300"
         inkscape:connector-curvature="0" /><path
         d="M 3401.78,412.621 3455.12,119.57 3090.86,51.3203 c -4.39,35.1992 170.98,140.3597 170.98,140.3597 l -41.89,186.371 181.83,34.57"
         style="fill:#4d5765;fill-opacity:1;fill-rule:nonzero;stroke:none"
         id="path302"
         inkscape:connector-curvature="0" /><path
         d="m 3370.95,200.02 c -0.26,0 -0.51,0.011 -0.77,0.019 -7.41,0.481 -15.3,8.672 -14.17,16.012 0.98,6.418 7.76,12.73 14.19,12.73 0.91,0 1.81,-0.121 2.69,-0.402 6.8,-1.289 12.38,-7.891 12.09,-14.859 -0.29,-7.168 -6.9,-13.5 -14.03,-13.5 m 2,28.339 v 0"
         style="fill:#201417;fill-opacity:1;fill-rule:nonzero;stroke:none"
         id="path304"
         inkscape:connector-curvature="0" /><path
         d="m 3090.86,51.3203 c -2.23,6.2383 1.5,12.1602 5.2,16.1485 0.33,0 0.56,0 0.9,0 -4.39,-6.25 -6.65,-11.7383 -6.1,-16.1485 l 86.41,16.1914 v 0 l -86.41,-16.1914"
         style="fill:#ffffff;fill-opacity:1;fill-rule:nonzero;stroke:none"
         id="path306"
         inkscape:connector-curvature="0" /><path
         d="m 3096.06,67.4688 c 0.84,0.9218 1.69,1.7304 2.46,2.4218 h 0.2 c -0.62,-0.8203 -1.21,-1.6289 -1.76,-2.4218 -0.34,0 -0.57,0 -0.9,0"
         style="fill:#9ba6a6;fill-opacity:1;fill-rule:nonzero;stroke:none"
         id="path308"
         inkscape:connector-curvature="0" /><path
         d="m 3098.72,69.8906 h -0.2 c 0.22,0.1992 0.43,0.3789 0.64,0.5586 -0.15,-0.1875 -0.29,-0.3672 -0.44,-0.5586"
         style="fill:#a6b7b9;fill-opacity:1;fill-rule:nonzero;stroke:none"
         id="path310"
         inkscape:connector-curvature="0" /><path
         d="m 3090.86,51.3203 c -0.55,4.4102 1.71,9.8985 6.1,16.1485 0.55,0.7929 1.14,1.6015 1.76,2.4218 0.15,0.1914 0.29,0.3711 0.44,0.5586 1.52,1.3125 2.62,2.0508 2.62,2.0508 l 346.82,76.391 6.52,-29.321 -277.85,-52.0583 -86.41,-16.1914"
         style="fill:#fffefe;fill-opacity:0.56084657;fill-rule:nonzero;stroke:none"
         id="path312"
         inkscape:connector-curvature="0" /><path
         d="m 3255.58,192.441 c 0.4,-1.769 9.44,-0.91 19.27,-4.992 9.93,-3.828 15.88,-10.687 17.38,-9.668 1.58,0.641 -3.07,10.789 -15.05,15.52 -11.93,4.828 -22.28,0.699 -21.6,-0.86"
         style="fill:#17282f;fill-opacity:1;fill-rule:nonzero;stroke:none"
         id="path314"
         inkscape:connector-curvature="0" /><path
         d="m 3220.33,169.48 c -0.07,-1.808 8.2,-3.39 15.64,-9.781 7.64,-6.168 10.69,-14.019 12.44,-13.609 1.73,0.039 1.01,10.68 -8.41,18.461 -9.33,7.847 -19.94,6.629 -19.67,4.929"
         style="fill:#17282f;fill-opacity:1;fill-rule:nonzero;stroke:none"
         id="path316"
         inkscape:connector-curvature="0" /><path
         d="m 3207.2,119.68 c 1.69,-0.078 2.5,9.281 -3.89,18.172 -6.33,8.918 -15.44,11.199 -15.91,9.578 -0.74,-1.649 5.65,-5.871 10.79,-13.25 5.3,-7.25 7.21,-14.649 9.01,-14.5"
         style="fill:#17282f;fill-opacity:1;fill-rule:nonzero;stroke:none"
         id="path318"
         inkscape:connector-curvature="0" /><path
         d="m 3250.74,235.961 c 1.06,-1.469 8.75,2.5 18.94,3.699 10.16,1.422 18.61,-0.488 19.26,1.199 0.78,1.481 -8.09,6.641 -20.06,5.051 -11.98,-1.488 -19.27,-8.711 -18.14,-9.949"
         style="fill:#17282f;fill-opacity:1;fill-rule:nonzero;stroke:none"
         id="path320"
         inkscape:connector-curvature="0" /><path
         d="m 3251.33,280.809 c 0.12,-0.739 7.35,-0.52 18.22,3.511 5.41,2.012 11.65,5.078 17.99,9.45 3.17,2.171 6.35,4.671 9.44,7.511 1.47,1.391 3.26,2.86 4.7,5.328 1.62,2.223 1.86,7.153 -0.95,9.61 -2.4,2.453 -5.92,3.043 -8.56,2.601 -2.7,-0.41 -4.77,-1.351 -6.67,-2.218 -3.87,-1.743 -7.42,-3.801 -10.6,-6.02 -6.37,-4.461 -11.28,-9.531 -14.76,-14.191 -6.99,-9.411 -8.62,-16.59 -7.95,-16.821 0.91,-0.441 3.98,5.891 11.37,13.969 3.69,4.012 8.54,8.371 14.56,12.223 3.01,1.898 6.31,3.679 9.86,5.187 3.67,1.731 6.94,2.383 8.26,0.84 0.48,-0.578 0.58,-0.84 -0.02,-2.117 -0.64,-1.192 -2.01,-2.512 -3.46,-3.883 -2.83,-2.707 -5.73,-5.141 -8.61,-7.32 -5.76,-4.34 -11.43,-7.629 -16.36,-10.059 -9.9,-4.871 -16.67,-6.64 -16.46,-7.601"
         style="fill:#17282f;fill-opacity:1;fill-rule:nonzero;stroke:none"
         id="path322"
         inkscape:connector-curvature="0" /><path
         d="m 3254.12,278.699 c 0.69,-0.16 3.02,6.871 1.52,18.512 -0.77,5.769 -2.66,12.59 -6.23,19.508 -1.81,3.453 -4.04,6.91 -6.73,10.211 -2.8,3.199 -6.31,7.531 -13.36,7.031 -3.63,-0.539 -6.09,-3.922 -6.67,-6.512 -0.74,-2.699 -0.59,-4.859 -0.62,-7.039 0.13,-4.39 0.99,-8.539 2.29,-12.289 2.61,-7.539 6.98,-13.402 11.33,-17.391 8.88,-8.109 16.71,-8.839 16.74,-8.21 0.42,1 -6.42,3.281 -13.56,11.32 -3.52,3.98 -7.02,9.43 -8.98,16.07 -1,3.309 -1.62,6.891 -1.64,10.602 -0.16,3.98 0.71,7.379 2.23,7.25 1.8,0.367 5.43,-1.973 7.5,-4.782 2.48,-2.921 4.59,-5.968 6.37,-9.039 3.51,-6.152 5.69,-12.269 6.94,-17.543 2.5,-10.597 1.86,-17.617 2.87,-17.699"
         style="fill:#17282f;fill-opacity:1;fill-rule:nonzero;stroke:none"
         id="path324"
         inkscape:connector-curvature="0" /><path
         d="M 2977.21,365.391 3034.45,73.0586 2671.12,0.0117188 C 2666.26,35.1289 2840.22,142.609 2840.22,142.609 l -44.36,185.801 181.35,36.981"
         style="fill:#4d5765;fill-opacity:0.99470901;fill-rule:nonzero;stroke:none"
         id="path326"
         inkscape:connector-curvature="0" /><path
         d="m 2949.05,152.391 c -0.2,0 -0.41,0.007 -0.61,0.019 -7.42,0.379 -15.42,8.449 -14.38,15.82 0.9,6.469 7.69,12.918 14.15,12.918 0.87,0 1.73,-0.117 2.57,-0.367 6.81,-1.211 12.47,-7.73 12.28,-14.699 -0.2,-7.23 -6.81,-13.691 -14.01,-13.691 m 1.78,28.379 v 0"
         style="fill:#f89db4;fill-opacity:1;fill-rule:nonzero;stroke:none"
         id="path328"
         inkscape:connector-curvature="0" /><path
         d="m 2671.12,0.0117188 c -3,8.0000012 3.97,15.6093812 8.01,19.1796812 -5.69,-7.543 -8.71,-14.12109 -8.01,-19.1796812 L 3006.46,67.4414 v 0 L 2671.12,0.0117188"
         style="fill:#ffffff;fill-opacity:1;fill-rule:nonzero;stroke:none"
         id="path330"
         inkscape:connector-curvature="0" /><path
         d="m 2671.12,0.0117188 c -0.7,5.0585912 2.32,11.6366812 8.01,19.1796812 1.52,1.3477 2.63,2.1172 2.63,2.1172 l 345.76,80.9924 6.93,-29.2424 -27.99,-5.6172 -335.34,-67.4296812"
         style="fill:#ffffff;fill-opacity:0.56078434;fill-rule:nonzero;stroke:none"
         id="path332"
         inkscape:connector-curvature="0" /><path
         d="m 2833.96,143.289 c 0.41,-1.769 9.44,-0.789 19.31,-4.738 9.98,-3.692 16.03,-10.469 17.52,-9.442 1.57,0.672 -3.21,10.75 -15.25,15.321 -11.99,4.679 -22.3,0.402 -21.58,-1.141"
         style="fill:#17282f;fill-opacity:1;fill-rule:nonzero;stroke:none"
         id="path334"
         inkscape:connector-curvature="0" /><path
         d="m 2799.02,119.859 c -0.06,-1.808 8.23,-3.269 15.76,-9.57 7.72,-6.07 10.87,-13.8788 12.62,-13.4492 1.72,0.0625 0.86,10.6992 -8.66,18.3402 -9.44,7.742 -20.03,6.379 -19.72,4.679"
         style="fill:#17282f;fill-opacity:1;fill-rule:nonzero;stroke:none"
         id="path336"
         inkscape:connector-curvature="0" /><path
         d="m 2786.55,69.8984 c 1.68,-0.0586 2.37,9.3008 -4.15,18.1016 -6.44,8.8516 -15.58,11 -16.03,9.3711 -0.71,-1.6602 5.72,-5.7891 10.96,-13.1016 5.41,-7.1679 7.42,-14.5586 9.22,-14.3711"
         style="fill:#17282f;fill-opacity:1;fill-rule:nonzero;stroke:none"
         id="path338"
         inkscape:connector-curvature="0" /><path
         d="m 2828.54,186.738 c 1.07,-1.457 8.72,2.621 18.88,3.961 10.14,1.543 18.62,-0.258 19.24,1.449 0.76,1.493 -8.17,6.532 -20.12,4.782 -11.96,-1.641 -19.14,-8.969 -18,-10.192"
         style="fill:#17282f;fill-opacity:1;fill-rule:nonzero;stroke:none"
         id="path340"
         inkscape:connector-curvature="0" /><path
         d="m 2828.53,231.602 c 0.12,-0.75 7.35,-0.43 18.17,3.75 5.38,2.089 11.59,5.23 17.86,9.668 3.14,2.23 6.29,4.769 9.34,7.652 1.45,1.41 3.22,2.887 4.64,5.379 1.59,2.25 1.76,7.179 -1.1,9.597 -2.42,2.422 -5.94,2.973 -8.58,2.5 -2.7,-0.457 -4.76,-1.429 -6.63,-2.308 -3.86,-1.801 -7.37,-3.91 -10.54,-6.16 -6.31,-4.559 -11.14,-9.68 -14.56,-14.391 -6.86,-9.5 -8.41,-16.707 -7.73,-16.93 0.92,-0.418 3.9,5.95 11.19,14.133 3.63,4.059 8.43,8.469 14.39,12.399 2.99,1.949 6.26,3.769 9.8,5.32 3.64,1.789 6.91,2.469 8.24,0.961 0.49,-0.582 0.6,-0.832 0.01,-2.121 -0.63,-1.199 -1.97,-2.531 -3.41,-3.942 -2.79,-2.738 -5.66,-5.211 -8.5,-7.418 -5.72,-4.421 -11.34,-7.781 -16.24,-10.281 -9.83,-5 -16.58,-6.871 -16.35,-7.808"
         style="fill:#17282f;fill-opacity:1;fill-rule:nonzero;stroke:none"
         id="path342"
         inkscape:connector-curvature="0" /><path
         d="m 2831.35,229.52 c 0.68,-0.149 2.92,6.91 1.26,18.531 -0.84,5.758 -2.82,12.551 -6.48,19.429 -1.86,3.418 -4.13,6.852 -6.86,10.11 -2.85,3.172 -6.42,7.441 -13.46,6.859 -3.62,-0.597 -6.04,-4 -6.58,-6.609 -0.7,-2.699 -0.52,-4.86 -0.53,-7.039 0.19,-4.379 1.11,-8.531 2.46,-12.262 2.7,-7.508 7.16,-13.301 11.55,-17.238 8.99,-7.981 16.82,-8.61 16.85,-7.981 0.41,1.012 -6.46,3.192 -13.71,11.141 -3.57,3.918 -7.14,9.32 -9.2,15.949 -1.02,3.289 -1.7,6.871 -1.77,10.57 -0.21,3.981 0.61,7.379 2.13,7.29 1.8,0.39 5.46,-1.911 7.57,-4.688 2.52,-2.883 4.67,-5.922 6.49,-8.961 3.6,-6.101 5.86,-12.191 7.17,-17.449 2.65,-10.551 2.08,-17.57 3.11,-17.652"
         style="fill:#17282f;fill-opacity:1;fill-rule:nonzero;stroke:none"
         id="path344"
         inkscape:connector-curvature="0" /><path
         d="m 3189.23,306.961 -141.28,786.599 c -6.97,38.82 -3.61,78.79 9.74,115.9 32.12,89.25 116.77,148.75 211.62,148.75 h 498.36 l 325.65,-144.33 c 0,-117.71 -100.31,-210.46 -217.66,-201.25 l -531.82,41.72 76.63,-712.491 -231.24,-34.898"
         style="fill:#17282f;fill-opacity:1;fill-rule:nonzero;stroke:none"
         id="path346"
         inkscape:connector-curvature="0" /><path
         d="m 2777,265.32 -161.23,828.24 c -6.97,38.82 -3.61,78.79 9.75,115.9 32.11,89.25 116.77,148.75 211.61,148.75 h 498.36 l 325.66,-144.33 V 995.551 L 2911.67,1054.35 3009.84,318.352 2777,265.32"
         style="fill:#17282f;fill-opacity:1;fill-rule:nonzero;stroke:none"
         id="path348"
         inkscape:connector-curvature="0" /><path
         d="m 3009.84,318.352 c -0.18,-0.032 -0.77,3 -1.7,8.796 -0.96,6.262 -2.26,14.743 -3.89,25.422 -3.21,22.59 -7.74,54.45 -13.32,93.621 -10.81,79.52 -25.62,188.598 -42,309.098 -15.16,115.723 -28.94,220.902 -39.14,298.811 l 0.83,-1.33 c -35.7,24.55 -62.88,46.54 -82.33,60.87 -9.41,6.97 -16.87,12.49 -22.35,16.54 -5.14,3.74 -7.82,5.73 -7.71,5.9 0.04,0.08 0.79,-0.31 2.19,-1.15 1.66,-1.04 3.67,-2.31 6.14,-3.85 5.35,-3.47 13.12,-8.75 22.97,-15.74 19.84,-13.82 47.45,-35.4 83.19,-59.41 l 0.71,-0.48 0.12,-0.85 c 10.57,-77.862 24.84,-182.971 40.54,-298.631 15.79,-120.571 30.07,-229.719 40.49,-309.289 4.89,-39.258 8.86,-71.2 11.68,-93.828 1.22,-10.75 2.2,-19.27 2.91,-25.551 0.61,-5.852 0.84,-8.942 0.67,-8.949"
         style="fill:#33535f;fill-opacity:1;fill-rule:nonzero;stroke:none"
         id="path350"
         inkscape:connector-curvature="0" /><path
         d="m 2537.97,1687.32 35.35,66.25 c 4.15,6.17 11.21,9.72 18.64,9.37 l 15.8,-0.75 26.9,25.12 h 31.42 l 24.19,16.14 93.26,-17.94 76.74,-20.63 -43.69,-86.74 -43.81,9.23 -73.54,1.26 c -21.28,0.37 -41.59,8.92 -56.73,23.89 -13.06,12.92 -30.71,20.18 -49.1,20.18 0,0 -23.09,-51.64 -55.43,-45.38"
         style="fill:#f8a58d;fill-opacity:1;fill-rule:nonzero;stroke:none"
         id="path352"
         inkscape:connector-curvature="0" /><path
         d="m 3600.59,2684.7 1.46,-478.85 -205.44,-9.8 -5.93,116.47 c 0,0 -72.97,-14.49 -91.8,53.28 -12.02,43.29 -9.02,377.83 -9.02,377.83 l 310.73,-58.93"
         style="fill:#f8a58d;fill-opacity:1;fill-rule:nonzero;stroke:none"
         id="path354"
         inkscape:connector-curvature="0" /><path
         d="m 3604.18,2309.68 c 21.88,22.72 31.97,54.34 37.08,85.46 5.11,31.13 5.96,62.92 12.8,93.71 7.17,32.34 20.83,62.97 27.78,95.35 6.95,32.39 6.31,68.64 -12.87,95.64 0,0 -12.67,37.1 -66.92,40.12 0,0 -46.07,74.6 -114.14,68.08 -92.55,-8.86 -95.06,18.36 -158.82,28.42 -59.59,9.39 -70.66,-43.75 -70.66,-43.75 0,0 -32.75,-24.33 -34.27,-59.36 l -0.04,-0.93 c -1.32,-35.51 21.57,-67.55 55.23,-78.94 4.11,-1.39 8.24,-2.74 12.36,-4.07 11.65,-3.76 23.81,-7.7 32.48,-16.33 12.89,-12.84 14.99,-32.84 14.33,-51.02 -0.67,-18.18 -3.25,-36.99 2.9,-54.11 2.09,-5.83 7.1,-12.23 13.09,-10.64 7.14,1.9 6.83,11.85 7.52,19.21 2.03,21.43 29.58,37.71 48.96,22.02 12.11,-9.8 16.54,-25.82 9.83,-39.88 -7.18,-15.09 -22.89,-26.88 -25.93,-43.6 -5.14,-28.15 27.91,-52.77 40.49,-68.08 4.44,-5.4 9.06,-10.62 14.41,-15.12 27.25,-22.96 53.97,-54.69 89.85,-67.1 24.04,-8.32 53.3,-6.21 71.58,11.49"
         style="fill:#17282f;fill-opacity:1;fill-rule:nonzero;stroke:none"
         id="path356"
         inkscape:connector-curvature="0" /><path
         d="m 3360.61,2219.19 c -45.3,-32.33 -26.67,-119.14 -27.29,-164.67 -1.36,-101.63 8.29,-196.99 13.61,-212.94 7.77,-23.31 35.92,-221.93 35.92,-221.93 l -47.36,-261.44 c 0,0 61.18,-156.11 325.66,-154.56 l 131.79,31.47 c 65.87,15.75 110.32,77.29 104.56,144.76 l -29.99,351.09 -39.94,284.95 c -10.45,149.51 -104.1,229.07 -223.77,220.56 l -243.19,-17.29"
         style="fill:#66aafc;fill-opacity:1;fill-rule:nonzero;stroke:none"
         id="path358"
         inkscape:connector-curvature="0" /><path
         d="m 3515.8,1221.83 c -17.13,3.59 -32.88,8.79 -46.65,15.95 -0.71,0.37 -1.37,0.9 -2,1.6 14.66,-6.51 30.84,-12.45 48.65,-17.55"
         style="fill:#0a1013;fill-opacity:1;fill-rule:nonzero;stroke:none"
         id="path360"
         inkscape:connector-curvature="0" /><path
         d="m 3840.02,1256.38 c 15.75,11.11 28.9,25.39 38.67,41.77 l 1.85,-29.6 c 0,0 -15.37,-5.12 -40.52,-12.17"
         style="fill:#0a1013;fill-opacity:1;fill-rule:nonzero;stroke:none"
         id="path362"
         inkscape:connector-curvature="0" /><path
         d="m 3587.63,1215.27 c -25.37,0 -49.74,1.94 -71.83,6.56 -17.81,5.1 -33.99,11.04 -48.65,17.55 -25.02,27.7 12.78,309.43 45.74,455.45 13.19,58.37 30.69,118.71 72.15,161.85 32.67,33.96 77.6,54.06 123.57,64.4 45.97,10.33 83.34,11.62 130.45,12.87 l 39.63,-635.8 c -9.77,-16.38 -22.92,-30.66 -38.67,-41.77 -56.03,-15.73 -160.67,-41.11 -252.39,-41.11"
         style="fill:#3472be;fill-opacity:0.55026454;fill-rule:nonzero;stroke:none"
         id="path364"
         inkscape:connector-curvature="0" /><path
         d="m 3360.61,2219.19 c 0,0 -86.02,-11.14 -128.58,-99.42 -33.32,-69.12 -179.01,-356.86 -179.01,-356.86 l -222.73,14.85 -44.54,-101.6 305.64,-81.96 c 62.96,-12.06 117.97,26.35 149,83.14 l 128,234.18 -7.78,307.67"
         style="fill:#66aafc;fill-opacity:1;fill-rule:nonzero;stroke:none"
         id="path366"
         inkscape:connector-curvature="0" /><path
         d="m 3382.85,2219.19 c 0,0 -5.59,50.89 1.75,59.62 7.35,8.72 228.31,7.27 228.31,7.27 l 11.63,-58.34 -24.6,-43.62 -210.19,-18.28 -6.9,53.35"
         style="fill:#66aafc;fill-opacity:0.98941797;fill-rule:nonzero;stroke:none"
         id="path368"
         inkscape:connector-curvature="0" /><path
         d="m 3079.5,1712.71 c -1.04,-0.9 -9.61,7.76 -16.19,21.1 -6.64,13.3 -8.34,25.37 -6.99,25.66 1.45,0.37 5.3,-10.63 11.66,-23.34 6.27,-12.76 12.7,-22.48 11.52,-23.42"
         style="fill:#17282f;fill-opacity:1;fill-rule:nonzero;stroke:none"
         id="path370"
         inkscape:connector-curvature="0" /><path
         d="m 3398.59,1991.04 c 1.31,-0.6 -13.45,-35.94 -32.94,-78.94 -19.51,-43.01 -36.38,-77.39 -37.69,-76.79 -1.31,0.59 13.44,35.94 32.94,78.94 19.5,43 36.38,77.39 37.69,76.79"
         style="fill:#17282f;fill-opacity:1;fill-rule:nonzero;stroke:none"
         id="path372"
         inkscape:connector-curvature="0" /><path
         d="m 3622.69,2237.05 c 0.15,0.05 1.28,-2.26 1.3,-7 0.22,-4.49 -2.55,-12.76 -11.71,-15.94 l -0.1,-0.03 -0.27,-0.02 c -23.15,-1.46 -60.37,-3.19 -102.29,-4.67 -35.64,-1.27 -67.64,-2.12 -91.29,-2.48 -11.84,0.25 -21.46,2.78 -27.37,5.95 -5.93,3.19 -8.28,6.18 -8.11,6.33 0.3,0.38 3.08,-2.03 8.96,-4.5 5.89,-2.45 15.05,-4.31 26.56,-4.1 23,1.29 55.45,2.74 91.01,4 41.98,1.49 79.28,2.41 102.48,2.61 l -0.37,-0.05 c 7.44,2.18 10.55,8.85 10.82,13.04 0.5,4.33 -0.03,6.8 0.38,6.86"
         style="fill:#17282f;fill-opacity:1;fill-rule:nonzero;stroke:none"
         id="path374"
         inkscape:connector-curvature="0" /><path
         d="m 3254.87,2155.16 c 1.28,-0.66 -42.51,-87.77 -97.78,-194.55 -55.29,-106.82 -101.13,-192.83 -102.41,-192.18 -1.28,0.67 42.49,87.77 97.78,194.57 55.28,106.78 101.13,192.83 102.41,192.16"
         style="fill:#17282f;fill-opacity:1;fill-rule:nonzero;stroke:none"
         id="path376"
         inkscape:connector-curvature="0" /><path
         d="m 3338.65,2091.15 c 0.01,0.28 1.98,0.55 5.15,-0.8 3.06,-1.33 7.51,-4.57 9.54,-10.76 2.08,-6.13 0.02,-14.99 -7.12,-20.19 -3.57,-2.64 -8.33,-3.66 -12.72,-3.58 -4.45,0.03 -8.73,0.85 -12.89,1.14 -8.16,0.93 -15.52,-2.41 -20.33,-7.44 -4.9,-4.98 -6.67,-11.39 -6.6,-16.73 0.26,-10.99 6.04,-16.39 5.23,-16.87 -0.07,-0.55 -7.48,4.12 -8.91,16.68 -0.62,6.03 1.09,14.01 6.75,20.18 5.35,6.19 14.78,10.5 24.24,9.37 9.01,-0.91 17.06,-2.7 22.48,1.19 5.5,3.69 7.56,10.44 6.33,15.27 -1.18,5.03 -4.54,8.29 -6.98,9.96 -2.51,1.72 -4.26,2.17 -4.17,2.58"
         style="fill:#fafaf9;fill-opacity:1;fill-rule:nonzero;stroke:none"
         id="path378"
         inkscape:connector-curvature="0" /><path
         d="m 3633.91,2087.89 c 0.03,0.28 1.98,0.55 5.15,-0.8 3.07,-1.33 7.51,-4.57 9.56,-10.77 2.08,-6.12 0.02,-14.99 -7.13,-20.17 -3.57,-2.65 -8.32,-3.67 -12.73,-3.6 -4.44,0.03 -8.72,0.85 -12.88,1.16 -8.16,0.91 -15.52,-2.43 -20.33,-7.44 -4.9,-5 -6.68,-11.4 -6.59,-16.73 0.25,-11 6.03,-16.39 5.22,-16.88 -0.07,-0.56 -7.48,4.12 -8.9,16.68 -0.64,6.03 1.07,14.01 6.74,20.19 5.36,6.18 14.78,10.49 24.24,9.37 9.02,-0.92 17.06,-2.71 22.48,1.17 5.5,3.7 7.56,10.46 6.32,15.28 -1.17,5.03 -4.53,8.29 -6.96,9.96 -2.51,1.72 -4.28,2.17 -4.19,2.58"
         style="fill:#fafaf9;fill-opacity:1;fill-rule:nonzero;stroke:none"
         id="path380"
         inkscape:connector-curvature="0" /><path
         d="m 3630.32,1874.38 c 0.28,-0.1 0.07,-2.06 -2.01,-4.81 -2.02,-2.66 -6.23,-6.21 -12.72,-6.7 -6.45,-0.56 -14.56,3.57 -17.89,11.74 -1.71,4.11 -1.57,8.97 -0.44,13.23 1.09,4.3 2.91,8.26 4.2,12.22 2.85,7.71 1.36,15.66 -2.36,21.54 -3.67,5.94 -9.46,9.2 -14.66,10.4 -10.74,2.38 -17.36,-1.95 -17.63,-1.04 -0.53,0.21 5.79,6.28 18.33,4.65 6,-0.82 13.33,-4.39 17.97,-11.38 4.72,-6.68 6.65,-16.85 3.3,-25.78 -3.05,-8.52 -6.72,-15.92 -4.24,-22.11 2.28,-6.22 8.34,-9.84 13.32,-9.79 5.16,-0.06 9.13,2.42 11.34,4.38 2.26,2.02 3.12,3.63 3.49,3.45"
         style="fill:#fafaf9;fill-opacity:1;fill-rule:nonzero;stroke:none"
         id="path382"
         inkscape:connector-curvature="0" /><path
         d="m 3500.87,1571.53 c 0.27,-0.1 0.06,-2.06 -2.02,-4.83 -2.01,-2.64 -6.23,-6.19 -12.72,-6.68 -6.45,-0.56 -14.57,3.57 -17.9,11.74 -1.7,4.1 -1.57,8.97 -0.43,13.23 1.09,4.3 2.91,8.26 4.19,12.22 2.86,7.71 1.37,15.66 -2.35,21.54 -3.67,5.94 -9.46,9.19 -14.67,10.4 -10.73,2.38 -17.35,-1.95 -17.62,-1.04 -0.53,0.21 5.79,6.27 18.33,4.65 5.99,-0.83 13.34,-4.4 17.97,-11.39 4.72,-6.67 6.65,-16.84 3.3,-25.77 -3.05,-8.52 -6.72,-15.92 -4.24,-22.11 2.27,-6.22 8.34,-9.84 13.32,-9.79 5.15,-0.06 9.13,2.42 11.34,4.38 2.27,2.02 3.12,3.62 3.5,3.45"
         style="fill:#fafaf9;fill-opacity:1;fill-rule:nonzero;stroke:none"
         id="path384"
         inkscape:connector-curvature="0" /><path
         d="m 3766.21,2014.51 c 0.02,0.29 1.99,0.55 5.16,-0.8 3.06,-1.33 7.51,-4.56 9.54,-10.76 2.09,-6.12 0.02,-14.99 -7.12,-20.18 -3.56,-2.64 -8.33,-3.67 -12.72,-3.59 -4.46,0.02 -8.73,0.84 -12.89,1.15 -8.16,0.93 -15.52,-2.42 -20.34,-7.44 -4.89,-4.99 -6.67,-11.4 -6.59,-16.73 0.27,-10.99 6.05,-16.39 5.23,-16.87 -0.07,-0.56 -7.48,4.12 -8.9,16.68 -0.63,6.03 1.07,14.01 6.75,20.18 5.34,6.19 14.76,10.49 24.23,9.37 9.01,-0.92 17.06,-2.71 22.48,1.18 5.5,3.7 7.56,10.45 6.33,15.28 -1.19,5.02 -4.54,8.29 -6.98,9.95 -2.51,1.73 -4.26,2.17 -4.18,2.58"
         style="fill:#fafaf9;fill-opacity:1;fill-rule:nonzero;stroke:none"
         id="path386"
         inkscape:connector-curvature="0" /><path
         d="m 3457.86,1746.26 c -0.26,-0.13 -1.51,1.4 -1.99,4.82 -0.46,3.3 0.01,8.79 4.24,13.74 4.16,4.95 12.8,7.79 20.95,4.37 4.11,-1.67 7.46,-5.2 9.67,-9.01 2.29,-3.82 3.8,-7.89 5.71,-11.61 3.44,-7.45 10.12,-12.01 16.91,-13.52 6.81,-1.6 13.21,0.21 17.72,3.04 9.25,5.93 10.88,13.67 11.71,13.22 0.51,0.24 0.36,-8.53 -9.64,-16.27 -4.83,-3.66 -12.53,-6.33 -20.75,-4.69 -8.07,1.35 -16.64,7.18 -20.59,15.86 -3.9,8.17 -6.53,15.98 -12.68,18.6 -6,2.78 -12.85,1.04 -16.33,-2.52 -3.69,-3.61 -4.74,-8.17 -4.9,-11.12 -0.17,-3.04 0.36,-4.78 -0.03,-4.91"
         style="fill:#fafaf9;fill-opacity:1;fill-rule:nonzero;stroke:none"
         id="path388"
         inkscape:connector-curvature="0" /><path
         d="m 3472.38,1946.96 c 0.02,0.29 1.98,0.56 5.16,-0.79 3.06,-1.33 7.51,-4.57 9.54,-10.76 2.08,-6.13 0.02,-14.99 -7.13,-20.19 -3.56,-2.64 -8.32,-3.67 -12.72,-3.59 -4.44,0.03 -8.72,0.85 -12.88,1.15 -8.17,0.93 -15.52,-2.42 -20.33,-7.44 -4.91,-4.99 -6.68,-11.4 -6.6,-16.73 0.26,-10.99 6.04,-16.39 5.23,-16.87 -0.07,-0.55 -7.48,4.12 -8.91,16.68 -0.63,6.03 1.08,14.01 6.75,20.18 5.35,6.19 14.78,10.49 24.24,9.37 9.01,-0.91 17.06,-2.71 22.48,1.19 5.5,3.69 7.56,10.44 6.32,15.27 -1.17,5.02 -4.53,8.29 -6.97,9.96 -2.5,1.72 -4.26,2.16 -4.18,2.57"
         style="fill:#fafaf9;fill-opacity:1;fill-rule:nonzero;stroke:none"
         id="path390"
         inkscape:connector-curvature="0" /><path
         d="m 3466.37,1472 c 0.02,0.28 1.98,0.55 5.16,-0.8 3.05,-1.33 7.51,-4.57 9.54,-10.77 2.08,-6.12 0.02,-14.98 -7.12,-20.17 -3.57,-2.65 -8.33,-3.67 -12.73,-3.59 -4.45,0.02 -8.73,0.85 -12.89,1.15 -8.15,0.92 -15.52,-2.42 -20.33,-7.44 -4.89,-4.99 -6.67,-11.4 -6.59,-16.73 0.26,-11 6.04,-16.39 5.23,-16.88 -0.08,-0.55 -7.49,4.12 -8.9,16.68 -0.64,6.03 1.07,14.01 6.74,20.19 5.35,6.18 14.77,10.49 24.23,9.37 9.02,-0.91 17.07,-2.71 22.48,1.18 5.5,3.7 7.56,10.45 6.33,15.27 -1.18,5.03 -4.53,8.29 -6.97,9.96 -2.51,1.73 -4.27,2.17 -4.18,2.58"
         style="fill:#fafaf9;fill-opacity:1;fill-rule:nonzero;stroke:none"
         id="path392"
         inkscape:connector-curvature="0" /><path
         d="m 3183.53,1725.12 c 0.03,0.29 1.98,0.56 5.15,-0.8 3.07,-1.33 7.51,-4.57 9.55,-10.76 2.08,-6.12 0.02,-14.99 -7.12,-20.19 -3.57,-2.63 -8.32,-3.66 -12.73,-3.58 -4.45,0.03 -8.72,0.85 -12.88,1.14 -8.16,0.93 -15.52,-2.41 -20.34,-7.44 -4.89,-4.99 -6.67,-11.39 -6.58,-16.73 0.25,-10.98 6.03,-16.38 5.22,-16.86 -0.08,-0.56 -7.48,4.12 -8.9,16.68 -0.64,6.02 1.07,14 6.74,20.17 5.35,6.19 14.77,10.49 24.24,9.38 9.01,-0.92 17.06,-2.71 22.48,1.18 5.49,3.69 7.56,10.45 6.32,15.27 -1.18,5.03 -4.53,8.29 -6.97,9.96 -2.5,1.72 -4.27,2.17 -4.18,2.58"
         style="fill:#fafaf9;fill-opacity:1;fill-rule:nonzero;stroke:none"
         id="path394"
         inkscape:connector-curvature="0" /><path
         d="m 3258.97,1863.43 c 0.28,-0.05 0.37,-2.02 -1.27,-5.06 -1.59,-2.93 -5.23,-7.07 -11.57,-8.53 -6.29,-1.52 -14.94,1.34 -19.46,8.93 -2.3,3.78 -2.9,8.62 -2.43,12.99 0.44,4.43 1.64,8.62 2.32,12.73 1.66,8.04 -1,15.67 -5.57,20.93 -4.52,5.32 -10.74,7.67 -16.06,8.07 -10.97,0.74 -16.87,-4.52 -17.27,-3.67 -0.56,0.12 4.77,7.07 17.41,7.35 6.07,0.09 13.86,-2.34 19.48,-8.54 5.69,-5.89 9.11,-15.67 7.15,-24.99 -1.74,-8.89 -4.25,-16.75 -0.87,-22.49 3.19,-5.81 9.73,-8.48 14.64,-7.69 5.12,0.72 8.67,3.76 10.55,6.04 1.94,2.34 2.55,4.06 2.95,3.93"
         style="fill:#fafaf9;fill-opacity:1;fill-rule:nonzero;stroke:none"
         id="path396"
         inkscape:connector-curvature="0" /><path
         d="m 3475.12,2116.17 c 0.28,-0.06 0.37,-2.03 -1.27,-5.07 -1.59,-2.93 -5.22,-7.06 -11.57,-8.53 -6.29,-1.52 -14.93,1.34 -19.46,8.92 -2.31,3.8 -2.9,8.62 -2.43,13.01 0.44,4.42 1.64,8.6 2.32,12.72 1.67,8.04 -1,15.68 -5.57,20.93 -4.52,5.32 -10.74,7.68 -16.05,8.08 -10.98,0.74 -16.88,-4.54 -17.28,-3.69 -0.56,0.13 4.79,7.08 17.41,7.37 6.07,0.08 13.86,-2.35 19.5,-8.56 5.67,-5.89 9.1,-15.65 7.12,-24.98 -1.72,-8.89 -4.23,-16.75 -0.86,-22.5 3.19,-5.8 9.73,-8.47 14.64,-7.67 5.11,0.71 8.68,3.76 10.55,6.03 1.94,2.35 2.55,4.05 2.95,3.94"
         style="fill:#fafaf9;fill-opacity:1;fill-rule:nonzero;stroke:none"
         id="path398"
         inkscape:connector-curvature="0" /><path
         d="m 3764.88,2133.33 c 0.28,-0.06 0.38,-2.04 -1.26,-5.07 -1.61,-2.93 -5.24,-7.06 -11.59,-8.53 -6.29,-1.52 -14.93,1.34 -19.45,8.92 -2.3,3.8 -2.9,8.62 -2.42,13 0.43,4.43 1.63,8.61 2.31,12.73 1.66,8.04 -1,15.67 -5.56,20.92 -4.53,5.33 -10.75,7.68 -16.07,8.08 -10.96,0.74 -16.86,-4.53 -17.27,-3.68 -0.55,0.13 4.78,7.08 17.42,7.37 6.05,0.07 13.85,-2.35 19.48,-8.56 5.68,-5.89 9.11,-15.65 7.14,-24.98 -1.73,-8.9 -4.25,-16.75 -0.86,-22.5 3.17,-5.81 9.72,-8.48 14.63,-7.68 5.12,0.72 8.67,3.76 10.56,6.04 1.94,2.34 2.54,4.05 2.94,3.94"
         style="fill:#fafaf9;fill-opacity:1;fill-rule:nonzero;stroke:none"
         id="path400"
         inkscape:connector-curvature="0" /><path
         d="m 3002.49,1689.02 c 0.3,-0.05 0.38,-2.02 -1.26,-5.06 -1.6,-2.93 -5.23,-7.07 -11.58,-8.53 -6.28,-1.52 -14.93,1.33 -19.45,8.92 -2.31,3.79 -2.9,8.62 -2.42,13 0.43,4.42 1.64,8.61 2.31,12.72 1.66,8.05 -1.01,15.68 -5.57,20.93 -4.53,5.32 -10.74,7.68 -16.06,8.08 -10.97,0.74 -16.87,-4.52 -17.28,-3.67 -0.54,0.11 4.79,7.08 17.43,7.35 6.05,0.09 13.84,-2.34 19.48,-8.55 5.67,-5.88 9.11,-15.66 7.14,-24.99 -1.73,-8.88 -4.25,-16.74 -0.86,-22.49 3.18,-5.81 9.71,-8.47 14.64,-7.68 5.1,0.72 8.66,3.76 10.54,6.04 1.95,2.34 2.54,4.06 2.94,3.93"
         style="fill:#fafaf9;fill-opacity:1;fill-rule:nonzero;stroke:none"
         id="path402"
         inkscape:connector-curvature="0" /><path
         d="m 3466.93,949.34 -7.9,-879.4494 h 50.08 l 3.73,861.9494 c 0,0 2.51,39.39 32.56,42.012 30.05,2.628 480.04,-20.063 480.04,-20.063 L 4158.05,69.8906 h 57.59 L 4086.12,953.691 c 0,0 -377.94,127.829 -565.77,88.429 0,0 -45.06,8.32 -47.57,-26.26 -2.5,-34.571 -5.85,-66.52 -5.85,-66.52"
         style="fill:#dadbd8;fill-opacity:1;fill-rule:nonzero;stroke:none"
         id="path404"
         inkscape:connector-curvature="0" /><path
         d="m 3475.73,1050.96 c 0,0 78.15,609.77 106.28,713.34 15.48,56.97 54.59,91.34 86.66,110.73 23.9,14.46 51.44,21.65 79.36,21.04 l 415.11,-9.12 c 38.01,-0.83 66.55,-35.04 60.54,-72.6 L 4086.12,953.691 c -152.78,0.391 -510.19,0 -510.19,0 0,0 -488.97,53.389 -564.01,56.659 -46.94,2.05 -50.48,-15.998 -54.4,-35.67 0,0 1.53,-1.239 0,0 -44,35.66 -17.74,108.92 38.79,105.48 l 479.42,-29.2"
         style="fill:#33535f;fill-opacity:1;fill-rule:nonzero;stroke:none"
         id="path406"
         inkscape:connector-curvature="0" /><path
         d="m 4220.83,1845.12 c 0,-0.09 -1.2,-0.17 -3.56,-0.26 -2.62,-0.07 -6.08,-0.16 -10.46,-0.26 -9.51,-0.12 -23,-0.29 -40.22,-0.49 -35.25,-0.2 -85.71,-0.48 -147.94,-0.83 -31.25,-0.1 -65.44,-0.21 -102.14,-0.32 -18.37,-0.04 -37.36,-0.08 -56.92,-0.13 -9.77,-0.02 -19.69,-0.04 -29.75,-0.06 -10.05,-0.06 -20.34,0.19 -30.33,-0.63 -20.06,-2.12 -40.19,-9.62 -56.87,-22.69 -16.9,-12.74 -29.98,-31.02 -37.3,-51.7 -3.75,-10.32 -5.1,-21.42 -7.04,-32.75 -1.83,-11.27 -3.7,-22.64 -5.56,-34.09 -3.75,-22.9 -7.55,-46.13 -11.4,-69.64 -31.09,-187.95 -59.24,-358.08 -79.67,-481.58 -10.4,-61.34 -18.84,-111.1 -24.72,-145.85 -2.99,-16.949 -5.34,-30.238 -6.99,-39.61 -0.82,-4.3 -1.46,-7.699 -1.95,-10.281 -0.47,-2.301 -0.75,-3.488 -0.84,-3.469 -0.09,0.008 0.02,1.211 0.32,3.559 0.35,2.602 0.83,6.02 1.43,10.359 1.42,9.403 3.45,22.743 6.02,39.772 5.5,34.81 13.38,84.64 23.1,146.11 20.05,123.56 47.66,293.78 78.16,481.83 3.86,23.51 7.67,46.74 11.43,69.64 1.87,11.45 3.74,22.82 5.6,34.09 1.92,11.14 3.33,22.72 7.29,33.58 7.68,21.63 21.42,40.7 39.09,53.97 17.45,13.61 38.5,21.38 59.44,23.53 10.59,0.83 20.72,0.52 30.79,0.55 10.06,-0.02 19.98,-0.04 29.75,-0.06 19.56,-0.04 38.55,-0.09 56.92,-0.13 36.7,-0.12 70.89,-0.22 102.14,-0.32 62.23,-0.34 112.69,-0.63 147.94,-0.82 17.22,-0.22 30.71,-0.38 40.22,-0.49 4.38,-0.12 7.84,-0.2 10.46,-0.26 2.36,-0.09 3.56,-0.18 3.56,-0.27"
         style="fill:#17282f;fill-opacity:1;fill-rule:nonzero;stroke:none"
         id="path408"
         inkscape:connector-curvature="0" /><path
         d="M 2956.75,949.34 2933.96,69.8906 h 50.09 l 12.97,860.5704 c 0,0 0.62,51.23 39.65,46.969 29.98,-3.282 484.38,-56.098 484.38,-56.098 L 3674.04,69.8906 h 57.59 l -155.7,883.8004 -556.92,70.169 c -11.59,1.46 -23.54,0.07 -34,-5.13 -12.62,-6.3 -25.71,-18.878 -27.49,-44.05 -2.45,-34.578 -0.77,-25.34 -0.77,-25.34"
         style="fill:#e7e8e5;fill-opacity:1;fill-rule:nonzero;stroke:none"
         id="path410"
         inkscape:connector-curvature="0" /><path
         d="m 4093.32,1888.48 c 0,0 -280.41,-911.66 -617.59,-837.52 l 5.56,42.99 c 0,0 260.64,-43.3 567.31,795.52 l 44.72,-0.99"
         style="fill:#000102;fill-opacity:1;fill-rule:nonzero;stroke:none"
         id="path412"
         inkscape:connector-curvature="0" /><path
         d="m 3499.82,1061.18 c 1.32,-94.668 20,-189.071 54.84,-277.098 10.13,-25.59 23.44,-52.602 48.22,-64.562 24.55,-11.848 53.66,-5.711 79.93,1.539 65.36,18.023 129.2,41.511 190.65,70.171 22.55,10.508 46.18,23.051 57.72,45.09 13.77,26.27 6.52,58.18 -1.34,86.782 -25.25,91.858 -53.59,182.858 -84.95,272.798 -6.54,18.75 -36.55,91.09 -36.55,91.09"
         style="fill:#66aafc;fill-opacity:0.98941797;fill-rule:nonzero;stroke:none"
         id="path414"
         inkscape:connector-curvature="0" /><path
         d="m 3842.02,1179.04 c 0.18,-0.01 0.23,-1.69 0.14,-4.87 -0.03,-3.21 -0.34,-7.9 -0.88,-13.94 -1.13,-12.07 -3.69,-29.52 -9.54,-50.49 -6,-20.87 -15.49,-45.32 -31.08,-69.66 -15.43,-24.36 -37.57,-48.131 -65.53,-66.459 -28.02,-18.191 -59.08,-28.762 -88.03,-30.801 -28.98,-2.218 -55.13,3.239 -75.42,11.192 -20.33,8.136 -34.99,18.457 -44.05,26.539 -4.52,4.09 -7.88,7.39 -9.92,9.879 -2.12,2.39 -3.17,3.699 -3.04,3.82 0.41,0.379 4.87,-4.641 14.26,-12.148 9.33,-7.493 24.02,-17.122 44.06,-24.653 20.01,-7.34 45.58,-12.258 73.72,-9.859 28.1,2.25 58.25,12.648 85.58,30.39 27.27,17.891 49.01,40.98 64.33,64.72 15.52,23.71 25.23,47.61 31.6,68.09 6.22,20.56 9.3,37.77 11.05,49.68 1.74,11.94 2.3,18.6 2.75,18.57"
         style="fill:#17282f;fill-opacity:1;fill-rule:nonzero;stroke:none"
         id="path416"
         inkscape:connector-curvature="0" /><path
         d="m 3709.22,925.512 c -1.43,0.097 -1.28,19.636 0.34,43.648 1.62,24 4.1,43.37 5.54,43.28 1.44,-0.1 1.28,-19.631 -0.34,-43.639 -1.62,-24 -4.1,-43.371 -5.54,-43.289"
         style="fill:#17282f;fill-opacity:1;fill-rule:nonzero;stroke:none"
         id="path418"
         inkscape:connector-curvature="0" /><flowRoot
         xml:space="preserve"
         id="flowRoot967"
         style="font-style:normal;font-variant:normal;font-weight:normal;font-stretch:normal;font-size:37.33333206px;line-height:1.25;font-family:quicksand;-inkscape-font-specification:quicksand;letter-spacing:0px;word-spacing:0px;fill:#66aafc;fill-opacity:0.968254;stroke:none"
         transform="matrix(7.5000002,0,0,-7.5000002,34.04206,4297.8443)"><flowRegion
           id="flowRegion969"
           style="font-style:normal;font-variant:normal;font-weight:normal;font-stretch:normal;font-family:quicksand;-inkscape-font-specification:quicksand;fill:#66aafc;fill-opacity:0.968254"><rect
             id="rect971"
             width="99.786072"
             height="55.436707"
             x="292.77512"
             y="-281.62323"
             style="font-style:normal;font-variant:normal;font-weight:normal;font-stretch:normal;font-family:quicksand;-inkscape-font-specification:quicksand;fill:#66aafc;fill-opacity:0.968254"
             transform="scale(1,-1)" /></flowRegion><flowPara
           id="flowPara973"
           style="font-style:normal;font-variant:normal;font-weight:bold;font-stretch:normal;font-family:sans-serif;-inkscape-font-specification:'sans-serif Bold';fill:#66aafc;fill-opacity:0.968254"
           transform="matrix(1,0,0,-1,0,507.80978)">404</flowPara></flowRoot></g></g></svg>