<?xml version="1.0" encoding="UTF-8" standalone="no"?>
<!-- Created with Inkscape (http://www.inkscape.org/) -->

<svg
   xmlns:dc="http://purl.org/dc/elements/1.1/"
   xmlns:cc="http://creativecommons.org/ns#"
   xmlns:rdf="http://www.w3.org/1999/02/22-rdf-syntax-ns#"
   xmlns:svg="http://www.w3.org/2000/svg"
   xmlns="http://www.w3.org/2000/svg"
   xmlns:sodipodi="http://sodipodi.sourceforge.net/DTD/sodipodi-0.dtd"
   xmlns:inkscape="http://www.inkscape.org/namespaces/inkscape"
   version="1.1"
   id="svg2"
   xml:space="preserve"
   width="876.20001"
   height="602.61334"
   viewBox="0 0 876.20001 602.61334"
   sodipodi:docname="girl-jumping-success.svg"
   inkscape:version="0.92.5 (2060ec1f9f, 2020-04-08)"><metadata
     id="metadata8"><rdf:RDF><cc:Work
         rdf:about=""><dc:format>image/svg+xml</dc:format><dc:type
           rdf:resource="http://purl.org/dc/dcmitype/StillImage" /><dc:title /></cc:Work></rdf:RDF></metadata><defs
     id="defs6"><clipPath
       clipPathUnits="userSpaceOnUse"
       id="clipPath44"><path
         d="m 2558.9,2471.77 c 139.7,-8.39 118.02,-238.22 142.06,-369.35 24.04,-131.12 163.92,-533.26 65.57,-607.57 -98.35,-74.31 -194.51,-30.6 -231.66,113.65 -37.16,144.24 -168.29,439.28 -135.51,651.27 32.79,212 -59.01,225.11 159.54,212 z"
         id="path42"
         inkscape:connector-curvature="0" /></clipPath><linearGradient
       x1="0"
       y1="0"
       x2="1"
       y2="0"
       gradientUnits="userSpaceOnUse"
       gradientTransform="matrix(404.316,520.147,520.147,-404.316,2271.05,1564.97)"
       spreadMethod="pad"
       id="linearGradient50"><stop
         style="stop-opacity:1;stop-color:#aa5f1c"
         offset="0"
         id="stop46" /><stop
         style="stop-opacity:1;stop-color:#f5831f"
         offset="1"
         id="stop48" /></linearGradient><clipPath
       clipPathUnits="userSpaceOnUse"
       id="clipPath92"><path
         d="m 2556.72,1468.63 c -181.17,-50.82 -266.63,225.11 -356.23,301.59 0,0 -50.27,39.35 30.59,104.91 80.87,65.56 163.91,6.56 163.91,6.56 0,0 340.94,-362.8 161.73,-413.06 z"
         id="path90"
         inkscape:connector-curvature="0" /></clipPath><linearGradient
       x1="0"
       y1="0"
       x2="1"
       y2="0"
       gradientUnits="userSpaceOnUse"
       gradientTransform="matrix(172.654,-548.559,-548.559,-172.654,2245.88,2155.88)"
       spreadMethod="pad"
       id="linearGradient98"><stop
         style="stop-opacity:1;stop-color:#aa5f1c"
         offset="0"
         id="stop94" /><stop
         style="stop-opacity:1;stop-color:#f5831f"
         offset="1"
         id="stop96" /></linearGradient><clipPath
       clipPathUnits="userSpaceOnUse"
       id="clipPath176"><path
         d="m 4355.04,4350.13 c 9.39,18.77 27.32,38.79 28.96,64.47 1.64,25.67 -1.64,35.51 20.76,46.44 22.4,10.92 36.61,37.7 35.52,50.26 -1.1,12.57 -25.14,-12.56 -45.9,-25.13 -20.76,-12.56 -43.17,-26.78 -52.45,-51.9 -9.29,-25.14 -31.69,-71.04 -26.77,-79.78 4.91,-8.74 38.79,-6.55 39.88,-4.36 z"
         id="path174"
         inkscape:connector-curvature="0" /></clipPath><linearGradient
       x1="0"
       y1="0"
       x2="1"
       y2="0"
       gradientUnits="userSpaceOnUse"
       gradientTransform="matrix(-106.361,-276.829,-276.829,106.361,4468.53,4672.32)"
       spreadMethod="pad"
       id="linearGradient182"><stop
         style="stop-opacity:1;stop-color:#ef6291"
         offset="0"
         id="stop178" /><stop
         style="stop-opacity:1;stop-color:#f9afc0"
         offset="1"
         id="stop180" /></linearGradient><clipPath
       clipPathUnits="userSpaceOnUse"
       id="clipPath198"><path
         d="m 4134.67,3397.07 c -51,61.19 -80.14,53.9 -53.91,129.67 26.23,75.76 83.05,371.53 113.65,520.15 30.59,148.61 70.48,219.64 70.48,219.64 0,0 75.94,14.2 86.87,-9.84 0,0 -21.86,-246.96 -54.64,-509.22 -32.78,-262.26 -100.53,-465.51 -107.09,-454.58 -6.55,10.93 -55.36,104.18 -55.36,104.18"
         id="path196"
         inkscape:connector-curvature="0" /></clipPath><clipPath
       clipPathUnits="userSpaceOnUse"
       id="clipPath232"><path
         d="m 4122.29,2427.43 c 172.42,-46.76 137.68,-152.98 34.96,-474.25 -102.72,-321.27 -181.4,-725.59 -183.58,-924.46 0,0 -67.02,-14.57 -100.53,26.23 -33.51,40.79 -26.96,91.05 -21.13,104.9 5.29,12.56 -40.8,235.3 48.08,574.78 10.24,39.14 5.83,126.76 11.66,224.38 29.21,489.21 81.59,503.39 210.54,468.42 z"
         id="path230"
         inkscape:connector-curvature="0" /></clipPath><linearGradient
       x1="0"
       y1="0"
       x2="1"
       y2="0"
       gradientUnits="userSpaceOnUse"
       gradientTransform="matrix(-65.5648,-1560.44,-1560.44,65.5648,4078.33,2641.11)"
       spreadMethod="pad"
       id="linearGradient238"><stop
         style="stop-opacity:1;stop-color:#ef6291"
         offset="0"
         id="stop234" /><stop
         style="stop-opacity:1;stop-color:#f9afc0"
         offset="1"
         id="stop236" /></linearGradient><clipPath
       clipPathUnits="userSpaceOnUse"
       id="clipPath254"><path
         d="m 3750.75,1766.32 c -75.45,7.19 -243.68,158.45 -340.93,183.59 -97.26,25.13 -116.93,54.63 -97.26,95.07 19.67,40.43 78.67,44.79 97.26,37.15 18.57,-7.65 3.27,-25.13 40.43,-22.95 37.14,2.18 162.82,22.95 291.75,-45.89 128.95,-68.85 54.64,-251.34 8.75,-246.97 z"
         id="path252"
         inkscape:connector-curvature="0" /></clipPath><linearGradient
       x1="0"
       y1="0"
       x2="1"
       y2="0"
       gradientUnits="userSpaceOnUse"
       gradientTransform="matrix(45.8954,-258.981,-258.981,-45.8954,3523.32,2166.64)"
       spreadMethod="pad"
       id="linearGradient260"><stop
         style="stop-opacity:1;stop-color:#ef6291"
         offset="0"
         id="stop256" /><stop
         style="stop-opacity:1;stop-color:#f9afc0"
         offset="1"
         id="stop258" /></linearGradient><clipPath
       clipPathUnits="userSpaceOnUse"
       id="clipPath278"><path
         d="m 3766.05,3617.07 c -41.35,-40.45 -85.96,-49.53 -69.93,-125.3 16.02,-75.76 134.04,-112.19 211.26,-65.56 77.22,46.62 93.25,58.27 103.44,123.84 10.21,65.57 -177.75,132.59 -244.77,67.02 z"
         id="path276"
         inkscape:connector-curvature="0" /></clipPath><linearGradient
       x1="0"
       y1="0"
       x2="1"
       y2="0"
       gradientUnits="userSpaceOnUse"
       gradientTransform="matrix(42.6171,-165.005,-165.005,-42.6171,3817.69,3664.89)"
       spreadMethod="pad"
       id="linearGradient284"><stop
         style="stop-opacity:1;stop-color:#5d0c34"
         offset="0"
         id="stop280" /><stop
         style="stop-opacity:1;stop-color:#240c18"
         offset="1"
         id="stop282" /></linearGradient><clipPath
       clipPathUnits="userSpaceOnUse"
       id="clipPath300"><path
         d="m 3925.59,3464.45 c -60.24,-14.6 -238.21,-12.02 -271,-50.26 -32.78,-38.25 62.29,-197.79 91.79,-262.27 29.5,-64.47 76.49,-207.62 71.02,-253.51 -5.45,-45.9 147.52,-107.09 251.34,-107.09 103.81,0 172.65,17.48 185.76,86.33 13.12,68.84 -8.74,396.66 -50.26,482.99 -41.52,86.33 -106,174.84 -125.66,163.91 -19.67,-10.93 -80.87,-42.61 -152.99,-60.1"
         id="path298"
         inkscape:connector-curvature="0" /></clipPath><clipPath
       clipPathUnits="userSpaceOnUse"
       id="clipPath344"><path
         d="m 3753.35,3885.93 c 0,0 -66.86,9.93 -85.4,-78.12 -18.53,-88.04 -67.52,-231.03 103.94,-227.72 171.44,3.31 214.47,93.34 205.2,156.23 -9.27,62.89 -26.47,80.1 -40.38,113.86 -13.9,33.76 -50.97,73.48 -103.26,70.83 -52.3,-2.65 -80.1,-35.08 -80.1,-35.08 z"
         id="path342"
         inkscape:connector-curvature="0" /></clipPath><linearGradient
       x1="0"
       y1="0"
       x2="1"
       y2="0"
       gradientUnits="userSpaceOnUse"
       gradientTransform="matrix(36.0606,-111.46,-111.46,-36.0606,3773.58,3824.12)"
       spreadMethod="pad"
       id="linearGradient350"><stop
         style="stop-opacity:1;stop-color:#5d0c34"
         offset="0"
         id="stop346" /><stop
         style="stop-opacity:1;stop-color:#240c18"
         offset="1"
         id="stop348" /></linearGradient><clipPath
       clipPathUnits="userSpaceOnUse"
       id="clipPath372"><path
         d="m 3770.42,3849.64 c 16.38,-20.46 -1.18,-41.17 -21.04,-81.88 -19.87,-40.71 -26.81,-61.56 -67.52,-105.25 -40.72,-43.69 18.86,-69.51 18.86,-69.51 0,0 -47.66,-3.97 -47.66,74.47 0,78.45 43.69,119.16 50.64,155.89 6.96,36.75 62.75,31.25 66.72,26.28 z"
         id="path370"
         inkscape:connector-curvature="0" /></clipPath><linearGradient
       x1="0"
       y1="0"
       x2="1"
       y2="0"
       gradientUnits="userSpaceOnUse"
       gradientTransform="matrix(54.6373,-201.065,-201.065,-54.6373,3694.81,3815.9)"
       spreadMethod="pad"
       id="linearGradient378"><stop
         style="stop-opacity:1;stop-color:#5d0c34"
         offset="0"
         id="stop374" /><stop
         style="stop-opacity:1;stop-color:#240c18"
         offset="1"
         id="stop376" /></linearGradient><clipPath
       clipPathUnits="userSpaceOnUse"
       id="clipPath388"><path
         d="m 3762.08,3851.15 c 0.51,-26.21 14.86,-38.02 56.15,-56.62 41.31,-18.59 59.99,-30.17 119.23,-37.71 59.24,-7.55 29.96,-65.5 29.96,-65.5 0,0 39.18,27.44 -10.99,87.73 -50.18,60.3 -109.81,63.65 -138.64,87.44 -28.85,23.8 -55.82,-8.98 -55.71,-15.34 z"
         id="path386"
         inkscape:connector-curvature="0" /></clipPath><linearGradient
       x1="0"
       y1="0"
       x2="1"
       y2="0"
       gradientUnits="userSpaceOnUse"
       gradientTransform="matrix(162.819,-217.457,-217.457,-162.819,3800.14,3886.71)"
       spreadMethod="pad"
       id="linearGradient394"><stop
         style="stop-opacity:1;stop-color:#5d0c34"
         offset="0"
         id="stop390" /><stop
         style="stop-opacity:1;stop-color:#240c18"
         offset="1"
         id="stop392" /></linearGradient><clipPath
       clipPathUnits="userSpaceOnUse"
       id="clipPath436"><path
         d="m 3747.11,3290.7 c -10.2,64.84 -29.14,154.45 -74.31,137.69 -45.17,-16.75 -45.17,-63.38 -103.44,-395.57 -58.28,-332.2 -87.42,-571.14 -87.42,-571.14 0,0 48.07,52.45 90.33,-5.83 0,0 87.42,221.46 141.33,473.52 53.9,252.06 33.51,361.33 33.51,361.33"
         id="path434"
         inkscape:connector-curvature="0" /></clipPath><clipPath
       clipPathUnits="userSpaceOnUse"
       id="clipPath460"><path
         d="m 3747.49,3149.47 v 0 c 1.75,21.48 2.7,40.36 3.12,56.76 v 0 c 0.04,1.52 0.08,3.04 0.11,4.52 v 0 c 0.12,5.82 0.17,11.31 0.17,16.48 0,-20.61 -0.86,-46.43 -3.4,-77.76"
         id="path458"
         inkscape:connector-curvature="0" /></clipPath><clipPath
       clipPathUnits="userSpaceOnUse"
       id="clipPath494"><path
         d="m 1686.34,4180.85 c 0,0 3.28,-13.67 24.04,-6.01 20.76,7.64 20.22,14.75 46.45,18.02 26.22,3.28 46.44,-4.37 26.22,-20.76 -20.22,-16.39 -40.43,-24.58 -40.43,-40.97 0,-16.4 -4.37,-41.53 -31.69,-55.19 -27.32,-13.66 -55.18,13.11 -46.99,53.54 8.2,40.44 18.03,59.56 22.4,51.37 z"
         id="path492"
         inkscape:connector-curvature="0" /></clipPath><linearGradient
       x1="0"
       y1="0"
       x2="1"
       y2="0"
       gradientUnits="userSpaceOnUse"
       gradientTransform="matrix(-146.428,-48.0808,-48.0808,146.428,1841.06,4176.33)"
       spreadMethod="pad"
       id="linearGradient500"><stop
         style="stop-opacity:1;stop-color:#ef6291"
         offset="0"
         id="stop496" /><stop
         style="stop-opacity:1;stop-color:#f9afc0"
         offset="1"
         id="stop498" /></linearGradient><clipPath
       clipPathUnits="userSpaceOnUse"
       id="clipPath518"><path
         d="m 852.031,2683.23 c 139.879,-4.07 142.059,-236.03 233.849,-415.24 91.79,-179.2 207.62,-290.67 238.22,-493.92 30.59,-203.25 118.02,-821.75 111.46,-830.488 -6.56,-8.742 -183.59,0 -209.81,13.117 -26.23,13.11 -100.53,653.461 -159.54,747.441 -59.01,93.97 -413.058,384.65 -441.472,467.69 -28.41,83.05 2.188,517.96 227.293,511.4 z"
         id="path516"
         inkscape:connector-curvature="0" /></clipPath><linearGradient
       x1="0"
       y1="0"
       x2="1"
       y2="0"
       gradientUnits="userSpaceOnUse"
       gradientTransform="matrix(-489.562,-327.832,-327.832,489.562,1130.95,1822.37)"
       spreadMethod="pad"
       id="linearGradient524"><stop
         style="stop-opacity:1;stop-color:#c0154d"
         offset="0"
         id="stop520" /><stop
         style="stop-opacity:1;stop-color:#83113b"
         offset="1"
         id="stop522" /></linearGradient><clipPath
       clipPathUnits="userSpaceOnUse"
       id="clipPath540"><path
         d="m 762.426,2650.46 c 69.617,-40.62 63.383,-227.3 24.043,-404.32 -39.344,-177.03 -286.301,-649.09 -386.832,-710.28 -100.532,-61.21 -128.946,-104.92 -174.84,-142.07 -45.899,-37.15 -139.8712,28.41 -144.2423,78.69 -4.3711,50.26 48.0823,100.52 144.2423,231.66 96.164,131.12 102.715,338.75 170.469,572.59 67.75,233.85 61.191,231.66 113.64,319.09 52.453,87.41 201.067,85.23 253.52,54.64 z"
         id="path538"
         inkscape:connector-curvature="0" /></clipPath><linearGradient
       x1="0"
       y1="0"
       x2="1"
       y2="0"
       gradientUnits="userSpaceOnUse"
       gradientTransform="matrix(-257.888,-279.743,-279.743,257.888,296.574,1893.09)"
       spreadMethod="pad"
       id="linearGradient546"><stop
         style="stop-opacity:1;stop-color:#c0154d"
         offset="0"
         id="stop542" /><stop
         style="stop-opacity:1;stop-color:#83113b"
         offset="1"
         id="stop544" /></linearGradient><clipPath
       clipPathUnits="userSpaceOnUse"
       id="clipPath556"><path
         d="m 449.02,2412 c 11.152,-10.86 21.226,-22.71 31.351,-34.51 20.133,-23.45 40.598,-44.68 67.195,-60.9 43.817,-26.73 127.383,-63.05 154.493,3.62 5.046,12.42 7.171,25.55 10.504,38.46 4.519,17.56 11.14,34.62 16.945,51.79 8.082,23.89 107.949,85.19 135.637,80.45 -2.555,72.44 -68.375,139.51 -102.715,159.55 -52.457,30.59 -201.071,32.77 -253.524,-54.64 -37.926,-63.22 -45.008,-79.6 -71.636,-172.25 3.765,-3.89 7.746,-7.67 11.75,-11.57 z"
         id="path554"
         inkscape:connector-curvature="0" /></clipPath><linearGradient
       x1="0"
       y1="0"
       x2="1"
       y2="0"
       gradientUnits="userSpaceOnUse"
       gradientTransform="matrix(52.4518,131.13,131.13,-52.4518,520.56,2139.78)"
       spreadMethod="pad"
       id="linearGradient562"><stop
         style="stop-opacity:1;stop-color:#c0154d"
         offset="0"
         id="stop558" /><stop
         style="stop-opacity:1;stop-color:#83113b"
         offset="1"
         id="stop560" /></linearGradient><clipPath
       clipPathUnits="userSpaceOnUse"
       id="clipPath654"><path
         d="m 4903.52,3325.99 c -13.51,11.66 -43.17,-18.57 -60.1,-29.5 -16.94,-10.93 -33.36,-19.43 -45.35,-35.51 -7.47,-10.02 -6.74,-36.25 23.86,-36.97 30.59,-0.73 61.92,-47.36 74.3,-30.6 12.39,16.75 8.02,21.12 8.02,21.12 0,0 12.38,-6.19 15.29,3.64 2.92,9.84 1.1,10.93 1.1,10.93 0,0 2.18,-8.01 6.55,0.73 4.37,8.75 -5.1,80.14 -23.67,96.16 z"
         id="path652"
         inkscape:connector-curvature="0" /></clipPath><linearGradient
       x1="0"
       y1="0"
       x2="1"
       y2="0"
       gradientUnits="userSpaceOnUse"
       gradientTransform="matrix(44.2562,-69.3894,-69.3894,-44.2562,4859.95,3266.9)"
       spreadMethod="pad"
       id="linearGradient660"><stop
         style="stop-opacity:1;stop-color:#f57998"
         offset="0"
         id="stop656" /><stop
         style="stop-opacity:1;stop-color:#ce587a"
         offset="1"
         id="stop658" /></linearGradient><clipPath
       clipPathUnits="userSpaceOnUse"
       id="clipPath680"><path
         d="m 5172.34,2545.77 c 171.14,-73.07 194.5,-404.31 4.36,-631.6 -190.14,-227.3 -198.88,-214.18 -192.32,-253.52 6.56,-39.35 295.05,-273.19 295.05,-332.2 0,-59 -6.57,-115.83 -52.45,-137.68 -45.9,-21.86 -34.98,-54.64 -120.21,37.15 -85.23,91.79 -343.13,334.38 -354.05,375.9 -10.93,41.53 48.08,292.87 111.46,485.18 63.38,192.33 45.89,194.51 67.75,290.67 21.85,96.17 45.89,249.15 240.41,166.1 z"
         id="path678"
         inkscape:connector-curvature="0" /></clipPath><linearGradient
       x1="0"
       y1="0"
       x2="1"
       y2="0"
       gradientUnits="userSpaceOnUse"
       gradientTransform="matrix(-227.291,208.35,208.35,227.291,5192.45,1843.33)"
       spreadMethod="pad"
       id="linearGradient686"><stop
         style="stop-opacity:1;stop-color:#2c327e"
         offset="0"
         id="stop682" /><stop
         style="stop-opacity:1;stop-color:#2c3b9a"
         offset="1"
         id="stop684" /></linearGradient></defs><sodipodi:namedview
     pagecolor="#ffffff"
     bordercolor="#666666"
     borderopacity="1"
     objecttolerance="10"
     gridtolerance="10"
     guidetolerance="10"
     inkscape:pageopacity="0"
     inkscape:pageshadow="2"
     inkscape:window-width="1366"
     inkscape:window-height="740"
     id="namedview4"
     showgrid="false"
     inkscape:zoom="0.43735596"
     inkscape:cx="118.21902"
     inkscape:cy="315.84512"
     inkscape:window-x="0"
     inkscape:window-y="0"
     inkscape:window-maximized="1"
     inkscape:current-layer="g12" /><g
     id="g10"
     inkscape:groupmode="layer"
     inkscape:label="ink_ext_XXXXXX"
     transform="matrix(1.3333333,0,0,-1.3333333,0,602.61333)"><g
       id="g12"
       transform="scale(0.1)"><g
         id="g1128"
         transform="matrix(0.73553703,0,0,0.78349445,780.40366,-141.25355)"><g
           transform="matrix(1.1280662,0,0,1.0352968,-947.99283,-311.43214)"
           id="g1728"><path
             d="m 4309.69,4236.48 c -36.31,10.37 -51.9,6.56 -19.12,87.42 32.78,80.86 60.1,158.44 87.42,178.66 27.31,20.21 46.98,22.4 54.63,6.56 7.66,-15.85 5.47,-27.87 5.47,-27.87 0,0 20.76,-6.01 9.83,-32.23 0,0 20.22,-12.57 1.64,-29.51 0,0 19.12,-5.46 3.28,-22.4 -15.85,-16.94 -41.53,-53.54 -57.92,-60.65 -16.38,-7.1 -27.86,-21.31 -36.06,-44.8 -8.19,-23.5 -10.93,-66.11 -49.17,-55.18"
             style="fill:#f9afc0;fill-opacity:1;fill-rule:nonzero;stroke:none"
             id="path168"
             inkscape:connector-curvature="0" /><g
             id="g170"><g
               id="g172"
               clip-path="url(#clipPath176)"><path
                 d="m 4355.04,4350.13 c 9.39,18.77 27.32,38.79 28.96,64.47 1.64,25.67 -1.64,35.51 20.76,46.44 22.4,10.92 36.61,37.7 35.52,50.26 -1.1,12.57 -25.14,-12.56 -45.9,-25.13 -20.76,-12.56 -43.17,-26.78 -52.45,-51.9 -9.29,-25.14 -31.69,-71.04 -26.77,-79.78 4.91,-8.74 38.79,-6.55 39.88,-4.36"
                 style="fill:url(#linearGradient182);fill-opacity:1;fill-rule:nonzero;stroke:none"
                 id="path184"
                 inkscape:connector-curvature="0" /></g></g><path
             d="m 4395.15,4416.59 c 0.04,0.01 6.77,2.21 14.85,5.45 8.09,3.27 17.44,7.48 23.08,11.9 v 0 c 10.53,8.31 14.5,13.37 14.63,13.54 l -3.95,3.07 -0.13,-0.17 c -0.76,-0.91 -4.69,-5.45 -13.64,-12.51 v 0 c -4.74,-3.77 -13.97,-8.04 -21.86,-11.19 -3.95,-1.59 -7.59,-2.93 -10.24,-3.86 -2.65,-0.94 -4.28,-1.48 -4.29,-1.48 l 1.55,-4.75"
             style="fill:#ef6291;fill-opacity:1;fill-rule:nonzero;stroke:none"
             id="path186"
             inkscape:connector-curvature="0" /><path
             d="m 4444.36,4418.32 c 0,0 -1.89,-1.23 -4.97,-3.11 -4.62,-2.82 -11.89,-7.05 -19.23,-10.55 -7.31,-3.51 -14.85,-6.2 -19.23,-6.15 l -0.44,0.01 -0.2,-5 0.64,-0.01 c 8.04,0.08 19.16,5.31 28.81,10.4 9.56,5.12 17.33,10.21 17.36,10.23 l -2.74,4.18"
             style="fill:#ef6291;fill-opacity:1;fill-rule:nonzero;stroke:none"
             id="path188"
             inkscape:connector-curvature="0" /><path
             d="m 4134.67,3397.07 c -51,61.19 -80.14,53.9 -53.91,129.67 26.23,75.76 83.05,371.53 113.65,520.15 30.59,148.61 70.48,219.64 70.48,219.64 0,0 75.94,14.2 86.87,-9.84 0,0 -21.86,-246.96 -54.64,-509.22 -32.78,-262.26 -100.53,-465.51 -107.09,-454.58 -6.55,10.93 -55.36,104.18 -55.36,104.18"
             style="fill:#2c3c9a;fill-opacity:1;fill-rule:nonzero;stroke:none"
             id="path190"
             inkscape:connector-curvature="0" /><g
             id="g192"><g
               id="g194"
               clip-path="url(#clipPath198)"><path
                 d="m 4359.15,4118.44 c -74.47,60.64 -172.59,9.04 -173.56,8.51 l -2.03,3.77 c 1,0.55 101.59,53.51 178.3,-8.96 l -2.71,-3.32"
                 style="fill:#ffffff;fill-opacity:1;fill-rule:nonzero;stroke:none"
                 id="path200"
                 inkscape:connector-curvature="0" /><path
                 d="m 4346.25,4019.94 c -57.33,36.1 -175.07,15.2 -181.04,11.13 l -2.91,3.12 c 5.05,5.06 126.4,27.04 186.24,-10.63 l -2.29,-3.62"
                 style="fill:#ffffff;fill-opacity:1;fill-rule:nonzero;stroke:none"
                 id="path202"
                 inkscape:connector-curvature="0" /><path
                 d="m 4420.49,3905.97 -123.48,6.55 c -122.78,6.52 -151.98,30.11 -153.16,31.11 l 2.75,3.27 c 0.29,-0.23 29.86,-23.69 150.64,-30.1 l 123.48,-6.55 -0.23,-4.28"
                 style="fill:#ffffff;fill-opacity:1;fill-rule:nonzero;stroke:none"
                 id="path204"
                 inkscape:connector-curvature="0" /><path
                 d="m 4237.84,3766.96 c -7.69,0 -15.16,0.74 -22.1,2.48 -37.5,9.38 -69.53,42.06 -84.92,57.77 -3.57,3.65 -7.27,7.43 -8.25,7.89 l 1.6,3.96 c 1.62,-0.65 4.01,-3.03 9.71,-8.86 15.12,-15.42 46.57,-47.53 82.9,-56.61 46.78,-11.68 121.27,24.61 122.01,24.98 l 1.9,-3.85 c -2.66,-1.31 -56.98,-27.76 -102.85,-27.76"
                 style="fill:#ffffff;fill-opacity:1;fill-rule:nonzero;stroke:none"
                 id="path206"
                 inkscape:connector-curvature="0" /><path
                 d="m 4205.79,3632.61 c -2.38,0 -4.74,0.05 -7.13,0.17 -66.1,3.31 -96.61,69.43 -96.9,70.1 l 3.9,1.76 c 0.29,-0.64 29.76,-64.41 93.23,-67.58 64.05,-3.23 132.46,39.67 133.15,40.1 l 2.29,-3.61 c -0.67,-0.43 -65.24,-40.94 -128.54,-40.94"
                 style="fill:#ffffff;fill-opacity:1;fill-rule:nonzero;stroke:none"
                 id="path208"
                 inkscape:connector-curvature="0" /><path
                 d="m 4199.01,3486.3 -1.5,0.06 c -27.92,2.23 -129.41,128.72 -133.72,134.11 l 3.34,2.67 c 29.02,-36.27 109.07,-130.79 130.72,-132.51 26.25,-2.14 123.34,62.37 124.31,63.02 l 2.37,-3.56 c -3.96,-2.65 -96.02,-63.79 -125.52,-63.79"
                 style="fill:#ffffff;fill-opacity:1;fill-rule:nonzero;stroke:none"
                 id="path210"
                 inkscape:connector-curvature="0" /></g></g><path
             d="m 4292.11,3709.69 c 0,0.02 0,0.02 0,0.04 0,-0.02 0,-0.02 0,-0.04 m 1.71,12.41 c 0.05,0.35 0.09,0.69 0.14,1.04 -0.05,-0.35 -0.09,-0.69 -0.14,-1.04 m 1.26,9.49 c 0.16,1.22 0.33,2.47 0.49,3.7 -0.16,-1.23 -0.33,-2.48 -0.49,-3.7 m 0.64,4.88 c 0.09,0.67 0.17,1.34 0.26,2.01 -0.09,-0.67 -0.17,-1.34 -0.26,-2.01 m 0.44,3.39 c 0.22,1.72 0.44,3.45 0.65,5.18 -0.21,-1.73 -0.43,-3.46 -0.65,-5.18 m 0.78,6.2 c 0.06,0.47 0.12,0.95 0.18,1.41 v 0 0 c -0.06,-0.46 -0.12,-0.94 -0.18,-1.41 m 5.57,45.21 c 0.01,0.07 0.02,0.11 0.03,0.18 -0.01,-0.06 -0.02,-0.12 -0.03,-0.18 m 0.08,0.62 c 2.51,20.68 4.94,41.18 7.3,61.38 -2.36,-20.2 -4.79,-40.7 -7.3,-61.38"
             style="fill:#b4b7b5;fill-opacity:1;fill-rule:nonzero;stroke:none"
             id="path212"
             inkscape:connector-curvature="0" /><path
             d="m 4211.66,3342.14 c -2.4,7 -4.87,13.21 -7.42,18.5 -12.36,25.71 -26.77,51.61 -41.41,75.03 2.37,9.87 5.06,19.64 7.99,29.25 3.06,10 6.38,19.95 10.03,29.79 6.79,-4.97 12.53,-8.02 16.66,-8.35 l 1.5,-0.06 c 11.97,0 34.26,10.08 56.77,22.22 -15.73,-70.94 -31.77,-128.55 -44.12,-166.38 m -12.47,148.43 c -0.46,0 -0.91,0.02 -1.34,0.06 -3.66,0.29 -9,3.24 -15.48,8.12 6.83,17.91 14.79,35.39 24.29,51.98 16.43,28.69 33.77,55.67 43.1,87.54 11.69,2.82 22.86,6.46 33.03,10.33 -7.97,-48.36 -16.81,-93.59 -25.79,-134.54 -23.05,-12.67 -46.14,-23.49 -57.81,-23.49 m 51.88,152.41 c 10.49,39.52 13.02,80.49 19.25,120.76 0.37,2.37 0.76,4.73 1.17,7.08 10.36,2.16 20.41,5.03 29.51,8.02 -1.28,-10.42 -2.57,-20.88 -3.88,-31.37 v 0 c -0.06,-0.46 -0.12,-0.94 -0.18,-1.41 -0.04,-0.35 -0.08,-0.67 -0.13,-1.02 -0.21,-1.73 -0.43,-3.46 -0.65,-5.18 -0.06,-0.46 -0.12,-0.92 -0.18,-1.38 -0.09,-0.67 -0.17,-1.34 -0.26,-2.01 -0.05,-0.4 -0.1,-0.79 -0.15,-1.18 -0.16,-1.23 -0.33,-2.48 -0.49,-3.7 -0.37,-2.82 -0.74,-5.64 -1.12,-8.45 -0.05,-0.35 -0.09,-0.69 -0.14,-1.04 -0.56,-4.14 -1.13,-8.26 -1.71,-12.37 0,-0.02 0,-0.02 0,-0.04 -2.69,-19.12 -5.54,-37.9 -8.53,-56.22 -9.96,-3.88 -20.96,-7.58 -32.51,-10.49 m 21.27,132.51 c 6.94,36.93 19.14,70.29 36.89,104.05 1.63,3.1 3.19,6.23 4.77,9.35 -1.34,-11.75 -2.71,-23.63 -4.11,-35.62 -2.36,-20.2 -4.79,-40.7 -7.3,-61.38 -0.02,-0.15 -0.04,-0.3 -0.05,-0.44 -0.01,-0.07 -0.02,-0.11 -0.03,-0.18 -0.3,-2.53 -0.61,-5.06 -0.92,-7.59 -8.97,-3.01 -18.96,-5.93 -29.25,-8.19"
             style="fill:#2b3077;fill-opacity:1;fill-rule:nonzero;stroke:none"
             id="path214"
             inkscape:connector-curvature="0" /><path
             d="m 4271.49,3770.82 c 0.27,1.56 0.56,3.12 0.85,4.67 10.29,2.26 20.28,5.18 29.25,8.19 -0.2,-1.61 -0.39,-3.22 -0.59,-4.84 -9.1,-2.99 -19.15,-5.86 -29.51,-8.02"
             style="fill:#b4b7b5;fill-opacity:1;fill-rule:nonzero;stroke:none"
             id="path216"
             inkscape:connector-curvature="0" /><path
             d="m 4249.76,3638.27 c 0.39,1.32 0.76,2.66 1.12,4 0.06,0.24 0.13,0.47 0.19,0.71 11.55,2.91 22.55,6.61 32.51,10.49 -0.26,-1.63 -0.53,-3.25 -0.79,-4.87 -10.17,-3.87 -21.34,-7.51 -33.03,-10.33"
             style="fill:#b4b7b5;fill-opacity:1;fill-rule:nonzero;stroke:none"
             id="path218"
             inkscape:connector-curvature="0" /><path
             d="m 4199.01,3486.3 -1.5,0.06 c -4.13,0.33 -9.87,3.38 -16.66,8.35 0.5,1.35 1,2.7 1.52,4.04 6.48,-4.88 11.82,-7.83 15.48,-8.12 0.43,-0.04 0.88,-0.06 1.34,-0.06 11.67,0 34.76,10.82 57.81,23.49 -0.41,-1.86 -0.81,-3.7 -1.22,-5.54 -22.51,-12.14 -44.8,-22.22 -56.77,-22.22"
             style="fill:#b4b7b5;fill-opacity:1;fill-rule:nonzero;stroke:none"
             id="path220"
             inkscape:connector-curvature="0" /><path
             d="m 3853.47,1148.92 c -25.14,-5.47 -127.85,-83.04 -125.67,-99.44 2.19,-16.39 41.53,-68.839 66.66,-102.718 25.13,-33.871 44.8,-139.871 120.2,-192.321 75.4,-52.449 113.64,-32.781 102.72,8.739 -10.92,41.519 -60.1,101.629 -50.27,145.332 9.84,43.707 13.12,97.258 8.74,123.488 -4.36,26.22 -122.38,116.92 -122.38,116.92"
             style="fill:#e81c6a;fill-opacity:1;fill-rule:nonzero;stroke:none"
             id="path222"
             inkscape:connector-curvature="0" /><path
             d="m 3949.63,786.129 c -75.4,52.453 -95.07,158.453 -120.2,192.32 -25.13,33.881 -64.48,86.331 -66.66,102.721 -0.42,3.2 3.18,8.75 9.4,15.62 -24.97,-20.06 -45.35,-39.91 -44.37,-47.31 2.19,-16.39 41.53,-68.839 66.66,-102.718 25.13,-33.871 44.8,-139.871 120.2,-192.321 70.14,-48.793 108.1,-35.171 104.27,0.391 -17.28,1.828 -40.59,11.316 -69.3,31.297"
             style="fill:#b51558;fill-opacity:1;fill-rule:nonzero;stroke:none"
             id="path224"
             inkscape:connector-curvature="0" /><g
             id="g226"><g
               id="g228"
               clip-path="url(#clipPath232)"><path
                 d="m 4122.29,2427.43 c 172.42,-46.76 137.68,-152.98 34.96,-474.25 -102.72,-321.27 -181.4,-725.59 -183.58,-924.46 0,0 -67.02,-14.57 -100.53,26.23 -33.51,40.79 -26.96,91.05 -21.13,104.9 5.29,12.56 -40.8,235.3 48.08,574.78 10.24,39.14 5.83,126.76 11.66,224.38 29.21,489.21 81.59,503.39 210.54,468.42"
                 style="fill:url(#linearGradient238);fill-opacity:1;fill-rule:nonzero;stroke:none"
                 id="path240"
                 inkscape:connector-curvature="0" /></g></g><path
             d="m 3907.61,1762.26 c 19.4,52.79 29.73,108.38 40.58,163.4 9.75,49.44 19.84,98.4 28.4,148.03 6.43,37.23 20.55,74.91 62.99,79.87 57.43,6.72 114.58,-16.01 171.87,-25.77 53.97,188.42 47.23,262.66 -89.16,299.64 -128.95,34.97 -181.33,20.79 -210.54,-468.42 -5.13,-85.88 -2.33,-164.01 -8.55,-208.21 1.52,3.79 2.99,7.6 4.41,11.46"
             style="fill:#ef6291;fill-opacity:1;fill-rule:nonzero;stroke:none"
             id="path242"
             inkscape:connector-curvature="0" /><path
             d="m 3439.68,2095.97 c 5.83,29.87 10.2,104.17 0.73,107.82 -9.47,3.64 -72.85,24.04 -114.37,-16.03 -41.53,-40.07 -72.85,-52.45 -92.52,-63.38 -19.67,-10.93 -63.38,-85.97 -42.98,-131.85 20.39,-45.9 45.17,-43.72 75.76,-30.61 30.6,13.12 69.21,11.66 80.14,8.75 10.93,-2.92 87.41,95.43 93.24,125.3"
             style="fill:#e81c6a;fill-opacity:1;fill-rule:nonzero;stroke:none"
             id="path244"
             inkscape:connector-curvature="0" /><path
             d="m 3234.24,2088.69 c 19.68,10.93 51,23.31 92.52,63.38 41.53,40.06 104.91,19.66 114.37,16.02 2.21,-0.85 3.66,-5.54 4.52,-12.57 0.91,24.52 -0.22,46.33 -5.24,48.27 -9.47,3.64 -72.85,24.04 -114.37,-16.03 -41.53,-40.07 -72.85,-52.45 -92.52,-63.38 -18.46,-10.25 -58.07,-76.94 -46.05,-123.05 6.52,39.17 32.75,79.56 46.77,87.36"
             style="fill:#b51558;fill-opacity:1;fill-rule:nonzero;stroke:none"
             id="path246"
             inkscape:connector-curvature="0" /><g
             id="g248"><g
               id="g250"
               clip-path="url(#clipPath254)"><path
                 d="m 3750.75,1766.32 c -75.45,7.19 -243.68,158.45 -340.93,183.59 -97.26,25.13 -116.93,54.63 -97.26,95.07 19.67,40.43 78.67,44.79 97.26,37.15 18.57,-7.65 3.27,-25.13 40.43,-22.95 37.14,2.18 162.82,22.95 291.75,-45.89 128.95,-68.85 54.64,-251.34 8.75,-246.97"
                 style="fill:url(#linearGradient260);fill-opacity:1;fill-rule:nonzero;stroke:none"
                 id="path262"
                 inkscape:connector-curvature="0" /></g></g><path
             d="m 3853.47,2491.91 c 149.14,-74.57 118.02,-191.24 61.19,-420.71 -56.82,-229.48 -63.38,-321.27 -180.3,-302.69 -116.93,18.58 -74.31,409.78 -45.9,567.14 28.42,157.35 156.27,160.63 165.01,156.26"
             style="fill:#f9afc0;fill-opacity:1;fill-rule:nonzero;stroke:none"
             id="path264"
             inkscape:connector-curvature="0" /><path
             d="m 3725.16,2187.91 c 29.75,-0.71 58.96,0.47 88.47,-4.7 26.94,-4.72 52.56,-13.15 79.94,-15.68 13.23,-1.23 29.13,-2.5 44.27,-0.98 38.91,167.97 42.52,261.91 -84.37,325.36 -8.74,4.37 -136.59,1.09 -165.01,-156.26 -6.56,-36.35 -13.88,-85.19 -19.82,-139 17.87,-6.54 37.97,-8.3 56.52,-8.74"
             style="fill:#ef6291;fill-opacity:1;fill-rule:nonzero;stroke:none"
             id="path266"
             inkscape:connector-curvature="0" /><path
             d="m 3735.14,3591.87 c -1.66,-0.22 -5.62,-1.2 -11.05,-3.49 -8.07,-3.43 -19.1,-9.78 -28.16,-20.8 -9.06,-11.01 -16.07,-26.72 -16.05,-48.37 0,-10.19 1.53,-21.69 5.08,-34.66 l 4.83,1.32 c -3.45,12.6 -4.91,23.65 -4.91,33.34 0.03,27.42 11.58,43.95 23.77,54.04 6.09,5.03 12.37,8.39 17.39,10.53 4.99,2.13 8.91,3.04 9.72,3.13 l -0.62,4.96"
             style="fill:#5d0c34;fill-opacity:1;fill-rule:nonzero;stroke:none"
             id="path268"
             inkscape:connector-curvature="0" /><path
             d="m 3741.92,3599.9 c -0.22,-0.01 -16.01,-0.56 -33.03,-9.38 -17.01,-8.78 -35.23,-26.22 -39.3,-59.1 l 4.96,-0.62 c 3.96,31.22 20.7,46.93 36.65,55.28 7.97,4.14 15.74,6.36 21.5,7.53 2.88,0.59 5.26,0.91 6.9,1.09 1.64,0.18 2.49,0.2 2.49,0.21 l -0.17,4.99"
             style="fill:#5d0c34;fill-opacity:1;fill-rule:nonzero;stroke:none"
             id="path270"
             inkscape:connector-curvature="0" /><g
             id="g272"><g
               id="g274"
               clip-path="url(#clipPath278)"><path
                 d="m 3766.05,3617.07 c -41.35,-40.45 -85.96,-49.53 -69.93,-125.3 16.02,-75.76 134.04,-112.19 211.26,-65.56 77.22,46.62 93.25,58.27 103.44,123.84 10.21,65.57 -177.75,132.59 -244.77,67.02"
                 style="fill:url(#linearGradient284);fill-opacity:1;fill-rule:nonzero;stroke:none"
                 id="path286"
                 inkscape:connector-curvature="0" /></g></g><path
             d="m 3872.1,3684.09 c 48.78,8.22 50.06,-42.61 79.73,-124.57 29.66,-81.96 61.18,-88.51 61.18,-88.51 0,0 -60.25,-28.42 -114.02,-34.97 -53.77,-6.56 -112.18,-13.11 -112.18,-13.11 0,0 49.13,18.57 44.5,61.19 -4.64,42.62 -76.01,180.31 40.79,199.97"
             style="fill:#f9afc0;fill-opacity:1;fill-rule:nonzero;stroke:none"
             id="path288"
             inkscape:connector-curvature="0" /><path
             d="m 3925.59,3464.45 c -60.24,-14.6 -238.21,-12.02 -271,-50.26 -32.78,-38.25 62.29,-197.79 91.79,-262.27 29.5,-64.47 76.49,-207.62 71.02,-253.51 -5.45,-45.9 147.52,-107.09 251.34,-107.09 103.81,0 172.65,17.48 185.76,86.33 13.12,68.84 -8.74,396.66 -50.26,482.99 -41.52,86.33 -106,174.84 -125.66,163.91 -19.67,-10.93 -80.87,-42.61 -152.99,-60.1"
             style="fill:#2c3c9a;fill-opacity:1;fill-rule:nonzero;stroke:none"
             id="path290"
             inkscape:connector-curvature="0" /><path
             d="m 3947.7,3571.27 c -25.76,75 -29.19,120.64 -75.6,112.82 -101.03,-17.01 -61.28,-122.31 -45.7,-178.01 16.93,-5.84 35.9,-8.89 55.48,-5.57 36.94,6.26 57.36,36.57 65.82,70.76"
             style="fill:#ef6291;fill-opacity:1;fill-rule:nonzero;stroke:none"
             id="path292"
             inkscape:connector-curvature="0" /><g
             id="g294"><g
               id="g296"
               clip-path="url(#clipPath300)"><path
                 d="m 3601.69,3338.12 -0.57,4.25 c 0.23,0.02 23.33,3.27 138.21,30.55 52.25,12.41 100.42,16.91 142.92,20.88 52.81,4.93 94.53,8.83 123.12,25.51 22.18,12.94 41.18,33.24 59.55,52.87 24.63,26.33 47.9,51.2 75.37,53.77 l 0.41,-4.26 c -25.86,-2.42 -48.59,-26.71 -72.65,-52.43 -18.58,-19.85 -37.79,-40.39 -60.52,-53.65 -29.41,-17.15 -71.54,-21.09 -124.89,-26.07 -42.35,-3.96 -90.36,-8.44 -142.33,-20.78 -115.33,-27.4 -137.72,-30.52 -138.62,-30.64"
                 style="fill:#ffffff;fill-opacity:1;fill-rule:nonzero;stroke:none"
                 id="path302"
                 inkscape:connector-curvature="0" /><path
                 d="m 3693.5,3171.47 -3.52,2.44 c 3.7,5.32 91.38,130.47 148.2,150.86 34.05,12.23 94.21,23.52 147.3,33.49 36.06,6.76 70.14,13.16 91.81,19.02 52.37,14.15 113.14,131.76 113.75,132.95 l 3.81,-1.95 c -2.51,-4.91 -62.25,-120.49 -116.45,-135.14 -21.83,-5.9 -55.98,-12.3 -92.13,-19.09 -52.93,-9.94 -112.91,-21.2 -146.65,-33.31 -55.54,-19.93 -145.22,-147.99 -146.12,-149.27"
                 style="fill:#ffffff;fill-opacity:1;fill-rule:nonzero;stroke:none"
                 id="path304"
                 inkscape:connector-curvature="0" /><path
                 d="m 3729.81,3097.01 -3.28,2.74 c 0.96,1.16 97.66,115.92 191.9,143.47 47.86,13.99 97.34,22.06 141.01,29.19 43.31,7.06 80.7,13.17 106.51,23.2 51.16,19.9 80.23,68.54 80.52,69.03 l 3.69,-2.17 c -0.3,-0.5 -30.13,-50.41 -82.66,-70.84 -26.23,-10.2 -63.83,-16.34 -107.37,-23.45 -43.55,-7.1 -92.89,-15.15 -140.5,-29.07 -93,-27.18 -188.87,-140.95 -189.82,-142.1"
                 style="fill:#ffffff;fill-opacity:1;fill-rule:nonzero;stroke:none"
                 id="path306"
                 inkscape:connector-curvature="0" /><path
                 d="m 3770.89,2986.72 -3.86,1.86 c 0.4,0.83 41.26,82.94 174.57,132.21 106.2,39.24 211.35,53.7 280.93,63.28 18.06,2.48 33.64,4.62 45.81,6.75 l 0.74,-4.21 c -12.24,-2.15 -27.87,-4.29 -45.96,-6.78 -69.41,-9.55 -174.28,-23.97 -280.03,-63.06 -131.58,-48.62 -171.81,-129.24 -172.2,-130.05"
                 style="fill:#ffffff;fill-opacity:1;fill-rule:nonzero;stroke:none"
                 id="path308"
                 inkscape:connector-curvature="0" /><path
                 d="m 3786.52,2924.97 -3.07,2.98 c 0.93,0.95 93.6,95.37 199.58,101.17 70.61,3.88 173.09,5.84 304.62,5.84 v -4.29 c -131.45,0 -233.86,-1.95 -304.39,-5.81 -104.28,-5.72 -195.82,-98.95 -196.74,-99.89"
                 style="fill:#ffffff;fill-opacity:1;fill-rule:nonzero;stroke:none"
                 id="path310"
                 inkscape:connector-curvature="0" /><path
                 d="m 3763.97,2866.23 c -0.08,0.31 -1.67,7.59 5.19,16.62 10.84,14.25 42.09,31.98 129.39,35.54 149.67,6.12 278.8,9.78 343.03,-7.35 64.38,-17.17 126.79,-10.21 127.42,-10.14 l 0.49,-4.25 c -0.64,-0.07 -63.8,-7.13 -129.01,10.26 -63.64,16.96 -192.44,13.31 -341.76,7.21 -85.21,-3.48 -115.53,-20.2 -125.96,-33.62 -5.78,-7.43 -4.67,-13.08 -4.62,-13.32 l -4.17,-0.95"
                 style="fill:#ffffff;fill-opacity:1;fill-rule:nonzero;stroke:none"
                 id="path312"
                 inkscape:connector-curvature="0" /></g></g><path
             d="m 3817.27,2895.46 v 0.01 -0.01 m 0,0.16 c -0.01,0.01 -0.01,0.01 -0.01,0.02 0,-0.01 0,-0.01 0.01,-0.02 m -0.01,0.16 c 0,0.01 0,0.01 0,0.02 0,-0.01 0,-0.01 0,-0.02 m 0,0.49 c 0,0.02 0,0.03 0,0.04 0,-0.01 0,-0.02 0,-0.04 m 0.01,0.16 c 0,0.01 0,0.03 0,0.04 0,-0.01 0,-0.03 0,-0.04 m 0,0.15 c 0,0.02 0,0.03 0,0.05 0,-0.01 0,-0.03 0,-0.05 m 0.01,0.18 c 0,0.01 0,0.01 0,0.02 0,0 0,-0.01 0,-0.02 m 0,0.18 c 0,0.01 0,0.02 0,0.03 0,-0.01 0,-0.02 0,-0.03 m 0.01,0.15 c 0,0.01 0,0.03 0,0.05 0,-0.02 0,-0.03 0,-0.05 m 0.01,0.15 c 0,0.02 0,0.04 0,0.06 0,-0.02 0,-0.04 0,-0.06 m 0.01,0.16 c 0,0.01 0,0.03 0,0.05 0,-0.02 0,-0.04 0,-0.05 m 0.01,0.17 c 0,0.01 0,0.02 0,0.03 0,-0.01 0,-0.02 0,-0.03 m 0.02,0.18 c 0,0.01 0,0.03 0,0.04 0,-0.01 0,-0.02 0,-0.04 m 0.01,0.15 c 0,0.02 0,0.04 0,0.06 0,-0.02 0,-0.04 0,-0.06 m 0.01,0.15 c 0.01,0.02 0.01,0.04 0.01,0.06 0,-0.02 0,-0.04 -0.01,-0.06 m 0.02,0.16 c 0,0.02 0,0.03 0.01,0.05 -0.01,-0.01 -0.01,-0.03 -0.01,-0.05"
             style="fill:#b4b7b5;fill-opacity:1;fill-rule:nonzero;stroke:none"
             id="path314"
             inkscape:connector-curvature="0" /><path
             d="m 3935.33,2815.33 c -64.27,21.26 -117.37,53.01 -118.06,80.13 v 0.01 c 0,0.05 0,0.1 0,0.15 -0.01,0.01 -0.01,0.01 -0.01,0.02 0,0.05 0,0.09 0,0.14 0,0.01 0,0.01 0,0.02 0,0.16 0,0.32 0,0.47 0,0.02 0,0.03 0,0.04 0,0.04 0.01,0.08 0.01,0.12 0,0.01 0,0.03 0,0.04 0,0.04 0,0.08 0,0.11 0,0.02 0,0.04 0,0.05 0,0.04 0,0.09 0.01,0.13 0,0.01 0,0.02 0,0.02 0,0.05 0,0.1 0,0.16 0,0.01 0,0.02 0,0.03 0.01,0.04 0.01,0.08 0.01,0.12 0,0.02 0,0.03 0,0.05 0,0.03 0.01,0.06 0.01,0.1 0,0.02 0,0.04 0,0.06 0,0.03 0.01,0.06 0.01,0.1 0,0.01 0,0.03 0,0.05 0.01,0.04 0.01,0.08 0.01,0.12 0,0.01 0,0.02 0,0.03 0.01,0.05 0.01,0.1 0.02,0.15 0,0.02 0,0.03 0,0.04 0,0.04 0.01,0.07 0.01,0.11 0,0.02 0,0.04 0,0.06 0.01,0.03 0.01,0.06 0.01,0.09 0.01,0.02 0.01,0.04 0.01,0.06 0,0.03 0.01,0.07 0.01,0.1 0,0.02 0,0.04 0.01,0.05 0,0.05 0.01,0.1 0.01,0.15 0.21,1.71 0.34,3.57 0.4,5.54 19.02,4.91 45.13,8.71 80.92,10.17 16.56,0.67 32.87,1.32 48.87,1.91 -0.2,-27.16 -1.09,-53.94 -6.23,-79.07 -1.56,-7.61 -3.6,-14.8 -6.03,-21.63 m -117.5,92.97 c -0.17,10.74 -2.02,24.48 -5.08,40.08 29.57,24.14 81.23,59.94 139.79,72.33 -5.38,-32.35 -4.76,-66.62 -4.93,-100.39 -16.06,-0.6 -32.44,-1.25 -49.06,-1.93 -35.27,-1.44 -61.4,-5.19 -80.72,-10.09 m -6.03,44.8 c -4.18,20.2 -10.24,43.18 -17.25,66.63 24.5,28.02 70.42,68.17 148.54,97.04 70.09,25.91 139.81,40.98 199.06,50.98 -18.43,-10.1 -35.8,-21.18 -56.79,-25.68 -44.27,-9.49 -86.44,-16.21 -111.16,-58.36 -10.7,-18.25 -17.07,-37.95 -20.87,-58.47 -58.93,-12.02 -111.04,-47.52 -141.53,-72.14 m -18.7,71.42 c -10.97,36.14 -24.06,73.02 -35.91,102.19 15.09,15.39 35.49,34.82 58.83,53.47 23.75,-21.28 54.52,-35.53 85.91,-35.53 10.16,0 20.39,1.5 30.45,4.73 27.55,8.84 51.68,27.22 80.16,33.25 6.44,1.36 12.87,1.82 19.29,1.82 6.58,0 13.16,-0.48 19.73,-0.96 6.57,-0.49 13.12,-0.97 19.67,-0.97 9.01,0 17.99,0.91 26.96,3.98 38.56,13.2 74.8,28.74 114.85,37.69 7.7,1.72 15.44,3.28 23.19,4.76 1.5,-9.97 2.92,-20.21 4.28,-30.61 -13.11,-4.12 -26.59,-6.87 -40.43,-9.74 -16.31,-3.38 -30.86,-7.58 -45.55,-14.47 -62.12,-10 -137.26,-25.38 -212.93,-53.34 -77.01,-28.46 -123.17,-67.89 -148.5,-96.27 M 3755.43,3131 c -2.73,6.64 -5.39,12.83 -7.94,18.47 2.54,31.33 3.4,57.15 3.4,77.76 0,6.22 -0.08,11.97 -0.21,17.26 4.1,4.73 8.3,9.47 12.58,14.16 8.58,-18.56 18.46,-36.42 30.02,-52.93 5.65,-8.06 12.25,-15.68 19.57,-22.63 -22.63,-18.12 -42.47,-36.93 -57.42,-52.09 m -4.95,119.99 c -0.98,26.92 -3.37,39.71 -3.37,39.71 -0.7,4.48 -1.45,9.07 -2.24,13.73 4.9,-13.98 10.31,-27.87 16.4,-41.41 -3.66,-3.98 -7.26,-8 -10.79,-12.03"
             style="fill:#2b3077;fill-opacity:1;fill-rule:nonzero;stroke:none"
             id="path316"
             inkscape:connector-curvature="0" /><path
             d="m 3750.68,3244.49 c -0.06,2.25 -0.12,4.42 -0.2,6.5 3.53,4.03 7.13,8.05 10.79,12.03 0.65,-1.46 1.32,-2.92 1.99,-4.37 -4.28,-4.69 -8.48,-9.43 -12.58,-14.16"
             style="fill:#b4b7b5;fill-opacity:1;fill-rule:nonzero;stroke:none"
             id="path318"
             inkscape:connector-curvature="0" /><path
             d="m 3757.19,3126.71 c -0.59,1.45 -1.17,2.88 -1.76,4.29 v 0 c 14.95,15.16 34.79,33.97 57.42,52.09 1.05,-0.99 2.1,-1.96 3.17,-2.91 -23.34,-18.65 -43.74,-38.08 -58.83,-53.47 v 0"
             style="fill:#b4b7b5;fill-opacity:1;fill-rule:nonzero;stroke:none"
             id="path320"
             inkscape:connector-curvature="0" /><path
             d="m 3794.55,3019.73 c -0.48,1.6 -0.96,3.19 -1.45,4.79 v 0 c 25.33,28.38 71.49,67.81 148.5,96.27 75.67,27.96 150.81,43.34 212.93,53.34 -2.21,-1.04 -4.42,-2.14 -6.65,-3.3 -1.92,-1.01 -3.83,-2.04 -5.73,-3.08 -59.25,-10 -128.97,-25.07 -199.06,-50.98 -78.12,-28.87 -124.04,-69.02 -148.54,-97.04 v 0"
             style="fill:#b4b7b5;fill-opacity:1;fill-rule:nonzero;stroke:none"
             id="path322"
             inkscape:connector-curvature="0" /><path
             d="m 3812.75,2948.38 c -0.31,1.55 -0.62,3.13 -0.95,4.72 v 0 c 30.49,24.62 82.6,60.12 141.53,72.14 -0.28,-1.51 -0.54,-3.01 -0.79,-4.53 -58.56,-12.39 -110.22,-48.19 -139.79,-72.33 v 0"
             style="fill:#b4b7b5;fill-opacity:1;fill-rule:nonzero;stroke:none"
             id="path324"
             inkscape:connector-curvature="0" /><path
             d="m 3817.8,2903.95 c 0.03,0.87 0.04,1.76 0.04,2.67 0,0.55 0,1.11 -0.01,1.68 v 0 c 19.32,4.9 45.45,8.65 80.72,10.09 16.62,0.68 33,1.33 49.06,1.93 0,-1.43 -0.01,-2.86 -0.02,-4.29 -16,-0.59 -32.31,-1.24 -48.87,-1.91 -35.79,-1.46 -61.9,-5.26 -80.92,-10.17"
             style="fill:#b4b7b5;fill-opacity:1;fill-rule:nonzero;stroke:none"
             id="path326"
             inkscape:connector-curvature="0" /><path
             d="m 3817.4,2898.41 c 0,0 67.76,-14.21 142.07,-30.6 74.3,-16.39 260.07,-16.39 290.67,-15.3 0,0 -2.19,-171.56 6.55,-202.16 8.74,-30.59 25.14,-99.44 29.5,-147.52 4.38,-48.08 25.14,-114.73 25.14,-165 0,-50.27 -3.28,-83.05 26.22,-122.38 29.51,-39.35 -6.55,-60.11 -26.22,-68.85 -19.67,-8.74 -81.95,15.3 -142.06,20.76 -60.1,5.47 -111.46,28.41 -121.29,27.32 -9.83,-1.09 -21.85,-39.34 -85.23,-15.3 -63.38,24.04 -138.78,32.78 -204.35,27.32 -65.57,-5.46 -113.64,12.02 -158.45,29.51 -44.8,17.48 -91.79,74.3 -92.88,89.6 -1.09,15.3 64.47,95.07 100.53,183.58 36.06,88.51 111.46,192.32 156.26,264.44 44.8,72.13 53.54,124.58 53.54,124.58"
             style="fill:#ec444d;fill-opacity:1;fill-rule:nonzero;stroke:none"
             id="path328"
             inkscape:connector-curvature="0" /><path
             d="m 3599.95,2236.21 c 1.27,-0.5 2.56,-1 3.84,-1.5 33.78,42.23 67.79,84.31 97.65,129.43 21.74,32.84 43.79,67.72 54.18,106.02 7.7,28.42 13.74,57.3 20.42,85.96 14.54,62.38 27.74,130.92 60.49,186.84 9.5,16.23 22.83,34.38 42.85,37.34 15.79,2.33 29.27,-6.49 41.53,-15.21 23.51,-16.73 44.96,-24.65 74.62,-25.77 56.99,-2.15 113.72,3.26 169.1,16.75 28.63,6.97 56.93,15.15 85.36,22.83 -0.28,40.07 0.15,73.61 0.15,73.61 -30.6,-1.09 -216.37,-1.09 -290.67,15.3 -74.31,16.39 -142.07,30.6 -142.07,30.6 0,0 -8.74,-52.45 -53.54,-124.58 -44.8,-72.12 -120.2,-175.93 -156.26,-264.44 -36.06,-88.51 -101.62,-168.28 -100.53,-183.58 1.09,-15.3 48.08,-72.12 92.88,-89.6"
             style="fill:#d6323f;fill-opacity:1;fill-rule:nonzero;stroke:none"
             id="path330"
             inkscape:connector-curvature="0" /><path
             d="m 4150.48,2417.07 c 0.29,37.45 -0.91,75.66 -8.91,112.38 -5.26,24.15 -13.89,53.5 -35.84,67.86 -3.23,2.11 -10.46,6.93 -14.56,6.23 -7.95,-1.37 -6.61,-36.85 -6.78,-47.16 -0.65,-38.63 3.78,-77.15 3.17,-115.77 -0.76,-48.39 -10.85,-97.65 -19.23,-145.2 -5.95,-33.75 -12.6,-67.56 -21.01,-100.88 l 0.66,0.15 c 7.53,0.83 39.46,-12.44 81.02,-21.15 11.54,80.67 20.84,162.07 21.48,243.54"
             style="fill:#d6323f;fill-opacity:1;fill-rule:nonzero;stroke:none"
             id="path332"
             inkscape:connector-curvature="0" /><path
             d="m 4300.51,2271.34 c 1.52,47.09 2.99,94.53 -2.76,141.4 -5.52,44.92 -18.16,95.28 -56.46,123.11 -5.19,-38.37 3.47,-78.95 10.72,-116.33 9.4,-48.42 20.9,-96.42 28.73,-145.13 6.12,-37.97 13.02,-86.33 5.19,-128.57 6.76,-0.94 12.63,-1.33 17.44,-0.96 -3.36,41.82 -4.24,83.99 -2.86,126.48"
             style="fill:#d6323f;fill-opacity:1;fill-rule:nonzero;stroke:none"
             id="path334"
             inkscape:connector-curvature="0" /><path
             d="m 3887.76,2248.59 c 8.77,85.42 13.64,176.78 -5.45,261.4 -20.91,-35.91 -36.68,-73.92 -48.84,-113.77 -11.36,-37.26 -18.48,-76.47 -32.56,-112.81 -9.92,-25.61 -24.65,-50.86 -38.95,-76.46 38.33,2.88 79.83,0.94 120.25,-6.02 2.08,15.94 3.92,31.85 5.55,47.66"
             style="fill:#d6323f;fill-opacity:1;fill-rule:nonzero;stroke:none"
             id="path336"
             inkscape:connector-curvature="0" /><g
             id="g338"><g
               id="g340"
               clip-path="url(#clipPath344)"><path
                 d="m 3753.35,3885.93 c 0,0 -66.86,9.93 -85.4,-78.12 -18.53,-88.04 -67.52,-231.03 103.94,-227.72 171.44,3.31 214.47,93.34 205.2,156.23 -9.27,62.89 -26.47,80.1 -40.38,113.86 -13.9,33.76 -50.97,73.48 -103.26,70.83 -52.3,-2.65 -80.1,-35.08 -80.1,-35.08"
                 style="fill:url(#linearGradient350);fill-opacity:1;fill-rule:nonzero;stroke:none"
                 id="path352"
                 inkscape:connector-curvature="0" /></g></g><path
             d="m 3925,3712.82 c 7.06,-19.84 28.7,-30.27 48.34,-23.28 19.63,6.99 29.82,28.75 22.76,48.59 -7.07,19.85 -28.72,30.27 -48.34,23.29 -19.64,-6.99 -29.83,-28.75 -22.76,-48.6"
             style="fill:#f9afc0;fill-opacity:1;fill-rule:nonzero;stroke:none"
             id="path354"
             inkscape:connector-curvature="0" /><path
             d="m 3983.56,3750.02 c -0.12,0.03 -2.84,0.59 -6.87,0.59 -4.81,0 -11.55,-0.8 -17.89,-4.51 -6.35,-3.7 -12.12,-10.44 -14.69,-21.51 l 4.87,-1.15 c 2.36,9.94 7.13,15.24 12.35,18.35 5.23,3.08 11.1,3.83 15.36,3.82 1.78,0 3.27,-0.12 4.3,-0.25 l 1.18,-0.16 0.36,-0.07 1.04,4.89"
             style="fill:#ef6291;fill-opacity:1;fill-rule:nonzero;stroke:none"
             id="path356"
             inkscape:connector-curvature="0" /><path
             d="m 3750.78,3647.81 c 7.64,-19.63 -1.91,-41.67 -21.32,-49.23 -19.43,-7.56 -41.36,2.23 -49.01,21.86 -7.64,19.63 1.91,41.67 21.33,49.24 19.42,7.56 41.36,-2.23 49,-21.87"
             style="fill:#f9afc0;fill-opacity:1;fill-rule:nonzero;stroke:none"
             id="path358"
             inkscape:connector-curvature="0" /><path
             d="m 3686.13,3634.6 0.37,0.45 c 1.85,2.25 10.49,11.37 22.13,11.29 4.99,-0.01 10.68,-1.57 17.06,-6.18 l 2.94,4.05 c -7.09,5.15 -13.92,7.14 -20,7.13 -16.34,-0.13 -26.28,-13.55 -26.48,-13.71 l 3.98,-3.03"
             style="fill:#ef6291;fill-opacity:1;fill-rule:nonzero;stroke:none"
             id="path360"
             inkscape:connector-curvature="0" /><path
             d="m 3953.78,3711.12 c 27.92,-83.23 0.19,-167.59 -61.94,-188.43 -62.14,-20.84 -135.14,29.73 -163.05,112.96 -27.92,83.23 -0.18,167.59 61.94,188.43 62.14,20.84 135.14,-29.73 163.05,-112.96"
             style="fill:#f9afc0;fill-opacity:1;fill-rule:nonzero;stroke:none"
             id="path362"
             inkscape:connector-curvature="0" /><path
             d="m 3763.15,3738.75 c 4.72,14.92 11.17,56.05 30.3,61.7 18.54,5.46 37.6,-26.84 51.6,-34.23 25.47,-13.43 59.18,-12.91 88.92,-12.45 -34.8,56.87 -92.62,87.29 -143.24,70.31 -55.1,-18.48 -83.09,-86.95 -69.24,-160.26 20.83,19.5 33.22,48.32 41.66,74.93"
             style="fill:#ef6291;fill-opacity:1;fill-rule:nonzero;stroke:none"
             id="path364"
             inkscape:connector-curvature="0" /><g
             id="g366"><g
               id="g368"
               clip-path="url(#clipPath372)"><path
                 d="m 3770.42,3849.64 c 16.38,-20.46 -1.18,-41.17 -21.04,-81.88 -19.87,-40.71 -26.81,-61.56 -67.52,-105.25 -40.72,-43.69 18.86,-69.51 18.86,-69.51 0,0 -47.66,-3.97 -47.66,74.47 0,78.45 43.69,119.16 50.64,155.89 6.96,36.75 62.75,31.25 66.72,26.28"
                 style="fill:url(#linearGradient378);fill-opacity:1;fill-rule:nonzero;stroke:none"
                 id="path380"
                 inkscape:connector-curvature="0" /></g></g><g
             id="g382"><g
               id="g384"
               clip-path="url(#clipPath388)"><path
                 d="m 3762.08,3851.15 c 0.51,-26.21 14.86,-38.02 56.15,-56.62 41.31,-18.59 59.99,-30.17 119.23,-37.71 59.24,-7.55 29.96,-65.5 29.96,-65.5 0,0 39.18,27.44 -10.99,87.73 -50.18,60.3 -109.81,63.65 -138.64,87.44 -28.85,23.8 -55.82,-8.98 -55.71,-15.34"
                 style="fill:url(#linearGradient394);fill-opacity:1;fill-rule:nonzero;stroke:none"
                 id="path396"
                 inkscape:connector-curvature="0" /></g></g><path
             d="m 3795.52,3681.88 c 3.42,-8.96 1.34,-18.08 -4.64,-20.36 -5.98,-2.27 -13.59,3.14 -17.01,12.11 -3.42,8.96 -1.35,18.07 4.63,20.35 5.97,2.28 13.59,-3.14 17.02,-12.1"
             style="fill:#f9f1d2;fill-opacity:1;fill-rule:nonzero;stroke:none"
             id="path398"
             inkscape:connector-curvature="0" /><path
             d="m 3788.22,3675.17 c 2.33,-6.07 1.36,-12.08 -2.14,-13.42 -3.51,-1.33 -8.23,2.51 -10.54,8.58 -2.32,6.07 -1.36,12.08 2.15,13.42 3.5,1.34 8.22,-2.5 10.53,-8.58"
             style="fill:#5d0c34;fill-opacity:1;fill-rule:nonzero;stroke:none"
             id="path400"
             inkscape:connector-curvature="0" /><path
             d="m 3893.27,3720.22 c 3.42,-8.96 1.35,-18.08 -4.63,-20.36 -5.97,-2.27 -13.59,3.14 -17.01,12.1 -3.41,8.97 -1.34,18.08 4.63,20.36 5.98,2.28 13.6,-3.13 17.01,-12.1"
             style="fill:#f9f1d2;fill-opacity:1;fill-rule:nonzero;stroke:none"
             id="path402"
             inkscape:connector-curvature="0" /><path
             d="m 3885.94,3713.66 c 2.31,-6.07 1.35,-12.08 -2.16,-13.42 -3.49,-1.34 -8.22,2.51 -10.54,8.58 -2.31,6.07 -1.34,12.08 2.16,13.41 3.5,1.34 8.23,-2.5 10.54,-8.57"
             style="fill:#5d0c34;fill-opacity:1;fill-rule:nonzero;stroke:none"
             id="path404"
             inkscape:connector-curvature="0" /><path
             d="m 3737.46,3696.27 c 0,0 13.9,23.83 53.13,25.32 0,0 -47.17,20.36 -53.13,-25.32"
             style="fill:#5d0c34;fill-opacity:1;fill-rule:nonzero;stroke:none"
             id="path406"
             inkscape:connector-curvature="0" /><path
             d="m 3841.91,3740.27 c 0,0 19.19,19.83 57.63,11.91 0,0 -40.94,31.03 -57.63,-11.91"
             style="fill:#5d0c34;fill-opacity:1;fill-rule:nonzero;stroke:none"
             id="path408"
             inkscape:connector-curvature="0" /><path
             d="m 3825.44,3657.29 c 0,0 0.19,-0.62 0.5,-1.74 0.92,-3.32 2.76,-10.97 2.75,-17.41 0.01,-2.33 -0.24,-4.49 -0.77,-6.16 -0.32,-1 -0.48,-2.01 -0.48,-3 -0.02,-3.6 2.21,-6.55 5.16,-8.28 2.97,-1.78 6.76,-2.66 10.91,-2.67 4.54,0 9.53,1.09 14.25,3.54 l -2.3,4.43 c -3.97,-2.06 -8.21,-2.98 -11.95,-2.97 -3.42,-0.01 -6.41,0.77 -8.33,1.95 -1.95,1.22 -2.72,2.49 -2.74,4 l 0.25,1.5 c 0.75,2.38 1,4.99 1,7.66 -0.02,9.74 -3.46,20.52 -3.48,20.65 l -4.77,-1.5"
             style="fill:#ef6291;fill-opacity:1;fill-rule:nonzero;stroke:none"
             id="path410"
             inkscape:connector-curvature="0" /><path
             d="m 3823.35,3593 c 0,0 39.22,0 69.02,20.36 0,0 -19.37,-81.92 -69.02,-20.36"
             style="fill:#ffffff;fill-opacity:1;fill-rule:nonzero;stroke:none"
             id="path412"
             inkscape:connector-curvature="0" /><path
             d="m 3776.16,3824.97 c 0,-0.01 -0.51,-2.68 -1.47,-7.12 -2.88,-13.28 -10,-42.23 -19.57,-59.33 -10.48,-18.88 -29.15,-43.72 -29.21,-72.99 0,-6.73 1,-13.69 3.34,-20.79 l 4.75,1.56 c -2.17,6.59 -3.09,13 -3.09,19.23 -0.06,27.07 17.74,51.25 28.58,70.56 13.44,24.16 21.53,67.84 21.58,67.96 l -4.91,0.92"
             style="fill:#5d0c34;fill-opacity:1;fill-rule:nonzero;stroke:none"
             id="path414"
             inkscape:connector-curvature="0" /><path
             d="m 3780.49,3819.01 v -0.6 c 0.04,-4.62 -0.54,-35.36 -11.74,-56.66 -12.63,-24.2 -13.84,-32.02 -13.92,-32.5 l 4.95,-0.71 v 0.01 c 0.09,0.52 1.69,8.47 13.4,30.88 11.93,22.92 12.28,53.99 12.31,58.98 v 0.68 l -5,-0.08"
             style="fill:#5d0c34;fill-opacity:1;fill-rule:nonzero;stroke:none"
             id="path416"
             inkscape:connector-curvature="0" /><path
             d="m 3755.69,3885.04 0.07,0.17 c 1,2.22 11.49,24.49 57,40.2 8.15,2.81 16.16,4 23.93,4 37.54,0.08 69.63,-28.25 79.03,-36.82 l 3.35,3.71 c -9.62,8.64 -42.32,38.04 -82.38,38.11 -8.28,0 -16.86,-1.27 -25.56,-4.27 -49.82,-17.12 -59.93,-42.73 -60.12,-43.33 l 4.68,-1.77"
             style="fill:#5d0c34;fill-opacity:1;fill-rule:nonzero;stroke:none"
             id="path418"
             inkscape:connector-curvature="0" /><path
             d="m 3748.73,3890.39 c -0.05,0 -0.69,0.04 -1.82,0.04 -4.52,0 -16.93,-0.64 -31.41,-6.94 -14.48,-6.29 -31,-18.32 -43.43,-40.83 -5.95,-10.81 -12.47,-30.77 -18.38,-51.55 -5.9,-20.75 -11.09,-42.23 -14.11,-55.66 -2.34,-10.46 -3.04,-22.87 -3.05,-34.31 0,-18.7 1.91,-34.77 1.92,-34.83 l 4.96,0.59 c 0,0.01 -0.46,3.94 -0.94,10.21 -0.47,6.27 -0.94,14.85 -0.94,24.03 0,11.23 0.72,23.37 2.93,33.22 3,13.34 8.18,34.76 14.04,55.39 5.83,20.6 12.43,40.54 17.95,50.49 11.9,21.51 27.42,32.72 41.04,38.67 13.62,5.93 25.37,6.52 29.42,6.52 1.01,0 1.49,-0.04 1.49,-0.03 l 0.33,4.99"
             style="fill:#5d0c34;fill-opacity:1;fill-rule:nonzero;stroke:none"
             id="path420"
             inkscape:connector-curvature="0" /><path
             d="m 3755.86,3884.13 c -6.95,7.52 -15.34,10.55 -23.69,10.53 -14.03,-0.05 -27.97,-7.99 -38.58,-15.73 -10.6,-7.77 -17.82,-15.48 -17.88,-15.55 l 3.65,-3.42 1.22,1.25 c 2.83,2.84 10.37,10.05 19.93,16.47 9.54,6.45 21.11,12.01 31.66,11.98 7.2,-0.03 13.93,-2.41 20.02,-8.93 l 3.67,3.4"
             style="fill:#5d0c34;fill-opacity:1;fill-rule:nonzero;stroke:none"
             id="path422"
             inkscape:connector-curvature="0" /><path
             d="m 3481.94,2461.68 c -7.81,-30.86 80.85,-41.53 90.33,-5.83 9.47,35.69 -74.31,69.2 -90.33,5.83"
             style="fill:#2a2f73;fill-opacity:1;fill-rule:nonzero;stroke:none"
             id="path424"
             inkscape:connector-curvature="0" /><path
             d="m 3530.01,2495.19 c 37.5,-2.85 34.97,-35.7 42.99,-64.11 8.01,-28.41 19.67,-41.53 14.57,-60.47 -5.11,-18.94 -8.02,-53.9 -9.47,-76.49 -1.46,-22.58 -24.05,-18.21 -31.33,8.74 -7.29,26.96 -9.47,49.54 -16.76,44.44 -7.28,-5.1 9.47,-62.65 23.31,-79.4 13.85,-16.76 -26.22,-6.57 -48.81,9.46 -22.57,16.03 -62.64,54.64 -57.54,68.48 5.09,13.84 31.32,64.11 40.06,82.32 8.74,18.21 -5.09,70.67 42.98,67.03"
             style="fill:#f9afc0;fill-opacity:1;fill-rule:nonzero;stroke:none"
             id="path426"
             inkscape:connector-curvature="0" /><path
             d="m 3747.11,3290.7 c -10.2,64.84 -29.14,154.45 -74.31,137.69 -45.17,-16.75 -45.17,-63.38 -103.44,-395.57 -58.28,-332.2 -87.42,-571.14 -87.42,-571.14 0,0 48.07,52.45 90.33,-5.83 0,0 87.42,221.46 141.33,473.52 53.9,252.06 33.51,361.33 33.51,361.33"
             style="fill:#2c3c9a;fill-opacity:1;fill-rule:nonzero;stroke:none"
             id="path428"
             inkscape:connector-curvature="0" /><g
             id="g430"><g
               id="g432"
               clip-path="url(#clipPath436)"><path
                 d="m 3604.36,2525.64 c -67.06,59.31 -131.56,13.5 -134.28,11.53 l -2.52,3.45 c 0.69,0.51 69.95,49.84 139.64,-11.78 l -2.84,-3.2"
                 style="fill:#ffffff;fill-opacity:1;fill-rule:nonzero;stroke:none"
                 id="path438"
                 inkscape:connector-curvature="0" /><path
                 d="m 3641.98,2633.73 c -46.53,58.51 -144.09,21.57 -145.07,21.19 l -1.55,3.99 c 1.01,0.38 101.48,38.47 149.97,-22.52 l -3.35,-2.66"
                 style="fill:#ffffff;fill-opacity:1;fill-rule:nonzero;stroke:none"
                 id="path440"
                 inkscape:connector-curvature="0" /><path
                 d="m 3678.65,2738.37 c -71.67,64.58 -170.83,22.64 -171.82,22.21 l -1.7,3.93 c 1.01,0.44 102.65,43.48 176.38,-22.96 l -2.86,-3.18"
                 style="fill:#ffffff;fill-opacity:1;fill-rule:nonzero;stroke:none"
                 id="path442"
                 inkscape:connector-curvature="0" /><path
                 d="m 3710.71,2846.18 c -68.85,61.05 -181.71,18.97 -182.85,18.54 l -1.52,4 c 1.15,0.44 116.4,43.45 187.22,-19.34 l -2.85,-3.2"
                 style="fill:#ffffff;fill-opacity:1;fill-rule:nonzero;stroke:none"
                 id="path444"
                 inkscape:connector-curvature="0" /><path
                 d="m 3759.74,2932.12 c -0.29,0.62 -29.67,62.17 -113.2,63.59 -83.08,1.44 -99.25,-52.94 -99.9,-55.26 l -4.12,1.14 c 0.16,0.59 17.06,58.43 100.95,58.43 1.03,0 2.08,-0.01 3.14,-0.03 86.31,-1.46 116.71,-65.44 117.01,-66.08 l -3.88,-1.79"
                 style="fill:#ffffff;fill-opacity:1;fill-rule:nonzero;stroke:none"
                 id="path446"
                 inkscape:connector-curvature="0" /><path
                 d="m 3753.34,3078.25 c -0.18,0.28 -19.48,27.86 -86.76,40.61 -67.68,12.83 -132.68,-23.43 -133.33,-23.8 l -2.11,3.73 c 0.67,0.37 67.06,37.38 136.22,24.28 69.3,-13.13 88.75,-41.25 89.54,-42.44 l -3.56,-2.38"
                 style="fill:#ffffff;fill-opacity:1;fill-rule:nonzero;stroke:none"
                 id="path448"
                 inkscape:connector-curvature="0" /><path
                 d="m 3806.82,3185.26 c -0.01,0 -5.89,2.21 -91.79,34.23 -83.84,31.26 -136.69,-2.35 -137.22,-2.7 l -2.35,3.58 c 0.54,0.35 55.09,35.2 141.07,3.13 85.96,-32.05 91.79,-34.24 91.79,-34.24 l -1.5,-4"
                 style="fill:#ffffff;fill-opacity:1;fill-rule:nonzero;stroke:none"
                 id="path450"
                 inkscape:connector-curvature="0" /><path
                 d="m 3768.35,3319.63 c -58.45,47.05 -153.51,44 -154.48,43.97 l -0.16,4.28 c 0.96,0.03 97.65,3.12 157.32,-44.91 l -2.68,-3.34"
                 style="fill:#ffffff;fill-opacity:1;fill-rule:nonzero;stroke:none"
                 id="path452"
                 inkscape:connector-curvature="0" /></g></g><g
             id="g454"><g
               id="g456"
               clip-path="url(#clipPath460)"><path
                 d="m 3747.49,3149.47 h 3.4023 v 77.7617 h -3.4023 z"
                 style="fill:#232657;fill-opacity:1;fill-rule:nonzero;stroke:none"
                 id="path462"
                 inkscape:connector-curvature="0" /></g></g><path
             d="m 3572.27,2455.85 v 0 0 0 m -0.83,1.12 c -1.98,2.66 -3.98,5.05 -5.98,7.23 -0.01,0.03 -0.02,0.06 -0.02,0.08 2,-2.2 4.01,-4.64 6,-7.31"
             style="fill:#212553;fill-opacity:1;fill-rule:nonzero;stroke:none"
             id="path464"
             inkscape:connector-curvature="0" /><path
             d="m 3565.46,2464.2 c -1.1,1.2 -2.21,2.34 -3.31,3.41 0.01,0.02 0.01,0.04 0.02,0.06 1.09,-1.07 2.18,-2.19 3.27,-3.39 0,-0.02 0.01,-0.05 0.02,-0.08"
             style="fill:#b2808d;fill-opacity:1;fill-rule:nonzero;stroke:none"
             id="path466"
             inkscape:connector-curvature="0" /><path
             d="m 3572.27,2455.85 v 0 0 c -0.28,0.38 -0.55,0.75 -0.83,1.12 -1.99,2.67 -4,5.11 -6,7.31 -1.09,1.2 -2.18,2.32 -3.27,3.39 8.52,23.59 14.27,49.14 19.45,74.37 5.89,-3.34 11.85,-7.4 17.85,-12.26 -16.38,-46.52 -27.2,-73.93 -27.2,-73.93 m 28.7,78.21 c -6.19,4.91 -12.36,8.97 -18.46,12.31 5.4,26.51 10.31,52.52 17.32,75.35 3.69,12.04 7.13,24.12 10.35,36.26 9.42,-4.09 18.31,-9.87 26.11,-17.81 -12.98,-41.11 -25.15,-77.09 -35.32,-106.11 m 36.77,110.71 c -8,7.72 -16.98,13.36 -26.46,17.39 8.91,34.09 16.14,68.56 22.49,103.21 11.67,-4.23 23.28,-10.21 34.41,-18.44 -10.25,-36.41 -20.56,-70.72 -30.44,-102.16 m 31.67,106.56 c -11.3,8.16 -23.06,14.1 -34.87,18.31 4.55,25.12 8.64,50.33 12.59,75.56 1.57,10.01 2.9,20.07 4.17,30.12 15.75,-3.38 31.36,-9.25 45.68,-18.64 -8.84,-36.42 -18.16,-71.75 -27.57,-105.35 m 28.64,109.75 c -14.56,9.29 -30.33,15.11 -46.21,18.48 3.02,24 5.88,48.04 11.01,71.7 3.09,14.21 7.82,27.81 13.01,41.23 19.16,-4.03 34.52,-11.4 46.59,-19.64 -2.7,-14 -5.65,-28.48 -8.85,-43.48 -4.94,-23.06 -10.15,-45.88 -15.55,-68.29 m 25.27,116.33 c -12.08,8.01 -27.23,15.11 -45.88,19.13 7.79,19.75 16.32,39.23 21.8,59.85 4.4,16.57 7.9,33.31 10.82,50.17 14.33,-5.72 24.4,-11.85 31.2,-16.93 -4.16,-33.01 -9.95,-70.36 -17.94,-112.22 m 18.56,117.21 c -7.13,5.08 -17.21,10.9 -31.08,16.32 5.81,34.77 9.3,70.01 13.35,105.15 9.96,-3.71 18.74,-6.99 26.46,-9.86 -0.42,-16.4 -1.37,-35.28 -3.12,-56.76 -1.35,-16.71 -3.18,-34.97 -5.61,-54.85 m 8.84,116.13 c -7.64,2.85 -16.28,6.07 -26.07,9.72 4.03,34.53 8.72,68.96 16.82,102.73 2.15,-11.1 4,-22.12 5.64,-32.5 0,0 3.78,-20.26 3.78,-63.47 0,-5.17 -0.05,-10.66 -0.17,-16.48"
             style="fill:#2b3077;fill-opacity:1;fill-rule:nonzero;stroke:none"
             id="path468"
             inkscape:connector-curvature="0" /><path
             d="m 3599.47,2529.78 v 0 c -6,4.86 -11.96,8.92 -17.85,12.26 0.3,1.44 0.59,2.89 0.89,4.33 6.1,-3.34 12.27,-7.4 18.46,-12.31 v 0 c -0.5,-1.44 -1.01,-2.87 -1.5,-4.28"
             style="fill:#b4b7b5;fill-opacity:1;fill-rule:nonzero;stroke:none"
             id="path470"
             inkscape:connector-curvature="0" /><path
             d="m 3636.29,2640.17 v 0 c -7.8,7.94 -16.69,13.72 -26.11,17.81 0.37,1.39 0.74,2.79 1.1,4.18 9.48,-4.03 18.46,-9.67 26.46,-17.39 v 0 c -0.49,-1.54 -0.97,-3.07 -1.45,-4.6"
             style="fill:#b4b7b5;fill-opacity:1;fill-rule:nonzero;stroke:none"
             id="path472"
             inkscape:connector-curvature="0" /><path
             d="m 3668.18,2746.93 v 0 c -11.13,8.23 -22.74,14.21 -34.41,18.44 0.26,1.42 0.51,2.85 0.77,4.27 11.81,-4.21 23.57,-10.15 34.87,-18.31 v 0 c -0.41,-1.46 -0.82,-2.94 -1.23,-4.4"
             style="fill:#b4b7b5;fill-opacity:1;fill-rule:nonzero;stroke:none"
             id="path474"
             inkscape:connector-curvature="0" /><path
             d="m 3696.98,2856.68 v 0 c -14.32,9.39 -29.93,15.26 -45.68,18.64 0.18,1.42 0.36,2.83 0.54,4.24 15.88,-3.37 31.65,-9.19 46.21,-18.48 v 0 c -0.36,-1.48 -0.71,-2.92 -1.07,-4.4"
             style="fill:#b4b7b5;fill-opacity:1;fill-rule:nonzero;stroke:none"
             id="path476"
             inkscape:connector-curvature="0" /><path
             d="m 3722.45,2972.85 v 0 c -12.07,8.24 -27.43,15.61 -46.59,19.64 0.53,1.35 1.05,2.7 1.58,4.05 18.65,-4.02 33.8,-11.12 45.88,-19.13 v 0 c -0.29,-1.51 -0.58,-3.04 -0.87,-4.56"
             style="fill:#b4b7b5;fill-opacity:1;fill-rule:nonzero;stroke:none"
             id="path478"
             inkscape:connector-curvature="0" /><path
             d="m 3741.26,3089.63 v 0 c -6.8,5.08 -16.87,11.21 -31.2,16.93 0.25,1.46 0.5,2.92 0.74,4.38 13.87,-5.42 23.95,-11.24 31.08,-16.32 v 0 c -0.21,-1.65 -0.41,-3.32 -0.62,-4.99"
             style="fill:#b4b7b5;fill-opacity:1;fill-rule:nonzero;stroke:none"
             id="path480"
             inkscape:connector-curvature="0" /><path
             d="m 3750.61,3206.23 v 0 c -7.72,2.87 -16.5,6.15 -26.46,9.86 0.16,1.47 0.33,2.92 0.5,4.38 9.79,-3.65 18.43,-6.87 26.07,-9.72 v 0 c -0.03,-1.48 -0.07,-3 -0.11,-4.52"
             style="fill:#b4b7b5;fill-opacity:1;fill-rule:nonzero;stroke:none"
             id="path482"
             inkscape:connector-curvature="0" /></g></g><g
         id="g1524"
         transform="matrix(34.59844,0,0,-33.786623,1414.4477,7650.3651)"><path
           d="m 72.962644,115.57143 c 0,10.2362 -8.294441,18.53544 -18.534073,18.53544 -10.23963,0 -18.534073,-8.29924 -18.534073,-18.53544 0,-10.23689 8.294443,-18.535445 18.534073,-18.535445 10.239632,0 18.534073,8.298555 18.534073,18.535445"
           style="fill:#66aafc;fill-opacity:1;fill-rule:nonzero;stroke:none;stroke-width:0.06849251"
           id="path698"
           inkscape:connector-curvature="0" /><g
           style="fill:#ffffff"
           id="g700"
           transform="matrix(0.06815243,0,0,-0.06815243,-1043.4653,493.95695)"><path
             d="m 16087.5,5380.52 c -0.1,0 -0.1,0 -0.2,0 -13.2,0.06 -25.6,6.69 -33,17.68 l -111.8,166.73 c -12.3,18.31 -7.4,43.1 10.8,55.39 18.4,12.27 43.2,7.4 55.4,-10.91 l 79.1,-117.85 133.9,195.4 c 12.5,18.19 37.3,22.83 55.5,10.37 18.1,-12.46 22.8,-37.3 10.3,-55.48 l -167.1,-243.98 c -7.5,-10.86 -19.8,-17.35 -32.9,-17.35"
             style="fill:#ffffff;fill-opacity:0.94709018;fill-rule:nonzero;stroke:none"
             id="path702"
             inkscape:connector-curvature="0" /></g></g><ellipse
         class="st1"
         cx="3436.748"
         cy="-119.23231"
         rx="1656.3518"
         ry="84.203705"
         id="ellipse7"
         style="fill:#66aafc;fill-opacity:1;stroke-width:2.38153219"
         transform="scale(1,-1)" /></g></g></svg>