<?xml version="1.0" encoding="UTF-8" standalone="no"?>
<!-- Generator: Adobe Illustrator 22.1.0, SVG Export Plug-In . SVG Version: 6.00 Build 0)  -->

<svg
   xmlns:dc="http://purl.org/dc/elements/1.1/"
   xmlns:cc="http://creativecommons.org/ns#"
   xmlns:rdf="http://www.w3.org/1999/02/22-rdf-syntax-ns#"
   xmlns:svg="http://www.w3.org/2000/svg"
   xmlns="http://www.w3.org/2000/svg"
   xmlns:xlink="http://www.w3.org/1999/xlink"
   xmlns:sodipodi="http://sodipodi.sourceforge.net/DTD/sodipodi-0.dtd"
   xmlns:inkscape="http://www.inkscape.org/namespaces/inkscape"
   version="1.1"
   x="0px"
   y="0px"
   viewBox="0 0 1400 1200"
   style="enable-background:new 0 0 1400 1200;"
   xml:space="preserve"
   id="svg562"
   sodipodi:docname="People Talking.svg"
   inkscape:version="0.92.5 (2060ec1f9f, 2020-04-08)"><metadata
   id="metadata568"><rdf:RDF><cc:Work
       rdf:about=""><dc:format>image/svg+xml</dc:format><dc:type
         rdf:resource="http://purl.org/dc/dcmitype/StillImage" /></cc:Work></rdf:RDF></metadata><defs
   id="defs566">
			
			
		
			
			
		
			
			
		</defs><sodipodi:namedview
   pagecolor="#ffffff"
   bordercolor="#666666"
   borderopacity="1"
   objecttolerance="10"
   gridtolerance="10"
   guidetolerance="10"
   inkscape:pageopacity="0"
   inkscape:pageshadow="2"
   inkscape:window-width="1366"
   inkscape:window-height="740"
   id="namedview564"
   showgrid="false"
   inkscape:zoom="0.30909221"
   inkscape:cx="686.50739"
   inkscape:cy="529.28887"
   inkscape:window-x="0"
   inkscape:window-y="0"
   inkscape:window-maximized="1"
   inkscape:current-layer="g559" />
<style
   type="text/css"
   id="style2">
	.st0{fill:#D5F7F2;}
	.st1{opacity:0.41;fill:#56CCB8;}
	.st2{fill:#FFDEBF;}
	.st3{fill:#EDC6A6;}
	.st4{fill:#414042;}
	.st5{fill:#8B3504;}
	.st6{fill:#FFFFFF;}
	.st7{fill:#642712;}
	.st8{fill:#F395A7;}
	.st9{fill:#F1F2F2;}
	.st10{fill:#873925;}
	.st11{opacity:0.45;fill:#231F20;}
	.st12{fill:#D1D3D4;}
	.st13{opacity:0.45;fill:#EDC6A6;}
	.st14{fill:#A7A9AC;}
	.st15{fill:#A97C50;}
	.st16{fill:#C49A6C;}
	.st17{opacity:0.45;}
	.st18{fill:#231F20;}
	.st19{fill:#F8CF99;}
	.st20{opacity:0.55;fill:#56CCB8;}
	.st21{fill:#261D18;}
	.st22{fill:#40332B;}
	.st23{fill:#1C3A54;}
	.st24{fill:#DDAA72;}
	.st25{fill:#F26522;}
	.st26{fill:#E8E8E8;}
	.st27{fill:#AD684B;}
	.st28{fill:#132E3F;}
	.st29{fill:#9B8579;}
	.st30{fill:#8A532C;}
	.st31{fill:#7A4622;}
	.st32{fill:#63391D;}
	.st33{opacity:0.45;fill:#939598;}
	.st34{fill:#826045;}
	.st35{fill:#C4C5C6;}
	.st36{fill:#1B75BC;}
	.st37{clip-path:url(#SVGID_2_);}
	.st38{fill:#D3906E;}
	.st39{fill:#5E3E33;}
	.st40{fill:#6D4A3B;}
</style>

<g
   id="OBJECT">
	<g
   id="g559">
		<ellipse
   class="st1"
   cx="700"
   cy="1090.7"
   rx="460.5"
   ry="53.4"
   id="ellipse7"
   style="fill:#0f68ba;fill-opacity:0.98412699" />
		<g
   id="g197">
				<g
   id="g17">
					<g
   id="g11">
						<path
   style="fill:#ffdebf"
   inkscape:connector-curvature="0"
   id="path9"
   d="m 712.2,871 c -2.9,12.8 -0.6,47.9 -5.9,102.1 -5.3,54.2 -10.6,84.3 -7.9,93.9 v 26.9 c 0,1.8 -1.5,3.3 -3.3,3.3 h -7.5 c -1.6,0 -3,-1.2 -3.2,-2.8 l -1.4,-8.2 c 0,0 -6.2,11.4 -12.7,11.6 -6,0.2 -113.5,13.5 -19.2,-25.7 7,-2.9 15.2,-6.2 24.6,-9.7 8.4,-3.2 -10,-100 -11.1,-145.2 -1.2,-45.2 14.7,-61.2 11.7,-83.5 l 35.3,5 c 0,0.1 3.5,19.5 0.6,32.3 z"
   class="st2" />
					</g>
					<path
   style="fill:#edc6a6"
   inkscape:connector-curvature="0"
   id="path13"
   d="m 713.1,864.5 c 1,-12 -1.5,-25.7 -1.5,-25.7 l -35.3,-5.1 c 1.4,10.8 -1.6,20.1 -4.9,31.9 H 708 c -0.3,3.4 -0.8,11.7 -0.8,21.6 0,13 -5.2,92.9 -7.2,124.2 -1.9,31.3 -4.1,47 -1.7,55.5 -2.6,-9.6 2.6,-39.6 7.9,-93.9 5.3,-54.3 2.9,-89.4 5.9,-102.1 0.4,-1.7 0.6,-3.5 0.8,-5.3 v 0 c 0.2,-0.3 0.2,-0.7 0.2,-1.1 0,0.1 0,0 0,0 z"
   class="st3" />
					<path
   style="fill:#414042"
   inkscape:connector-curvature="0"
   id="path15"
   d="m 698.4,1067 v 26.9 c 0,1.8 -1.5,3.3 -3.3,3.3 h -7.5 c -1.6,0 -3,-1.2 -3.2,-2.8 l -1.4,-8.2 c 0,0 -6.2,11.4 -12.7,11.6 -6,0.2 -113.5,13.5 -19.2,-25.7 h 1 c 0,0 3.6,8.4 20.2,4.1 16.5,-4.3 26.1,-9.2 26.1,-9.2 z"
   class="st4" />
				</g>
				<g
   id="g27">
					<g
   id="g21">
						<path
   style="fill:#ffdebf"
   inkscape:connector-curvature="0"
   id="path19"
   d="m 725.8,871 c 2.9,12.8 0.6,47.9 5.9,102.1 5.3,54.2 10.6,84.3 7.9,93.9 v 26.9 c 0,1.8 1.5,3.3 3.3,3.3 h 7.5 c 1.6,0 3,-1.2 3.2,-2.8 l 1.4,-8.2 c 0,0 6.2,11.4 12.7,11.6 6,0.2 113.5,13.5 19.2,-25.7 -7,-2.9 -15.2,-6.2 -24.6,-9.7 -8.4,-3.2 10,-100 11.1,-145.2 1.2,-45.2 -14.7,-61.2 -11.7,-83.5 l -35.3,5 c 0,0.1 -3.5,19.5 -0.6,32.3 z"
   class="st2" />
					</g>
					<path
   style="fill:#edc6a6"
   inkscape:connector-curvature="0"
   id="path23"
   d="m 724.9,864.5 c -1,-12 1.5,-25.7 1.5,-25.7 l 35.3,-5.1 c -1.4,10.8 1.6,20.1 4.9,31.9 H 730 c 0.3,3.4 0.8,11.7 0.8,21.6 0,13 5.2,92.9 7.2,124.2 1.9,31.3 4.1,47 1.7,55.5 2.6,-9.6 -2.6,-39.6 -7.9,-93.9 -5.3,-54.3 -2.9,-89.4 -5.9,-102.1 -0.4,-1.7 -0.6,-3.5 -0.8,-5.3 v 0 c -0.2,-0.3 -0.2,-0.7 -0.2,-1.1 0,0.1 0,0 0,0 z"
   class="st3" />
					<path
   style="fill:#414042"
   inkscape:connector-curvature="0"
   id="path25"
   d="m 739.6,1067 v 26.9 c 0,1.8 1.5,3.3 3.3,3.3 h 7.5 c 1.6,0 3,-1.2 3.2,-2.8 l 1.4,-8.2 c 0,0 6.2,11.4 12.7,11.6 6,0.2 113.5,13.5 19.2,-25.7 h -1 c 0,0 -3.6,8.4 -20.2,4.1 -16.5,-4.3 -26.1,-9.2 -26.1,-9.2 z"
   class="st4" />
				</g>
				<path
   style="fill:#8b3504"
   inkscape:connector-curvature="0"
   id="path29"
   d="m 745.9,523.3 c 24.5,0 44.6,-26.6 45.3,-51.1 C 794.7,339.7 748.7,340 721,340 c -20.1,0 -73.8,-0.2 -70.2,132.2 0.7,24.5 20.8,51.1 45.3,51.1 z"
   class="st5" />
				<rect
   style="fill:#ffffff"
   id="rect31"
   height="226.2"
   width="63.299999"
   class="st6"
   y="518.29999"
   x="689.20001" />
				<path
   style="fill:#414042"
   inkscape:connector-curvature="0"
   id="path33"
   d="m 720.8,716.2 c -24,0 -46.4,-1.6 -59.5,-2.8 -6.2,-0.6 -11.5,4.6 -11.1,10.8 l 7.8,128.6 c 0,0 17.9,5 60.3,5 43.3,0 66.5,-5 66.5,-5 l 6.7,-128.6 c 0.3,-6.2 -4.9,-11.3 -11.1,-10.7 -13.1,1.1 -35.6,2.7 -59.6,2.7 z"
   class="st4" />
				<g
   id="g51">
					<g
   id="g39">
						<path
   style="fill:#ffdebf"
   inkscape:connector-curvature="0"
   id="path35"
   d="m 771.1,432.7 -7.7,22.8 c 5.2,2 11.1,-1.5 13.3,-7.8 2.1,-6.3 -0.4,-13 -5.6,-15 z"
   class="st2" />
						<path
   style="fill:#edc6a6"
   inkscape:connector-curvature="0"
   id="path37"
   d="m 769.8,436.5 -5.1,15.1 c 3.4,1.3 7.4,-1 8.8,-5.1 1.4,-4.2 -0.2,-8.6 -3.7,-10 z"
   class="st3" />
					</g>
					<g
   id="g45">
						<path
   style="fill:#ffdebf"
   inkscape:connector-curvature="0"
   id="path41"
   d="m 670.3,432.7 7.7,22.8 c -5.2,2 -11.1,-1.5 -13.3,-7.8 -2,-6.3 0.4,-13 5.6,-15 z"
   class="st2" />
						<path
   style="fill:#edc6a6"
   inkscape:connector-curvature="0"
   id="path43"
   d="m 671.6,436.5 5.1,15.1 c -3.4,1.3 -7.4,-1 -8.8,-5.1 -1.4,-4.2 0.3,-8.6 3.7,-10 z"
   class="st3" />
					</g>
					<ellipse
   style="fill:#642712"
   id="ellipse47"
   ry="1.2"
   rx="1.1"
   cy="453.89999"
   cx="767.29999"
   class="st7" />
					<ellipse
   style="fill:#642712"
   id="ellipse49"
   ry="1.2"
   rx="1.1"
   cy="453.89999"
   cx="674.59998"
   class="st7" />
				</g>
				<polygon
   style="fill:#ffdebf"
   id="polygon53"
   points="701.7,505.1 701.7,477.5 739.9,477.5 739.9,505.1 720.8,519.2 "
   class="st2" />
				<path
   style="fill:#edc6a6"
   inkscape:connector-curvature="0"
   id="path55"
   d="m 701.7,477.5 v 18.2 c 4.1,4 17.2,14.1 38.2,9.4 v -27.6 z"
   class="st3" />
				<path
   style="fill:#ffdebf"
   inkscape:connector-curvature="0"
   id="path57"
   d="m 774.9,411.1 c 0,36.5 -28,83.6 -54.1,83.6 -26.7,0 -54.1,-47.1 -54.1,-83.6 0,-36.5 24.2,-52 54.1,-52 29.9,0.1 54.1,15.6 54.1,52 z"
   class="st2" />
				<g
   id="g65">
					<path
   style="fill:#642712"
   inkscape:connector-curvature="0"
   id="path59"
   d="m 720.8,466.8 c -5.1,0 -10.6,-0.7 -13.2,-2.5 -0.2,-0.2 -0.6,0 -0.5,0.3 0.5,5.6 6.5,11.2 13.7,11.2 7.3,0 13.2,-5.6 13.7,-11.2 0,-0.3 -0.3,-0.4 -0.5,-0.3 -2.6,1.7 -8.1,2.5 -13.2,2.5 z"
   class="st7" />
					<path
   style="fill:#f395a7"
   inkscape:connector-curvature="0"
   id="path61"
   d="m 720.8,471.2 c -3.5,0 -6.6,0.7 -8.6,1.8 2.4,1.7 5.3,2.9 8.6,2.9 3.2,0 6.2,-1.1 8.6,-2.9 -2,-1.1 -5.1,-1.8 -8.6,-1.8 z"
   class="st8" />
					<path
   style="fill:#ffffff"
   inkscape:connector-curvature="0"
   id="path63"
   d="m 711.7,465.9 v 0.5 c 0,1.2 0.9,2.2 2.2,2.4 2.2,0.3 4.5,0.5 6.9,0.5 2.3,0 4.7,-0.2 6.9,-0.5 1.3,-0.2 2.2,-1.2 2.2,-2.4 v -0.5 c -2.7,0.6 -5.9,0.9 -9.1,0.9 -3.2,0 -6.4,-0.3 -9.1,-0.9 z"
   class="st6" />
				</g>
				<g
   id="g79">
					<path
   style="fill:#edc6a6"
   inkscape:connector-curvature="0"
   id="path67"
   d="m 737.3,428.5 c 0,0 0.6,8.1 10.4,6.4 4.9,-0.9 6.6,-5.2 6.3,-7.5 z"
   class="st3" />
					<g
   id="g77">
						<g
   id="g71">
							
								<ellipse
   style="fill:#f1f2f2"
   id="ellipse69"
   ry="6.3000002"
   rx="8.3999996"
   cy="427.89999"
   cx="745.70001"
   class="st9"
   transform="matrix(0.9969,-0.07819013,0.07819013,0.9969,-31.1748,59.6132)" />
						</g>
						<path
   style="fill:#873925"
   inkscape:connector-curvature="0"
   id="path73"
   d="m 751.3,425.7 c -0.2,0.3 -0.6,0.4 -1,0.5 -0.8,0.1 -1.5,-0.6 -1.5,-1.4 0,-0.5 0.3,-1 0.7,-1.3 -1,-0.7 -2.1,-1.1 -3.4,-1 -2.9,0.2 -5.2,2.7 -5,5.7 0.2,2.9 2.7,5.2 5.6,5 2.9,-0.2 5.2,-2.7 5,-5.7 0,-0.7 -0.2,-1.2 -0.4,-1.8 z"
   class="st10" />
						
							<ellipse
   style="fill:#642712"
   id="ellipse75"
   ry="3.5"
   rx="3.5999999"
   cy="427.89999"
   cx="744.90002"
   class="st7"
   transform="matrix(0.7623,-0.6472,0.6472,0.7623,-99.9006,583.8022)" />
					</g>
				</g>
				<path
   style="opacity:0.45;fill:#231f20"
   inkscape:connector-curvature="0"
   id="path81"
   d="m 745.8,752.3 c 0,-1.2 4.1,-1.5 3.7,-2.6 2.1,-1.5 8.3,1.4 8.3,1.4 l 32.3,1.5 -0.7,10.8 c -4.7,0 -17.6,0 -23.8,0 -4.7,0 -12.2,-2.3 -15.1,-4.8 -1.9,-1.8 -4.7,-6.3 -4.7,-6.3 z"
   class="st11" />
				<g
   id="g87">
					<path
   style="fill:#d1d3d4"
   inkscape:connector-curvature="0"
   id="path83"
   d="m 701.7,505.1 -13.9,8.4 11.1,11.3 c 6.8,6.9 17,5.2 22,-3.6 v 0 z"
   class="st12" />
					<path
   style="fill:#d1d3d4"
   inkscape:connector-curvature="0"
   id="path85"
   d="m 739.9,505.1 13.9,8.4 -11.1,11.3 c -6.8,6.9 -17,5.2 -22,-3.6 v 0 z"
   class="st12" />
				</g>
				<path
   style="fill:#ffffff"
   inkscape:connector-curvature="0"
   id="path89"
   d="m 701.7,505.1 -13.9,7.4 11.1,9.9 c 6.8,6 17,4.6 22,-3.1 v 0 z"
   class="st6" />
				<path
   style="fill:#ffffff"
   inkscape:connector-curvature="0"
   id="path91"
   d="m 739.9,505.1 13.9,7.4 -11.1,9.9 c -6.8,6 -17,4.6 -22,-3.1 v 0 z"
   class="st6" />
				<g
   id="g95">
					<path
   style="fill:#414042"
   inkscape:connector-curvature="0"
   id="path93"
   d="m 812.2,551.7 c 0,-12.4 -7.5,-23.5 -18.6,-27.2 -15.5,-5.3 -33.4,-9 -39.8,-12 -6.2,-2.9 -8.9,-4.7 -8.9,-4.7 v 233.4 c 0,11.2 8.5,20.3 19,20.3 h 34.2 c 0,0 -5.2,-8.3 -7.5,-68.3 -2.4,-66.9 21.6,-141.5 21.6,-141.5 z"
   class="st4" />
				</g>
				<path
   style="opacity:0.45;fill:#231f20"
   inkscape:connector-curvature="0"
   id="path97"
   d="m 766.5,516.6 c -5.6,-1.5 -10.1,-2.9 -12.7,-4.1 -6.2,-2.9 -8.9,-4.7 -8.9,-4.7 v 104 c 18.4,-15.1 21.2,-77.9 21.6,-95.2 z"
   class="st11" />
				<path
   style="opacity:0.45;fill:#231f20"
   inkscape:connector-curvature="0"
   id="path99"
   d="m 694,756.2 c 2.3,-3.2 0.2,-4.7 0.6,-5.7 -2.1,-1.5 -10.4,0.6 -10.4,0.6 l -32.3,1.5 0.7,10.8 c 4.7,0 17.6,0 23.8,0 4.7,0 8.8,-0.4 11.5,-2.1 1.7,-1.1 6.1,-5.1 6.1,-5.1 z"
   class="st11" />
				<path
   style="fill:#414042"
   inkscape:connector-curvature="0"
   id="path101"
   d="m 753.8,512.5 c -5.6,-3.7 -8.9,-4.7 -8.9,-4.7 v 101 c 14.8,-34.3 18.1,-79.2 18.8,-93 -4.2,-1.2 -7.9,-2 -9.9,-3.3 z"
   class="st4" />
				<rect
   style="opacity:0.45;fill:#231f20"
   id="rect103"
   height="2.9000001"
   width="28.799999"
   class="st11"
   y="717.29999"
   x="754.5" />
				<g
   id="g107">
					<path
   style="fill:#414042"
   inkscape:connector-curvature="0"
   id="path105"
   d="m 629.4,551.7 c 0,-12.4 7.5,-23.5 18.6,-27.2 15.5,-5.3 33.4,-9 39.8,-12 6.2,-2.9 8.9,-4.7 8.9,-4.7 v 233.1 c 0,11.2 -8.5,20.3 -19,20.3 h -34.2 c 0,0 5.2,-8 7.5,-68 2.5,-66.9 -21.6,-141.5 -21.6,-141.5 z"
   class="st4" />
				</g>
				<path
   style="opacity:0.45;fill:#231f20"
   inkscape:connector-curvature="0"
   id="path109"
   d="m 675.1,516.6 c 5.6,-1.5 10.1,-2.9 12.7,-4.1 6.2,-2.9 8.9,-4.7 8.9,-4.7 v 104 c -18.4,-15.1 -21.2,-77.9 -21.6,-95.2 z"
   class="st11" />
				<path
   style="fill:#414042"
   inkscape:connector-curvature="0"
   id="path111"
   d="m 687.8,512.5 c 5.6,-3.7 8.9,-4.7 8.9,-4.7 v 101 c -14.8,-34.3 -18.1,-79.2 -18.8,-93 4.2,-1.2 7.9,-2 9.9,-3.3 z"
   class="st4" />
				
					<rect
   style="opacity:0.45;fill:#231f20"
   id="rect113"
   height="2.9000001"
   width="31.700001"
   class="st11"
   transform="rotate(-180,671.2251,718.7442)"
   y="717.29999"
   x="655.40002" />
				<g
   id="g119">
					<path
   style="fill:#8b3504"
   inkscape:connector-curvature="0"
   id="path115"
   d="m 753.6,408.8 c -2.1,-1.1 -4.4,-1.5 -6.8,-1.5 -2.3,0 -4.7,0.5 -6.8,1.5 -2.1,1 -4.1,2.2 -5.6,4 4,-2.1 8.2,-3.4 12.4,-3.4 2.1,0 4.2,0.3 6.2,1 2.1,0.6 4,1.7 6,2.7 -1.4,-1.9 -3.3,-3.4 -5.4,-4.3 z"
   class="st5" />
					<path
   style="fill:#8b3504"
   inkscape:connector-curvature="0"
   id="path117"
   d="m 696.3,407.2 c -2.3,0 -4.7,0.5 -6.8,1.5 -2.1,1 -4,2.5 -5.5,4.2 2,-1 4,-2.1 6,-2.7 2,-0.7 4.1,-1 6.2,-1 4.2,0 8.4,1.3 12.4,3.4 -1.6,-1.8 -3.5,-3 -5.6,-4 -2,-0.9 -4.4,-1.4 -6.7,-1.4 z"
   class="st5" />
				</g>
				<path
   style="opacity:0.45;fill:#edc6a6"
   inkscape:connector-curvature="0"
   id="path121"
   d="m 720.8,492.9 c -26.5,0 -53.8,-46.1 -54.1,-82.1 0,0.1 0,0.2 0,0.3 0,36.5 27.4,83.6 54.1,83.6 26.1,0 54.1,-47.1 54.1,-83.6 0,-0.1 0,-0.2 0,-0.3 -0.3,36 -28.1,82.1 -54.1,82.1 z"
   class="st13" />
				<path
   style="fill:#8b3504"
   inkscape:connector-curvature="0"
   id="path123"
   d="m 753.5,425 c -0.5,-1.1 -1.4,-2 -2.6,-2.7 -1.7,-1 -3.7,-1.4 -5.7,-1.3 -1.9,0.2 -3.9,0.8 -5.5,2 -1.6,1.2 -2.8,3.3 -2.5,5.3 0.1,-2.1 1.4,-3.7 2.9,-4.7 1.5,-1 3.3,-1.6 5.1,-1.7 1.8,-0.1 3.6,0.2 5.3,1 1.6,0.8 3.1,2.2 3.4,4.2 0,-0.1 0,-0.2 0,-0.3 0,0.2 0,0.3 0,0.3 L 755,424 Z"
   class="st5" />
				<g
   id="g137">
					<path
   style="fill:#edc6a6"
   inkscape:connector-curvature="0"
   id="path125"
   d="m 707.2,428.5 c 0,0 -0.6,8.1 -10.4,6.4 -4.9,-0.9 -6.6,-5.2 -6.3,-7.5 z"
   class="st3" />
					<g
   id="g135">
						<g
   id="g129">
							
								<ellipse
   style="fill:#f1f2f2"
   id="ellipse127"
   ry="8.3999996"
   rx="6.3000002"
   cy="427.89999"
   cx="698.90002"
   class="st9"
   transform="matrix(0.07819013,-0.9969,0.9969,0.07819013,217.6189,1091.158)" />
						</g>
						<path
   style="fill:#873925"
   inkscape:connector-curvature="0"
   id="path131"
   d="m 706.3,425.7 c -0.2,0.3 -0.6,0.4 -1,0.5 -0.8,0.1 -1.5,-0.6 -1.5,-1.4 0,-0.5 0.3,-1 0.7,-1.3 -1,-0.7 -2.1,-1.1 -3.4,-1 -2.9,0.2 -5.2,2.7 -5,5.7 0.2,3 2.7,5.2 5.6,5 2.9,-0.2 5.2,-2.7 5,-5.7 0,-0.7 -0.2,-1.2 -0.4,-1.8 z"
   class="st10" />
						<path
   style="fill:#642712"
   inkscape:connector-curvature="0"
   id="path133"
   d="m 705.3,428.2 c 0,-0.8 -0.2,-1.5 -0.6,-2.1 -0.3,-0.2 -0.6,-0.4 -0.7,-0.8 -0.6,-0.5 -1.2,-0.8 -2,-0.9 -2,-0.1 -3.6,1.3 -3.7,3.3 -0.1,2 1.4,3.6 3.3,3.8 1.9,0.1 3.5,-1.4 3.7,-3.3 z"
   class="st7" />
					</g>
				</g>
				<path
   style="fill:#8b3504"
   inkscape:connector-curvature="0"
   id="path139"
   d="m 691,425 c 0.5,-1.1 1.4,-2 2.6,-2.7 1.7,-1 3.7,-1.4 5.7,-1.3 1.9,0.2 3.9,0.8 5.5,2 1.6,1.2 2.8,3.3 2.5,5.3 -0.1,-2.1 -1.4,-3.7 -2.9,-4.7 -1.5,-1 -3.3,-1.6 -5.1,-1.7 -1.8,-0.1 -3.6,0.2 -5.3,1 -1.6,0.8 -3.1,2.2 -3.4,4.2 0,-0.1 0,-0.2 0,-0.3 0,0.2 0,0.3 0,0.3 l -1.1,-3.1 z"
   class="st5" />
				<path
   style="fill:#edc6a6"
   inkscape:connector-curvature="0"
   id="path141"
   d="m 720.8,450.2 c -3.1,-0.8 -3.6,-0.8 -4,-0.7 0.6,-2.2 0.9,-4.6 1.4,-7.1 0.3,-2.5 0.5,-5.2 -0.4,-7.6 0.2,5.1 -1,9.9 -1.9,14.9 v 0 c -0.2,0.8 1.3,1.4 4.4,2.2 3.1,0.8 5.2,0.8 5.3,0.1 0.1,-0.9 -1.7,-1.1 -4.8,-1.8 z"
   class="st3" />
				<rect
   style="fill:#d1d3d4"
   id="rect143"
   height="189.5"
   width="1"
   class="st12"
   y="519.20001"
   x="720.09998" />
				<g
   id="g155">
					<ellipse
   style="fill:#a7a9ac"
   id="ellipse145"
   ry="3.0999999"
   rx="2.9000001"
   cy="533.70001"
   cx="720.59998"
   class="st14" />
					<ellipse
   style="fill:#a7a9ac"
   id="ellipse147"
   ry="3.0999999"
   rx="2.9000001"
   cy="566.70001"
   cx="720.59998"
   class="st14" />
					<ellipse
   style="fill:#a7a9ac"
   id="ellipse149"
   ry="3.0999999"
   rx="2.9000001"
   cy="599.79999"
   cx="720.59998"
   class="st14" />
					<ellipse
   style="fill:#a7a9ac"
   id="ellipse151"
   ry="3.0999999"
   rx="2.9000001"
   cy="632.79999"
   cx="720.59998"
   class="st14" />
					<ellipse
   style="fill:#a7a9ac"
   id="ellipse153"
   ry="3.0999999"
   rx="2.9000001"
   cy="665.90002"
   cx="720.59998"
   class="st14" />
				</g>
				<g
   id="g173">
					<g
   id="g161">
						<path
   style="fill:#a97c50"
   inkscape:connector-curvature="0"
   id="path157"
   d="M 779.5,752.9 H 662.1 c -6.6,0 -12,-5.4 -12,-12 v -37.4 c 0,-6.6 5.4,-12 12,-12 h 117.3 c 6.6,0 12,5.4 12,12 v 37.4 c 0.1,6.6 -5.3,12 -11.9,12 z"
   class="st15" />
						<path
   style="fill:#c49a6c"
   inkscape:connector-curvature="0"
   id="path159"
   d="M 773.1,752.9 H 661.5 c -6.3,0 -11.4,-5.1 -11.4,-11.4 v -33 c 0,-6.3 5.1,-11.4 11.4,-11.4 h 111.6 c 6.3,0 11.4,5.1 11.4,11.4 v 33 c 0,6.3 -5.1,11.4 -11.4,11.4 z"
   class="st16" />
					</g>
					<g
   id="g171">
						<g
   style="opacity:0.45"
   id="g165"
   class="st17">
							<path
   style="fill:#231f20"
   inkscape:connector-curvature="0"
   id="path163"
   d="m 751.1,693.6 h -6.4 v -9.1 c 0,-1.6 -1.3,-3 -3,-3 h -44.4 c -1.6,0 -3,1.3 -3,3 v 9.1 h -6.4 v -9.1 c 0,-5.2 4.2,-9.4 9.4,-9.4 h 44.4 c 5.2,0 9.4,4.2 9.4,9.4 z"
   class="st18" />
						</g>
						<g
   id="g169">
							<path
   style="fill:#d1d3d4"
   inkscape:connector-curvature="0"
   id="path167"
   d="m 749.6,693.6 h -6.3 v -8.7 c 0,-1.6 -1.3,-2.9 -2.9,-2.9 H 697 c -1.6,0 -2.9,1.3 -2.9,2.9 v 8.7 h -6.3 v -8.7 c 0,-5.1 4.1,-9.2 9.2,-9.2 h 43.3 c 5.1,0 9.2,4.1 9.2,9.2 v 8.7 z"
   class="st12" />
						</g>
					</g>
				</g>
				<path
   style="opacity:0.45;fill:#231f20"
   inkscape:connector-curvature="0"
   id="path175"
   d="m 792.8,530.5 c -1.7,-0.6 0.3,-0.3 -1.4,-0.9 -5.6,5.6 -6.6,15.8 -11.3,34.5 -1.7,6.8 -5.2,16.2 -5.4,23.2 -0.4,13.5 -1.2,35.1 -1.8,44.3 -0.6,10.2 -8.7,24.8 -18.9,43.3 -2.9,5.2 -5.9,10.8 -9,16.6 v 0 c -5.5,10.3 -11.2,21.5 -16.7,34 l -0.8,1.8 1.3,0.7 c -2.3,1.2 -5,3.5 -6.9,7.9 -1.6,3.7 -3,6.5 -4.1,8.6 h 27.1 v 4.5 c 1.5,0.9 0.2,3.7 1,5.3 0.8,-2.7 3.8,-9.2 3.9,-9.4 0.1,-0.3 1.6,-3.9 1.7,-4.2 0,-0.1 0,-0.2 0.1,-0.3 0.1,-0.4 0.1,-0.7 0.2,-1 0,0 0,0 0,-0.1 0.1,-0.3 0.1,-0.5 0.2,-0.8 0,-0.1 0,-0.1 0,-0.1 0,-0.2 0.1,-0.4 0.1,-0.5 0,-0.1 0,-0.1 0,-0.2 0,-0.1 0,-0.2 0.1,-0.3 0,0 0,-0.1 0,-0.1 0,-0.1 0,-0.1 0,-0.1 0,-0.2 0.1,-0.4 0.1,-0.5 0.1,0 0.1,0 0.2,0 v 0 c 1,0.2 2,0.3 2.9,0.5 l 1.4,0.2 0.7,-1.2 c 1.2,-2.1 18.8,-32.6 33.1,-58.4 1.2,-62.5 21.6,-126.1 21.6,-126.1 0,-12.5 -8.4,-17.4 -19.4,-21.2 z m -54.1,185.4 c -2,0.1 -4,0.1 -6.1,0.2 2,-0.1 4,-0.1 6.1,-0.2 z m 6.2,-0.2 c -1.9,0.1 -3.8,0.1 -5.7,0.2 2,-0.1 3.9,-0.1 5.7,-0.2 z"
   class="st11" />
				<path
   style="opacity:0.45;fill:#231f20"
   inkscape:connector-curvature="0"
   id="path177"
   d="m 689.9,736.7 c 0.1,0 0.1,0 0.2,0 0,0.2 0.1,0.4 0.1,0.5 0,0 0.2,0.9 0.4,2.2 0,0 0,0 0,0 0.1,0.6 0.3,1.3 0.4,2.1 0,0.1 0,0.2 0.1,0.3 0.1,0.3 0.1,0.6 0.2,0.9 0.1,0.3 0.1,0.5 0.2,0.8 0,0.1 0.1,0.3 0.1,0.4 0,0.2 0.1,0.4 0.1,0.5 v 0 c 0.3,1.4 0.8,2.9 1.2,4.3 1.2,-0.6 2.6,-1 4.1,-1 h 0.6 l -0.2,-3.3 h 20.4 c 0.9,-1.8 2.1,-4.1 3.4,-7 -0.2,-0.5 -0.5,-1 -0.7,-1.6 -1.9,-4.4 -4.6,-6.7 -6.9,-7.9 l 1.3,-0.7 -0.8,-1.8 c -5.5,-12.5 -11.1,-23.7 -16.7,-34 v 0 c -3.1,-5.8 -6.1,-11.3 -9,-16.6 -10.2,-18.5 -18.3,-33.1 -18.9,-43.3 -0.6,-9.2 -1.3,-30.8 -1.8,-44.3 -0.2,-7 -3.7,-16.4 -5.4,-23.2 -4.7,-18.7 -5.7,-28.9 -11.3,-34.5 -1.7,0.5 0.3,0.3 -1.4,0.9 -11.1,3.8 -19.4,8.7 -19.4,21.1 0,0 20.5,63.6 21.6,126.1 14.3,25.8 31.9,56.3 33.1,58.4 l 0.7,1.2 1.4,-0.2 c 1,0.1 1.9,-0.1 2.9,-0.3 z"
   class="st11" />
				<g
   id="g185">
					<path
   style="fill:#f8cf99"
   inkscape:connector-curvature="0"
   id="path179"
   d="m 739.2,724.8 c 0,0 -3.5,3 -4.5,3.6 -1,0.5 -7.2,-0.1 -10.9,8.4 -3.7,8.5 -6.4,13.1 -7.2,13.9 -0.8,0.8 3.2,4.5 5.1,2.8 1.9,-1.7 2.6,-5.6 5.2,-6 0,0 -0.5,4.8 -1.6,6.4 -1.2,1.6 4.4,6 6.1,4 0,0 2.5,2.9 5.6,1.6 0,0 3.9,2.5 6.3,0.4 2.4,-2.1 5.9,-17.6 6.8,-22.9 0.9,-5.3 5.5,-9.7 5.5,-9.7 z"
   class="st19" />
					<g
   id="g183">
						<path
   style="fill:#414042"
   inkscape:connector-curvature="0"
   id="path181"
   d="m 730.2,726.4 c 0,0 13.6,7.3 25.4,8.7 0,0 48,-82.9 51,-93 3,-10.1 8,-79.5 6.4,-93.7 -1.6,-14.2 -14.4,-22.5 -21.4,-24.8 -7,-2.3 -14.5,53.9 -14.5,53.9 0,0 -1.3,40.2 -2.2,54.3 -1.1,18.7 -25,49.4 -44.7,94.6 z"
   class="st4" />
					</g>
				</g>
				<g
   id="g193">
					<path
   style="fill:#f8cf99"
   inkscape:connector-curvature="0"
   id="path187"
   d="m 703.2,724.8 c 0,0 3.5,3 4.5,3.6 1,0.6 7.2,-0.1 10.9,8.4 3.7,8.5 6.4,13.1 7.2,13.9 0.8,0.8 -3.2,4.5 -5.1,2.8 -1.9,-1.7 -2.6,-5.6 -5.2,-6 0,0 0.5,4.8 1.6,6.4 1.2,1.6 -4.4,6 -6.1,4 0,0 -2.5,2.9 -5.6,1.6 0,0 -3.9,2.5 -6.3,0.4 -2.4,-2.1 -5.9,-17.6 -6.8,-22.9 -0.9,-5.3 -5.5,-9.7 -5.5,-9.7 z"
   class="st19" />
					<g
   id="g191">
						<path
   style="fill:#414042"
   inkscape:connector-curvature="0"
   id="path189"
   d="m 712.2,726.4 c 0,0 -13.6,7.3 -25.4,8.7 0,0 -48,-82.9 -51,-93 -3,-10.1 -8,-79.5 -6.4,-93.7 1.6,-14.2 14.4,-22.5 21.4,-24.8 7,-2.3 14.5,53.9 14.5,53.9 0,0 1.3,40.2 2.2,54.3 1,18.7 25,49.4 44.7,94.6 z"
   class="st4" />
					</g>
				</g>
				<path
   style="fill:#8b3504"
   inkscape:connector-curvature="0"
   id="path195"
   d="m 670.3,432.7 c 0,0 3.1,0.3 3.8,-4 0.7,-4.3 0,-16.8 0,-16.8 0,0 39.6,-18.6 49.6,-31 0,0 30.1,29.6 44.9,31.8 v 14.2 c 0,0 -1.6,3.1 2.6,5.8 l 9.5,-5.3 -2.7,-42.5 c 0,0 -8,-23 -8.8,-23.5 -0.8,-0.5 -14.2,-6.2 -14.2,-6.2 l -21.1,-7 -41.7,1.9 -2.9,5.4 -10.7,11.8 -7.8,8.6 -3.5,6.2 -3.2,7.2 -2.4,8.6 -5.6,15 2.1,9.1 z"
   class="st5" />
			</g>
		<g
   id="g377">
				<g
   id="g373">
					<g
   id="g371">
						<g
   id="g313">
							<g
   id="g229">
								<path
   style="fill:#261d18"
   inkscape:connector-curvature="0"
   id="path225"
   d="m 493.7,1093.5 -1.7,3 v 6.5 c 0,1.1 0.9,2 2,2 h 25 c 0.9,0 1.7,-0.5 2,-1.4 l 1.9,-3.2 c 0.5,-0.8 1.6,-0.9 2.2,-0.2 l 3.1,3.7 c 0.4,0.7 1.1,1.1 1.9,1.1 H 572 c 0.5,0 0.9,-0.3 1,-0.8 0.3,-1.6 0.7,-5.3 -1.2,-7.7 z"
   class="st21" />
								<path
   style="fill:#40332b"
   inkscape:connector-curvature="0"
   id="path227"
   d="m 493.4,1070.2 c 0,0 -3,16.1 -1.5,26.2 h 79.8 c 0,0 -2.1,-14.3 -27,-16.7 -15.9,-1.5 -20.2,-13.8 -20.2,-13.8 z"
   class="st22" />
							</g>
							<path
   style="fill:#f8cf99"
   inkscape:connector-curvature="0"
   id="path231"
   d="m 560.4,588.3 c 0,0 2.5,54.2 0,68.6 -2.5,14.4 -15.4,81 -15.4,81 l -8.4,-20.9 6,-56.6 -6.5,-68.6 z"
   class="st19" />
							<path
   style="fill:#ffffff"
   inkscape:connector-curvature="0"
   id="path233"
   d="m 390.3,530.6 c 11.2,-8.9 63.1,-22.1 63.1,-22.1 l 18,2.1 23,8 12.5,-3.8 13.1,1.6 c 0,0 16.4,1.5 29.1,7.5 12.7,6 21.6,61.1 21.6,61.1 l -28.3,11.2 c 0.7,78.3 3,132.7 3,132.7 -45.4,8.2 -102.7,3.2 -111.4,2.4 -1.1,-4.6 -2.2,-9.4 -3.3,-14 -1.3,-12.5 -6.8,-52.8 -6.8,-52.8 l 2.2,-36.1 -45.5,-11.2 c 0,-0.1 -1.5,-77.6 9.7,-86.6 z"
   class="st6" />
							<path
   style="fill:#1c3a54"
   inkscape:connector-curvature="0"
   id="path235"
   d="m 545.3,728.9 c 0,0 2.2,28.3 6.7,55.1 4.5,26.8 -1,95.4 -5,132.2 -4,36.8 -12.2,156.8 -12.2,156.8 l -47.7,9.2 -4.7,-147.1 -20.6,149.5 -46,-0.9 c 0,0 2,-105.8 2,-144.6 0,-38.8 1,-135.9 7.9,-171.9 7,-36 7,-36 7,-36 z"
   class="st23" />
							<path
   style="fill:#f8cf99"
   inkscape:connector-curvature="0"
   id="path237"
   d="m 505.3,515.7 c -5,-18.9 2.5,-24.3 2.5,-24.3 L 468.5,477 c 0,0 -3,20.9 -12.9,36.8 l 39.7,7.5 z"
   class="st19" />
							<path
   style="fill:#ddaa72"
   inkscape:connector-curvature="0"
   id="path239"
   d="m 468.5,477 39.3,14.4 c 0,0 -2.3,1.7 -3.5,6.5 -9.3,0 -22.8,-1.7 -38.6,-8.1 2.1,-7.4 2.8,-12.8 2.8,-12.8 z"
   class="st24" />
							<path
   style="fill:#d1d3d4"
   inkscape:connector-curvature="0"
   id="path241"
   d="m 517,516.1 c 0,0 2,13.6 -2.8,19.9 l -17.3,-12.9 -2.2,0.4 c 0,0 -6.1,15.3 -6.7,18.1 0,0 -25.8,-13 -35.9,-32.6 l 1.3,-0.5 36.6,13.4 15.7,-3.5 z"
   class="st12" />
							<path
   style="fill:#d1d3d4"
   inkscape:connector-curvature="0"
   id="path243"
   d="m 490.6,530.9 3.5,4 -3.6,141.5 c 0,0 11.2,17.5 12.7,19.4 1.5,1.9 4.4,0.1 4.4,0.1 l -9.6,-167.1 -9.7,-3.4 z"
   class="st12" />
							<path
   style="fill:#f26522"
   inkscape:connector-curvature="0"
   id="path245"
   d="m 490.1,528.4 4.2,-9.7 9.6,6.7 -2.2,8.6 14,138 c 0.1,0.5 0,1 -0.2,1.5 l -7.9,22.4 c -0.3,0.9 -1.5,1 -2,0.2 L 493,675.6 c -0.4,-0.6 -0.5,-1.2 -0.5,-1.9 l 3,-140.1 z"
   class="st25" />
							<path
   style="opacity:0.45;fill:#231f20"
   inkscape:connector-curvature="0"
   id="path247"
   d="m 432.2,734.4 62.4,-1.1 h 7.1 l 43.6,-0.8 c 0.1,0 0.2,0.1 0.3,0.1 0.2,2.5 0.6,6.2 1,10.7 -0.1,0.1 -0.3,0.1 -0.4,0.1 l -44.5,2.1 h -7.1 l -64.5,0.2 c 1.1,-6.1 1.8,-9.4 2.1,-11.3 z"
   class="st11" />
							<g
   id="g253">
								<path
   style="fill:#e8e8e8"
   inkscape:connector-curvature="0"
   id="path249"
   d="m 494.4,518.7 -7.3,19.1 c -23.7,-10.6 -33.7,-29.3 -33.7,-29.3 0,0 4.7,-7.5 9.6,-10.3 -0.1,0 7.8,10.8 31.4,20.5 z"
   class="st26" />
								<path
   style="fill:#e8e8e8"
   inkscape:connector-curvature="0"
   id="path251"
   d="m 514.4,533.6 -20,-14.9 c 0,0 9.1,-5.9 9.2,-13.5 0,0 10.8,4.9 13.4,10.9 0,0 0.9,9.9 -2.6,17.5 z"
   class="st26" />
							</g>
							<path
   style="fill:#ad684b"
   inkscape:connector-curvature="0"
   id="path255"
   d="m 432.3,733.5 62.4,-1.1 h 7.1 l 43.6,-0.8 c 0.6,0 1.1,0.4 1.1,1 0.2,1.9 0.4,4.5 0.8,8.7 0.1,0.6 -0.4,1.2 -1,1.2 l -44.5,2.1 h -7.1 l -64.5,0.2 c 1.1,-6 1.7,-9.4 2.1,-11.3 z"
   class="st27" />
							<path
   style="opacity:0.45;fill:#231f20"
   inkscape:connector-curvature="0"
   id="path257"
   d="m 490.4,733.8 v 10.8 c 0,1.9 1.6,3.5 3.5,3.5 h 7.1 c 1.9,0 3.5,-1.6 3.5,-3.5 v -10.8 c 0,-1.9 -1.6,-3.5 -3.5,-3.5 h -7.1 c -1.9,0.1 -3.5,1.6 -3.5,3.5 z m 2.8,0 c 0,-0.4 0.3,-0.7 0.7,-0.7 h 7.1 c 0.4,0 0.7,0.3 0.7,0.7 v 10.8 c 0,0.4 -0.3,0.7 -0.7,0.7 h -7.1 c -0.4,0 -0.7,-0.3 -0.7,-0.7 z"
   class="st11" />
							<g
   style="opacity:0.45"
   id="g267"
   class="st17">
								<path
   style="fill:#231f20"
   inkscape:connector-curvature="0"
   id="path259"
   d="m 519.4,746.6 1.3,-0.1 c 0.8,0 1.5,-0.8 1.4,-1.6 l -0.7,-12.8 c 0,-0.8 -0.8,-1.5 -1.6,-1.4 l -1.3,0.1 c -0.8,0 -1.5,0.8 -1.4,1.6 l 0.7,12.8 c 0.1,0.8 0.8,1.4 1.6,1.4 z"
   class="st18" />
								<path
   style="fill:#231f20"
   inkscape:connector-curvature="0"
   id="path261"
   d="m 473.4,747.3 h 1.3 c 0.8,0 1.5,-0.7 1.5,-1.5 V 733 c 0,-0.8 -0.7,-1.5 -1.5,-1.5 h -1.3 c -0.8,0 -1.5,0.7 -1.5,1.5 v 12.8 c 0,0.8 0.7,1.5 1.5,1.5 z"
   class="st18" />
								<path
   style="fill:#231f20"
   inkscape:connector-curvature="0"
   id="path263"
   d="m 440.3,747.8 h 1.3 c 0.8,0 1.5,-0.7 1.5,-1.5 v -12.8 c 0,-0.8 -0.7,-1.5 -1.5,-1.5 h -1.3 c -0.8,0 -1.5,0.7 -1.5,1.5 v 12.8 c -0.1,0.9 0.6,1.5 1.5,1.5 z"
   class="st18" />
								<path
   style="fill:#231f20"
   inkscape:connector-curvature="0"
   id="path265"
   d="m 542.1,745.6 1.4,-0.1 c 0.5,0 0.9,-0.5 0.9,-1 l -0.8,-13.9 c 0,-0.5 -0.5,-0.9 -1,-0.9 l -1.4,0.1 c -0.5,0 -0.9,0.5 -0.9,1 l 0.8,13.9 c 0,0.5 0.4,1 1,0.9 z"
   class="st18" />
							</g>
							<polygon
   style="fill:#132e3f"
   id="polygon269"
   points="494.9,828.7 494.9,1080.6 487.2,1082.1 482.4,935.1 "
   class="st28" />
							<g
   id="g279">
								<path
   style="fill:#1c3a54"
   inkscape:connector-curvature="0"
   id="path271"
   d="m 520.2,746.7 1.3,-0.1 c 0.8,0 1.5,-0.8 1.4,-1.6 l -0.7,-12.8 c 0,-0.8 -0.8,-1.5 -1.6,-1.4 l -1.3,0.1 c -0.8,0 -1.5,0.8 -1.4,1.6 l 0.7,12.8 c 0.1,0.8 0.8,1.5 1.6,1.4 z"
   class="st23" />
								<path
   style="fill:#1c3a54"
   inkscape:connector-curvature="0"
   id="path273"
   d="m 474.2,747.4 h 1.3 c 0.8,0 1.5,-0.7 1.5,-1.5 v -12.8 c 0,-0.8 -0.7,-1.5 -1.5,-1.5 h -1.3 c -0.8,0 -1.5,0.7 -1.5,1.5 v 12.8 c 0,0.8 0.7,1.5 1.5,1.5 z"
   class="st23" />
								<path
   style="fill:#1c3a54"
   inkscape:connector-curvature="0"
   id="path275"
   d="m 441.1,748 h 1.3 c 0.8,0 1.5,-0.7 1.5,-1.5 v -12.8 c 0,-0.8 -0.7,-1.5 -1.5,-1.5 h -1.3 c -0.8,0 -1.5,0.7 -1.5,1.5 v 12.8 c 0,0.8 0.6,1.5 1.5,1.5 z"
   class="st23" />
								<path
   style="fill:#1c3a54"
   inkscape:connector-curvature="0"
   id="path277"
   d="m 542.9,745.7 1.4,-0.1 c 0.5,0 0.9,-0.5 0.9,-1 l -0.8,-13.9 c 0,-0.5 -0.5,-0.9 -1,-0.9 l -1.4,0.1 c -0.5,0 -0.9,0.5 -0.9,1 l 0.8,13.9 c 0,0.6 0.4,1 1,0.9 z"
   class="st23" />
							</g>
							<path
   style="fill:#f1f2f2"
   inkscape:connector-curvature="0"
   id="path281"
   d="m 491.2,733.1 v 10.8 c 0,1.9 1.6,3.5 3.5,3.5 h 7.1 c 1.9,0 3.5,-1.6 3.5,-3.5 v -10.8 c 0,-1.9 -1.6,-3.5 -3.5,-3.5 h -7.1 c -2,0 -3.5,1.6 -3.5,3.5 z m 2.8,0 c 0,-0.4 0.3,-0.7 0.7,-0.7 h 7.1 c 0.4,0 0.7,0.3 0.7,0.7 v 10.8 c 0,0.4 -0.3,0.7 -0.7,0.7 h -7.1 c -0.4,0 -0.7,-0.3 -0.7,-0.7 z"
   class="st9" />
							<polygon
   style="fill:#f1f2f2"
   id="polygon283"
   points="413.6,744 499.6,759.9 490.9,828 486.9,830.7 494.9,764.5 491.4,766.1 407.9,744.8 "
   class="st9" />
							<path
   style="fill:#132e3f"
   inkscape:connector-curvature="0"
   id="path285"
   d="m 417.9,939 c 0,-32.9 0.7,-107.7 5.2,-151.7 l 9,9.4 -7.2,287.1 -9,-0.2 c -0.1,0 2,-105.8 2,-144.6 z"
   class="st28" />
							<g
   id="g305">
								<polygon
   style="fill:#9b8579"
   id="polygon287"
   points="407.9,744.8 495.4,760.7 486.9,830.7 403.9,809.9 "
   class="st29" />
								<path
   style="opacity:0.45;fill:#231f20"
   inkscape:connector-curvature="0"
   id="path289"
   d="m 424.7,789 c -0.3,-4.1 -11.8,-37.8 -13.9,-43.7 l 9.2,1.7 2.8,2.4 15.7,69.1 h -0.3 l -13.5,-3.4 c 0.1,-6.4 0.3,-22.5 0,-26.1 z"
   class="st11" />
								<g
   id="g303">
									<path
   style="fill:#f8cf99"
   inkscape:connector-curvature="0"
   id="path291"
   d="m 421.4,627.1 -2.1,38.7 c 0,0.6 0.1,1.3 0.2,1.9 1,4.7 5.8,26.4 11.1,49.5 v 0 c 0,0 0,0 0,0 6.4,27.8 13.6,57.5 16,61.8 4.7,8.4 6.5,11.2 12.2,17.1 5.7,6 10.4,10.7 9.2,17.9 -1.2,7.2 3.7,12.7 0.2,14.9 -3.5,2.2 -6.7,-4 -6.7,-4 0,0 0,7 -3.2,8.4 -3.2,1.5 -6.2,-2.7 -6.2,-2.7 -3.7,3.5 -9.2,-1.2 -9.2,-1.2 -6.5,1.7 -9.4,-5.7 -9.4,-5.7 0,0 -3.5,0 -6,-4 -2.5,-4 0.2,-21.9 -1.2,-32.3 -1.2,-8.2 -25.6,-78.8 -36.2,-109.2 -3.2,-9.2 -4.7,-18.8 -4.6,-28.5 l 0.4,-31.4 z"
   class="st19" />
									<g
   id="g301">
										<path
   style="fill:#ddaa72"
   inkscape:connector-curvature="0"
   id="path293"
   d="m 433.5,823.8 c 0,0 5.5,6.6 9.4,5.7 -6.4,1.7 -9.4,-5.7 -9.4,-5.7 z"
   class="st24" />
										<path
   style="fill:#ddaa72"
   inkscape:connector-curvature="0"
   id="path295"
   d="m 442.9,829.5 c 0,0 6.2,2.5 9.2,1.2 -3.7,3.5 -9.2,-1.2 -9.2,-1.2 z"
   class="st24" />
										<path
   style="fill:#ddaa72"
   inkscape:connector-curvature="0"
   id="path297"
   d="m 468.2,829 c -3.5,2.1 -6.6,-4 -6.6,-4 0,0 3.2,3.4 6.6,4 z"
   class="st24" />
										<path
   style="fill:#ddaa72"
   inkscape:connector-curvature="0"
   id="path299"
   d="m 458.3,833.5 c -3.2,1.5 -6.2,-2.7 -6.2,-2.7 0,0 4.4,3.5 8.2,0.4 -0.4,1 -1,1.8 -2,2.3 z"
   class="st24" />
									</g>
								</g>
							</g>
							<g
   id="g311">
								<path
   style="fill:#261d18"
   inkscape:connector-curvature="0"
   id="path307"
   d="m 459.2,1093.8 2.3,1.5 v 6.6 c 0,1.6 -1.2,2.8 -2.7,2.8 l -41,0.4 c -1.5,0 -2.7,-1.3 -2.7,-2.9 v -6.9 z"
   class="st21" />
								<path
   style="fill:#40332b"
   inkscape:connector-curvature="0"
   id="path309"
   d="m 438.3,1077.8 c 12.8,0 23.2,7.8 23.2,17.5 h -46.4 c 0,-9.6 10.4,-17.5 23.2,-17.5 z"
   class="st22" />
							</g>
						</g>
						<path
   style="fill:#f8cf99"
   inkscape:connector-curvature="0"
   id="path315"
   d="m 543.7,377.2 c 0,0 4.5,16.1 3.6,19.6 -0.9,3.6 -4,9.4 0.4,20.1 4.5,10.7 4.9,14.3 -3.6,42.4 -8.5,28.1 -14.7,36 -25.4,36.8 -15.2,1.1 -35.1,-2.8 -52.9,-14.5 -13.7,-9 -25.1,-40.8 -25.1,-40.8 0,0 -17.1,-23 -13.1,-42.6 4,-19.6 37.5,-46 37.5,-46 l 78.6,25"
   class="st19" />
						<path
   style="fill:#ddaa72"
   inkscape:connector-curvature="0"
   id="path317"
   d="m 427.7,398.2 c 4,-19.6 37.5,-46 37.5,-46 l 78.5,25 c 0,0 0.7,2.5 1.5,5.7 -14,3.8 -48.8,10.3 -82.3,-7.3 0,0 3,28.1 -9,50.9 0,0 -3.3,25.8 12.6,55.6 -0.2,-0.1 -0.4,-0.2 -0.5,-0.3 -13.7,-9 -25.1,-40.8 -25.1,-40.8 0,0 -17.2,-23.2 -13.2,-42.8 z"
   class="st24" />
						<path
   style="fill:#8a532c"
   inkscape:connector-curvature="0"
   id="path319"
   d="m 450.4,367 c 0,0 42.3,27 97.7,12.5 14.5,-3.8 18.1,-24.8 12.7,-35 0,0 -0.3,6 -4.4,8.4 0,0 5.4,-13.4 -4.9,-20.6 0,0 -6.5,14.5 -28.9,8.9 -46.5,-11.7 -53.2,-13 -66.6,-9.4 -18.3,4.9 -17.6,27.1 -5.6,35.2 z"
   class="st30" />
						<path
   style="fill:#7a4622"
   inkscape:connector-curvature="0"
   id="path321"
   d="m 442.3,346.1 c -0.1,0 -0.1,0 0,0 0,-0.4 0.1,-0.7 0.2,-1 0,-0.1 0,-0.2 0.1,-0.4 0,0 0,0 0,0 1.6,-5.8 5.9,-10.9 13.6,-13 13.4,-3.6 20.1,-2.3 66.6,9.4 18.1,4.6 25.8,-4 28.1,-7.5 -14,23.2 -64.1,0.8 -82.2,1.6 -7.6,0.3 -12.3,2.6 -15.1,5.1 -3.1,2.8 -2.9,7.6 0,10.5 0,0 0,0 0,0 1.9,1.9 3.6,4.5 5.1,7.8 1.9,4.2 3.2,9.1 3.9,14.4 -7.8,-3.3 -12.2,-6.1 -12.2,-6.1 -6.6,-4.4 -9.7,-13 -8.1,-20.8 z"
   class="st31" />
						<path
   style="fill:#ddaa72"
   inkscape:connector-curvature="0"
   id="path323"
   d="m 525.9,427 c 0.5,6.1 1.8,11.6 4.7,17 0.6,1.3 1.8,2.8 1.9,3.7 0.2,0.7 -1.1,1.6 -2.3,2.3 -2.6,1.4 -4.5,3.7 -5.8,6.6 2,-2.4 4.8,-3.4 7.6,-4.7 0.7,-0.3 1.4,-0.7 2.1,-1.2 0.7,-0.5 1.5,-1.5 1.4,-2.7 -0.1,-1.1 -0.7,-1.9 -1,-2.5 l -1.1,-2 c -1.5,-2.6 -2.8,-5.3 -4.1,-8 -1.2,-2.9 -2.4,-5.6 -3.4,-8.5 z"
   class="st24" />
						<path
   style="fill:#8a532c"
   inkscape:connector-curvature="0"
   id="path325"
   d="m 424.3,349.8 c 6,-3.8 19,-5.5 27.4,3 1.6,1.6 3.2,4 4.5,7 4.1,9.2 6.2,24.4 2.2,42.4 -2,8.8 -3.6,16.4 -4.7,21.6 -0.3,1.5 -2.4,1.5 -2.8,0 -1.4,-6.1 -4.6,-15.4 -11.8,-18 -2.9,1.1 -6,3.7 -6.4,9.4 2.6,15.5 8.1,18.1 8.1,18.1 0,0 7.5,29.8 17.7,41.2 -8.2,-1 -29.4,-11.8 -34.3,-29.3 -19,-67.8 -10.9,-88.4 0.1,-95.4 z"
   class="st30" />
						<path
   style="fill:#ddaa72"
   inkscape:connector-curvature="0"
   id="path327"
   d="m 436.1,404.7 c 11.5,-1.3 11.9,10.4 11.9,10.4 l -2.2,21.1 c -15.6,0.1 -21.3,-30.2 -9.7,-31.5 z"
   class="st24" />
						<path
   style="fill:#63391d"
   inkscape:connector-curvature="0"
   id="path329"
   d="m 511.3,409.7 c 0,0 -21.4,-10 -32.5,0 0,0 3.3,-9.4 14.7,-9.7 11.4,-0.3 23.2,3.3 17.8,9.7 z"
   class="st32" />
						<path
   style="fill:#63391d"
   inkscape:connector-curvature="0"
   id="path331"
   d="m 527.1,408.2 c 0,0 14.1,-5.7 19.4,-2.7 0,0 0,-5.4 -6.5,-5.2 -6.6,0.2 -13.9,1.5 -12.9,7.9 z"
   class="st32" />
						<path
   style="fill:#7a4622"
   inkscape:connector-curvature="0"
   id="path333"
   d="m 424.3,349.8 c 4.1,-2.6 11.6,-4.2 18.6,-2.2 -7,0.8 -23.5,5 -24.3,28.6 -1,29.3 7.4,68.6 12.4,77 2.2,3.7 5.8,8.5 9,12.6 -6.8,-5 -13.3,-12 -15.7,-20.6 -19.1,-67.8 -11,-88.4 0,-95.4 z"
   class="st31" />
						<path
   style="fill:#ddaa72"
   inkscape:connector-curvature="0"
   id="path335"
   d="m 500.5,467.4 c 0,0 1.7,11.9 8.4,12.9 6.7,1 14.2,1.3 15.9,0.8 1.7,-0.5 4.9,-5.2 5.5,-8 0.6,-2.8 -10.2,-1 -10.2,-1 z"
   class="st24" />
						<path
   style="fill:#63391d"
   inkscape:connector-curvature="0"
   id="path337"
   d="m 532.9,464.2 c -1.8,0.6 -17.8,5.4 -33.7,-3.1 -0.3,-0.2 -0.7,0.1 -0.6,0.5 0.6,3.5 3.1,16 11.4,16.9 7.6,0.9 11.7,0.8 14.6,0.5 5.9,-0.6 8.3,-12.9 8.5,-14.7 0,-0.1 -0.1,-0.1 -0.2,-0.1 z"
   class="st32" />
						<path
   style="fill:#ffffff"
   inkscape:connector-curvature="0"
   id="path339"
   d="m 499.3,461.1 c 14.4,7.8 28.9,4.5 32.8,3.4 l -0.7,2.7 c -0.1,0.4 -0.4,0.7 -0.8,0.9 -1.7,0.7 -6.7,2.4 -14.8,1.5 -7.8,-0.9 -14,-3.3 -16.4,-4.3 -0.4,-1.6 -0.7,-2.9 -0.8,-3.7 0,-0.4 0.4,-0.7 0.7,-0.5 z"
   class="st6" />
						<path
   style="fill:#ffffff"
   inkscape:connector-curvature="0"
   id="path341"
   d="m 527.9,475.7 c 0.2,0 0.2,0.1 0.2,0.2 l -0.3,1.5 c -0.9,0.9 -2,1.5 -3.2,1.6 -2.9,0.3 -7,0.3 -14.6,-0.5 -3.1,-0.4 -5.5,-2.4 -7.2,-5 9.5,3.9 23.2,2.4 25.1,2.2 z"
   class="st6" />
						<g
   id="g355">
							
								<ellipse
   style="fill:#f1f2f2"
   id="ellipse343"
   ry="8.6000004"
   rx="6"
   cy="418"
   cx="502.39999"
   class="st9"
   transform="matrix(0.06283911,-0.998,0.998,0.06283911,53.622,893.1325)" />
							<g
   id="g349">
								
									<ellipse
   style="fill:#873925"
   id="ellipse345"
   ry="5.0999999"
   rx="5.5"
   cy="417.89999"
   cx="503.29999"
   class="st10"
   transform="matrix(0.998,-0.06283911,0.06283911,0.998,-25.2683,32.4541)" />
								
									<ellipse
   style="fill:#642712"
   id="ellipse347"
   ry="3.4000001"
   rx="3.5999999"
   cy="418"
   cx="501.79999"
   class="st7"
   transform="matrix(0.998,-0.06283911,0.06283911,0.998,-25.2772,32.3597)" />
							</g>
							
								<ellipse
   style="fill:#f1f2f2"
   id="ellipse351"
   ry="1.5"
   rx="1.4"
   cy="415"
   cx="507.89999"
   class="st9"
   transform="matrix(0.06283911,-0.998,0.998,0.06283911,61.8326,895.8107)" />
							<path
   style="fill:#642712"
   inkscape:connector-curvature="0"
   id="path353"
   d="m 500.3,411.8 c 1.6,-0.3 3.3,-0.2 4.9,0.2 1.6,0.4 3.1,1.2 4.2,2.3 1.1,1.1 1.8,2.7 1.5,4.2 -0.1,-1.5 -0.9,-2.8 -2,-3.8 -1.1,-1 -2.5,-1.7 -4,-2 -1.5,-0.4 -3,-0.5 -4.6,-0.4 -1.5,0.2 -3,0.6 -4.4,1.4 1.3,-1 2.8,-1.7 4.4,-1.9 z"
   class="st7" />
						</g>
						<g
   id="g369">
							
								<ellipse
   style="fill:#f1f2f2"
   id="ellipse357"
   ry="7.1999998"
   rx="5.8000002"
   cy="416.89999"
   cx="536.20001"
   class="st9"
   transform="matrix(0.1069,-0.9943,0.9943,0.1069,64.399,905.4851)" />
							<g
   id="g363">
								
									<ellipse
   style="fill:#873925"
   id="ellipse359"
   ry="4.5999999"
   rx="4.9000001"
   cy="416.79999"
   cx="537"
   class="st10"
   transform="matrix(0.05815631,-0.9983,0.9983,0.05815631,89.6475,928.6738)" />
								
									<ellipse
   style="fill:#642712"
   id="ellipse361"
   ry="3.0999999"
   rx="3.3"
   cy="416.89999"
   cx="535.70001"
   class="st7"
   transform="matrix(0.05815631,-0.9983,0.9983,0.05815631,88.3659,927.4988)" />
							</g>
							
								<ellipse
   style="fill:#f1f2f2"
   id="ellipse365"
   ry="1.4"
   rx="1.3"
   cy="414"
   cx="540.90002"
   class="st9"
   transform="matrix(0.9983,-0.05815631,0.05815631,0.9983,-23.159,32.1546)" />
							<path
   style="fill:#642712"
   inkscape:connector-curvature="0"
   id="path367"
   d="m 534.5,410.9 c 1.3,-0.3 2.8,-0.2 4.1,0.2 1.3,0.4 2.6,1.2 3.5,2.3 0.9,1.1 1.5,2.6 1.3,4.1 -0.1,-1.5 -0.7,-2.7 -1.7,-3.7 -0.9,-0.9 -2.1,-1.6 -3.3,-2 -1.2,-0.4 -2.5,-0.5 -3.8,-0.4 -1.3,0.2 -2.6,0.6 -3.7,1.3 1,-1 2.3,-1.6 3.6,-1.8 z"
   class="st7" />
						</g>
					</g>
				</g>
				<path
   style="fill:#e8e8e8"
   inkscape:connector-curvature="0"
   id="path375"
   d="m 435,671.6 -1,-90.5 -7.9,47.2 -2.2,36.1 c 0,0 5.5,40.3 6.8,52.8 1.1,4.7 2.2,9.4 3.3,14 1.5,0.1 4.3,0.4 8.3,0.7 z"
   class="st26" />
			</g>
		<polygon
   class="st26"
   points="542.3,596.2 540.4,568.2 547.3,594.2   "
   id="polygon381" />
		<g
   id="g555">
				<g
   id="g547">
					<g
   id="g509">
						<polygon
   style="fill:#e8e8e8"
   id="polygon395"
   points="930,511.3 927.3,547.2 940.9,651 948.1,651.3 989.4,508.5 948.4,518.7 "
   class="st26" />
						<path
   style="fill:#f8cf99"
   inkscape:connector-curvature="0"
   id="path397"
   d="m 877.9,780.7 c 0,0 -0.4,4.7 -2.3,8.5 -1.9,3.8 -2.7,10.9 -1.7,15.4 1,4.5 4.8,7.7 6.2,8.3 1.4,0.6 6.8,2.9 8.8,2.7 2,-0.2 1.8,-3.5 -2.4,-4.6 -4.2,-1.1 -5.1,-6.2 -5.2,-8.3 -0.1,-2.1 0.9,-4.2 2.4,-5.9 1.5,-1.7 1.5,-2.9 1.5,-2.9 0,0 1.1,3.7 0.5,5.9 -0.6,2.1 -1.2,7.5 1.6,8 2.8,0.5 5.3,-0.6 5.1,-7 -0.2,-6.3 2.5,-7.5 1.4,-13 -1.1,-5.5 -1.9,-12.9 -1.7,-15.2 l -14,-2.2 z"
   class="st19" />
						<g
   id="g403">
							<polygon
   style="fill:#e8e8e8"
   id="polygon399"
   points="889.9,773.3 889.2,768.9 877.5,768.5 877.5,773 "
   class="st26" />
							<polygon
   style="opacity:0.45;fill:#939598"
   id="polygon401"
   points="889.2,768.9 877.5,768.5 877.5,770.9 889.6,771.3 "
   class="st33" />
						</g>
						<g
   id="g409">
							<path
   style="fill:#40332b"
   inkscape:connector-curvature="0"
   id="path405"
   d="m 949.1,1093.5 1.7,3 v 6.5 c 0,1.1 -0.9,2 -2,2 h -25 c -0.9,0 -1.7,-0.5 -2,-1.4 l -1.9,-3.2 c -0.5,-0.8 -1.6,-0.9 -2.2,-0.2 l -3.1,3.7 c -0.4,0.7 -1.1,1.1 -1.9,1.1 h -41.9 c -0.5,0 -0.9,-0.3 -1,-0.8 -0.3,-1.6 -0.7,-5.3 1.2,-7.7 z"
   class="st22" />
							<path
   style="fill:#826045"
   inkscape:connector-curvature="0"
   id="path407"
   d="m 949.3,1070.2 c 0,0 3,16.1 1.5,26.2 H 871 c 0,0 2.1,-14.3 27,-16.7 15.9,-1.5 20.2,-13.8 20.2,-13.8 z"
   class="st34" />
						</g>
						<path
   style="fill:#414042"
   inkscape:connector-curvature="0"
   id="path411"
   d="m 897.5,728.9 c 0,0 -3.3,10.8 -6.1,37.9 -2.7,25.8 0.4,112.7 4.4,149.4 4,36.8 12.2,156.8 12.2,156.8 l 47.7,9.2 1,-221.9 24.3,224.4 46,-0.9 c 0,0 -2,-105.8 -2,-144.6 0,-38.8 -1,-135.9 -7.9,-171.9 -7,-36 -7,-36 -7,-36 z"
   class="st4" />
						<polygon
   style="opacity:0.45;fill:#231f20"
   id="polygon413"
   points="948.1,793.6 947.9,1080.6 955.6,1082.1 956.7,860.2 "
   class="st11" />
						<path
   style="opacity:0.45;fill:#231f20"
   inkscape:connector-curvature="0"
   id="path415"
   d="m 1024.9,939 c 0,-38.8 -1,-135.9 -7.9,-171.9 -0.5,-2.8 -1,-5.3 -1.5,-7.6 l -2.7,3.2 c 0,0 2.1,19.7 2.3,47.5 0.3,34.9 1.1,82.9 2.7,137.3 2.4,79 0.1,136.3 0.1,136.3 l 9,-0.2 c 0.1,0 -2,-105.8 -2,-144.6 z"
   class="st11" />
						<path
   style="fill:#f8cf99"
   inkscape:connector-curvature="0"
   id="path417"
   d="m 937.5,515.7 c 5,-18.9 -2.5,-24.3 -2.5,-24.3 L 974.3,477 c 0,0 3,20.9 12.9,36.8 l -39.7,7.5 z"
   class="st19" />
						<path
   style="fill:#ddaa72"
   inkscape:connector-curvature="0"
   id="path419"
   d="M 974.3,477 935,491.4 c 0,0 2.3,1.7 3.5,6.5 9.3,0 22.8,-1.7 38.6,-8.1 -2.1,-7.4 -2.8,-12.8 -2.8,-12.8 z"
   class="st24" />
						<path
   style="fill:#c4c5c6"
   inkscape:connector-curvature="0"
   id="path421"
   d="m 925.8,516.1 c 0,0 2.3,15.3 7.2,21.7 l 12.9,-14.6 2.2,0.4 c 0,0 6.1,15.3 6.7,18.1 0,0 25.8,-13 35.9,-32.6 l -1.3,-0.5 -36.6,13.4 -15.7,-3.5 z"
   class="st35" />
						<path
   style="fill:#c4c5c6"
   inkscape:connector-curvature="0"
   id="path423"
   d="m 952.2,530.9 -3.5,4 3.6,141.5 c 0,0 -11.2,17.5 -12.7,19.4 -1.5,1.9 -4.4,0.1 -4.4,0.1 l 9.6,-167.1 9.7,-3.4 z"
   class="st35" />
						<path
   style="fill:#1b75bc"
   inkscape:connector-curvature="0"
   id="path425"
   d="m 952.7,528.4 -4.2,-9.7 -9.6,6.7 2.2,8.6 -14,138 c -0.1,0.5 0,1 0.2,1.5 l 7.9,22.4 c 0.3,0.9 1.5,1 2,0.2 l 12.6,-20.5 c 0.4,-0.6 0.5,-1.2 0.5,-1.9 l -3,-140.1 z"
   class="st36" />
						<path
   style="opacity:0.45;fill:#231f20"
   inkscape:connector-curvature="0"
   id="path427"
   d="m 1010.6,734.4 -62.4,-1.1 h -7.1 l -43.6,-0.8 c -0.1,0 -0.2,0.1 -0.3,0.1 -0.2,2.5 -0.6,6.2 -1,10.7 0.1,0.1 0.3,0.1 0.4,0.1 l 44.5,2.1 h 7.1 l 64.5,0.2 c -1.1,-6.1 -1.8,-9.4 -2.1,-11.3 z"
   class="st11" />
						<g
   id="g433">
							<path
   style="fill:#e8e8e8"
   inkscape:connector-curvature="0"
   id="path429"
   d="m 948.4,518.7 7.3,19.1 c 23.7,-10.6 33.7,-29.3 33.7,-29.3 0,0 -4.7,-7.5 -9.6,-10.3 0.1,0 -7.8,10.8 -31.4,20.5 z"
   class="st26" />
							<path
   style="fill:#e8e8e8"
   inkscape:connector-curvature="0"
   id="path431"
   d="m 933.3,535.2 15.1,-16.5 c 0,0 -9.1,-5.9 -9.2,-13.5 0,0 -10.8,4.9 -13.4,10.9 0,0 4,11.5 7.5,19.1 z"
   class="st26" />
						</g>
						<path
   style="fill:#ad684b"
   inkscape:connector-curvature="0"
   id="path435"
   d="m 1010.5,733.5 -62.4,-1.1 H 941 l -43.6,-0.8 c -0.6,0 -1.1,0.4 -1.1,1 -0.2,1.9 -0.4,4.5 -0.8,8.7 -0.1,0.6 0.4,1.2 1,1.2 l 44.5,2.1 h 7.1 l 64.5,0.2 c -1.1,-6 -1.7,-9.4 -2.1,-11.3 z"
   class="st27" />
						<path
   style="opacity:0.45;fill:#231f20"
   inkscape:connector-curvature="0"
   id="path437"
   d="m 948.9,730.4 h -7.1 c -1.9,0 -3.5,1.6 -3.5,3.5 v 10.8 c 0,1.9 1.6,3.5 3.5,3.5 h 7.1 c 1.9,0 3.5,-1.6 3.5,-3.5 v -10.8 c 0,-2 -1.6,-3.5 -3.5,-3.5 z m 0.7,14.2 c 0,0.4 -0.3,0.7 -0.7,0.7 h -7.1 c -0.4,0 -0.7,-0.3 -0.7,-0.7 v -10.8 c 0,-0.4 0.3,-0.7 0.7,-0.7 h 7.1 c 0.4,0 0.7,0.3 0.7,0.7 z"
   class="st11" />
						<g
   style="opacity:0.45"
   id="g445"
   class="st17">
							<path
   style="fill:#231f20"
   inkscape:connector-curvature="0"
   id="path439"
   d="m 923.4,746.6 -1.3,-0.1 c -0.8,0 -1.5,-0.8 -1.4,-1.6 l 0.7,-12.8 c 0,-0.8 0.8,-1.5 1.6,-1.4 l 1.3,0.1 c 0.8,0 1.5,0.8 1.4,1.6 l -0.7,12.8 c -0.1,0.8 -0.8,1.4 -1.6,1.4 z"
   class="st18" />
							<path
   style="fill:#231f20"
   inkscape:connector-curvature="0"
   id="path441"
   d="M 969.4,747.3 H 968 c -0.8,0 -1.5,-0.7 -1.5,-1.5 V 733 c 0,-0.8 0.7,-1.5 1.5,-1.5 h 1.3 c 0.8,0 1.5,0.7 1.5,1.5 v 12.8 c 0.1,0.8 -0.6,1.5 -1.4,1.5 z"
   class="st18" />
							<path
   style="fill:#231f20"
   inkscape:connector-curvature="0"
   id="path443"
   d="m 900.7,745.6 -1.4,-0.1 c -0.5,0 -0.9,-0.5 -0.9,-1 l 0.8,-13.9 c 0,-0.5 0.5,-0.9 1,-0.9 l 1.4,0.1 c 0.5,0 0.9,0.5 0.9,1 l -0.8,13.9 c 0,0.5 -0.4,1 -1,0.9 z"
   class="st18" />
						</g>
						<g
   id="g455">
							<path
   style="fill:#414042"
   inkscape:connector-curvature="0"
   id="path447"
   d="m 922.6,746.7 -1.3,-0.1 c -0.8,0 -1.5,-0.8 -1.4,-1.6 l 0.7,-12.8 c 0,-0.8 0.8,-1.5 1.6,-1.4 l 1.3,0.1 c 0.8,0 1.5,0.8 1.4,1.6 l -0.7,12.8 c -0.1,0.8 -0.8,1.5 -1.6,1.4 z"
   class="st4" />
							<path
   style="fill:#414042"
   inkscape:connector-curvature="0"
   id="path449"
   d="m 968.6,747.4 h -1.3 c -0.8,0 -1.5,-0.7 -1.5,-1.5 v -12.8 c 0,-0.8 0.7,-1.5 1.5,-1.5 h 1.3 c 0.8,0 1.5,0.7 1.5,1.5 v 12.8 c 0,0.8 -0.7,1.5 -1.5,1.5 z"
   class="st4" />
							<path
   style="fill:#414042"
   inkscape:connector-curvature="0"
   id="path451"
   d="m 1001.7,748 h -1.3 c -0.8,0 -1.5,-0.7 -1.5,-1.5 v -12.8 c 0,-0.8 0.7,-1.5 1.5,-1.5 h 1.3 c 0.8,0 1.5,0.7 1.5,1.5 v 12.8 c 0,0.8 -0.6,1.5 -1.5,1.5 z"
   class="st4" />
							<path
   style="fill:#414042"
   inkscape:connector-curvature="0"
   id="path453"
   d="m 899.9,745.7 -1.4,-0.1 c -0.5,0 -0.9,-0.5 -0.9,-1 l 0.8,-13.9 c 0,-0.5 0.5,-0.9 1,-0.9 l 1.4,0.1 c 0.5,0 0.9,0.5 0.9,1 l -0.8,13.9 c 0,0.6 -0.4,1 -1,0.9 z"
   class="st4" />
						</g>
						<path
   style="fill:#f1f2f2"
   inkscape:connector-curvature="0"
   id="path457"
   d="M 948.1,729.6 H 941 c -1.9,0 -3.5,1.6 -3.5,3.5 v 10.8 c 0,1.9 1.6,3.5 3.5,3.5 h 7.1 c 1.9,0 3.5,-1.6 3.5,-3.5 v -10.8 c 0,-1.9 -1.5,-3.5 -3.5,-3.5 z m 0.7,14.3 c 0,0.4 -0.3,0.7 -0.7,0.7 H 941 c -0.4,0 -0.7,-0.3 -0.7,-0.7 v -10.8 c 0,-0.4 0.3,-0.7 0.7,-0.7 h 7.1 c 0.4,0 0.7,0.3 0.7,0.7 z"
   class="st9" />
						<path
   style="opacity:0.45;fill:#231f20"
   inkscape:connector-curvature="0"
   id="path459"
   d="m 1017,767.1 c -7,-36 -7,-36 -7,-36 l -4.2,-0.1 -111.7,14.7 c -0.9,5.5 -1.8,12.4 -2.7,21 -0.1,0.8 -0.6,14.7 -0.7,15.6 9.4,1.4 45,6.4 48.4,6.5 3.9,0.2 5.8,-26.5 5.8,-26.5 0,0 -1.7,27.1 2.4,27.1 2.5,0 27.9,-1.6 48.2,-3.2 1.7,4.3 3.3,7.5 5.4,11.7 1.1,2.3 3.4,5.7 4.7,7.9 1.3,2.2 3,4.2 4.8,6 -1.7,-1.9 -3,-4.1 -4.2,-6.3 -1.2,-2.2 -2.3,-4.5 -3.3,-6.9 -1.8,-4.1 -3.3,-8.3 -4.8,-12.6 6.4,-0.5 12.1,-1 16.1,-1.5 -0.3,-0.6 2.9,-16.7 2.8,-17.4 z"
   class="st11" />
						<g
   id="g489">
							<g
   id="g485">
								<defs
   id="defs462">
									<path
   inkscape:connector-curvature="0"
   d="m 1015.1,810.2 c 0.5,-6.4 -0.8,-18.2 0.3,-25.7 0.4,-2.6 3.3,-12.2 7.4,-24.7 l -18,-11.3 c -2.5,10.1 -4.7,18.7 -6.3,23.8 1.6,7.7 6.5,28.5 16.6,37.9 z"
   id="SVGID_1_" />
								</defs>
								<clipPath
   id="SVGID_2_">
									<use
   height="100%"
   width="100%"
   y="0"
   x="0"
   id="use464"
   style="overflow:visible"
   xlink:href="#SVGID_1_" />
								</clipPath>
								<g
   id="g483"
   clip-path="url(#SVGID_2_)"
   class="st37">
									<g
   id="g471">
										<path
   style="fill:#f8cf99"
   inkscape:connector-curvature="0"
   id="path467"
   d="m 1022.8,759.8 -18,-11.3 c -3.5,14.4 -6.6,25.8 -8,28.3 -4.3,7.7 -5.9,10.2 -11.1,15.6 -5.2,5.4 -9.5,9.7 -8.4,16.3 1.1,6.6 -3.4,11.5 -0.2,13.6 3.2,2 6.1,-3.6 6.1,-3.6 0,0 0,6.3 2.9,7.7 2.9,1.4 5.7,-2.5 5.7,-2.5 3.4,3.2 8.4,-1.1 8.4,-1.1 5.9,1.6 8.6,-5.2 8.6,-5.2 0,0 3.2,0 5.4,-3.6 2.3,-3.6 -0.2,-19.9 1.1,-29.4 0.5,-2.7 3.4,-12.3 7.5,-24.8 z"
   class="st19" />
										<path
   style="fill:#ddaa72"
   inkscape:connector-curvature="0"
   id="path469"
   d="m 1022.8,759.8 -2.1,-1.3 c -4.2,12.9 -7.1,22.5 -7.3,24.2 -0.5,5.3 1,25.3 -0.1,32.5 0.3,-0.4 0.7,-0.8 1,-1.3 2.3,-3.6 -0.2,-19.9 1.1,-29.4 0.4,-2.6 3.3,-12.2 7.4,-24.7 z"
   class="st24" />
									</g>
									<g
   id="g481">
										<path
   style="fill:#d3906e"
   inkscape:connector-curvature="0"
   id="path473"
   d="m 1008.8,817.5 c 0,0 -5,6.1 -8.6,5.2 5.9,1.6 8.6,-5.2 8.6,-5.2 z"
   class="st38" />
										<path
   style="fill:#d3906e"
   inkscape:connector-curvature="0"
   id="path475"
   d="m 1000.2,822.7 c 0,0 -5.7,2.3 -8.4,1.1 3.5,3.2 8.4,-1.1 8.4,-1.1 z"
   class="st38" />
										<path
   style="fill:#d3906e"
   inkscape:connector-curvature="0"
   id="path477"
   d="m 977.2,822.3 c 3.1,1.9 6,-3.7 6,-3.7 0,0 -2.9,3.1 -6,3.7 z"
   class="st38" />
										<path
   style="fill:#d3906e"
   inkscape:connector-curvature="0"
   id="path479"
   d="m 986.2,826.3 c 2.9,1.4 5.7,-2.5 5.7,-2.5 0,0 -4,3.2 -7.5,0.4 0.4,0.9 1,1.7 1.8,2.1 z"
   class="st38" />
									</g>
								</g>
							</g>
							<path
   style="fill:#ddaa72"
   inkscape:connector-curvature="0"
   id="path487"
   d="m 998.5,772.3 c 1.5,7.8 6.5,28.5 16.6,37.9 0.1,-1.3 0.1,-2.8 0.1,-4.4 -1.9,-2 -4.5,-5.2 -7,-9.9 -4.2,-7.7 -8.1,-21.5 -9.2,-25.4 -0.1,0.6 -0.3,1.2 -0.5,1.8 z"
   class="st24" />
						</g>
						<polygon
   style="fill:#e8e8e8"
   id="polygon491"
   points="1019.9,777.9 1023.2,770.2 999.5,757.3 997.7,763.8 "
   class="st26" />
						<polygon
   style="opacity:0.45;fill:#939598"
   id="polygon493"
   points="1019.9,777.9 1023.2,770.2 999.5,757.3 998.8,759.7 1019.8,773.4 1018.4,776.9 "
   class="st33" />
						<path
   style="fill:#414042"
   inkscape:connector-curvature="0"
   id="path495"
   d="m 1052.5,530.6 c -11.2,-8.9 -63.1,-22.1 -63.1,-22.1 l -23.8,24 -21.3,115.3 -13.1,-113.5 -1.2,-23.1 -7.2,5.2 c 0,0 -16.8,3.8 -29.4,9.8 -12.7,6 -19.1,75.5 -19.1,75.5 0,0 0.2,155.8 0.7,163.7 0.3,5.4 0.7,3.9 9.7,4.4 -0.3,7.6 -0.2,7.3 -0.2,7.3 0,0 44.8,6.6 53.3,6.9 5.4,0.2 7.4,-35.8 7.8,-40.4 0.1,4.4 -0.7,40.4 2.2,41.2 2.1,0.9 31.2,-1.2 49.5,-2.5 1.7,-5.7 1.5,-14 3.8,-23.4 l 23.4,14.7 c 0,0 20.8,-64.6 29,-87.9 8.2,-23.3 8.8,-37.5 8.7,-68.6 0,0 1.5,-77.5 -9.7,-86.5 z"
   class="st4" />
						<g
   style="opacity:0.45"
   id="g501"
   class="st17">
							<path
   style="fill:#231f20"
   inkscape:connector-curvature="0"
   id="path497"
   d="m 944.4,647.8 v 0 c 0,0.1 0,0 0,0 z"
   class="st18" />
							<path
   style="fill:#231f20"
   inkscape:connector-curvature="0"
   id="path499"
   d="m 944.4,647.8 v -0.3 c 0,-0.2 -0.1,-0.5 -0.1,-0.8 l -13,-112.3 -1.2,-23.1 -7.2,5.2 c 0,0 -0.6,0.1 -1.7,0.4 l -4.6,21.2 4.4,5.8 -3.3,8.1 c 0,0 25.9,94.6 26.7,95.8 z"
   class="st18" />
						</g>
						<g
   id="g507">
							<path
   style="fill:#40332b"
   inkscape:connector-curvature="0"
   id="path503"
   d="m 983.6,1093.8 -2.3,1.5 v 6.6 c 0,1.6 1.2,2.8 2.7,2.8 l 41,0.4 c 1.5,0 2.7,-1.3 2.7,-2.9 v -6.9 z"
   class="st22" />
							<path
   style="fill:#826045"
   inkscape:connector-curvature="0"
   id="path505"
   d="m 1004.5,1077.8 c -12.8,0 -23.2,7.8 -23.2,17.5 h 46.4 c 0,-9.6 -10.4,-17.5 -23.2,-17.5 z"
   class="st34" />
						</g>
					</g>
					<g
   id="g545">
						<path
   style="fill:#5e3e33"
   inkscape:connector-curvature="0"
   id="path511"
   d="m 1006.4,347.7 c 0,0 2,-2.7 9.6,-1.3 0,0 -5.8,-4.4 -12.2,-1 0,0 0.9,-4.4 -3.8,-7.6 0,0 3.1,6.9 -0.7,8.8 -3.8,1.9 0.9,2.7 0.9,2.7 l 4.9,0.3 z"
   class="st39" />
						<path
   style="fill:#f8cf99"
   inkscape:connector-curvature="0"
   id="path513"
   d="m 899.1,377.2 c 0,0 -4.5,16.1 -3.6,19.6 0.9,3.6 3.4,9.1 -0.4,20.1 -4.4,12.5 0.9,46.6 3.5,53.7 6.2,16.6 8.8,23.9 25.5,25.5 15.1,1.5 35.1,-2.8 52.9,-14.5 13.7,-9 25.1,-40.8 25.1,-40.8 0,0 17.1,-23 13.1,-42.6 -4,-19.6 -37.5,-46 -37.5,-46 l -78.6,25"
   class="st19" />
						<path
   style="fill:#ddaa72"
   inkscape:connector-curvature="0"
   id="path515"
   d="m 1015.1,398.2 c -4,-19.6 -37.5,-46 -37.5,-46 l -78.5,25 c 0,0 -0.7,2.5 -1.5,5.7 14,3.8 48.8,10.3 82.3,-7.3 0,0 -1.6,31 10.4,53.7 0,0 1.9,22.9 -14,52.7 0.2,-0.1 0.4,-0.2 0.5,-0.3 13.7,-9 25.1,-40.8 25.1,-40.8 0,0 17.2,-23.1 13.2,-42.7 z"
   class="st24" />
						<path
   style="fill:#6d4a3b"
   inkscape:connector-curvature="0"
   id="path517"
   d="m 988.3,334.3 c -13.4,-3.6 -30,0 -68.3,6.8 -7.9,1.4 -33.9,4.8 -32.7,26.5 0.4,7.5 7.8,12.1 13.4,13.3 52.4,11.1 91.6,-13.9 91.6,-13.9 12.1,-8.1 14.5,-27.7 -4,-32.7 z"
   class="st40" />
						<path
   style="fill:#ddaa72"
   inkscape:connector-curvature="0"
   id="path519"
   d="m 916.9,427 c -0.5,6.1 -1.8,11.6 -4.7,17 -0.6,1.3 -1.8,2.8 -1.9,3.7 -0.2,0.7 1.1,1.6 2.3,2.3 2.6,1.4 4.5,3.7 5.8,6.6 -2,-2.4 -4.8,-3.4 -7.6,-4.7 -0.7,-0.3 -1.4,-0.7 -2.1,-1.2 -0.7,-0.5 -1.5,-1.5 -1.4,-2.7 0.1,-1.1 0.7,-1.9 1,-2.5 l 1.1,-2 c 1.5,-2.6 2.8,-5.3 4.1,-8 1.2,-2.9 2.4,-5.6 3.4,-8.5 z"
   class="st24" />
						<path
   style="fill:#5e3e33"
   inkscape:connector-curvature="0"
   id="path521"
   d="m 931.5,409.7 c 0,0 21.4,-10 32.5,0 0,0 -3.3,-9.4 -14.7,-9.7 -11.5,-0.4 -23.2,3.3 -17.8,9.7 z"
   class="st39" />
						<path
   style="fill:#5e3e33"
   inkscape:connector-curvature="0"
   id="path523"
   d="m 915.7,408.2 c 0,0 -14.1,-5.7 -19.4,-2.7 0,0 0,-5.4 6.5,-5.2 6.6,0.2 13.9,1.5 12.9,7.9 z"
   class="st39" />
						<path
   style="fill:#6d4a3b"
   inkscape:connector-curvature="0"
   id="path525"
   d="m 931.2,417 c 1.6,-1.5 3.5,-2.4 5.3,-2.8 1.9,-0.5 3.9,-0.4 5.8,0 1.9,0.5 3.8,1.2 5.5,2.4 0.9,0.5 1.7,1.3 2.5,2 0.8,0.8 1.5,1.6 2.3,2.5 -0.9,-0.5 -1.7,-1.1 -2.6,-1.5 -0.9,-0.4 -1.7,-1 -2.6,-1.4 -1.7,-0.9 -3.5,-1.4 -5.3,-1.9 -1.8,-0.4 -3.6,-0.5 -5.4,-0.4 -1.9,0.1 -3.7,0.4 -5.5,1.1 z"
   class="st40" />
						<path
   style="fill:#6d4a3b"
   inkscape:connector-curvature="0"
   id="path527"
   d="m 911.9,413.4 c -1.7,-0.6 -3.5,-0.8 -5.3,-0.7 -1.8,0.2 -3.6,0.6 -5.4,1.5 -0.9,0.3 -1.7,0.9 -2.6,1.4 -0.8,0.6 -1.6,1.2 -2.4,1.9 0.9,-0.3 1.7,-0.7 2.6,-1 0.9,-0.3 1.7,-0.7 2.6,-0.9 1.7,-0.6 3.4,-0.9 5.1,-1 1.7,-0.2 3.4,-0.1 5,0.2 1.6,0.3 3.3,0.8 4.8,1.6 -1.2,-1.4 -2.8,-2.4 -4.4,-3 z"
   class="st40" />
						<path
   style="fill:#5e3e33"
   inkscape:connector-curvature="0"
   id="path529"
   d="m 988.3,334.3 c -2.1,-0.6 -4.3,-1 -6.6,-1.2 5.8,2.3 13.6,6.7 15.4,13.5 0,0 -16.4,1.1 -17.2,22.2 0,0 -24,11.7 -41.9,11.8 -18,0.2 -24.9,-10.7 -24.9,-10.7 0,0 5.4,8.5 16.1,11.2 0,0 -13.7,-0.6 -17.8,-1.7 -4.1,-1.1 -10.9,-6.9 -10.9,-13.1 0,0 -2.1,7.7 6.8,13.1 0,0 -11.7,0.3 -19.6,-10 1.4,6.4 8,10.4 13.1,11.5 52.4,11.1 91.6,-13.9 91.6,-13.9 12,-8.1 14.4,-27.7 -4.1,-32.7 z"
   class="st39" />
						<path
   style="fill:#6d4a3b"
   inkscape:connector-curvature="0"
   id="path531"
   d="m 1018.5,349.8 c -6,-3.8 -19,-5.5 -27.4,3 -1.6,1.6 -3.2,4 -4.5,7 -4.1,9.2 -6.2,24.4 -2.2,42.4 2,8.8 3.6,16.4 4.7,21.6 0.3,1.5 2.4,1.5 2.8,0 1.4,-6.1 4.6,-15.4 11.8,-18 2.9,1.1 6,3.7 6.4,9.4 -2.6,15.5 -8.1,18.1 -8.1,18.1 0,0 -7.5,29.8 -17.7,41.2 8.2,-1 29.4,-11.8 34.3,-29.3 19,-67.8 10.9,-88.4 -0.1,-95.4 z"
   class="st40" />
						<path
   style="fill:#ddaa72"
   inkscape:connector-curvature="0"
   id="path533"
   d="m 1006.7,404.7 c -11.5,-1.3 -11.9,10.4 -11.9,10.4 l 2.2,21.1 c 15.6,0.1 21.3,-30.2 9.7,-31.5 z"
   class="st24" />
						<path
   style="fill:#5e3e33"
   inkscape:connector-curvature="0"
   id="path535"
   d="m 1018.5,349.8 c -4.1,-2.6 -11.6,-4.2 -18.6,-2.2 7,0.8 23.5,5 24.3,28.6 1,29.3 -7.4,68.6 -12.4,77 -2.2,3.7 -5.8,8.5 -9,12.6 6.8,-5 13.3,-12 15.7,-20.6 19.1,-67.8 11,-88.4 0,-95.4 z"
   class="st39" />
						<g
   id="g543">
							<path
   style="fill:#642712"
   inkscape:connector-curvature="0"
   id="path537"
   d="m 921.5,466.5 c -5.7,0 -11.8,-0.8 -14.8,-2.8 -0.3,-0.2 -0.6,0 -0.6,0.3 0.6,6.3 7.2,12.6 15.4,12.6 8.1,0 14.8,-6.3 15.4,-12.6 0,-0.3 -0.3,-0.5 -0.6,-0.3 -2.9,1.9 -9.1,2.8 -14.8,2.8 z"
   class="st7" />
							<path
   style="fill:#f395a7"
   inkscape:connector-curvature="0"
   id="path539"
   d="m 921.5,471.4 c -3.9,0 -7.4,0.8 -9.6,2 2.6,1.9 6,3.2 9.6,3.2 3.6,0 7,-1.3 9.6,-3.2 -2.2,-1.2 -5.7,-2 -9.6,-2 z"
   class="st8" />
							<path
   style="fill:#ffffff"
   inkscape:connector-curvature="0"
   id="path541"
   d="m 911.4,465.5 v 0.5 c 0,1.3 1,2.5 2.5,2.7 2.4,0.4 5.1,0.5 7.7,0.5 2.6,0 5.3,-0.2 7.7,-0.6 1.4,-0.2 2.4,-1.4 2.4,-2.7 v -0.5 c -3,0.7 -6.6,1 -10.1,1 -3.6,0.1 -7.3,-0.2 -10.2,-0.9 z"
   class="st6" />
						</g>
					</g>
				</g>
				<polygon
   style="fill:#231f20"
   id="polygon549"
   points="974.2,545.6 983,554.4 944.2,646.7 965.6,532.6 989.4,508.5 991.8,509.2 994.9,542.5 "
   class="st18" />
				<polygon
   style="opacity:0.45;fill:#231f20"
   id="polygon551"
   points="1027.2,604.5 1015.5,661.2 994,751 1025.1,660.5 "
   class="st11" />
				<path
   style="opacity:0.45;fill:#231f20"
   inkscape:connector-curvature="0"
   id="path553"
   d="m 892.5,592.8 c 0,0 -8.6,177.1 -7.7,177.1 -0.3,7.6 -0.2,7.3 -0.2,7.3 0,0 3.7,0.5 9.2,1.3 z"
   class="st11" />
			</g>
	</g>
</g>
</svg>