<?xml version="1.0" encoding="UTF-8" standalone="no"?>
<!-- Created with Inkscape (http://www.inkscape.org/) -->

<svg
   xmlns:dc="http://purl.org/dc/elements/1.1/"
   xmlns:cc="http://creativecommons.org/ns#"
   xmlns:rdf="http://www.w3.org/1999/02/22-rdf-syntax-ns#"
   xmlns:svg="http://www.w3.org/2000/svg"
   xmlns="http://www.w3.org/2000/svg"
   xmlns:sodipodi="http://sodipodi.sourceforge.net/DTD/sodipodi-0.dtd"
   xmlns:inkscape="http://www.inkscape.org/namespaces/inkscape"
   version="1.1"
   id="svg2"
   xml:space="preserve"
   width="6010.3467"
   height="2666.6667"
   viewBox="0 0 6010.3467 2666.6667"
   sodipodi:docname="people-receive-email.svg"
   inkscape:version="0.92.5 (2060ec1f9f, 2020-04-08)"><metadata
     id="metadata8"><rdf:RDF><cc:Work
         rdf:about=""><dc:format>image/svg+xml</dc:format><dc:type
           rdf:resource="http://purl.org/dc/dcmitype/StillImage" /><dc:title /></cc:Work></rdf:RDF></metadata><defs
     id="defs6" /><sodipodi:namedview
     pagecolor="#ffffff"
     bordercolor="#666666"
     borderopacity="1"
     objecttolerance="10"
     gridtolerance="10"
     guidetolerance="10"
     inkscape:pageopacity="0"
     inkscape:pageshadow="2"
     inkscape:window-width="1366"
     inkscape:window-height="740"
     id="namedview4"
     showgrid="false"
     inkscape:zoom="0.13441784"
     inkscape:cx="3826.2807"
     inkscape:cy="1380.2012"
     inkscape:window-x="0"
     inkscape:window-y="0"
     inkscape:window-maximized="1"
     inkscape:current-layer="g10" /><g
     id="g10"
     inkscape:groupmode="layer"
     inkscape:label="ink_ext_XXXXXX"
     transform="matrix(1.3333333,0,0,-1.3333333,0,2666.6667)"><g
       id="g358"><g
         transform="matrix(0.1,0,0,0.1,5.5796166,94.853483)"
         id="g12"><g
           transform="translate(-2638.3674,-680.86907)"
           id="g1657"><g
             id="g584"
             transform="scale(1.68571)"><path
               d="m 16300,9259.31 c 0,-152.81 -123.9,-276.69 -276.7,-276.69 -152.8,0 -276.7,123.88 -276.7,276.69 0,152.8 123.9,276.67 276.7,276.67 152.8,0 276.7,-123.87 276.7,-276.67"
               style="fill:#ffffff;fill-opacity:1;fill-rule:nonzero;stroke:none"
               id="path586"
               inkscape:connector-curvature="0" /></g><g
             transform="translate(223.18467,-223.18467)"
             id="g220"><g
               transform="scale(1.52396)"
               id="g42"><path
                 inkscape:connector-curvature="0"
                 id="path44"
                 style="fill:#66aafc;fill-opacity:1;fill-rule:nonzero;stroke:none"
                 d="m 16279.4,12597.3 19.8,-1371.8 c 0.8,-52.3 -40.9,-95.2 -93.1,-96 L 13822,11095 c -52.2,-0.7 -95.1,41 -95.8,93.3 l -19.9,1371.7 c -0.7,52.3 40.9,95.2 93.2,96 l 2384,34.5 c 52.2,0.7 95.1,-40.9 95.9,-93.2" /></g><g
               transform="scale(1.52214)"
               id="g46"><path
                 inkscape:connector-curvature="0"
                 id="path48"
                 style="fill:#0f68ba;fill-opacity:0.99470903;fill-rule:nonzero;stroke:none"
                 d="m 16298.9,12612.3 1.1,-75.9 -1076.3,-796.8 c -104.4,-80.5 -249.1,-83.9 -357.1,-8.2 l -1143.2,800.3 -0.7,43.4 c -0.7,52.3 41.1,95.3 93.4,96 l 2386.7,34.6 c 52.3,0.7 95.3,-41.1 96.1,-93.4" /></g><g
               transform="scale(1.38682)"
               id="g162"><path
                 inkscape:connector-curvature="0"
                 id="path164"
                 style="fill:#f37a50;fill-opacity:1;fill-rule:nonzero;stroke:none"
                 d="m 15924.9,9196.48 c -61.2,-42.23 -147.6,-66.22 -161.7,-137.92 l -187.2,60.31 c 3.4,237.48 221,448.93 245.6,466.92 63.9,46.71 91,72.6 101.8,66.77 10.7,-5.84 63.5,-55.92 -27.3,-126.86 -113.9,-89.04 27.1,-137.96 219.8,106.23 48.2,61.14 184.1,101.76 169.2,30.46 -16.5,-78.55 -82.1,-273.77 -360.2,-465.91" /></g><g
               transform="scale(1.24984)"
               id="g166"><path
                 inkscape:connector-curvature="0"
                 id="path168"
                 style="fill:#000000;fill-opacity:1;fill-rule:nonzero;stroke:none"
                 d="m 15530.5,1306.57 c 222.7,-297 769.5,-114.74 751.3,-516.469 -831.4,5.2 -1176.9,0 -1176.9,0 1,92.252 17.5,311.239 36.6,397.009 l 389,119.46" /></g><g
               transform="scale(1.15445)"
               id="g170"><path
                 inkscape:connector-curvature="0"
                 id="path172"
                 style="fill:#000000;fill-opacity:1;fill-rule:nonzero;stroke:none"
                 d="m 15467.1,1406.13 c 241,-321.54 832.9,-124.3 813.3,-559.144 -900.1,5.63 -1274.3,0 -1274.3,0 1.2,99.875 19,336.954 39.8,429.734 l 421.2,129.41" /></g><g
               transform="scale(1.23071)"
               id="g174"><path
                 inkscape:connector-curvature="0"
                 id="path176"
                 style="fill:#201d40;fill-opacity:1;fill-rule:nonzero;stroke:none"
                 d="m 16162.9,5931.23 c 0,0 137.1,-1933.03 81.4,-2362.79 -55.7,-429.75 -252.9,-980.66 -230.6,-2402.12 -275.2,-66.62 -674,0 -674,0 0,0 -59.1,1607.29 231.9,2325.17 -118.3,697.33 -498,2294.54 -498,2294.54 l 1089.3,145.2" /></g><g
               transform="scale(1.18102)"
               id="g178"><path
                 inkscape:connector-curvature="0"
                 id="path180"
                 style="fill:#2c2858;fill-opacity:1;fill-rule:nonzero;stroke:none"
                 d="m 16300,6125.73 c 0,0 -288.5,-2261.44 -429.7,-2690.39 -141.2,-428.95 -311.4,-742.49 -567.1,-2201.75 -294.7,-14.22 -696.9,-49.1 -696.9,-49.1 0,0 62.2,1851.03 521.3,2271.93 15.6,736.91 -74.2,2654.75 -74.2,2654.75 l 1246.6,14.56" /></g><g
               transform="scale(1.31966)"
               id="g182"><path
                 inkscape:connector-curvature="0"
                 id="path184"
                 style="fill:#201d40;fill-opacity:1;fill-rule:nonzero;stroke:none"
                 d="m 14888.1,8200.36 c 0,0 39.3,17.17 1034.1,257.74 0.4,0.06 0.7,0 0.9,-0.18 0,0 376.9,-280.66 376.5,-281.1 -245.7,-311.19 -1330.2,-644.18 -1330.2,-644.18 l -81.2,667.59 c 0,0.05 -0.1,0.13 -0.1,0.13" /></g><g
               transform="scale(1.16838)"
               id="g186"><path
                 inkscape:connector-curvature="0"
                 id="path188"
                 style="fill:#95a6db;fill-opacity:1;fill-rule:nonzero;stroke:none"
                 d="m 16300,9275.81 -403.7,37.68 -390.6,-108.92 440.1,-452.86 354.2,524.1" /></g><g
               transform="scale(1.15835)"
               id="g190"><path
                 inkscape:connector-curvature="0"
                 id="path192"
                 style="fill:#f37a50;fill-opacity:1;fill-rule:nonzero;stroke:none"
                 d="m 16300,9146.49 c -165.9,-136.24 -352.5,-161.39 -552.4,-48.31 l -52.9,542.02 574,45.25 31.3,-538.96" /></g><g
               transform="scale(1.21828)"
               id="g194"><path
                 inkscape:connector-curvature="0"
                 id="path196"
                 style="fill:#66aafc;fill-opacity:1;fill-rule:nonzero;stroke:none"
                 d="m 14771.3,8620.14 v 0 l 114.7,45.41 -15.3,162.04 318.2,-255.6 89.9,-14.31 85.9,30.07 267.7,308.16 13.7,-162.21 101.3,-20.3 v 0 l 365.1,-59.12 43.4,-2026.47 144.1,-689.42 c -484.5,-161.13 -1026.2,-201.35 -1558.8,-127.97 l 17.9,692.13 -378.4,1980.48 390.6,137.11" /></g><g
               transform="scale(1.16428)"
               id="g198"><path
                 inkscape:connector-curvature="0"
                 id="path200"
                 style="fill:#2c2858;fill-opacity:1;fill-rule:nonzero;stroke:none"
                 d="m 16060.7,8740.4 239.3,-1618.98 -132.5,-184.15 -172.8,132.79 -58.8,1656.91 124.8,13.43" /></g><g
               transform="scale(1.1482)"
               id="g202"><path
                 inkscape:connector-curvature="0"
                 id="path204"
                 style="fill:#2c2858;fill-opacity:1;fill-rule:nonzero;stroke:none"
                 d="m 16300,9056.58 -88.7,23.37 -90.4,-39.43 38.3,-194.64 127.1,11.4 13.7,199.3" /></g><g
               transform="scale(1.24502)"
               id="g206"><path
                 inkscape:connector-curvature="0"
                 id="path208"
                 style="fill:#2c2858;fill-opacity:1;fill-rule:nonzero;stroke:none"
                 d="m 15296.6,8704.83 61.4,-1841.56 242.1,-1177.65 c 0,0 464.6,-26.75 699.9,197.11 l -293.7,954.6 -225.6,1854.5 -484.1,13" /></g><g
               transform="scale(1.19433)"
               id="g210"><path
                 inkscape:connector-curvature="0"
                 id="path212"
                 style="fill:#494c7f;fill-opacity:1;fill-rule:nonzero;stroke:none"
                 d="m 15945.9,9074.31 63.6,-1894.1 290.5,1441.43 -354.1,452.67" /></g><g
               transform="scale(1.14683)"
               id="g214"><path
                 inkscape:connector-curvature="0"
                 id="path216"
                 style="fill:#2c2858;fill-opacity:1;fill-rule:nonzero;stroke:none"
                 d="m 15766,9309.35 534,-3218.81 c 0,0 -839.9,-80.22 -1137.4,71.24 l 192.4,971.2 -101.2,1917.74 512.2,258.63" /></g><g
               transform="scale(1.13145)"
               id="g218"><path
                 inkscape:connector-curvature="0"
                 id="path220"
                 style="fill:#494c7f;fill-opacity:1;fill-rule:nonzero;stroke:none"
                 d="m 15980.3,9435.9 319.7,-1912.26 -572.4,1442.76 252.7,469.5" /></g><g
               transform="scale(1.1088)"
               id="g222"><path
                 inkscape:connector-curvature="0"
                 id="path224"
                 style="fill:#66aafc;fill-opacity:1;fill-rule:nonzero;stroke:none"
                 d="m 16249.9,4465.11 h -1785.1 c -27.6,0 -50.1,22.45 -50.1,50.05 v 1034.55 c 0,27.59 22.5,50.05 50.1,50.05 h 1785.1 c 27.7,0 50.1,-22.46 50.1,-50.05 V 4515.16 c 0,-27.6 -22.4,-50.05 -50.1,-50.05" /></g><g
               transform="scale(1.1035)"
               id="g226"><path
                 inkscape:connector-curvature="0"
                 id="path228"
                 style="fill:#494c7f;fill-opacity:1;fill-rule:nonzero;stroke:none"
                 d="m 16300,5456.17 c 0,-55.64 -45.1,-100.86 -100.8,-100.86 -55.7,0 -100.8,45.22 -100.8,100.86 0,55.73 45.1,100.86 100.8,100.86 55.7,0 100.8,-45.13 100.8,-100.86" /></g><g
               transform="scale(1.1012)"
               id="g230"><path
                 inkscape:connector-curvature="0"
                 id="path232"
                 style="fill:#494c7f;fill-opacity:1;fill-rule:nonzero;stroke:none"
                 d="m 16202.8,5281.17 c 17,22.15 48.7,26.33 70.9,9.35 22.1,-16.98 26.3,-48.67 9.3,-70.83 -17,-22.16 -48.7,-26.34 -70.8,-9.36 -22.2,16.99 -26.3,48.68 -9.4,70.84" /></g><g
               transform="scale(1.3488)"
               id="g234"><path
                 inkscape:connector-curvature="0"
                 id="path236"
                 style="fill:#201d40;fill-opacity:1;fill-rule:nonzero;stroke:none"
                 d="m 16300,9350.83 c -152.8,50.91 -233.2,73.82 -351.9,73.82 -280.9,-836.9 -481.1,-1152.21 -397.6,-1392.48 69.6,-200.3 289.8,-184.29 397.6,-34.2 142,197.98 267.8,950.2 351.9,1352.86" /></g><g
               transform="scale(1.04854)"
               id="g238"><path
                 inkscape:connector-curvature="0"
                 id="path240"
                 style="fill:#f37a50;fill-opacity:1;fill-rule:nonzero;stroke:none"
                 d="m 16115.7,6300.38 -6,-257.59 c 0,0 183.9,5.43 190.3,-120.17 l -172.6,-5.34 c 0,0 -105.1,-135.72 45.5,-400.56 60.1,-259.41 -130.1,-149.64 -143.2,-235.85 -19.2,-127.23 -270.3,90.89 -310.2,350.01 -51.6,335.42 16.9,375.66 16.9,375.66 l 75.9,254.64 303.4,39.2" /></g><g
               transform="scale(1.08096)"
               id="g242"><path
                 inkscape:connector-curvature="0"
                 id="path244"
                 style="fill:#201d40;fill-opacity:1;fill-rule:nonzero;stroke:none"
                 d="m 16189.4,9602.25 c -290.3,-30.26 -1126.1,-1727.19 -1126.1,-1727.19 l 166.1,-1902.58 470.5,75.96 139.4,1608.2 460.7,910.3 -110.6,1035.31" /></g><g
               transform="scale(1.18774)"
               id="g246"><path
                 inkscape:connector-curvature="0"
                 id="path248"
                 style="fill:#f37a50;fill-opacity:1;fill-rule:nonzero;stroke:none"
                 d="m 15039.5,9769.9 c 155.5,-388.52 528.9,-604.48 834.1,-482.36 305.1,122.11 426.4,536.05 271,924.56 -155.5,388.5 -528.9,604.5 -834,482.4 -305.2,-122.1 -426.6,-536.1 -271.1,-924.6" /></g><g
               transform="scale(1.17489)"
               id="g250"><path
                 inkscape:connector-curvature="0"
                 id="path252"
                 style="fill:#000000;fill-opacity:1;fill-rule:nonzero;stroke:none"
                 d="m 16187,10194.9 c 18.2,-26.2 54.2,-32.7 80.4,-14.5 26.1,18.3 32.6,54.3 14.4,80.5 -18.2,26.2 -54.2,32.6 -80.4,14.4 -26.2,-18.2 -32.6,-54.2 -14.4,-80.4" /></g><g
               transform="scale(1.14437)"
               id="g254"><path
                 inkscape:connector-curvature="0"
                 id="path256"
                 style="fill:#000000;fill-opacity:1;fill-rule:nonzero;stroke:none"
                 d="m 16174.3,10285.4 c 20.3,-29.1 60.3,-36.3 89.4,-16 29.1,20.2 36.3,60.2 16,89.4 -20.2,29.1 -60.2,36.3 -89.4,16 -29.1,-20.2 -36.2,-60.3 -16,-89.4" /></g><g
               transform="scale(1.1724)"
               id="g258"><path
                 inkscape:connector-curvature="0"
                 id="path260"
                 style="fill:#de623c;fill-opacity:1;fill-rule:nonzero;stroke:none"
                 d="m 16122.8,10137.9 c 78.3,-61.7 176.2,-136.1 176.2,-136.1 0,0 1,-94.42 -109.3,-135.34 39.8,36.2 74.9,84.37 33.4,139.94 -41.6,55.6 -100.3,131.5 -100.3,131.5" /></g><g
               transform="scale(1.13752)"
               id="g262"><path
                 inkscape:connector-curvature="0"
                 id="path264"
                 style="fill:#2c2858;fill-opacity:1;fill-rule:nonzero;stroke:none"
                 d="m 16154.1,10386.2 c 13.4,0 25.6,9.2 28.9,22.9 0.8,3.2 20.8,80.7 87.3,81.1 16.4,0 29.7,13.4 29.6,29.9 -0.1,16.4 -13.5,29.7 -29.9,29.6 -90.8,-0.4 -134.5,-83.1 -144.9,-126.8 -3.8,-16 6,-32.1 22,-35.9 2.3,-0.5 4.7,-0.8 7,-0.8" /></g><g
               transform="scale(1.17431)"
               id="g266"><path
                 inkscape:connector-curvature="0"
                 id="path268"
                 style="fill:#2c2858;fill-opacity:1;fill-rule:nonzero;stroke:none"
                 d="m 16134.5,10322.2 c 8.1,0 16.1,4.2 20.6,11.8 0.5,0.7 16,25.5 41.8,30.1 18.1,3.3 38.7,-4.2 61,-22 10.4,-8.3 25.5,-6.7 33.8,3.7 8.3,10.4 6.6,25.5 -3.7,33.8 -33.9,27.1 -67.6,37.8 -100.2,31.7 -47.7,-8.8 -73,-51.1 -74.1,-52.9 -6.7,-11.4 -2.8,-26.2 8.6,-32.9 3.8,-2.2 8,-3.3 12.2,-3.3" /></g><g
               transform="scale(1.18907)"
               id="g270"><path
                 inkscape:connector-curvature="0"
                 id="path272"
                 style="fill:#2c2858;fill-opacity:1;fill-rule:nonzero;stroke:none"
                 d="m 15114,9786.15 c -0.1,151.76 132.1,119.62 146.1,319.75 14,200.2 33,352 222.9,319 189.9,-32.8 250.8,-7.6 312,57 61,64.6 299.7,-210.2 299.7,-210.2 0,0 205.3,294.4 3.2,455.3 -224.1,178.4 -267.8,33.5 -471.7,158.5 -203.9,125 -497.2,40.3 -556.7,-84.2 -62.8,-131.3 -73.9,-225.2 -251.5,-317.3 -177.6,-92.1 -266.3,-245.3 -100.5,-435.2 165.8,-189.87 -107.1,-327.89 171.2,-502.94 108,-67.9 259.6,-84.87 289.3,-46.01 39.8,52.04 -63.9,188.48 -64,286.3" /></g><g
               transform="scale(1.19056)"
               id="g274"><path
                 inkscape:connector-curvature="0"
                 id="path276"
                 style="fill:#2c2858;fill-opacity:1;fill-rule:nonzero;stroke:none"
                 d="m 16158,10006.1 c 0,0 17.9,-224.64 -14.4,-294.09 -33.8,90.09 -106.1,-5.4 -174,-14.38 -164.3,-21.72 -460.7,33.03 -490.1,-213.33 -200.6,-63.54 -388.7,366.13 -388.7,366.13 -25.1,-501.66 339.8,-752.59 845.3,-672.73 333,52.61 363.9,516.32 221.9,828.4" /></g><g
               transform="scale(1.174)"
               id="g278"><path
                 inkscape:connector-curvature="0"
                 id="path280"
                 style="fill:#ffffff;fill-opacity:1;fill-rule:nonzero;stroke:none"
                 d="m 16291.6,9703.95 c 8.4,13.87 -3.6,31.1 -19.5,27.75 -40.4,-8.52 -107.4,-21.2 -171.8,-26.95 -64.5,-5.76 -132.6,-5.14 -173.9,-3.91 -16.3,0.49 -25,-18.61 -14.2,-30.75 33.2,-37.33 99.8,-92.53 198.6,-83.72 98.8,8.83 154.7,74.96 180.8,117.58" /></g><g
               transform="scale(1.11317)"
               id="g282"><path
                 inkscape:connector-curvature="0"
                 id="path284"
                 style="fill:#f37a50;fill-opacity:1;fill-rule:nonzero;stroke:none"
                 d="m 16153.5,10508.8 c 98,-46.7 146.5,-149.6 108.3,-229.8 -38.2,-80.2 -148.7,-107.4 -246.7,-60.7 -98,46.6 -146.5,149.5 -108.3,229.8 38.3,80.2 148.7,107.4 246.7,60.7" /></g><g
               transform="scale(1.10525)"
               id="g286"><path
                 inkscape:connector-curvature="0"
                 id="path288"
                 style="fill:#de623c;fill-opacity:1;fill-rule:nonzero;stroke:none"
                 d="m 16270.4,10349.8 c 2.8,2.3 5.1,5.2 6.7,8.7 22.9,50.2 15.3,99.3 -20.3,131.2 -36.5,32.8 -92.2,39.2 -132.6,15.2 -11.4,-6.7 -15.1,-21.4 -8.4,-32.8 6.8,-11.3 21.4,-15.1 32.8,-8.3 22.1,13.1 55.6,8.9 76.2,-9.6 19.8,-17.9 23,-44.8 8.8,-75.8 -5.4,-12 -0.2,-26.2 11.8,-31.7 8.5,-3.9 18.1,-2.4 25,3.1" /></g><g
               transform="scale(1.14195)"
               id="g290"><path
                 inkscape:connector-curvature="0"
                 id="path292"
                 style="fill:#ffffff;fill-opacity:1;fill-rule:nonzero;stroke:none"
                 d="m 16300,9129.66 c 0,0 -87.6,-150.54 -255.7,-244.31 l -240,401.04 60.3,131.21 435.4,-287.94" /></g><g
               transform="scale(1.17444)"
               id="g294"><path
                 inkscape:connector-curvature="0"
                 id="path296"
                 style="fill:#ffffff;fill-opacity:1;fill-rule:nonzero;stroke:none"
                 d="m 15849.1,8877.09 c 0,0 149.5,-150.92 286.9,-189.53 l 164,432.86 -84.1,107.51 -366.8,-350.84" /></g><g
               transform="scale(1.41139)"
               id="g542"><path
                 inkscape:connector-curvature="0"
                 id="path544"
                 style="fill:#2c2858;fill-opacity:1;fill-rule:nonzero;stroke:none"
                 d="m 16247.6,11473.2 c -2.2,0 -4.4,0.1 -6.6,0.4 -26.4,3.7 -44.9,28 -41.3,54.5 2.5,17.6 3.7,36.5 3.7,56.3 0,8.5 -0.2,17.3 -0.7,26.2 -1.3,26.6 19.2,49.3 45.8,50.6 26.7,1.4 49.3,-19.1 50.6,-45.7 0.6,-10.5 0.9,-21 0.9,-31.1 0,-24.2 -1.6,-47.6 -4.6,-69.6 -3.3,-24.1 -24,-41.6 -47.8,-41.6 z m -436.7,-299.4 c -24.5,0 -45.6,18.6 -48,43.6 -2.5,26.6 17,50.1 43.5,52.7 113.3,10.8 198.5,32.3 260.5,65.7 23.4,12.7 52.7,3.9 65.4,-19.6 12.6,-23.5 3.8,-52.7 -19.6,-65.4 -73.6,-39.6 -170.7,-64.7 -297.1,-76.8 -1.6,-0.2 -3.1,-0.2 -4.7,-0.2 z m -289.4,-9 c -0.1,0 -0.2,0 -0.4,0 -64.7,0.6 -130.1,2.3 -199.2,4.1 -30.1,0.8 -60.5,1.6 -91.1,2.3 -26.6,0.6 -47.7,22.7 -47.1,49.3 0.7,26.7 22.7,47.8 49.4,47.2 30.6,-0.7 61.1,-1.5 91.3,-2.3 68.8,-1.8 133.7,-3.4 197.6,-4.1 26.8,-0.3 48.1,-22.1 47.9,-48.8 -0.3,-26.5 -21.9,-47.7 -48.4,-47.7 z m -868,-13.1 c -23.6,0 -44.2,17.3 -47.6,41.3 -3.9,26.4 14.3,50.9 40.8,54.8 9.8,1.4 19.9,2.7 30,3.9 79.5,9.5 166,15.1 264.6,17.4 26.5,0.5 48.7,-20.5 49.3,-47.2 0.6,-26.6 -20.5,-48.7 -47.1,-49.3 -95.5,-2.2 -179,-7.7 -255.4,-16.7 -9.3,-1.2 -18.5,-2.4 -27.5,-3.7 -2.4,-0.3 -4.7,-0.5 -7.1,-0.5 z m -437.9,-318.8 c -3,0 -6.1,0.3 -9.1,0.9 -26.3,5 -43.4,30.3 -38.3,56.5 20.3,105.5 85.2,195 187.3,258.9 22.6,14.2 52.5,7.3 66.6,-15.3 14.1,-22.6 7.3,-52.4 -15.3,-66.5 -79,-49.4 -128.6,-116.9 -143.8,-195.4 -4.5,-23.1 -24.7,-39.1 -47.4,-39.1 z m 246,-493.5 c -10.3,0 -20.8,3.3 -29.7,10.2 -87.7,68.7 -156.1,146 -203.2,229.7 -13,23.3 -4.8,52.7 18.4,65.8 23.3,13 52.7,4.8 65.8,-18.4 40.2,-71.6 101.9,-141.1 178.5,-201 21,-16.5 24.7,-46.8 8.2,-67.8 -9.4,-12.2 -23.6,-18.5 -38,-18.5 z m 523,-241.9 c -5.3,0 -10.7,0.9 -15.9,2.7 l -21.4,7.4 c -61.1,21.3 -123.1,42.9 -185.1,64.8 -23.4,8.2 -46.5,17.1 -69,26.4 -24.6,10.3 -36.2,38.6 -25.9,63.2 10.2,24.6 38.5,36.2 63.1,26 20.8,-8.7 42.2,-17 63.9,-24.6 61.9,-21.8 123.8,-43.4 184.7,-64.6 l 21.4,-7.4 c 25.3,-8.8 38.5,-36.3 29.8,-61.5 -7,-19.9 -25.7,-32.4 -45.6,-32.4 z m 543.5,-201.16 c -6.3,0 -12.7,1.24 -18.9,3.86 -72.2,30.64 -157.3,63.6 -267.8,103.7 -25.1,9.1 -38,36.8 -28.9,61.9 9.1,25 36.8,38 61.8,28.9 112.2,-40.7 198.9,-74.3 272.7,-105.64 24.5,-10.42 35.9,-38.76 25.5,-63.3 -7.8,-18.38 -25.7,-29.42 -44.4,-29.42 z m 232,-353.38 c -17.1,0 -33.6,9.08 -42.4,25.13 -12.8,23.39 -4.2,52.72 19.2,65.51 45.2,24.7 72.2,50.4 72.2,68.73 0,7.99 -5.3,30.62 -54.9,68.49 -21.2,16.19 -25.3,46.48 -9,67.67 16.1,21.17 46.4,25.23 67.6,9.05 62.5,-47.74 92.8,-95.23 92.8,-145.21 0,-58.23 -40,-108.42 -122.4,-153.46 -7.4,-4.01 -15.3,-5.91 -23.1,-5.91" /></g><g
               transform="scale(1.3744)"
               id="g580"><path
                 inkscape:connector-curvature="0"
                 id="path582"
                 style="fill:#ffffff;fill-opacity:1;fill-rule:nonzero;stroke:none"
                 d="m 16300,2913.86 c 0,-229.92 -186.3,-416.26 -416.3,-416.26 -229.9,0 -416.3,186.34 -416.3,416.26 0,229.92 186.4,416.25 416.3,416.25 230,0 416.3,-186.33 416.3,-416.25" /></g><g
               transform="scale(1.41672)"
               id="g588"><path
                 inkscape:connector-curvature="0"
                 id="path590"
                 style="fill:#ffffff;fill-opacity:1;fill-rule:nonzero;stroke:none"
                 d="m 16002.3,3716.83 c -101.3,0 -183.7,-82.44 -183.7,-183.73 0,-101.3 82.4,-183.74 183.7,-183.74 101.3,0 183.7,82.44 183.7,183.74 0,101.29 -82.4,183.73 -183.7,183.73 z m 0,-481.46 c -164.1,0 -297.7,133.54 -297.7,297.73 0,164.18 133.6,297.73 297.7,297.73 164.2,0 297.7,-133.55 297.7,-297.73 0,-164.19 -133.5,-297.73 -297.7,-297.73" /></g></g><g
             id="g604"
             transform="matrix(2.05882,0,0,2.05882,-613.75783,-111.59233)"><path
               d="m 15961.4,911.104 c -95.1,-399.015 -434.8,-179.568 -363.7,-431.753 5.2,-18.601 22.9,-31.036 42.2,-31.765 l 199.5,-7.625 c 19.2,-0.729 38.2,4.76 54.1,15.639 105.2,72.032 176.6,173.497 403.8,185.836 -1.7,97.046 2.7,235.571 -29.4,285.065 l -306.5,-15.397"
               style="fill:#0e6a41;fill-opacity:1;fill-rule:nonzero;stroke:none"
               id="path606"
               inkscape:connector-curvature="0" /></g><g
             id="g608"
             transform="matrix(2.1702,0,0,2.1702,-613.75783,-111.59233)"><path
               d="m 15640.8,3520.83 c 0,0 -550.2,-839.28 -626.2,-1100.36 -76,-261.03 82.9,-703.39 54.2,-1594.922 172,-44.651 401.3,-6.267 401.3,-6.267 0,0 138,1118.239 -24.3,1382.269 243.2,371.21 854.2,1181.55 854.2,1181.55 l -659.2,137.73"
               style="fill:#201d40;fill-opacity:1;fill-rule:nonzero;stroke:none"
               id="path610"
               inkscape:connector-curvature="0" /></g><g
             id="g612"
             transform="matrix(2.15961,0,0,2.15961,-613.75783,-111.59233)"><path
               d="m 16024.2,745.969 c -140.7,-191.562 -491.9,-78.255 -477.8,-335.338 532.3,8.474 753.6,7.316 753.6,7.316 -1.3,59.084 -13.1,199.156 -26,253.934 l -249.8,74.088"
               style="fill:#0e6a41;fill-opacity:1;fill-rule:nonzero;stroke:none"
               id="path614"
               inkscape:connector-curvature="0" /></g><g
             id="g616"
             transform="matrix(2.19865,0,0,2.19865,-613.75783,-111.59233)"><path
               d="m 15577.6,3642.74 c 0,0 -173.1,-1351.56 -133.2,-1616.95 40,-265.35 163.9,-473.06 168.2,-1353.513 171.3,-37.751 433.1,-71.635 433.1,-71.635 0,0 110.3,1061.928 -116.7,1354.288 64.4,433.26 371,1523.11 371,1523.11 l -722.4,164.7"
               style="fill:#2c2858;fill-opacity:1;fill-rule:nonzero;stroke:none"
               id="path618"
               inkscape:connector-curvature="0" /></g><g
             id="g620"
             transform="matrix(1.98204,0,0,1.98204,-613.75783,-111.59233)"><path
               d="m 16295.8,4700.86 -234.3,262.65 c -5.1,5.71 -12.3,8.99 -19.9,9.09 l -192.9,1.16 c -5.5,0.1 -22.5,-30.38 -18.8,-34.46 l 165.2,-146.82 c 0.8,-0.86 1.7,-1.46 2.8,-1.82 l 283.4,-105.09 c 6,-1.87 18.7,10.59 14.5,15.29"
               style="fill:#66aafc;fill-opacity:1;fill-rule:nonzero;stroke:none"
               id="path622"
               inkscape:connector-curvature="0" /></g><g
             id="g624"
             transform="matrix(1.97987,0,0,1.97987,-613.75783,-111.59233)"><path
               d="m 16295.8,4688.4 -223.4,247.9 c -5.1,5.7 -12.4,8.99 -20,9.14 l -199,3.53 c -5.6,0.1 -8.5,-6.41 -4.8,-10.45 l 157.3,-173.45 c 0.7,-0.86 1.7,-1.46 2.8,-1.77 l 280.6,-85.1 c 6.1,-1.82 10.7,5.5 6.5,10.2"
               style="fill:#66aafc;fill-opacity:1;fill-rule:nonzero;stroke:none"
               id="path626"
               inkscape:connector-curvature="0" /></g><g
             id="g628"
             transform="matrix(2.03296,0,0,2.03296,-613.75783,-111.59233)"><path
               d="m 16300,4345.77 -157.4,77.13 c 0,0 -155.2,157.06 -178.2,192.14 -34.5,17.51 -99.8,61.48 -114.5,63.16 -14.7,1.67 -44.8,-2.86 -44.8,-2.86 l 72.9,-82.88 c 0,0 -34.6,-6.89 -78.8,21.2 -44.1,28.04 -122.1,103.2 -160.3,88.64 -13.5,-12 -13.5,-12 -13.5,-12 0,0 -24.1,25.77 -46.9,16.18 -22.7,-9.54 22.5,-122.97 150.8,-243.09 8.5,-32.12 50.8,-88.35 50.8,-88.35 l 259.4,-91.1 260.5,61.83"
               style="fill:#f37a50;fill-opacity:1;fill-rule:nonzero;stroke:none"
               id="path630"
               inkscape:connector-curvature="0" /></g><g
             style="fill:#f9f9f9"
             id="g632"
             transform="matrix(1.95237,0,0,1.95237,-613.75783,-111.59233)"><path
               d="m 16261.8,4967.9 c 9.6,-9.58 23.3,-11.37 30.8,-3.94 7.4,7.42 5.7,21.2 -4,30.83 -9.6,9.58 -23.3,11.32 -30.8,3.94 -7.4,-7.42 -5.6,-21.25 4,-30.83"
               style="fill:#f9f9f9;fill-opacity:1;fill-rule:nonzero;stroke:none"
               id="path634"
               inkscape:connector-curvature="0" /></g><g
             id="g636"
             transform="matrix(2.17636,0,0,2.17636,-613.75783,-111.59233)"><path
               d="m 15910.5,5140.18 c -43.7,-56.51 297.9,-117.98 343.7,-0.51 45.8,117.46 -32.9,440.54 -32.9,440.54 l -311.4,-66.1 c 0,0 57.3,-300.36 0.6,-373.93"
               style="fill:#f37a50;fill-opacity:1;fill-rule:nonzero;stroke:none"
               id="path638"
               inkscape:connector-curvature="0" /></g><g
             id="g640"
             transform="matrix(2.17845,0,0,2.17845,-613.75783,-111.59233)"><path
               d="m 16273.8,5838.33 c 26.2,-249.63 -111.5,-468.68 -307.5,-489.25 -196.1,-20.57 -376.3,165.11 -402.5,414.74 -26.2,249.64 111.5,468.67 307.6,489.25 196,20.58 376.2,-165.11 402.4,-414.74"
               style="fill:#f37a50;fill-opacity:1;fill-rule:nonzero;stroke:none"
               id="path642"
               inkscape:connector-curvature="0" /></g><g
             id="g644"
             transform="matrix(2.09647,0,0,2.09647,-613.75783,-111.59233)"><path
               d="m 16292.8,5912.85 c -7.2,-20.08 -29.3,-30.5 -49.4,-23.3 -20.1,7.21 -30.5,29.31 -23.3,49.39 7.2,20.07 29.3,30.5 49.4,23.29 20.1,-7.2 30.5,-29.31 23.3,-49.38"
               style="fill:#000000;fill-opacity:1;fill-rule:nonzero;stroke:none"
               id="path646"
               inkscape:connector-curvature="0" /></g><g
             id="g648"
             transform="matrix(2.12911,0,0,2.12911,-613.75783,-111.59233)"><path
               d="m 16292.3,5876.65 c -7.7,-21.4 -31.2,-32.51 -52.7,-24.83 -21.3,7.68 -32.5,31.24 -24.8,52.64 7.7,21.39 31.3,32.51 52.7,24.83 21.4,-7.69 32.5,-31.25 24.8,-52.64"
               style="fill:#000000;fill-opacity:1;fill-rule:nonzero;stroke:none"
               id="path650"
               inkscape:connector-curvature="0" /></g><g
             id="g652"
             transform="matrix(2.11617,0,0,2.11617,-613.75783,-111.59233)"><path
               d="m 16214.2,5865.78 c -8.1,-60.22 -19.4,-134.32 -19.4,-134.32 0,0 39.6,-41.74 105.2,-12.89 -32.8,-1.08 -68.6,5.16 -74,47.11 -5.4,41.95 -11.8,100.1 -11.8,100.1"
               style="fill:#de623c;fill-opacity:1;fill-rule:nonzero;stroke:none"
               id="path654"
               inkscape:connector-curvature="0" /></g><g
             id="g656"
             transform="matrix(2.09528,0,0,2.09528,-613.75783,-111.59233)"><path
               d="m 16290.7,6004.42 c -4.3,-2.6 -9.9,-2.91 -14.7,-0.34 -0.4,0.24 -16.5,8.46 -31.6,2.7 -10.6,-4.06 -19.1,-14.5 -25.3,-31.04 -2.8,-7.67 -11.4,-11.58 -19,-8.73 -7.7,2.86 -11.6,11.39 -8.8,19.06 9.3,25.07 23.8,41.4 42.9,48.55 28.1,10.47 54.9,-3.88 56,-4.49 7.2,-3.93 9.8,-12.94 5.9,-20.12 -1.3,-2.39 -3.2,-4.28 -5.4,-5.59"
               style="fill:#201d40;fill-opacity:1;fill-rule:nonzero;stroke:none"
               id="path658"
               inkscape:connector-curvature="0" /></g><g
             id="g660"
             transform="matrix(2.13237,0,0,2.13237,-613.75783,-111.59233)"><path
               d="m 16196.7,5941.47 c 4.9,-1.01 10.2,0.5 13.7,4.43 0.4,0.38 12.7,13.2 28.5,12.74 11.2,-0.33 22.5,-7.26 33.5,-20.62 5.2,-6.2 14.3,-7.06 20.5,-1.93 6.3,5.12 7.1,14.3 2,20.5 -16.8,20.25 -35.5,30.73 -55.5,31.18 -29.4,0.64 -49.7,-21.34 -50.5,-22.27 -5.4,-5.97 -4.9,-15.18 1,-20.57 2,-1.8 4.4,-2.95 6.8,-3.46"
               style="fill:#201d40;fill-opacity:1;fill-rule:nonzero;stroke:none"
               id="path662"
               inkscape:connector-curvature="0" /></g><g
             id="g664"
             transform="matrix(2.20566,0,0,2.20566,-613.75783,-111.59233)"><path
               d="m 16001.1,5609.71 c -127.6,106.8 -92.4,269.96 -92.4,269.96 -61.8,-4.04 -79.1,-30.5 -79.1,-30.5 -49.8,57.13 -37.7,110.92 -37.7,110.92 -134.1,14.6 -173.3,-80.23 -275.6,-136.19 -140.2,-76.63 -341.4,-66.71 -408.1,111.61 -9.6,25.81 14.9,50.8 41,41.97 24.2,-8.2 54.4,-11.97 88.1,-1.88 0,0 -41,26.96 -55.8,75.54 -8.1,26.79 19.6,49.92 45.1,38.21 38.1,-17.54 102.5,-26.47 200.4,20.61 65.2,31.33 192.6,183.52 296.2,188.42 84.7,4 166.5,-46.98 220.1,-137.04 0,0 202.1,32.57 280.1,-178.47 76.6,-207.35 -210.7,-527.66 -210.7,-527.66 0,0 22.1,121.67 -11.6,154.5"
               style="fill:#201d40;fill-opacity:1;fill-rule:nonzero;stroke:none"
               id="path666"
               inkscape:connector-curvature="0" /></g><g
             id="g668"
             transform="matrix(2.13575,0,0,2.13575,-613.75783,-111.59233)"><path
               d="m 16081.6,5568.75 c -8.2,5.33 -6.2,17.88 3.3,20.21 24.3,5.94 64.1,16.55 100.8,30.29 36.6,13.74 73.6,31.91 95.8,43.38 8.7,4.52 18.5,-3.59 15.8,-13.03 -8.3,-29.05 -30.2,-76.59 -86.4,-97.64 -56.1,-21.06 -103.9,0.38 -129.3,16.79"
               style="fill:#ffffff;fill-opacity:1;fill-rule:nonzero;stroke:none"
               id="path670"
               inkscape:connector-curvature="0" /></g><g
             id="g672"
             transform="matrix(2.17583,0,0,2.17583,-613.75783,-111.59233)"><path
               d="m 16128.4,5833.84 c -42.1,-41.5 -48.7,-103.05 -14.7,-137.47 33.9,-34.43 95.6,-28.7 137.7,12.81 42,41.5 48.6,103.06 14.6,137.48 -33.9,34.43 -95.6,28.69 -137.6,-12.82"
               style="fill:#f37a50;fill-opacity:1;fill-rule:nonzero;stroke:none"
               id="path674"
               inkscape:connector-curvature="0" /></g><g
             id="g676"
             transform="matrix(2.1662,0,0,2.1662,-613.75783,-111.59233)"><path
               d="m 16241.1,5739.47 c -1.9,0.65 -3.6,1.74 -5,3.25 -20.7,21.66 -25.5,48.17 -12.9,70.91 12.9,23.29 40.3,36.48 65.3,31.38 7,-1.44 11.5,-8.29 10.1,-15.31 -1.5,-7.03 -8.3,-11.55 -15.4,-10.12 -13.6,2.79 -30,-5.34 -37.3,-18.51 -7,-12.66 -3.8,-27.02 9,-40.42 4.9,-5.19 4.8,-13.41 -0.5,-18.36 -3.6,-3.5 -8.8,-4.43 -13.3,-2.82"
               style="fill:#de623c;fill-opacity:1;fill-rule:nonzero;stroke:none"
               id="path678"
               inkscape:connector-curvature="0" /></g><g
             id="g680"
             transform="matrix(2.21365,0,0,2.21365,-613.75783,-111.59233)"><path
               d="m 15269.2,3353.19 c 239.5,-48.87 670.1,-133.26 897.9,-44.45 86.1,123.74 108,823.44 108,823.44 24.9,720.24 -61.5,827.1 -256.3,1068.42 -81.7,-37.56 -286.3,-69.57 -376.2,-70.27 0,0 -203.8,-282.97 -243.6,-488.45 -40.3,-208.34 -44.9,-578.82 -48.6,-790.95 -4.2,-235.68 -50.7,-349.29 -81.2,-497.74"
               style="fill:#3f964f;fill-opacity:1;fill-rule:nonzero;stroke:none"
               id="path682"
               inkscape:connector-curvature="0" /></g><g
             id="g684"
             transform="matrix(2.19835,0,0,2.19835,-613.75783,-111.59233)"><path
               d="m 16158.9,5016.64 c 141.1,-274.63 109.2,-578.77 -301,-1177.49 -287.3,25.02 -343.6,264.47 -343.6,264.47 0,0 78.9,297.27 181.4,671.22 102.5,373.94 401.5,361.98 463.2,241.8"
               style="fill:#0e6a41;fill-opacity:1;fill-rule:nonzero;stroke:none"
               id="path686"
               inkscape:connector-curvature="0" /></g><g
             id="g688"
             transform="matrix(2.13872,0,0,2.13872,-613.75783,-111.59233)"><path
               d="m 15320.4,4276.95 632.2,-50.45 c 0,0 271.1,49.47 347.4,-280.3 -135.7,-105.67 -486,-145.32 -1060.6,68.03 60.8,82.76 81,262.72 81,262.72"
               style="fill:#0e6a41;fill-opacity:1;fill-rule:nonzero;stroke:none"
               id="path690"
               inkscape:connector-curvature="0" /></g><g
             id="g692"
             transform="matrix(2.17996,0,0,2.17996,-613.75783,-111.59233)"><path
               d="m 15886.2,5230.14 -5.9,-166.83 419.7,175.95 -50.8,134.96 -363,-144.08"
               style="fill:#ffffff;fill-opacity:1;fill-rule:nonzero;stroke:none"
               id="path694"
               inkscape:connector-curvature="0" /></g><g
             id="g696"
             transform="matrix(1.94152,0,0,1.94152,-613.75783,-111.59233)"><path
               d="m 16300,5524.48 c 0,-149.45 -121.1,-270.62 -270.6,-270.62 -149.5,0 -270.6,121.17 -270.6,270.62 0,149.46 121.1,270.62 270.6,270.62 149.5,0 270.6,-121.16 270.6,-270.62"
               style="fill:#66aafc;fill-opacity:1;fill-rule:nonzero;stroke:none"
               id="path698"
               inkscape:connector-curvature="0" /></g><g
             style="fill:#ffffff"
             id="g700"
             transform="matrix(1.93188,0,0,1.93188,-613.75783,-111.59233)"><path
               d="m 16087.5,5380.52 c -0.1,0 -0.1,0 -0.2,0 -13.2,0.06 -25.6,6.69 -33,17.68 l -111.8,166.73 c -12.3,18.31 -7.4,43.1 10.8,55.39 18.4,12.27 43.2,7.4 55.4,-10.91 l 79.1,-117.85 133.9,195.4 c 12.5,18.19 37.3,22.83 55.5,10.37 18.1,-12.46 22.8,-37.3 10.3,-55.48 l -167.1,-243.98 c -7.5,-10.86 -19.8,-17.35 -32.9,-17.35"
               style="fill:#ffffff;fill-opacity:0.94709012;fill-rule:nonzero;stroke:none"
               id="path702"
               inkscape:connector-curvature="0" /></g><g
             id="g704"
             transform="matrix(1.94442,0,0,1.94442,-613.75783,-111.59233)"><path
               d="m 16300,5205.61 c 0,-42.76 -34.7,-77.4 -77.4,-77.4 -42.8,0 -77.5,34.64 -77.5,77.4 0,42.76 34.7,77.43 77.5,77.43 42.7,0 77.4,-34.67 77.4,-77.43"
               style="fill:#7f99eb;fill-opacity:1;fill-rule:nonzero;stroke:none"
               id="path706"
               inkscape:connector-curvature="0" /></g></g></g><ellipse
         transform="scale(1,-1)"
         style="fill:#0f68ba;fill-opacity:0.77272728;stroke-width:1.1897347"
         id="ellipse7"
         ry="35.827625"
         rx="971.52313"
         cy="-76.347038"
         cx="2312.387"
         class="st1" /></g></g></svg>