<?xml version="1.0" encoding="UTF-8" standalone="no"?>
<!-- Created with Inkscape (http://www.inkscape.org/) -->

<svg
   xmlns:dc="http://purl.org/dc/elements/1.1/"
   xmlns:cc="http://creativecommons.org/ns#"
   xmlns:rdf="http://www.w3.org/1999/02/22-rdf-syntax-ns#"
   xmlns:svg="http://www.w3.org/2000/svg"
   xmlns="http://www.w3.org/2000/svg"
   xmlns:sodipodi="http://sodipodi.sourceforge.net/DTD/sodipodi-0.dtd"
   xmlns:inkscape="http://www.inkscape.org/namespaces/inkscape"
   version="1.1"
   id="svg2"
   xml:space="preserve"
   width="2266.6667"
   height="1693.3333"
   viewBox="0 0 2266.6667 1693.3333"
   sodipodi:docname="rejected_concept.svg"
   inkscape:version="0.92.5 (2060ec1f9f, 2020-04-08)"><metadata
     id="metadata8"><rdf:RDF><cc:Work
         rdf:about=""><dc:format>image/svg+xml</dc:format><dc:type
           rdf:resource="http://purl.org/dc/dcmitype/StillImage" /><dc:title></dc:title></cc:Work></rdf:RDF></metadata><defs
     id="defs6" /><sodipodi:namedview
     pagecolor="#ffffff"
     bordercolor="#666666"
     borderopacity="1"
     objecttolerance="10"
     gridtolerance="10"
     guidetolerance="10"
     inkscape:pageopacity="0"
     inkscape:pageshadow="2"
     inkscape:window-width="1366"
     inkscape:window-height="740"
     id="namedview4"
     showgrid="false"
     inkscape:zoom="0.27874017"
     inkscape:cx="1218.261"
     inkscape:cy="743.1181"
     inkscape:window-x="0"
     inkscape:window-y="0"
     inkscape:window-maximized="1"
     inkscape:current-layer="g10" /><g
     id="g10"
     inkscape:groupmode="layer"
     inkscape:label="ink_ext_XXXXXX"
     transform="matrix(1.3333333,0,0,-1.3333333,0,1693.3333)"><g
       id="g4752"><g
         transform="scale(0.1)"
         id="g12"><path
           inkscape:connector-curvature="0"
           id="path18"
           style="fill:#f2f2f2;fill-opacity:1;fill-rule:nonzero;stroke:none"
           d="m 6167.83,901.5 c -653.66,0 -1307.82,12.602 -1953.53,73.102 C 3097.79,1079.3 2355.23,1807.3 2046.78,2175.4 c 33.15,-12 68.91,-18.5 106.19,-18.5 h 843.96 v 236.7 c 0.39,0 0.97,0 1.36,0 v -241.7 h 10583.81 880.2 c 145.4,0 263.3,117.8 263.3,263.2 v 42.8 c 7.1,0 14.2,0.1 21.2,0.1 53.3,0.3 122.3,10.4 185,10.4 29.6,0 57.9,-2.3 82.4,-8.9 19.6,-5.4 38.2,-12.4 56,-20.9 357.5,-171.8 341.4,-965.3 245.9,-1274.1 -18.3,-59.3 -41.7,-119.3 -85.5,-163.3 -76.1,-76.399 -257.6,-97.399 -456,-97.399 -121.3,0 -249,7.898 -362.9,15.699 -113.9,7.902 -214,15.699 -280.1,15.699 -2.3,0 -4.6,0 -6.8,0 C 13698.5,931.5 13272.2,928 12845.8,924.902 11432.2,914.5 10018.7,906.5 8604.97,906.5 c -307.62,0 -615.51,0.398 -923.13,1.199 -40.6,0.102 -81.19,0.203 -121.84,0.203 -230.77,0 -462.44,-1.601 -694.54,-3.203 -232.22,-1.597 -464.89,-3.199 -697.63,-3.199" /><path
           inkscape:connector-curvature="0"
           id="path20"
           style="fill:#514943;fill-opacity:1;fill-rule:nonzero;stroke:none"
           d="m 4776.8,1799.9 4.27,-116.4 -72.49,-210.7 -142.94,31.1 15.15,324.3 28.07,48.6 167.94,-76.9" /><path
           inkscape:connector-curvature="0"
           id="path22"
           style="fill:#0f68ba;fill-opacity:1;fill-rule:nonzero;stroke:none"
           d="m 14725.6,2415.1 c 0,-145.4 -117.9,-263.2 -263.3,-263.2 h -892.9 v 3414.39 h 892.9 c 145.4,0 263.3,-117.86 263.3,-263.24 V 2415.1" /><path
           inkscape:connector-curvature="0"
           id="path24"
           style="fill:#0f68ba;fill-opacity:0.978836;fill-rule:nonzero;stroke:none"
           d="M 13582.1,2151.9 H 2998.29 v 4626.06 c 0,189.85 153.9,343.75 343.75,343.75 h 9896.26 c 189.9,0 343.8,-153.9 343.8,-343.75 V 2151.9" /><path
           inkscape:connector-curvature="0"
           id="path26"
           style="fill:#e8e8e8;fill-opacity:1;fill-rule:nonzero;stroke:none"
           d="m 2998.29,3108.5 c -0.47,1.12 -0.92,2.24 -1.36,3.37 v 492.02 c 0.45,-0.57 0.91,-1.16 1.36,-1.73 V 3108.5" /><path
           inkscape:connector-curvature="0"
           id="path28"
           style="fill:#000000;fill-opacity:0.43386245;fill-rule:nonzero;stroke:none"
           d="m 3158.68,3003.08 c -72.21,0 -134.56,43.45 -160.39,105.42 v 493.66 c 65.05,-82.41 165.83,-135.31 278.97,-135.31 H 13575.7 l 6.4,-124.06 -10415.63,-339.55 c -2.61,-0.11 -5.21,-0.16 -7.79,-0.16" /><path
           inkscape:connector-curvature="0"
           id="path30"
           style="fill:#0f68ba;fill-opacity:0.98412699;fill-rule:nonzero;stroke:none"
           d="M 13620.8,3466.85 H 3277.26 c -196.17,0 -355.2,159.03 -355.2,355.2 v 142.63 c 0,196.16 159.03,355.19 355.2,355.19 H 13620.8 c 196.1,0 355.2,-159.03 355.2,-355.19 v -142.63 c 0,-196.17 -159.1,-355.2 -355.2,-355.2" /><path
           inkscape:connector-curvature="0"
           id="path32"
           style="fill:#0f68ba;fill-opacity:0.978836;fill-rule:nonzero;stroke:none"
           d="m 2996.93,2156.9 h -843.96 c -172.45,0 -312.25,139.8 -312.25,312.2 v 2789.93 c 0,172.45 139.8,312.26 312.25,312.26 h 843.96 V 2156.9" /><path
           inkscape:connector-curvature="0"
           id="path34"
           style="fill:#f5f5f5;fill-opacity:1;fill-rule:nonzero;stroke:none"
           d="m 2998.29,4320.05 c -0.46,0.01 -0.93,0.01 -1.36,0.01 v 7.42 l 1.36,0.88 v -8.31" /><path
           inkscape:connector-curvature="0"
           id="path36"
           style="fill:#000000;fill-opacity:0.43386245;fill-rule:nonzero;stroke:none"
           d="m 3140.55,4319.87 c -71.61,0 -119.87,0.06 -142.26,0.18 v 8.31 l 623.17,401.63 c 0,0 1510.54,21.07 3331.71,43.81 9.27,-100.74 30.52,-178.51 74.24,-183.71 1.7,-0.2 3.39,-0.3 5.07,-0.3 13.3,0 26.11,5.93 37.91,11.67 82.29,40.06 150.72,89.83 221.15,137.47 1.45,-2.04 2.92,-4.05 4.4,-6.01 85.69,-113.45 238.16,-148.88 378.62,-168.93 157.34,-22.45 316.04,-35.4 474.92,-38.7 20.7,-0.43 41.44,-0.69 62.17,-0.69 92,0 184.07,5.22 273.94,24.3 175.01,37.15 334.5,125.1 502.28,187.33 69.83,25.9 141.28,47.38 213.8,64.3 1450.53,16.2 2800.93,28.77 3498.43,28.77 306.3,0 486.6,-2.42 494.3,-8.03 56.7,-41.49 387.7,-481.41 387.7,-481.41 v 0 c 0,0 -9128.34,-19.99 -10441.55,-19.99" /><path
           inkscape:connector-curvature="0"
           id="path38"
           style="fill:#cfd4d4;fill-opacity:1;fill-rule:nonzero;stroke:none"
           d="m 2996.93,4320.06 c -5.6,0.03 -9.38,0.07 -11.34,0.12 l 11.34,7.3 v -7.42" /><path
           inkscape:connector-curvature="0"
           id="path40"
           style="fill:#363636;fill-opacity:1;fill-rule:nonzero;stroke:none"
           d="m 8374.63,1699.8 -67.56,-104.1 72.43,-392.1 136.34,-88.6 138.47,82.7 -13.86,310.3 -127.34,274.5 -138.48,-82.7" /><path
           inkscape:connector-curvature="0"
           id="path42"
           style="fill:#363636;fill-opacity:1;fill-rule:nonzero;stroke:none"
           d="m 8964.46,1626 -21.05,-122.3 221.19,-331.8 160.2,-27.6 94.66,130.5 -135.1,279.8 -225.24,201.9 -94.66,-130.5" /><path
           inkscape:connector-curvature="0"
           id="path44"
           style="fill:#2e4661;fill-opacity:1;fill-rule:nonzero;stroke:none;stroke-width:0.89068407"
           d="m 7280.0888,4732.92 c 67.9793,-113.45 188.9366,-148.88 300.3661,-168.93 124.8206,-22.45 250.7202,-35.4 376.7626,-38.7 89.28,-2.34 179.2819,0.23 266.6421,23.61 138.8386,37.15 265.3649,125.1 398.4678,187.33 117.7364,55.05 241.3036,90.11 366.3464,103.94 35.2789,3.89 72.3506,6.77 102.3459,30.57 65.782,52.19 65.068,171.58 56.5002,269.18 -12.1933,138.81 -29.1544,289.68 -109.0337,386.09 -56.5715,68.27 -135.5225,96.97 -211.9983,117.61 -362.2291,97.77 -745.2272,61.02 -1093.6763,-96.21 -139.9652,-63.16 -360.6107,-155.07 -458.7282,-306.1 -80.6012,-124.06 -67.0116,-386.55 6.0054,-508.39" /><path
           inkscape:connector-curvature="0"
           id="path46"
           style="fill:#2e4661;fill-opacity:1;fill-rule:nonzero;stroke:none"
           d="m 7296.38,4775.41 c -17.35,-45.71 -20.51,-102.38 -21.76,-187.1 l 531.57,-394.57 479.32,-2649.54 368.2,2.4 206.16,2536.26 c -36.6,212.07 -42.76,461.26 -114.4,662.7 -84.99,238.98 -476.27,343.02 -709.91,347.85 -202.69,4.19 -404.41,-53.41 -576.49,-159.97 -94.85,-58.74 -140.44,-99.37 -162.69,-158.03" /><path
           inkscape:connector-curvature="0"
           id="path48"
           style="fill:#2e4661;fill-opacity:1;fill-rule:nonzero;stroke:none;stroke-width:0.89391243"
           d="m 9356.2496,5042.725 c 18.7829,-43.3478 34.6525,-89.2431 57.1822,-132.2946 50.6435,-96.8067 100.6558,-192.0138 148.0541,-293.4515 66.4078,-142.1589 131.6503,-285.1571 195.8246,-428.8663 L 9153.0283,1499.9 l -288.1935,22.6119 65.0726,2620.2781 c 1.5295,67.2927 -121.4618,157.3948 -157.8218,192.3199 -93.4371,89.7565 -137.6956,135.632 -189.8523,268.5981 -40.6572,103.689 -47.4307,227.0375 -16.2419,335.5156 31.1808,108.4582 100.4696,200.3179 187.4003,244.6136 67.4356,34.3721 141.9765,40.1782 214.9231,45.53 105.5356,7.771 220.5718,12.3625 306.2238,-63.2739 38.3185,-33.8291 61.6737,-77.1373 81.711,-123.3683" /><path
           inkscape:connector-curvature="0"
           id="path50"
           style="fill:#2e4661;fill-opacity:1;fill-rule:nonzero;stroke:none;stroke-width:0.87593472"
           d="m 7176.8651,5048.67 c -4.9719,-192.07 -1.7878,-448.98 60.1304,-458.58 11.6009,-1.8 22.7799,4.9 32.9767,11.37 107.6699,68.31 184.419,164.89 290.5774,230.89 111.2299,69.17 237.6517,105.36 361.1961,130.37 184.281,38.42 371.6079,61.52 557.0779,63.68 159.3986,1.84 352.2959,7.74 502.9785,-44.49 114.4754,-53.86 227.0633,-109.14 338.7382,-168.23 -33.6903,715.49 -111.5598,1445.25 -234.6439,2183.1 -48.0535,288.04 -46.9871,572.94 -207.9662,793.27 -144.0765,197.21 -95.6776,450.16 -518.6765,446.1 -750.0444,-7.2 -525.8659,63.79 -848.1542,-718.56 -72.3142,-175.57 -163.488,-654.48 -190.557,-843.78 -32.578,-227.83 -62.6775,-454.58 -86.3784,-680.74 -26.2402,-250.48 -44.739,-500.23 -50.0943,-748.5 -0.591,-27.45 -4.8261,-104.2 -7.2047,-195.9" /><path
           inkscape:connector-curvature="0"
           id="path52"
           style="fill:#ffffff;fill-opacity:1;fill-rule:nonzero;stroke:none;stroke-width:0.84870297"
           d="m 8073.4727,8170.08 394.0967,-3.0167 c 0,0 277.1651,-1505.8829 289.9614,-1765.2474 12.5683,-254.624 60.0323,-1249.545 60.0323,-1249.545 0,0 -385.8307,92.7722 -792.5693,-15.0441 -403.7675,-107.0132 -376.1157,-138.7959 -376.1157,-138.7959 0,0 217.7284,1085.0585 224.9134,1396.813 7.3395,318.875 186.0539,1108.7412 186.0539,1108.7412 l 13.6273,666.0949" /><path
           inkscape:connector-curvature="0"
           id="path54"
           style="fill:#e7caad;fill-opacity:1;fill-rule:nonzero;stroke:none"
           d="m 8352.52,8165.25 c -4.81,-4.18 -10.35,-7.47 -16.76,-9.58 -12.72,-4.19 -26.54,-2.65 -39.85,-1.08 -54.2,6.42 -108.4,12.82 -162.6,19.24 17.87,165.97 -79.15,203.51 -173.69,310.26 -95.83,108.22 -66.34,254.13 -60.95,386.57 1.54,36.88 3.33,74.88 18.93,108.34 27.36,58.71 91.08,91.14 152.95,110.37 157.86,49.06 338.41,36.97 477.41,-52.51 36.99,-23.81 71.53,-53.74 91.57,-92.9 30.9,-60.4 23.05,-132.47 14.43,-199.75 -13.24,-103.42 -43.84,-204.99 -102.32,-292.16 -54.49,-81.2 -158.37,-120.1 -170.3,-217.56 -3.09,-25.17 -10.71,-53.5 -28.82,-69.24" /><path
           inkscape:connector-curvature="0"
           id="path56"
           style="fill:#3a3029;fill-opacity:1;fill-rule:nonzero;stroke:none"
           d="m 9031.19,9248.95 c -1.67,50.63 -21.93,95.86 -69.46,126.42 -40.98,26.34 -88.23,48.18 -113.13,90.06 -19.32,32.5 -22.15,72.72 -41.31,105.33 -34.66,59.03 -109.93,76.4 -175.4,96.41 -163.76,50.06 -251.94,107.85 -425.4,43.77 -123.33,-45.57 -282.67,-51.67 -397.14,-118.13 -47.8,-27.75 -88.47,-72.34 -121.85,-122 -115.63,-172.06 -143.4,-414 -68.09,-593.47 16.87,-40.17 38.29,-77.12 61.19,-112.49 45.79,-70.72 94.83,-157.74 175.9,-192.37 5.1,33.33 31.19,51.72 39.34,84.47 5.88,23.57 3.91,48.27 2.63,72.54 -4.98,94.36 -35.39,243.56 63.62,290.35 125.2,59.17 360.07,5.79 480.66,-44.29 106.7,-44.32 286.78,-101.99 400.54,-54.51 105.61,44.08 191.48,219.75 187.9,327.91" /><path
           inkscape:connector-curvature="0"
           id="path58"
           style="fill:#2e4661;fill-opacity:1;fill-rule:nonzero;stroke:none"
           d="m 8109.43,8163.7 h 370.48 l -144.97,-209.44 209.4,-2129.42 -257.73,-279.26 -177.18,331.63 48.32,2077.05 -48.32,209.44" /><path
           inkscape:connector-curvature="0"
           id="path60"
           style="fill:#273140;fill-opacity:1;fill-rule:nonzero;stroke:none"
           d="m 12237.5,1707.9 16.6,-123 -232.9,-323.7 -161.1,-21.8 -89.9,133.9 145,274.7 232.3,193.7 90,-133.8" /><path
           inkscape:connector-curvature="0"
           id="path62"
           style="fill:#273140;fill-opacity:1;fill-rule:nonzero;stroke:none"
           d="m 11670.8,1669 21.1,-122.2 -221.2,-331.9 -160.2,-27.6 -94.7,130.6 135.1,279.7 225.3,202 94.6,-130.6" /><path
           inkscape:connector-curvature="0"
           id="path64"
           style="fill:#273140;fill-opacity:1;fill-rule:nonzero;stroke:none"
           d="m 13339.3,4776 c -85.7,-113.45 -238.1,-148.88 -378.6,-168.93 -157.3,-22.46 -316,-35.39 -474.9,-38.7 -112.5,-2.34 -226,0.22 -336.1,23.6 -175,37.16 -334.5,125.11 -502.3,187.35 -148.4,55.05 -304.2,90.09 -461.8,103.92 -44.5,3.9 -91.2,6.78 -129,30.58 -82.9,52.19 -82,171.57 -71.2,269.19 15.4,138.8 36.7,289.67 137.4,386.08 71.3,68.27 170.9,96.96 267.2,117.61 456.7,97.77 939.4,61.02 1378.7,-96.21 176.4,-63.17 454.5,-155.08 578.2,-306.1 101.6,-124.06 84.5,-386.55 -7.6,-508.39" /><path
           inkscape:connector-curvature="0"
           id="path66"
           style="fill:#273140;fill-opacity:1;fill-rule:nonzero;stroke:none"
           d="m 13241.4,4857.48 c 17.3,-45.71 20.5,-102.37 21.8,-187.09 l -531.6,-394.57 -479.3,-2649.62 -368.2,2.5 -206.2,2536.24 c 36.6,212.06 42.8,461.26 114.4,662.7 85,238.97 476.3,343.01 709.9,347.85 202.7,4.18 404.4,-53.41 576.5,-159.97 94.9,-58.74 140.4,-99.38 162.7,-158.04" /><path
           inkscape:connector-curvature="0"
           id="path68"
           style="fill:#273140;fill-opacity:1;fill-rule:nonzero;stroke:none"
           d="m 11088.2,5130.94 c -23.2,-43.89 -42.9,-90.38 -70.7,-133.99 -62.6,-98.03 -124.4,-194.44 -182.9,-297.18 -82.1,-143.96 -162.7,-288.79 -242,-434.33 l 746.7,-2722.54 356.1,23 -80.4,2653.64 c -1.9,68.15 150.1,159.4 195,194.77 115.5,90.9 170.2,137.36 234.6,272.02 50.3,105.01 58.6,229.93 20.1,339.78 -38.5,109.86 -124.2,202.87 -231.6,247.74 -83.3,34.8 -175.4,40.68 -265.6,46.11 -130.4,7.87 -272.5,12.52 -378.4,-64.07 -47.3,-34.27 -76.2,-78.14 -100.9,-124.95" /><path
           inkscape:connector-curvature="0"
           id="path70"
           style="fill:#647380;fill-opacity:1;fill-rule:nonzero;stroke:none"
           d="m 4710.6,8035.33 c -4.2,-0.98 -8.38,-2 -12.54,-3.04 -198.97,-50.09 -424.15,-330.2 -495.41,-523.71 -219.74,-596.65 -256.31,-970.9 -338.61,-1495.03 -44.3,-282.21 -165.17,-557.99 -282.08,-818.47 -32.77,-73 -13.16,-146.83 -18.34,-222.7 -5.4,-78.99 13.45,-160.04 28.92,-238.04 3.94,-21.72 133.43,32.93 144.79,36.58 203.42,65.2 408.6,125.45 616.86,173.3 137.81,31.67 276.91,57.89 417.05,76.93 413.45,56.18 687.75,-77.12 1082.21,-208.66 -13.8,902.61 36.33,1632.86 -115.6,2519.44 -18.17,106.05 -17.41,177.96 -76.97,292.53 -57.18,109.97 -95.71,186.58 -187.34,263.32 -31.38,26.3 -63,52.76 -98.64,72.52 -187.8,104.2 -455.14,124.3 -664.3,75.03" /><path
           inkscape:connector-curvature="0"
           id="path72"
           style="fill:#e8cbae;fill-opacity:1;fill-rule:nonzero;stroke:none"
           d="m 6716.98,7615.77 178.14,222.68 -91.86,80.27 -155.74,-125.48 -25.82,58.14 -129.23,-209.12 84.22,-96.34 140.29,69.85" /><path
           inkscape:connector-curvature="0"
           id="path74"
           style="fill:#647380;fill-opacity:1;fill-rule:nonzero;stroke:none"
           d="m 5473.54,7887.78 457.08,-699.58 523.37,500.54 157.34,-199.72 -848.62,-1166.37 -638.59,1002.89 349.42,562.24" /><path
           inkscape:connector-curvature="0"
           id="path76"
           style="fill:#647380;fill-opacity:1;fill-rule:nonzero;stroke:none"
           d="m 4703,8032.45 -896.97,-494.01 -253.39,687.41 -253.8,-14.6 -57.19,-1341.78 151.54,-205.06 928.02,389.52 381.79,978.52" /><path
           inkscape:connector-curvature="0"
           id="path78"
           style="fill:#514943;fill-opacity:1;fill-rule:nonzero;stroke:none"
           d="m 5356.26,8496.91 c 42.92,-125.59 -19.15,-259.51 -73.7,-373.99 -22.29,-46.78 -57.42,-112.24 -19.37,-159.64 42.61,-53.07 135.33,-32.9 172.88,13.32 26.53,32.64 37.33,74.52 46.33,115.22 40.34,182.35 96.59,437.75 65.31,622.5 -25.07,148.13 -223.27,396.71 -395.64,284.85 -31.29,-20.31 -49.51,-54.64 -64.75,-88.13 -9.09,-20 -17.74,-40.88 -18,-62.76 -1.06,-87.24 80.68,-101.96 137.13,-143.48 69.62,-51.21 122.4,-127.68 149.81,-207.89" /><path
           inkscape:connector-curvature="0"
           id="path80"
           style="fill:#e7caad;fill-opacity:1;fill-rule:nonzero;stroke:none"
           d="m 5094.84,8006.57 c 119.22,27.38 212.43,124.91 257.22,235.99 44.79,111.07 47.13,234.25 34.74,352.98 -41.22,395.09 -545.61,369.73 -716.41,66.91 -148.86,-263.91 77.82,-735.44 424.45,-655.88" /><path
           inkscape:connector-curvature="0"
           id="path82"
           style="fill:#514943;fill-opacity:1;fill-rule:nonzero;stroke:none"
           d="m 4708.35,8477.73 c -24.84,-91.91 -28.95,-203.52 -24.35,-270.88 5.26,-76.81 42.88,-285.55 -100.78,-252.48 -119.8,27.57 -220.62,301.32 -258.74,399.22 -92.62,237.91 -116.26,487.97 26.27,707.74 55.55,85.65 133.01,161.24 230.21,197.22 146.15,54.13 400.27,75.88 549.1,13.07 162.2,-68.47 248.22,-273.19 146.18,-422.66 -109.75,-160.75 -364.52,-119.54 -501.84,-244.08 -30.46,-27.63 -51.7,-74.11 -66.05,-127.15" /><path
           inkscape:connector-curvature="0"
           id="path84"
           style="fill:#e7caad;fill-opacity:1;fill-rule:nonzero;stroke:none"
           d="m 5101.43,8048.36 c -3.58,-30.04 -7.15,-60.08 -10.72,-90.12 -1.63,-13.78 2.76,-52.34 -7.58,-62.64 -5.39,-5.38 -14.07,-5.48 -21.77,-5.22 -22.01,0.74 -219.28,8.3 -218.27,21.45 2.69,35.26 6.13,69.88 13.64,104.03 6.06,27.59 4.91,78.31 18.63,100.09 35.16,-20.53 70.67,-31.94 110.68,-39.82 38.61,-7.59 77.36,-14.52 116.22,-20.78 -0.29,-2.33 -0.56,-4.66 -0.83,-6.99" /><path
           inkscape:connector-curvature="0"
           id="path86"
           style="fill:#e7caad;fill-opacity:1;fill-rule:nonzero;stroke:none"
           d="m 10639.6,8336.69 -111.3,117.52 6.2,142.59 -29.6,16.65 -22,-35.55 -28.8,119.81 -80,60 -126.8,-40.22 -77.9,-113.33 53.3,-121.73 127.3,-93.63 145.4,-167.47 144.2,115.36" /><path
           inkscape:connector-curvature="0"
           id="path88"
           style="fill:#273140;fill-opacity:1;fill-rule:nonzero;stroke:none"
           d="m 10572.7,8450.07 618.9,-686.52 c 158.5,50.51 305.1,82.22 467.3,109.15 157.5,26.13 333,154.47 495.1,118.79 365.9,-80.54 -353.9,-577.12 -443.3,-640.45 -178.5,-126.35 -357,-252.7 -535.4,-379.05 l -147.8,103.24 -735.9,1231.08 281.1,143.76" /><path
           inkscape:connector-curvature="0"
           id="path90"
           style="fill:#273140;fill-opacity:1;fill-rule:nonzero;stroke:none"
           d="m 13415,5139.8 c 4.1,-188.52 -1.8,-442.59 -74.3,-451.89 -13.5,-1.75 -26.5,4.96 -38.4,11.45 -125.2,68.37 -213.8,164.6 -337.3,230.67 -129.4,69.24 -277.4,106.03 -422.6,131.79 -217,39.66 -438.9,64.26 -660.1,68.12 -173.8,3.04 -348.5,-11.78 -521.6,-26.18 -144.1,-11.99 -278.1,-54.68 -424.8,-44.51 -150.4,10.43 -298.6,56.49 -427.1,135.51 -4.7,2.89 -9.7,6.18 -11.7,11.34 -2.1,5.66 0,11.94 2.1,17.62 30.7,84.18 52.8,167.54 108.5,237.26 62.3,77.84 106.6,176.75 151.6,265.37 93.9,184.69 182.3,378.24 247.8,574.99 54.3,146.38 106.5,294.32 152,443.67 20.8,67.96 39.3,137.06 59.7,205.91 20.2,68.17 57.8,156.85 57.8,228.22 0,286.75 257.3,502.46 424.7,711.97 50.3,62.98 104,128.54 178.8,158.57 51.3,20.56 107.8,22.42 163.1,24.01 167.5,4.81 335,9.62 502.5,14.43 61,1.76 124.6,3.05 180.2,-22.11 83.5,-37.71 130.6,-125.32 171.8,-207.05 184.9,-366.52 302.7,-761.67 368.8,-1169.18 34.4,-212.78 66.3,-425.98 91.1,-639.98 27.7,-238.8 46.7,-478.69 50.7,-718.95 0.5,-26.7 4.7,-101.48 6.7,-191.05" /><path
           inkscape:connector-curvature="0"
           id="path92"
           style="fill:#c1d6e0;fill-opacity:1;fill-rule:nonzero;stroke:none"
           d="m 12197,7207.91 c -44.9,-98.09 -71,-164.66 6.5,-245.75 74,-77.6 104.5,-81.73 135.9,-197.82 52.5,-194.23 101.3,-395.97 124.6,-596.12 15.4,-131.96 -9.4,-258.35 7.5,-392.27 6.2,-48.66 59.9,-619.45 93.2,-619.74 -259.6,2.26 -519.3,4.52 -778.9,6.78 -129.9,1.13 -259.7,2.28 -389.5,3.39 -79.9,0.68 -152,-20.14 -158.3,70.5 -5.3,77.62 87.8,219.02 112.4,296.94 65.6,207.18 111.6,426.09 236.1,608.35 65.1,95.1 149.6,176.95 203.7,278.66 106,199.22 79.5,438.81 80.2,664.47 0.5,207.56 26.8,415 77.5,616.26 35.9,142.54 58.4,330.02 230,359.82 128.5,22.33 273.7,41.23 402.9,22.23 44,-160.14 -98.2,-349.22 -177.8,-474.04 -54.2,-84.96 -100.6,-174.68 -141,-266.9 -13.7,-31.13 -40.7,-81.79 -65,-134.76" /><path
           inkscape:connector-curvature="0"
           id="path94"
           style="fill:#e7caad;fill-opacity:1;fill-rule:nonzero;stroke:none"
           d="m 12214.3,7979.74 c 93.2,4.05 186.4,8.1 279.7,12.14 5,74.25 4.1,148.9 -2.8,223.01 78.8,22.88 170.4,58.67 188.3,138.73 5.7,25.22 2.7,51.47 -0.3,77.13 -12.3,106.12 -24.6,212.23 -37,318.34 -4.2,36.7 -8.8,74.49 -26.9,106.74 -31.6,56.57 -97.6,84.22 -160.8,98.83 -161.2,37.28 -340.5,11.86 -472.6,-87.74 -35.2,-26.5 -67.4,-58.92 -84.5,-99.5 -26.4,-62.56 -13.2,-133.9 0.3,-200.43 12.6,-61.39 25.1,-122.8 37.6,-184.2 14.4,-70.61 36.4,-151.21 102.1,-181.03 34.8,-15.83 77.1,-14.11 108.2,-36.41 54.8,-39.31 42.5,-123.43 68.7,-185.61" /><path
           inkscape:connector-curvature="0"
           id="path96"
           style="fill:#3a3029;fill-opacity:1;fill-rule:nonzero;stroke:none"
           d="m 11697.8,9328.3 c 20.7,3.69 41.8,8.06 63.2,17.36 67.5,29.4 114.8,88.35 186.5,115.94 145.1,55.8 327,47.71 469.5,-12.23 136.4,-57.35 322.5,-79.42 444.5,-156.48 51,-32.18 90.4,-80.23 120.3,-132.56 103.6,-181.3 90.8,-422.64 -31.3,-592 -27.4,-38 -59.6,-72.33 -93.2,-104.96 -69.6,-67.54 -152.9,-151.09 -244.7,-172.46 2.3,80.89 90,331.47 31.7,401.11 -77.4,92.34 -229.3,89.97 -338.1,79.79 -129.7,-12.15 -236.4,29.49 -365.8,23.01 -65.8,-3.3 -140.3,-16.54 -190.8,25.88 -58.4,49.04 -181.9,204.78 -211.2,273.13 -25.6,59.84 -8.5,133.54 36.1,181 38.4,40.98 79.9,45.75 123.3,53.47" /><path
           inkscape:connector-curvature="0"
           id="path98"
           style="fill:#e8cbae;fill-opacity:1;fill-rule:nonzero;stroke:none"
           d="m 4392.83,4610.29 173.53,-1602.92 25.08,-1194.07 187.57,-55.2 154.49,1086.75 333.59,1986.49 -874.26,-221.05" /><path
           inkscape:connector-curvature="0"
           id="path100"
           style="fill:#514943;fill-opacity:1;fill-rule:nonzero;stroke:none"
           d="m 5472.76,1775.1 51.2,-112.2 13.13,-235.6 -154.24,-27.4 -115.76,323.6 8.22,59 197.45,-7.4" /><path
           inkscape:connector-curvature="0"
           id="path102"
           style="fill:#e8cbae;fill-opacity:1;fill-rule:nonzero;stroke:none"
           d="M 5704.17,4983.34 5796.99,3679.13 5470.81,1748.2 h -189.17 l 62.96,1787.49 -379.91,1542.36 739.48,-94.71" /><path
           inkscape:connector-curvature="0"
           id="path104"
           style="fill:#899195;fill-opacity:1;fill-rule:nonzero;stroke:none"
           d="m 5981.1,4745.3 c -30.96,81.84 -73.95,163.43 -131.62,246.75 -203.66,294.27 -531.16,368.86 -849.1,385.55 -147.03,7.71 -288.23,58.75 -434.56,45.83 -186.43,-16.45 -369.51,-92.73 -546.42,-154.16 -161.15,-55.99 -412.43,-147.35 -387.03,-383.99 40.28,-375.21 374.14,-508.81 468.45,-833.61 19.12,-65.87 21.92,-135.91 24.58,-204.98 7.31,-190.52 9.34,-382.72 23.37,-572.53 92.76,-17.02 185.68,31.82 280.06,36.46 154.77,7.59 321.15,-32.36 475.84,-45.82 325.71,-28.32 652.13,-46.93 978.76,-55.83 41.82,249.57 83.66,499.15 125.49,748.72 50.14,299.2 64.19,544.49 -27.82,787.61" /><path
           inkscape:connector-curvature="0"
           id="path106"
           style="fill:#e7caad;fill-opacity:1;fill-rule:nonzero;stroke:none"
           d="m 9756.05,8349.75 33.02,128.62 -61.2,99.83 14.57,23.71 29.92,-16.74 c -46.75,25.81 -15.26,182.06 -4.9,215.18 3.7,11.83 8.29,23.98 17.44,32.34 11.37,10.38 27.62,13.04 42.92,14.74 36.28,4.02 72.89,5.06 109.34,3.12 8.27,-0.44 17.05,-1.21 23.67,-6.18 9.85,-7.4 11.59,-21.25 12.41,-33.54 7.51,-111.96 16.47,-206.51 -30.23,-308.38 l -37.56,-178.02 -149.4,25.32" /><path
           inkscape:connector-curvature="0"
           id="path108"
           style="fill:#2e4661;fill-opacity:1;fill-rule:nonzero;stroke:none;stroke-width:1.03997147"
           d="M 9680.9859,8486.84 9512.7522,7700 l -933.4993,521.22 330.8865,-969.46 872.998,-311.76 128.7358,48.52 94.9268,1394.19 -325.8141,104.13" /><path
           inkscape:connector-curvature="0"
           id="path110"
           style="fill:#2e4661;fill-opacity:1;fill-rule:nonzero;stroke:none"
           d="m 12200.4,7914.73 185.3,-39 -48.8,-136.49 -78,-87.75 c 0,0 -194.9,-536.23 -224.2,-799.47 -29.2,-263.24 0,-604.37 0,-604.37 l -9.7,-234.1 c 0,0 -117,156 -146.3,185.25 -29.2,29.25 -19.5,750.72 39,1023.71 58.5,272.99 249.5,509.8 249.5,509.8 0,0 23.5,114.17 33.2,182.42" /><path
           inkscape:connector-curvature="0"
           id="path112"
           style="fill:#e7caad;fill-opacity:1;fill-rule:nonzero;stroke:none"
           d="m 11734.8,6066.99 -157.9,-82.97 -149.4,49.09 -26.5,-26.39 31.1,-33.92 -135.6,5.23 -87.6,-66.98 4.8,-146.58 97,-116.39 145.1,20.19 137.3,107.1 221,104.21 -79.3,187.41" /><path
           inkscape:connector-curvature="0"
           id="path114"
           style="fill:#273140;fill-opacity:1;fill-rule:nonzero;stroke:none"
           d="m 11594.5,6029.84 913,451.77 c -6.2,183.18 3.9,348.2 23.7,528.29 19.3,174.87 -64.5,399.35 21.7,560.65 194.7,364.1 506.7,-547.68 547.1,-661.46 80.8,-227.02 161.6,-454.04 242.4,-681.07 l -153.7,-125.94 -1525.5,-413.25 -68.7,341.01" /><path
           inkscape:connector-curvature="0"
           id="path116"
           style="fill:#58646c;fill-opacity:1;fill-rule:nonzero;stroke:none"
           d="m 10196.7,7855.75 -92.8,24.15 c -34.8,9.05 -55.6,44.55 -46.6,79.31 l 471.7,1812.88 c 9,34.76 44.5,55.6 79.3,46.56 l 92.8,-24.15 c 34.7,-9.04 55.6,-44.55 46.6,-79.3 L 10276,7902.31 c -9,-34.75 -44.5,-55.6 -79.3,-46.56" /><path
           inkscape:connector-curvature="0"
           id="path118"
           style="fill:#bfbfbf;fill-opacity:1;fill-rule:nonzero;stroke:none"
           d="m 10576.9,9058.72 v 0 l 77.8,299.26 v 0 l -77.8,-299.26 m -142.3,350.57 v 0 0.02 -0.03" /><path
           inkscape:connector-curvature="0"
           id="path120"
           style="fill:#424b51;fill-opacity:1;fill-rule:nonzero;stroke:none"
           d="m 10576.9,9058.72 -142.3,350.57 v 0.02 l 1.8,5.42 c 34.9,-12.99 70.7,-24.32 107.5,-33.89 36.9,-9.6 73.9,-17.2 110.8,-22.86 l -77.8,-299.26" /><path
           inkscape:connector-curvature="0"
           id="path122"
           style="fill:#f1f8ff;fill-opacity:1;fill-rule:nonzero;stroke:none"
           d="m 11825.7,10180.9 c -144.4,-555.36 -711.8,-888.47 -1267.2,-743.98 -555.4,144.49 -888.48,711.88 -744,1267.28 144.49,555.3 711.8,888.5 1267.2,744 555.4,-144.5 888.5,-711.9 744,-1267.3" /><path
           inkscape:connector-curvature="0"
           id="path124"
           style="fill:#66aafc;fill-opacity:0.99470901;fill-rule:nonzero;stroke:none"
           d="m 11067.1,11392.1 c -523.5,136.2 -1060.3,-179 -1196.5,-702.5 -136.21,-523.6 178.9,-1060.38 702.5,-1196.59 523.6,-136.21 1060.3,178.94 1196.6,702.49 136.2,523.6 -179,1060.4 -702.6,1196.6 m -523.2,-2011.26 c -585.4,152.3 -937.78,752.46 -785.48,1337.96 152.3,585.4 752.48,937.8 1337.88,785.5 585.5,-152.4 937.8,-752.5 785.5,-1338 -152.3,-585.39 -752.5,-937.76 -1337.9,-785.46" /><path
           inkscape:connector-curvature="0"
           id="path126"
           style="fill:#b5babf;fill-opacity:1;fill-rule:nonzero;stroke:none"
           d="m 11236.9,9929.48 -33.5,8.83 -233.8,390.79 -648.2,-334.69 -24.8,54.99 1081.5,576.5 46.5,-68.3 -405.6,-203.4 217.9,-424.72" /><path
           inkscape:connector-curvature="0"
           id="path128"
           style="fill:#801b2e;fill-opacity:1;fill-rule:nonzero;stroke:none"
           d="m 11443.8,10590.6 -113.2,222.2 -471.3,-240.1 -267.8,456.1 -215.1,-126.2 260.3,-443.3 -458,-233.3 113.2,-222.2 471.3,240.1 267.7,-456.17 215.1,126.26 -260.2,443.31 458,233.3" /><path
           inkscape:connector-curvature="0"
           id="path130"
           style="fill:#58646c;fill-opacity:1;fill-rule:nonzero;stroke:none"
           d="m 7610.16,4596.38 -78.75,54.73 c -29.5,20.5 -36.79,61.03 -16.29,90.52 l 1069.05,1538.21 c 20.5,29.49 61.02,36.78 90.52,16.28 l 78.76,-54.73 c 29.49,-20.5 36.78,-61.03 16.28,-90.52 L 7700.68,4612.66 c -20.5,-29.5 -61.02,-36.78 -90.52,-16.28" /><path
           inkscape:connector-curvature="0"
           id="path132"
           style="fill:#bfbfbf;fill-opacity:1;fill-rule:nonzero;stroke:none"
           d="m 8382.62,5593.86 v 0 l 156.88,225.73 0.01,0.01 -156.89,-225.74 m 161.58,232.49 v 0 l 14.89,21.43 v 0 l -14.89,-21.43" /><path
           inkscape:connector-curvature="0"
           id="path134"
           style="fill:#223449;fill-opacity:1;fill-rule:nonzero;stroke:none"
           d="m 8539.5,5819.59 4.7,6.76 v 0 l -4.69,-6.75 -0.01,-0.01 M 8370.22,5972 v 0 l 0.02,0.02 -0.02,-0.02" /><path
           inkscape:connector-curvature="0"
           id="path136"
           style="fill:#424b51;fill-opacity:1;fill-rule:nonzero;stroke:none"
           d="m 8382.62,5593.86 -12.4,378.14 0.02,0.02 3.6,4.45 c 28.23,-24.23 57.97,-47.27 89.17,-68.95 31.32,-21.77 63.39,-41.68 96.08,-59.74 l -14.89,-21.43 -4.7,-6.76 -156.88,-225.73" /><path
           inkscape:connector-curvature="0"
           id="path138"
           style="fill:#f1f8ff;fill-opacity:1;fill-rule:nonzero;stroke:none"
           d="m 9942.35,6215.35 c -327.51,-471.24 -975.02,-587.76 -1446.27,-260.24 -471.24,327.51 -587.76,975.03 -260.24,1446.27 327.51,471.24 975.03,587.75 1446.27,260.24 471.29,-327.51 587.79,-975.03 260.24,-1446.27" /><path
           inkscape:connector-curvature="0"
           id="path140"
           style="fill:#66aafc;fill-opacity:0.82539684;fill-rule:nonzero;stroke:none"
           d="m 9649.03,7614.03 c -444.24,308.75 -1056.85,198.52 -1365.6,-245.73 -308.75,-444.25 -198.53,-1056.85 245.72,-1365.61 444.25,-308.74 1056.87,-198.51 1365.62,245.74 308.73,444.24 198.53,1056.86 -245.74,1365.6 M 8463.01,5907.52 c -496.73,345.22 -619.99,1030.21 -274.76,1526.93 345.23,496.73 1030.2,619.98 1526.93,274.76 496.72,-345.23 620.02,-1030.2 274.76,-1526.93 -345.22,-496.73 -1030.2,-619.99 -1526.93,-274.76" /><path
           inkscape:connector-curvature="0"
           id="path142"
           style="fill:#b5babf;fill-opacity:1;fill-rule:nonzero;stroke:none"
           d="m 9302.9,6182.89 -28.36,19.84 -84.41,447.54 -723.89,-90.09 -4.35,60.15 1214.2,167.29 19.99,-80.2 -450.9,-50.65 57.72,-473.88" /><path
           inkscape:connector-curvature="0"
           id="path144"
           style="fill:#801b2e;fill-opacity:1;fill-rule:nonzero;stroke:none"
           d="m 9725.46,6731.76 -29.43,247.63 -525.23,-62.43 -93.67,520.57 -245.43,-44.17 91.02,-505.88 -510.42,-60.67 29.44,-247.64 525.23,62.43 93.66,-520.56 245.44,44.17 -91.02,505.88 510.41,60.67" /><path
           inkscape:connector-curvature="0"
           id="path146"
           style="fill:#899195;fill-opacity:1;fill-rule:nonzero;stroke:none"
           d="m 5442.42,7351.15 c -9.74,347.77 -292.49,539.04 -292.49,539.04 L 4759.95,7916.27 4486.96,7446.79 5011,6812.6 C 4921.65,6089.19 4703,5418.94 4703,5418.94 l 235,-35.67 c 36.57,169.14 86.9,1120.51 101.67,1412.05 l 402.75,555.83" /><path
           inkscape:connector-curvature="0"
           id="path148"
           style="fill:#e7caad;fill-opacity:1;fill-rule:nonzero;stroke:none"
           d="m 7783.49,5402.2 62.7,-117.05 112.61,-32.13 5.31,-27.32 -33.37,-7.91 c 51.89,12.63 134.41,-123.75 149.18,-155.15 5.29,-11.21 10.12,-23.27 9.04,-35.62 -1.36,-15.33 -11.52,-28.29 -21.64,-39.89 -24,-27.5 -50.26,-53.03 -78.41,-76.26 -6.39,-5.27 -13.37,-10.64 -21.62,-11.46 -12.25,-1.22 -22.91,7.81 -31.82,16.29 -81.27,77.39 -151.83,140.96 -186.36,247.56 l -92.76,156.52 127.14,82.42" /><path
           inkscape:connector-curvature="0"
           id="path150"
           style="fill:#2e4661;fill-opacity:1;fill-rule:nonzero;stroke:none;stroke-width:0.84216493"
           d="M 7920.37,5370.08 7643.5033,6400 7778.2592,6990 7712.9239,8021.97 7168.3113,6710 7154.1264,6440 7726.6903,5133.01 7920.37,5370.08" /><path
           inkscape:connector-curvature="0"
           id="path152"
           style="fill:#e8cbae;fill-opacity:1;fill-rule:nonzero;stroke:none"
           d="m 3295.71,8283.11 -5.14,278.02 121.65,8.49 46.71,-189.22 55.88,30.06 -25.29,-238.72 -125.4,-25.48 -68.41,136.85" /><path
           inkscape:connector-curvature="0"
           id="path154"
           style="fill:#58646c;fill-opacity:1;fill-rule:nonzero;stroke:none"
           d="m 3116.81,7689.85 -88.11,37.91 c -32.99,14.2 -48.22,52.46 -34.02,85.44 l 740.48,1720.66 c 14.21,32.98 52.46,48.22 85.45,34.03 l 88.1,-37.92 c 32.99,-14.2 48.22,-52.45 34.03,-85.44 L 3202.25,7723.88 c -14.2,-32.99 -52.45,-48.22 -85.44,-34.03" /><path
           inkscape:connector-curvature="0"
           id="path156"
           style="fill:#424b51;fill-opacity:1;fill-rule:nonzero;stroke:none"
           d="m 3674.6,8821.45 -87.63,368.06 2.66,5.1 c 32.49,-18.11 66.24,-34.75 101.13,-49.77 35.04,-15.07 70.44,-28.18 106.07,-39.36 l -112.52,-261.46 -9.71,-22.56" /><path
           inkscape:connector-curvature="0"
           id="path158"
           style="fill:#f1f8ff;fill-opacity:1;fill-rule:nonzero;stroke:none"
           d="m 5078.89,9741.78 c -226.86,-527.13 -838.09,-770.56 -1365.22,-543.7 -527.13,226.85 -770.56,838.12 -543.7,1365.22 226.85,527.1 838.08,770.6 1365.21,543.7 527.13,-226.8 770.56,-838.1 543.71,-1365.22" /><path
           inkscape:connector-curvature="0"
           id="path160"
           style="fill:#66aafc;fill-opacity:1;fill-rule:nonzero;stroke:none"
           d="m 4512.28,11053.8 c -496.95,213.8 -1075.22,-16.5 -1289.08,-513.4 -213.86,-497 16.44,-1075.23 513.38,-1289.09 496.94,-213.86 1075.22,16.44 1289.07,513.38 213.86,496.91 -16.44,1075.21 -513.37,1289.11 M 3690.76,9144.84 c -555.64,239.13 -813.15,885.76 -574.03,1441.36 239.13,555.7 885.71,813.2 1441.36,574 555.64,-239.1 813.15,-885.7 574.03,-1441.32 C 4893,9163.23 4246.41,8905.72 3690.76,9144.84" /><path
           inkscape:connector-curvature="0"
           id="path162"
           style="fill:#b5babf;fill-opacity:1;fill-rule:nonzero;stroke:none"
           d="m 4458.78,9582.32 -31.75,13.79 -172.05,421.69 -691.34,-232.77 -16.25,58.06 1156.36,406.31 35.6,-74.6 -431.73,-139.6 151.16,-452.88" /><path
           inkscape:connector-curvature="0"
           id="path164"
           style="fill:#801b2e;fill-opacity:1;fill-rule:nonzero;stroke:none"
           d="m 4763.28,10204.5 -78.28,236.8 -502.19,-166 -195.7,491.4 -231.68,-92.3 190.19,-477.5 -488.04,-161.4 78.27,-236.76 502.2,166.02 195.69,-491.39 231.69,92.26 -190.19,477.57 488.04,161.3" /><path
           inkscape:connector-curvature="0"
           id="path166"
           style="fill:#e7caad;fill-opacity:1;fill-rule:nonzero;stroke:none"
           d="m 3517.87,8421.95 c -17.63,11.79 -39.46,17.16 -60.55,14.9 -2.51,-0.27 -5.12,-0.69 -7.14,-2.19 -2.47,-1.85 -3.58,-4.95 -4.57,-7.87 -7.82,-23.05 -15.64,-46.1 -23.46,-69.14 29.13,-3.42 57.93,-9.68 85.85,-18.67 6.31,25.38 9.36,51.55 9.05,77.69 l 0.82,5.28" /></g></g></g></svg>