<?xml version="1.0" encoding="UTF-8" standalone="no"?>
<!-- Created with Inkscape (http://www.inkscape.org/) -->

<svg
   xmlns:dc="http://purl.org/dc/elements/1.1/"
   xmlns:cc="http://creativecommons.org/ns#"
   xmlns:rdf="http://www.w3.org/1999/02/22-rdf-syntax-ns#"
   xmlns:svg="http://www.w3.org/2000/svg"
   xmlns="http://www.w3.org/2000/svg"
   xmlns:sodipodi="http://sodipodi.sourceforge.net/DTD/sodipodi-0.dtd"
   xmlns:inkscape="http://www.inkscape.org/namespaces/inkscape"
   version="1.1"
   id="svg2"
   xml:space="preserve"
   width="666.66669"
   height="666.66669"
   viewBox="0 0 666.66669 666.66669"
   sodipodi:docname="wishes_concept.svg"
   inkscape:version="0.92.5 (2060ec1f9f, 2020-04-08)"><metadata
     id="metadata8"><rdf:RDF><cc:Work
         rdf:about=""><dc:format>image/svg+xml</dc:format><dc:type
           rdf:resource="http://purl.org/dc/dcmitype/StillImage" /><dc:title></dc:title></cc:Work></rdf:RDF></metadata><defs
     id="defs6"><clipPath
       clipPathUnits="userSpaceOnUse"
       id="clipPath18"><path
         d="M 0,500 H 500 V 0 H 0 Z"
         id="path16"
         inkscape:connector-curvature="0" /></clipPath><clipPath
       clipPathUnits="userSpaceOnUse"
       id="clipPath30"><path
         d="M 0,500 H 500 V 0 H 0 Z"
         id="path28"
         inkscape:connector-curvature="0" /></clipPath><clipPath
       clipPathUnits="userSpaceOnUse"
       id="clipPath46"><path
         d="M 0,500 H 500 V 0 H 0 Z"
         id="path44"
         inkscape:connector-curvature="0" /></clipPath><clipPath
       clipPathUnits="userSpaceOnUse"
       id="clipPath58"><path
         d="m 225.714,365.739 h 11.862 v -4.431 h -11.862 z"
         id="path56"
         inkscape:connector-curvature="0" /></clipPath><clipPath
       clipPathUnits="userSpaceOnUse"
       id="clipPath78"><path
         d="m 178.738,363.523 h 18.758 v -27.671 h -18.758 z"
         id="path76"
         inkscape:connector-curvature="0" /></clipPath><clipPath
       clipPathUnits="userSpaceOnUse"
       id="clipPath94"><path
         d="m 165.871,381.859 h 40.435 v -17.648 h -40.435 z"
         id="path92"
         inkscape:connector-curvature="0" /></clipPath><clipPath
       clipPathUnits="userSpaceOnUse"
       id="clipPath118"><path
         d="M 104.288,268.227 H 182.77 V 205.686 H 104.288 Z"
         id="path116"
         inkscape:connector-curvature="0" /></clipPath><clipPath
       clipPathUnits="userSpaceOnUse"
       id="clipPath134"><path
         d="m 157.361,228.763 h 69.857 v -64.246 h -69.857 z"
         id="path132"
         inkscape:connector-curvature="0" /></clipPath><clipPath
       clipPathUnits="userSpaceOnUse"
       id="clipPath150"><path
         d="m 139.299,335.543 h 66.178 v -24.035 h -66.178 z"
         id="path148"
         inkscape:connector-curvature="0" /></clipPath><clipPath
       clipPathUnits="userSpaceOnUse"
       id="clipPath170"><path
         d="m 144.638,338.595 h 62.491 v -22.053 h -62.491 z"
         id="path168"
         inkscape:connector-curvature="0" /></clipPath><clipPath
       clipPathUnits="userSpaceOnUse"
       id="clipPath198"><path
         d="m 170.314,419.029 h 10.115 v -4.665 h -10.115 z"
         id="path196"
         inkscape:connector-curvature="0" /></clipPath><clipPath
       clipPathUnits="userSpaceOnUse"
       id="clipPath214"><path
         d="m 182.02,425.771 h 4.069 v -2.186 h -4.069 z"
         id="path212"
         inkscape:connector-curvature="0" /></clipPath><clipPath
       clipPathUnits="userSpaceOnUse"
       id="clipPath234"><path
         d="M 176.479,428.657 H 195.4 v -17.172 h -18.921 z"
         id="path232"
         inkscape:connector-curvature="0" /></clipPath><clipPath
       clipPathUnits="userSpaceOnUse"
       id="clipPath266"><path
         d="m 183.538,440.965 h 6.143 v -10.484 h -6.143 z"
         id="path264"
         inkscape:connector-curvature="0" /></clipPath><clipPath
       clipPathUnits="userSpaceOnUse"
       id="clipPath294"><path
         d="m 182.056,464.489 h 7.62 v -7.858 h -7.62 z"
         id="path292"
         inkscape:connector-curvature="0" /></clipPath><clipPath
       clipPathUnits="userSpaceOnUse"
       id="clipPath310"><path
         d="m 184.371,462.048 h 2.988 v -2.976 h -2.988 z"
         id="path308"
         inkscape:connector-curvature="0" /></clipPath><clipPath
       clipPathUnits="userSpaceOnUse"
       id="clipPath326"><path
         d="m 186.61,464.29 h 3.066 v -3.636 h -3.066 z"
         id="path324"
         inkscape:connector-curvature="0" /></clipPath><clipPath
       clipPathUnits="userSpaceOnUse"
       id="clipPath342"><path
         d="m 183.993,459.158 h 3.767 v -2.527 h -3.767 z"
         id="path340"
         inkscape:connector-curvature="0" /></clipPath><clipPath
       clipPathUnits="userSpaceOnUse"
       id="clipPath358"><path
         d="m 182.056,464.093 h 3.058 v -3.767 h -3.058 z"
         id="path356"
         inkscape:connector-curvature="0" /></clipPath><clipPath
       clipPathUnits="userSpaceOnUse"
       id="clipPath386"><path
         d="m 142.801,383.394 h 4.669 v -10.313 h -4.669 z"
         id="path384"
         inkscape:connector-curvature="0" /></clipPath><clipPath
       clipPathUnits="userSpaceOnUse"
       id="clipPath402"><path
         d="m 111.627,357.022 h 12.07 v -3.329 h -12.07 z"
         id="path400"
         inkscape:connector-curvature="0" /></clipPath><clipPath
       clipPathUnits="userSpaceOnUse"
       id="clipPath430"><path
         d="M 0,500 H 500 V 0 H 0 Z"
         id="path428"
         inkscape:connector-curvature="0" /></clipPath><clipPath
       clipPathUnits="userSpaceOnUse"
       id="clipPath462"><path
         d="m 90.9032,161.005 h 0.0632 v -0.026 h -0.0632 z"
         id="path460"
         inkscape:connector-curvature="0" /></clipPath><clipPath
       clipPathUnits="userSpaceOnUse"
       id="clipPath478"><path
         d="m 90.2031,160.664 h 0.2131 v -0.195 h -0.2131 z"
         id="path476"
         inkscape:connector-curvature="0" /></clipPath><clipPath
       clipPathUnits="userSpaceOnUse"
       id="clipPath498"><path
         d="m 112.712,117.068 h 23.464 V 104.17 h -23.464 z"
         id="path496"
         inkscape:connector-curvature="0" /></clipPath><clipPath
       clipPathUnits="userSpaceOnUse"
       id="clipPath530"><path
         d="m 114.124,119.824 h 23.421 v -7.276 h -23.421 z"
         id="path528"
         inkscape:connector-curvature="0" /></clipPath><clipPath
       clipPathUnits="userSpaceOnUse"
       id="clipPath550"><path
         d="m 115.992,139.045 h 41.819 v -15.401 h -41.819 z"
         id="path548"
         inkscape:connector-curvature="0" /></clipPath><clipPath
       clipPathUnits="userSpaceOnUse"
       id="clipPath566"><path
         d="m 103.903,141.998 h 74.388 v -27.774 h -74.388 z"
         id="path564"
         inkscape:connector-curvature="0" /></clipPath><clipPath
       clipPathUnits="userSpaceOnUse"
       id="clipPath594"><path
         d="m 122.782,157.398 h 3.326 v -4.275 h -3.326 z"
         id="path592"
         inkscape:connector-curvature="0" /></clipPath><clipPath
       clipPathUnits="userSpaceOnUse"
       id="clipPath614"><path
         d="m 122.995,159.532 h 4.211 v -4.212 h -4.211 z"
         id="path612"
         inkscape:connector-curvature="0" /></clipPath><clipPath
       clipPathUnits="userSpaceOnUse"
       id="clipPath630"><path
         d="m 121.597,159.617 h 5.695 v -5.694 h -5.695 z"
         id="path628"
         inkscape:connector-curvature="0" /></clipPath><clipPath
       clipPathUnits="userSpaceOnUse"
       id="clipPath654"><path
         d="m 126.668,150.805 h 8.756 v -11.363 h -8.756 z"
         id="path652"
         inkscape:connector-curvature="0" /></clipPath><clipPath
       clipPathUnits="userSpaceOnUse"
       id="clipPath670"><path
         d="m 127.383,152.969 h 10.876 v -8.711 h -10.876 z"
         id="path668"
         inkscape:connector-curvature="0" /></clipPath><clipPath
       clipPathUnits="userSpaceOnUse"
       id="clipPath686"><path
         d="m 120.924,150.422 h 7.041 v -12.641 h -7.041 z"
         id="path684"
         inkscape:connector-curvature="0" /></clipPath><clipPath
       clipPathUnits="userSpaceOnUse"
       id="clipPath702"><path
         d="m 113.464,150.805 h 8.756 v -11.363 h -8.756 z"
         id="path700"
         inkscape:connector-curvature="0" /></clipPath><clipPath
       clipPathUnits="userSpaceOnUse"
       id="clipPath718"><path
         d="m 110.629,152.969 h 10.876 v -8.711 h -10.876 z"
         id="path716"
         inkscape:connector-curvature="0" /></clipPath><clipPath
       clipPathUnits="userSpaceOnUse"
       id="clipPath734"><path
         d="M 0,500 H 500 V 0 H 0 Z"
         id="path732"
         inkscape:connector-curvature="0" /></clipPath><clipPath
       clipPathUnits="userSpaceOnUse"
       id="clipPath810"><path
         d="M 0,500 H 500 V 0 H 0 Z"
         id="path808"
         inkscape:connector-curvature="0" /></clipPath><clipPath
       clipPathUnits="userSpaceOnUse"
       id="clipPath822"><path
         d="m 329.044,378.695 h 7.417 v -15.696 h -7.417 z"
         id="path820"
         inkscape:connector-curvature="0" /></clipPath><clipPath
       clipPathUnits="userSpaceOnUse"
       id="clipPath842"><path
         d="m 317.227,390.143 h 7.506 v -27.152 h -7.506 z"
         id="path840"
         inkscape:connector-curvature="0" /></clipPath><clipPath
       clipPathUnits="userSpaceOnUse"
       id="clipPath858"><path
         d="m 317.837,414.619 h 48.095 v -27.825 h -48.095 z"
         id="path856"
         inkscape:connector-curvature="0" /></clipPath></defs><sodipodi:namedview
     pagecolor="#ffffff"
     bordercolor="#666666"
     borderopacity="1"
     objecttolerance="10"
     gridtolerance="10"
     guidetolerance="10"
     inkscape:pageopacity="0"
     inkscape:pageshadow="2"
     inkscape:window-width="1366"
     inkscape:window-height="740"
     id="namedview4"
     showgrid="false"
     inkscape:zoom="0.70710678"
     inkscape:cx="182.8691"
     inkscape:cy="348.20597"
     inkscape:window-x="0"
     inkscape:window-y="0"
     inkscape:window-maximized="1"
     inkscape:current-layer="g42" /><g
     id="g10"
     inkscape:groupmode="layer"
     inkscape:label="3162684"
     transform="matrix(1.3333333,0,0,-1.3333333,0,666.66667)"><g
       id="g12"><g
         id="g14"
         clip-path="url(#clipPath18)"><g
           id="g20"
           transform="translate(411.3027,240.4536)"><path
             d="m 0,0 c 89.344,-51.583 89.344,-135.215 -0.001,-186.798 -89.344,-51.582 -234.199,-51.583 -323.543,0 -89.344,51.582 -89.343,135.215 10e-4,186.798 C -234.199,51.583 -89.344,51.583 0,0"
             style="fill:#f5f5f5;fill-opacity:1;fill-rule:nonzero;stroke:none"
             id="path22"
             inkscape:connector-curvature="0" /></g></g></g><g
       id="g24"><g
         id="g26"
         clip-path="url(#clipPath30)"><g
           id="g32"
           transform="translate(377.1123,105.1206)"><path
             d="m 0,0 c 24.224,-13.986 24.224,-36.661 0,-50.647 -24.225,-13.985 -63.499,-13.985 -87.723,0 -24.223,13.986 -24.223,36.661 0,50.647 C -63.498,13.985 -24.224,13.985 0,0"
             style="fill:#e6e6e6;fill-opacity:1;fill-rule:nonzero;stroke:none"
             id="path34"
             inkscape:connector-curvature="0" /></g><g
           id="g36"
           transform="translate(196.1748,128.2524)"><path
             d="m 0,0 c 23.749,-13.711 23.749,-35.941 0,-49.653 -23.749,-13.711 -62.253,-13.711 -86.001,0 -23.749,13.711 -23.749,35.942 0,49.653 C -62.252,13.711 -23.749,13.711 0,0"
             style="fill:#e6e6e6;fill-opacity:1;fill-rule:nonzero;stroke:none"
             id="path38"
             inkscape:connector-curvature="0" /></g></g></g><g
       id="g40"><g
         id="g42"
         clip-path="url(#clipPath46)"><g
           id="g48"
           transform="translate(188.6465,408.4595)"><path
             d="m 0,0 c 0,0 10.028,3.368 16.64,0.691 5.441,-2.203 9.081,-5.441 11.466,-10.116 8.568,-7.913 25.305,-23.965 30.179,-31.585 1.268,-1.985 2.619,-3.254 2.494,-5.217 -0.095,-1.491 -0.812,-2.478 -2.301,-4.359 l -17.642,2.184 c -5.796,4.683 -18.368,13.716 -25.988,21.74 l -0.541,-4.479 C 8.458,-28.822 3.228,-22.917 1.725,-15.747 -1.176,-1.907 0,0 0,0"
             style="fill:#66aafc;fill-opacity:0.99494952;fill-rule:nonzero;stroke:none"
             id="path50"
             inkscape:connector-curvature="0" /></g><g
           id="g52"><g
             id="g54" /><g
             id="g66"><g
               clip-path="url(#clipPath58)"
               id="g64"
               style="opacity:0.14999402"><g
                 transform="translate(227.9082,361.3081)"
                 id="g62"><path
                   d="m 0,0 c 1.972,2.34 7.012,4.223 9.667,3.882 0,0 -4.751,2.189 -11.861,-2.175 z"
                   style="fill:#000000;fill-opacity:1;fill-rule:nonzero;stroke:none"
                   id="path60"
                   inkscape:connector-curvature="0" /></g></g></g></g><g
           id="g68"
           transform="translate(201.3989,252.6606)"><path
             d="m 0,0 c -38.257,0.651 -53.604,-46.84 -75.019,-32.033 -19.839,13.719 2.746,37.266 35.96,53.477 31.045,15.152 39.822,40.41 42.099,53.568 2.51,14.5 3.099,36.158 -1.289,62.263 -1.606,9.555 -9.924,18 -22.069,19.362 l -16.327,0.372 c 0,0 -4.22,-0.677 -11.517,-2.167 -7.297,-1.489 -11.091,-4.899 -11.766,-10.703 -0.453,-3.891 -0.308,-6.118 0.593,-9.887 l 1.91,-13.832 c 0,0 5.541,-15.531 5.978,-21.476 C -51,92.865 -51.46,84.555 -55.146,75.802 -61.393,60.969 -85.761,46.409 -108.1,19.708 c -20.859,-24.931 -15.659,-66.692 12.931,-78.307 24.391,-9.909 49.804,-4.263 68.598,15.67 25.771,27.334 49.014,21.089 46.165,8.741 -4.199,-18.195 -31.19,-13.396 -50.168,-28.04 -19.49,-15.039 -14.408,-34.327 -6.067,-41.853 7.85,-7.083 19.038,-5.187 19.038,-5.187 0,0 -20.294,2.883 -18.385,20.465 1.783,16.422 15.995,20.818 48.184,28.423 C 48.584,-51.783 46.985,-0.799 0,0"
             style="fill:#66aafc;fill-opacity:0.969697;fill-rule:nonzero;stroke:none"
             id="path70"
             inkscape:connector-curvature="0" /></g><g
           id="g72"><g
             id="g74" /><g
             id="g86"><g
               clip-path="url(#clipPath78)"
               id="g84"
               style="opacity:0.10000598"><g
                 transform="translate(186.145,339.6401)"
                 id="g82"><path
                   d="M 0,0 C -0.062,-0.313 -0.154,-0.625 -0.335,-0.887 -0.544,-1.19 -0.859,-1.406 -1.188,-1.571 -2.939,-2.444 -5.077,-1.985 -6.935,-2.6 c -1.505,-0.499 1.029,-1.065 1.456,-1.115 0.996,-0.118 2.006,-0.068 3.004,-0.019 0.434,0.021 0.869,0.042 1.298,0.11 1.035,0.166 1.959,0.875 2.952,1.028 0.858,0.131 1.884,-0.395 2.687,-0.628 1.832,-0.53 5.573,-0.898 6.755,1.079 0.096,0.16 0.169,0.351 0.116,0.53 -0.067,0.226 -0.32,0.353 -0.557,0.359 C 10.54,-1.251 10.313,-1.338 10.087,-1.407 8.232,-1.976 4.26,-2.312 4.276,0.527 4.284,1.914 4.225,3.324 4.49,4.678 4.563,5.049 4.98,5.232 5.348,5.318 6.639,5.622 7.996,5.484 9.301,5.721 9.559,5.768 9.82,5.832 10.034,5.982 10.248,6.133 10.406,6.389 10.373,6.648 10.366,6.705 10.348,6.764 10.304,6.8 10.252,6.841 10.179,6.84 10.113,6.837 8.885,6.782 7.654,6.788 6.426,6.854 5.841,6.885 5.243,6.933 4.711,7.176 3.775,7.604 3.315,8.723 3.151,9.671 c -0.204,1.183 -0.493,3.18 0.539,4.098 0.435,0.387 1.066,0.433 1.647,0.458 1.065,0.046 2.147,0.091 3.161,0.422 0.206,0.067 0.413,0.15 0.568,0.301 0.154,0.151 0.245,0.386 0.17,0.589 C 7.864,15.536 6.487,15.534 5.129,15.727 4.79,15.775 4.444,15.838 4.144,16.005 3.252,16.5 2.949,18.351 2.819,19.29 2.636,20.611 2.807,22.006 2.414,23.295 2.332,23.564 2.172,23.875 1.891,23.883 1.526,23.894 1.387,23.417 1.363,23.052 1.286,21.881 1.209,20.711 1.132,19.54 1.085,18.832 1.037,18.114 0.815,17.439 0.065,15.156 -2.238,15.421 -4.193,15.137 -4.884,15.036 -5.725,14.305 -5.224,13.82 c 0.172,-0.166 0.433,-0.189 0.672,-0.202 1.265,-0.072 2.53,-0.144 3.795,-0.215 0.253,-0.015 0.528,-0.037 0.716,-0.207 C 0.12,13.052 0.183,12.831 0.235,12.621 0.497,11.575 0.666,10.506 0.739,9.43 0.83,8.095 -0.122,7.068 -1.384,6.65 -2.163,6.392 -2.998,6.371 -3.818,6.353 L -5.75,6.309 C -6.049,6.302 -6.43,6.231 -6.491,5.938 -6.53,5.75 -6.396,5.56 -6.225,5.47 -6.054,5.38 -5.855,5.368 -5.663,5.355 -4.214,5.258 -2.348,5.28 -1.131,4.341 0.041,3.438 0.267,1.372 0,0"
                   style="fill:#000000;fill-opacity:1;fill-rule:nonzero;stroke:none"
                   id="path80"
                   inkscape:connector-curvature="0" /></g></g></g></g><g
           id="g88"><g
             id="g90" /><g
             id="g102"><g
               clip-path="url(#clipPath94)"
               id="g100"
               style="opacity:0.10000598"><g
                 transform="translate(165.874,366.5503)"
                 id="g98"><path
                   d="m 0,0 c -0.008,-0.058 -0.001,-0.12 0.021,-0.184 0.048,-0.132 0.162,-0.229 0.272,-0.316 2.276,-1.782 5.576,-1.838 8.38,-1.839 3.322,-0.002 6.64,0.661 9.697,1.966 0.876,0.374 1.737,0.802 2.661,1.037 2.266,0.575 3.938,-0.41 6.05,-0.947 3.167,-0.805 6.528,-0.835 9.708,-0.084 1.741,0.411 3.76,1.524 3.638,3.308 0.037,-0.545 -11.203,-0.624 -12.012,-0.577 -1.08,0.063 -2.212,0.173 -3.106,0.781 -0.87,0.591 -1.394,1.582 -1.679,2.595 -0.285,1.012 -0.363,2.07 -0.541,3.106 -0.105,0.61 -2.171,7.522 -3.136,6.323 -0.106,-0.134 -0.108,-0.32 -0.104,-0.49 0.057,-2.433 1.374,-6.983 0.669,-9.776 C 19.811,2.098 15.93,1.21 13.479,0.825 10.243,0.315 6.945,0.202 3.682,0.488 2.749,0.569 1.81,0.684 0.879,0.583 0.505,0.543 0.042,0.321 0,0"
                   style="fill:#000000;fill-opacity:1;fill-rule:nonzero;stroke:none"
                   id="path96"
                   inkscape:connector-curvature="0" /></g></g></g></g><g
           id="g104"
           transform="translate(160.1943,408.8906)"><path
             d="m 0,0 c 0.31,-1.038 0.906,-5.912 3.988,-9.34 4.358,-4.846 7.17,-5.804 10.646,-7.365 2.037,-0.915 5.601,-30.34 3.776,-48.865 0,0 -16.782,-3.356 -29.973,0.513 0,0 -0.923,11.254 -1.934,17.939 -0.732,4.844 -7.591,27.741 -7.391,34.6 0.171,5.844 2.378,9.134 9.144,10.541 C -4.931,-0.561 0,0 0,0"
             style="fill:#455a64;fill-opacity:1;fill-rule:nonzero;stroke:none"
             id="path106"
             inkscape:connector-curvature="0" /></g><g
           id="g108"
           transform="translate(173.2305,389.5083)"><path
             d="m 0,0 c -0.021,0.191 -0.151,0.354 -0.334,0.417 -1.995,0.689 -6.895,3.303 -9.725,6.496 -2.741,3.095 -4.791,5.865 -5.632,12.111 -0.305,-0.045 -0.638,-0.095 -0.987,-0.149 0.888,-6.512 3.103,-9.5 5.871,-12.625 2.82,-3.182 7.61,-5.813 9.848,-6.669 0.124,-1.084 0.252,-2.183 0.384,-3.3 1.221,-10.416 2.602,-22.21 1.778,-38.622 -2.197,-0.4 -13.69,-2.214 -26.16,0.719 0.034,-0.369 0.066,-0.719 0.096,-1.05 5.278,-1.207 10.374,-1.594 14.669,-1.594 7.013,0 11.898,1.001 11.978,1.018 0.222,0.047 0.384,0.237 0.396,0.464 C 3.053,-26.083 1.652,-14.14 0.418,-3.603 0.274,-2.381 0.134,-1.182 0,0"
             style="fill:#fafafa;fill-opacity:1;fill-rule:nonzero;stroke:none"
             id="path110"
             inkscape:connector-curvature="0" /></g><g
           id="g112"><g
             id="g114" /><g
             id="g126"><g
               clip-path="url(#clipPath118)"
               id="g124"
               style="opacity:0.14999402"><g
                 transform="translate(162.1323,227.6016)"
                 id="g122"><path
                   d="M 0,0 C 8.947,12.475 20.637,21.357 20.637,21.357 -4.72,10.602 -18.199,-19.111 -35.752,-6.974 -53.303,5.162 -37.65,24.989 -10.811,40.625 -24.259,34.298 -49.851,20.69 -56.546,4.845 c -4.457,-10.55 2.694,-25.539 19.38,-26.676 C -20.504,-22.966 -8.947,-12.475 0,0"
                   style="fill:#000000;fill-opacity:1;fill-rule:nonzero;stroke:none"
                   id="path120"
                   inkscape:connector-curvature="0" /></g></g></g></g><g
           id="g128"><g
             id="g130" /><g
             id="g142"><g
               clip-path="url(#clipPath134)"
               id="g140"
               style="opacity:0.14999402"><g
                 transform="translate(212.5283,228.7632)"
                 id="g138"><path
                   d="m 0,0 -0.013,-0.011 c 6.259,-0.999 9.674,-5.095 8.477,-10.28 -4.198,-18.194 -31.19,-13.396 -50.167,-28.04 -10.682,-8.241 -13.973,-17.756 -13.403,-25.915 3.246,19.654 23.046,27.696 39.983,30.915 16.942,3.221 27.582,9.801 29.543,19.742 C 16.38,-3.648 7.279,-0.848 0,0"
                   style="fill:#000000;fill-opacity:1;fill-rule:nonzero;stroke:none"
                   id="path136"
                   inkscape:connector-curvature="0" /></g></g></g></g><g
           id="g144"><g
             id="g146" /><g
             id="g158"><g
               clip-path="url(#clipPath150)"
               id="g156"
               style="opacity:0.14999402"><g
                 transform="translate(205.4766,335.1919)"
                 id="g154"><path
                   d="M 0,0 C -0.062,0.008 -0.12,0.019 -0.187,0.02 L -0.4,-2.264 c 0,0 -7.163,-8.448 -28.216,-7.683 -24.098,0.877 -28.483,8.317 -28.483,8.317 0.126,0.57 0.254,1.179 0.394,1.939 -0.059,0.02 -0.113,0.029 -0.169,0.042 -0.574,-2.302 -1.336,-4.673 -2.35,-7.08 -0.236,-0.563 -0.506,-1.125 -0.795,-1.687 h -0.001 c -0.172,-0.337 -0.356,-0.675 -0.547,-1.014 -0.014,-0.025 -0.027,-0.05 -0.041,-0.075 -0.185,-0.326 -0.38,-0.653 -0.581,-0.979 -0.018,-0.029 -0.034,-0.057 -0.052,-0.086 -1.326,-2.14 -2.992,-4.297 -4.936,-6.507 0.001,-0.002 0.002,-0.004 0.003,-0.005 3.739,-2.877 10.076,-6.415 16.118,-6.596 3.91,-0.117 7.348,1.428 9.31,3.322 3.427,-0.644 7.327,-1.103 11.738,-1.256 7.348,-0.255 12.941,0.654 17.082,1.847 1.304,-1.128 3.388,-2.281 6.539,-2.54 0.939,2.251 1.702,4.414 2.335,6.466 0.002,0.002 0.006,0.004 0.009,0.006 0.044,0.143 0.079,0.277 0.121,0.419 0.141,0.467 0.274,0.926 0.401,1.379 0.06,0.216 0.123,0.434 0.18,0.646 0.171,0.635 0.33,1.257 0.474,1.862 0.047,0.197 0.087,0.384 0.131,0.578 0.096,0.415 0.188,0.825 0.271,1.224 0.056,0.266 0.108,0.524 0.158,0.783 0.027,0.133 0.057,0.274 0.082,0.405 -10e-4,-10e-4 -0.004,-0.003 -0.006,-0.004 0.065,0.341 0.137,0.694 0.193,1.021 C -0.636,-5.199 -0.291,-2.676 0,0"
                   style="fill:#000000;fill-opacity:1;fill-rule:nonzero;stroke:none"
                   id="path152"
                   inkscape:connector-curvature="0" /></g></g></g></g><g
           id="g160"
           transform="translate(149.2471,338.5063)"><path
             d="m 0,0 c -1.609,0.532 -1.792,-1.357 -3.121,-5.47 -1.243,-3.849 -2.103,-5.631 -0.934,-6.759 1.698,-1.637 11.224,-8.981 31.752,-9.692 17.035,-0.59 24.746,5.057 26.417,6.062 1.914,1.151 2.869,2.486 3.473,9.635 0.292,3.464 0.813,5.899 -1.07,5.935 l -0.091,-1.405 c 0,0 -7.284,-9.327 -28.337,-8.561 C 3.991,-9.379 -0.394,-1.938 -0.394,-1.938 -0.268,-1.369 -0.14,-0.759 0,0"
             style="fill:#000000;fill-opacity:0.84126985;fill-rule:nonzero;stroke:none"
             id="path162"
             inkscape:connector-curvature="0" /></g><g
           id="g180"
           transform="translate(199.1362,450.1514)"><path
             d="m 0,0 c 0,-15.636 -12.675,-28.311 -28.311,-28.311 -15.636,0 -28.312,12.675 -28.312,28.311 0,15.636 12.676,28.312 28.312,28.312 C -12.675,28.312 0,15.636 0,0"
             style="fill:#263238;fill-opacity:1;fill-rule:nonzero;stroke:none"
             id="path182"
             inkscape:connector-curvature="0" /></g><g
           id="g184"
           transform="translate(198.1846,461.2954)"><path
             d="M 0,0 C 0,0 -2.483,13.142 -20.333,12.646 -37.625,12.164 -45.829,0 -47.729,-7.359 c -1.521,-5.889 -2.898,-20.824 8.068,-23.211 z"
             style="fill:#37474f;fill-opacity:1;fill-rule:nonzero;stroke:none"
             id="path186"
             inkscape:connector-curvature="0" /></g><g
           id="g188"
           transform="translate(163.2334,436.0581)"><path
             d="m 0,0 c -0.872,-1.272 -2.286,1.538 -3.425,2.779 -1.139,1.242 -5.028,2.305 -6.883,-1.766 -1.89,-4.15 1.306,-8.096 3.965,-9.417 4.753,-2.363 6.262,1.073 6.262,1.073 l 0.386,-19.768 c 6.698,-10.361 23.112,-12.606 17.542,-0.38 v 7.297 c 0,0 3.432,-0.558 5.662,-0.199 3.711,0.598 7.329,3.724 8.648,7.85 2.002,6.265 2.756,13.021 1.383,25.458 C 31.939,27.421 13.7,27.571 5.049,21.719 -2.616,16.534 0,0 0,0"
             style="fill:#66aafc;fill-opacity:0.98989898;fill-rule:nonzero;stroke:none"
             id="path190"
             inkscape:connector-curvature="0" /></g><g
           id="g192"><g
             id="g194" /><g
             id="g206"><g
               clip-path="url(#clipPath198)"
               id="g204"
               style="opacity:0.30000299"><g
                 transform="translate(180.4292,415.9692)"
                 id="g202"><path
                   d="m 0,0 c 0,0 -5.829,1.122 -10.116,3.059 0,0 1.72,-2.231 4.97,-3.288 C -1.895,-1.286 0,-1.605 0,-1.605 Z"
                   style="fill:#000000;fill-opacity:1;fill-rule:nonzero;stroke:none"
                   id="path200"
                   inkscape:connector-curvature="0" /></g></g></g></g><g
           id="g208"><g
             id="g210" /><g
             id="g222"><g
               clip-path="url(#clipPath214)"
               id="g220"
               style="opacity:0.30000299"><g
                 transform="translate(182.02,425.7715)"
                 id="g218"><path
                   d="M 0,0 4.067,-0.086 C 4.105,-1.277 3.045,-2.209 1.922,-2.186 0.798,-2.162 0.037,-1.191 0,0"
                   style="fill:#000000;fill-opacity:1;fill-rule:nonzero;stroke:none"
                   id="path216"
                   inkscape:connector-curvature="0" /></g></g></g></g><g
           id="g224"
           transform="translate(189.9761,420.415)"
           style="fill:#000000;fill-opacity:0.74747473"><path
             d="m 0,0 c -0.411,-1.52 -2.527,-1.759 -3.402,-1.278 -0.41,0.225 -0.666,2.235 0.013,2.555 0.681,0.32 0.321,0.84 -1.52,0.694 -1.84,-0.146 -1.84,-0.654 -1.12,-0.814 0.72,-0.16 0.949,-2.04 0.107,-2.4 -0.843,-0.36 -2.678,-0.594 -3.625,0.117 -1.33,0.998 -1.591,4.708 -0.437,6.201 1.317,1.705 3.707,1.739 5.263,1.663 1.705,-0.083 3.408,-0.13 4.579,-1.517 C 0.936,3.944 0.398,1.472 0,0 M 1.883,2.229 C 1.869,2.726 1.827,3.22 1.742,3.711 1.474,5.26 0.618,7.021 -0.889,7.704 c -1.393,0.631 -3.317,0.567 -4.808,0.49 -2.977,-0.152 -5.171,-0.841 -6.316,-2.63 -1.738,-2.718 -2.068,-6.488 -0.351,-9.588 2.225,-4.018 6.437,-4.813 10.504,-4.905 1.472,-0.033 3.737,0.434 5.089,1.019 1.365,0.59 2.471,2.039 2.133,3.585 -0.04,0.185 -0.177,0.41 -0.357,0.351 C 5.109,-4.313 4.996,-4.7 4.751,-4.957 3.983,-5.761 2.661,-5.083 2.189,-4.278 1.752,-3.533 1.712,-2.625 1.735,-1.761 1.77,-0.432 1.922,0.905 1.883,2.229"
             style="fill:#000000;fill-opacity:0.74747473;fill-rule:nonzero;stroke:none"
             id="path226"
             inkscape:connector-curvature="0" /></g><g
           id="g244"
           transform="translate(176.3652,444.8472)"><path
             d="M 0,0 -3.551,-2.042 C -4.075,-0.979 -3.704,0.34 -2.724,0.903 -1.743,1.467 -0.523,1.062 0,0"
             style="fill:#263238;fill-opacity:1;fill-rule:nonzero;stroke:none"
             id="path246"
             inkscape:connector-curvature="0" /></g><g
           id="g248"
           transform="translate(194.2349,442.667)"><path
             d="m 0,0 -3.238,2.598 c 0.66,0.965 1.921,1.166 2.815,0.449 C 0.471,2.33 0.661,0.965 0,0"
             style="fill:#263238;fill-opacity:1;fill-rule:nonzero;stroke:none"
             id="path250"
             inkscape:connector-curvature="0" /></g><g
           id="g252"
           transform="translate(192.6567,438.3696)"><path
             d="m 0,0 c 0,-0.992 -0.744,-1.794 -1.661,-1.791 -0.916,0.002 -1.659,0.809 -1.659,1.801 0,0.991 0.743,1.794 1.659,1.791 C -0.744,1.798 0,0.992 0,0"
             style="fill:#263238;fill-opacity:1;fill-rule:nonzero;stroke:none"
             id="path254"
             inkscape:connector-curvature="0" /></g><g
           id="g256"
           transform="translate(178.604,437.8491)"><path
             d="m 0,0 c 0,-0.992 -0.743,-1.794 -1.66,-1.791 -0.917,0.002 -1.66,0.809 -1.66,1.801 0,0.992 0.743,1.794 1.66,1.791 C -0.743,1.798 0,0.992 0,0"
             style="fill:#263238;fill-opacity:1;fill-rule:nonzero;stroke:none"
             id="path258"
             inkscape:connector-curvature="0" /></g><g
           id="g260"><g
             id="g262" /><g
             id="g274"><g
               clip-path="url(#clipPath266)"
               id="g272"
               style="opacity:0.30000299"><g
                 transform="translate(183.5386,440.9653)"
                 id="g270"><path
                   d="m 0,0 0.192,-10.484 5.951,1.365 z"
                   style="fill:#000000;fill-opacity:1;fill-rule:nonzero;stroke:none"
                   id="path268"
                   inkscape:connector-curvature="0" /></g></g></g></g><g
           id="g276"
           transform="translate(159.8086,438.8374)"><path
             d="m 0,0 c 0,0 6.644,13.786 19.555,15.584 12.911,1.797 17.531,-3.789 17.665,-8.143 0,0 3.366,1.985 4.151,6.205 C 42.535,19.9 38.344,30.831 19.555,29.379 5.839,28.319 -2.043,19.996 -4.732,11.988 -5.953,8.354 -5.709,2.395 -4.82,0.629 -3.367,1.504 -0.922,1.072 0,0"
             style="fill:#455a64;fill-opacity:1;fill-rule:nonzero;stroke:none"
             id="path278"
             inkscape:connector-curvature="0" /></g><g
           id="g280"
           transform="translate(189.6758,460.5913)"><path
             d="M 0,0 C 0,-0.275 -0.063,-0.551 -0.191,-0.805 L -1.6,-3.612 C -1.727,-3.877 -1.928,-4.1 -2.172,-4.269 -2.405,-4.428 -2.691,-4.534 -2.987,-4.566 l -0.032,-0.01 -1.822,-0.106 -0.636,-0.032 c -0.349,-0.021 -0.678,0.064 -0.963,0.222 -0.266,0.159 -0.498,0.371 -0.658,0.647 0,0.01 -0.01,0.032 -0.021,0.042 l -1.313,2.468 c -0.138,0.244 -0.201,0.53 -0.201,0.805 -0.011,0.212 0.031,0.413 0.095,0.614 l 1.504,2.999 c 0.138,0.275 0.328,0.497 0.572,0.656 0.244,0.17 0.541,0.276 0.848,0.307 h 0.031 l 0.721,0.043 1.695,0.095 c 0.349,0.021 0.678,-0.063 0.974,-0.222 0.276,-0.159 0.508,-0.403 0.668,-0.689 L -0.202,0.805 C -0.063,0.551 0,0.275 0,0"
             style="fill:#37474f;fill-opacity:1;fill-rule:nonzero;stroke:none"
             id="path282"
             inkscape:connector-curvature="0" /></g><g
           id="g284"
           transform="translate(189.6758,460.7935)"><path
             d="M 0,0 C 0,-0.243 -0.056,-0.486 -0.168,-0.71 L -1.412,-3.187 C -1.523,-3.421 -1.701,-3.617 -1.917,-3.767 -2.122,-3.907 -2.375,-4 -2.636,-4.028 l -0.028,-0.01 -1.607,-0.093 -0.562,-0.028 c -0.308,-0.019 -0.598,0.056 -0.85,0.196 -0.234,0.14 -0.44,0.327 -0.58,0.57 0,0.01 -0.009,0.028 -0.018,0.038 l -1.159,2.178 c -0.122,0.215 -0.178,0.467 -0.178,0.71 -0.009,0.187 0.028,0.364 0.084,0.542 l 1.327,2.645 c 0.122,0.243 0.29,0.44 0.505,0.58 0.215,0.149 0.477,0.243 0.748,0.271 h 0.028 l 0.635,0.037 1.496,0.084 c 0.309,0.019 0.598,-0.056 0.86,-0.196 0.243,-0.14 0.449,-0.355 0.589,-0.607 L -0.178,0.71 C -0.056,0.486 0,0.243 0,0"
             style="fill:#27debf;fill-opacity:1;fill-rule:nonzero;stroke:none"
             id="path286"
             inkscape:connector-curvature="0" /></g><g
           id="g288"><g
             id="g290" /><g
             id="g302"><g
               clip-path="url(#clipPath294)"
               id="g300"
               style="opacity:0.69999701"><g
                 transform="translate(189.6758,460.7935)"
                 id="g298"><path
                   d="M 0,0 C 0,-0.243 -0.056,-0.486 -0.168,-0.71 L -1.412,-3.187 C -1.523,-3.421 -1.701,-3.617 -1.917,-3.767 -2.122,-3.907 -2.375,-4 -2.636,-4.028 l -0.028,-0.01 -1.607,-0.093 -0.562,-0.028 c -0.308,-0.019 -0.598,0.056 -0.85,0.196 -0.234,0.14 -0.44,0.327 -0.58,0.57 0,0.01 -0.009,0.028 -0.018,0.038 l -1.159,2.178 c -0.122,0.215 -0.178,0.467 -0.178,0.71 -0.009,0.187 0.028,0.364 0.084,0.542 l 1.327,2.645 c 0.122,0.243 0.29,0.44 0.505,0.58 0.215,0.149 0.477,0.243 0.748,0.271 h 0.028 l 0.635,0.037 1.496,0.084 c 0.309,0.019 0.598,-0.056 0.86,-0.196 0.243,-0.14 0.449,-0.355 0.589,-0.607 L -0.178,0.71 C -0.056,0.486 0,0.243 0,0"
                   style="fill:#ffffff;fill-opacity:1;fill-rule:nonzero;stroke:none"
                   id="path296"
                   inkscape:connector-curvature="0" /></g></g></g></g><g
           id="g304"><g
             id="g306" /><g
             id="g318"><g
               clip-path="url(#clipPath310)"
               id="g316"
               style="opacity:0.5"><g
                 transform="translate(186.6118,462.0479)"
                 id="g314"><path
                   d="M 0,0 -1.494,-0.089 -2.241,-1.577 -1.494,-2.976 0,-2.886 0.747,-1.398 Z"
                   style="fill:#27debf;fill-opacity:1;fill-rule:nonzero;stroke:none"
                   id="path312"
                   inkscape:connector-curvature="0" /></g></g></g></g><g
           id="g320"><g
             id="g322" /><g
             id="g334"><g
               clip-path="url(#clipPath326)"
               id="g332"
               style="opacity:0.5"><g
                 transform="translate(189.6758,460.7935)"
                 id="g330"><path
                   d="m 0,0 -2.318,-0.14 -0.748,1.393 1.131,2.243 c 0.243,-0.14 0.449,-0.355 0.589,-0.607 L -0.178,0.71 C -0.056,0.486 0,0.243 0,0"
                   style="fill:#ffffff;fill-opacity:1;fill-rule:nonzero;stroke:none"
                   id="path328"
                   inkscape:connector-curvature="0" /></g></g></g></g><g
           id="g336"><g
             id="g338" /><g
             id="g350"><g
               clip-path="url(#clipPath342)"
               id="g348"
               style="opacity:0.5"><g
                 transform="translate(187.7593,457.0269)"
                 id="g346"><path
                   d="m 0,0 c -0.206,-0.14 -0.458,-0.234 -0.719,-0.262 l -0.029,-0.009 -1.607,-0.094 -0.561,-0.028 c -0.309,-0.018 -0.598,0.057 -0.851,0.197 l 1.122,2.243 1.496,0.084 z"
                   style="fill:#ffffff;fill-opacity:1;fill-rule:nonzero;stroke:none"
                   id="path344"
                   inkscape:connector-curvature="0" /></g></g></g></g><g
           id="g352"><g
             id="g354" /><g
             id="g366"><g
               clip-path="url(#clipPath358)"
               id="g364"
               style="opacity:0.5"><g
                 transform="translate(185.1143,461.9619)"
                 id="g362"><path
                   d="m 0,0 -0.748,-1.495 -2.309,-0.141 c -0.009,0.187 0.029,0.365 0.085,0.543 l 1.327,2.645 c 0.122,0.243 0.29,0.439 0.505,0.579 z"
                   style="fill:#ffffff;fill-opacity:1;fill-rule:nonzero;stroke:none"
                   id="path360"
                   inkscape:connector-curvature="0" /></g></g></g></g><g
           id="g368"
           transform="translate(248.7148,360.064)"><path
             d="m 0,0 c -1.591,-2.19 -3.808,-8.519 -8.953,-14.455 -3.914,-4.516 -11.831,-12.646 -15.232,-15.744 -4.396,-4.006 -6.374,-5.42 -9.954,-8.349 -2.696,-2.206 -5.29,-5.229 -11.527,-6.195 -3.544,-0.549 -9.579,0.433 -11.372,5.81 -1.029,3.09 1.045,3.47 6.776,5.819 5.874,2.407 7.024,3.256 8.381,5.332 0,0 0.443,3.706 0.227,4.71 -0.187,0.859 -0.613,1.272 -1.297,1.226 l 0.118,1.22 c 0.421,-0.026 1.944,-0.748 2.816,-1.257 2.252,-1.315 4.112,-2.533 8.548,3.789 3.918,5.585 5.378,13.311 11.037,19.779 C -14.773,8.152 0,0 0,0"
             style="fill:#66aafc;fill-opacity:0.98989898;fill-rule:nonzero;stroke:none"
             id="path370"
             inkscape:connector-curvature="0" /></g><g
           id="g372"
           transform="translate(152.3555,407.6724)"><path
             d="m 0,0 c 0,0 -8.619,1.746 -14.783,-1.843 -5.072,-2.954 -7.922,-6.012 -10.344,-13.214 -7.357,-9.051 -21.643,-27.318 -25.383,-35.554 -0.974,-2.144 -2.131,-3.594 -1.728,-5.519 0.306,-1.462 1.156,-2.337 2.898,-3.987 l 17.152,4.669 c 5.072,5.459 16.232,16.187 22.634,25.213 l 1.173,-4.357 c 5.459,3.127 9.798,9.716 10.266,17.026 C 2.789,-3.454 0,0 0,0"
             style="fill:#66aafc;fill-opacity:0.99494952;fill-rule:nonzero;stroke:none"
             id="path374"
             inkscape:connector-curvature="0" /></g><g
           id="g376"
           transform="translate(101.1294,349.4976)"><path
             d="m 0,0 c 1.886,-1.942 4.936,-6.395 10.872,-11.54 4.516,-3.914 14.423,-9.791 18.164,-11.976 5.135,-2.999 7.08,-4.459 11.04,-6.849 2.982,-1.801 9.585,-5.264 15.895,-5.334 3.587,-0.039 8.229,2.263 11.085,7.739 1.461,2.799 -3.07,4.622 -9.179,5.64 -7.621,1.27 -9.09,2.922 -10.965,3.935 -1.261,0.681 -1.84,2.176 -1.407,3.542 l 0.753,2.377 c -0.289,0.207 -1.047,-0.033 -2.749,-1.384 -2.042,-1.622 -3.234,-2.45 -9.054,2.626 -5.412,4.719 -7.46,9.822 -13.981,15.42 C 13.953,9.793 0,0 0,0"
             style="fill:#66aafc;fill-opacity:1;fill-rule:nonzero;stroke:none"
             id="path378"
             inkscape:connector-curvature="0" /></g><g
           id="g380"><g
             id="g382" /><g
             id="g394"><g
               clip-path="url(#clipPath386)"
               id="g392"
               style="opacity:0.14999402"><g
                 transform="translate(142.8013,377.437)"
                 id="g390"><path
                   d="m 0,0 1.173,-4.356 c 0.963,0.552 1.89,1.216 2.768,1.969 C 3.785,-1.262 3.718,0.327 4.179,1.895 5.025,4.772 4.518,5.958 4.518,5.958 2.66,2.783 0,0 0,0"
                   style="fill:#000000;fill-opacity:1;fill-rule:nonzero;stroke:none"
                   id="path388"
                   inkscape:connector-curvature="0" /></g></g></g></g><g
           id="g396"><g
             id="g398" /><g
             id="g410"><g
               clip-path="url(#clipPath402)"
               id="g408"
               style="opacity:0.14999402"><g
                 transform="translate(121.6035,353.6934)"
                 id="g406"><path
                   d="m 0,0 c -3.62,2.097 -7.806,1.697 -9.977,0.954 0,0 4.031,4.358 12.07,1.266 z"
                   style="fill:#000000;fill-opacity:1;fill-rule:nonzero;stroke:none"
                   id="path404"
                   inkscape:connector-curvature="0" /></g></g></g></g><g
           id="g412"
           transform="translate(182.4941,409.1045)"><path
             d="m 0,0 c 2.219,-1.584 7.513,-5.299 8.929,-8.833 0.945,-2.358 0.719,-5.324 -1.028,-6.762 -0.857,-0.705 2.574,-5.804 4.233,-22.698 1.119,-11.383 1.056,-25.495 1.056,-25.495 0,0 7.698,0.682 11.843,3.634 0.08,0.998 5.336,27.95 0.899,41.483 C 22.57,-7.909 13.382,-1.759 8.179,-0.069 8.179,-0.069 3.134,0.182 0,0"
             style="fill:#455a64;fill-opacity:1;fill-rule:nonzero;stroke:none"
             id="path414"
             inkscape:connector-curvature="0" /></g><g
           id="g416"
           transform="translate(208.1475,352.7959)"><path
             d="m 0,0 c -2.919,-1.082 -6.611,-2.079 -8.074,-2.459 0.598,25.604 -4.639,40.401 -5.415,42.445 0.936,1.576 1.464,4.023 1.237,5.822 -0.483,3.84 -3.36,7.513 -8.175,10.535 -0.631,0.015 -1.317,0.027 -2.011,0.03 5.45,-3.016 8.702,-6.783 9.194,-10.69 0.208,-1.65 -0.328,-4.01 -1.22,-5.371 -0.091,-0.139 -0.107,-0.313 -0.044,-0.466 0.062,-0.149 6.169,-15.225 5.417,-42.94 -0.004,-0.156 0.065,-0.305 0.187,-0.404 0.09,-0.072 0.2,-0.11 0.313,-0.11 0.04,0 0.081,0.005 0.12,0.015 0.256,0.063 4.659,1.164 8.291,2.462 C -0.124,-0.78 -0.064,-0.408 0,0"
             style="fill:#fafafa;fill-opacity:1;fill-rule:nonzero;stroke:none"
             id="path418"
             inkscape:connector-curvature="0" /></g><g
           id="g420"
           transform="translate(182.5981,121.5337)"
           style="fill:#66aafc;fill-opacity:0.99494952"><path
             d="m 0,0 c 1.027,4.713 3.766,8.144 13.039,6.577 12.964,-2.192 21.266,-0.065 24.362,6.576 3.609,7.739 -0.696,17.081 -18.43,15.345 -16.152,-1.582 -26.668,-0.653 -30.562,5.867 0,0 0.576,-6.52 12.102,-9.774 14.582,-4.117 23.298,0.478 28.024,-5.499 1.147,-1.45 1.074,-5.939 -3.005,-7.578 C 23.077,10.528 18.666,10.449 13.833,10.961 1.027,12.317 -1.165,3.458 0,0"
             style="fill:#66aafc;fill-opacity:0.99494952;fill-rule:nonzero;stroke:none"
             id="path422"
             inkscape:connector-curvature="0" /></g></g></g><g
       id="g424"><g
         id="g426"
         clip-path="url(#clipPath430)"><g
           id="g432"
           transform="translate(101.0923,128.1602)"><path
             d="m 0,0 c -0.55,-0.039 -1.53,0.173 -1.984,0.375 -2.164,0.961 -3.363,3.097 -3.363,6.083 0,1.263 0.568,2.479 1.409,3.056 1.011,0.694 2.06,0.66 2.824,0.307 1.513,-0.7 2.417,-2.237 2.417,-4.11 0,-1.095 -0.624,-1.992 -1.515,-2.182 -0.715,-0.151 -1.405,0.219 -1.719,0.923 -0.193,0.432 -0.301,0.762 0.433,1.132 0.735,0.372 0.775,0.053 1.016,-0.243 0.038,0.083 0.07,0.203 0.07,0.37 0,1.187 -0.533,2.322 -1.424,2.733 -0.292,0.138 -0.448,0.08 -0.559,0.01 -0.355,-0.227 -0.62,-1.069 -0.62,-1.72 0,-2.299 0.953,-4.151 2.49,-4.834 0.518,-0.23 1.043,-0.199 1.475,0.081 0.678,0.441 1.067,1.441 1.067,2.743 0,3.526 -2.148,6.323 -4.226,9.029 l -0.282,0.369 c -1.136,1.484 -2.104,2.667 -3.129,3.918 -1.042,1.274 -2.12,2.592 -3.404,4.27 -4.227,5.518 -4.396,9.33 -3.257,10.919 1.726,2.405 4.506,3.76 8.661,1.519 C 0.3,32.633 4.572,30.055 6.252,27.97 8.225,25.52 6.693,23.853 5.72,21.626 5.309,20.687 5.786,20.202 6.56,19.408 7.217,18.734 7.375,18.001 7.383,17.999 7.833,17.861 7.123,17.197 6.99,16.746 6.859,16.293 6.393,16.029 5.938,16.16 5.78,16.204 4.373,16.636 3.704,18.049 c -0.496,1.047 -0.431,2.298 0.191,3.719 0.904,2.066 1.082,2.875 -0.273,4.557 -1.473,1.828 -5.134,3.844 -8.758,5.754 -1.739,0.915 -4.798,1.567 -5.761,0.222 -0.696,-0.969 0.646,-3.58 4.281,-8.326 1.267,-1.655 2.273,-2.901 3.307,-4.164 1.033,-1.264 2.052,-2.66 3.205,-4.165 L 0.177,15.279 C 2.325,12.483 4.432,8.91 4.432,4.801 4.432,2.88 3.075,1.319 1.884,0.544 1.361,0.204 0.752,0.053 0,0"
             style="fill:#27debf;fill-opacity:1;fill-rule:nonzero;stroke:none"
             id="path434"
             inkscape:connector-curvature="0" /></g><g
           id="g436"
           transform="translate(101.0923,128.1602)"><path
             d="m 0,0 c -0.55,-0.039 -1.53,0.173 -1.984,0.375 -2.164,0.961 -3.363,3.097 -3.363,6.083 0,1.263 0.568,2.479 1.409,3.056 1.011,0.694 2.06,0.66 2.824,0.307 1.513,-0.7 2.417,-2.237 2.417,-4.11 0,-1.095 -0.624,-1.992 -1.515,-2.182 -0.715,-0.151 -1.405,0.219 -1.719,0.923 -0.193,0.432 -0.301,0.762 0.433,1.132 0.735,0.372 0.775,0.053 1.016,-0.243 0.038,0.083 0.07,0.203 0.07,0.37 0,1.187 -0.533,2.322 -1.424,2.733 -0.292,0.138 -0.448,0.08 -0.559,0.01 -0.355,-0.227 -0.62,-1.069 -0.62,-1.72 0,-2.299 0.953,-4.151 2.49,-4.834 0.518,-0.23 1.043,-0.199 1.475,0.081 0.678,0.441 1.067,1.441 1.067,2.743 0,3.526 -2.148,6.323 -4.226,9.029 l -0.282,0.369 c -1.136,1.484 -2.104,2.667 -3.129,3.918 -1.042,1.274 -2.12,2.592 -3.404,4.27 -4.227,5.518 -4.396,9.33 -3.257,10.919 1.726,2.405 4.506,3.76 8.661,1.519 C 0.3,32.633 4.572,30.055 6.252,27.97 8.225,25.52 6.693,23.853 5.72,21.626 5.309,20.687 5.786,20.202 6.56,19.408 7.217,18.734 7.375,18.001 7.383,17.999 7.833,17.861 7.123,17.197 6.99,16.746 6.859,16.293 6.393,16.029 5.938,16.16 5.78,16.204 4.373,16.636 3.704,18.049 c -0.496,1.047 -0.431,2.298 0.191,3.719 0.904,2.066 1.082,2.875 -0.273,4.557 -1.473,1.828 -5.134,3.844 -8.758,5.754 -1.739,0.915 -4.798,1.567 -5.761,0.222 -0.696,-0.969 0.646,-3.58 4.281,-8.326 1.267,-1.655 2.273,-2.901 3.307,-4.164 1.033,-1.264 2.052,-2.66 3.205,-4.165 L 0.177,15.279 C 2.325,12.483 4.432,8.91 4.432,4.801 4.432,2.88 3.075,1.319 1.884,0.544 1.361,0.204 0.752,0.053 0,0"
             style="fill:#455a64;fill-opacity:1;fill-rule:nonzero;stroke:none"
             id="path438"
             inkscape:connector-curvature="0" /></g><g
           id="g440"
           transform="translate(108.4751,146.1587)"><path
             d="m 0,0 c -0.008,0.002 -0.166,0.735 -0.823,1.409 -0.774,0.794 -1.251,1.279 -0.84,2.218 0.637,1.458 1.507,2.677 1.483,4.031 L -1.973,6.623 C -1.905,5.899 -2.169,5.148 -2.661,4.023 -3.045,3.146 -3.19,2.342 -3.149,1.603 c 0.026,-0.459 0.107,-0.898 0.296,-1.298 0.669,-1.413 2.077,-1.846 2.235,-1.889 0.011,-0.003 0.02,0 0.031,-0.002 0.085,0.094 0.156,0.203 0.194,0.334 C -0.26,-0.801 0.45,-0.137 0,0"
             style="fill:#263238;fill-opacity:1;fill-rule:nonzero;stroke:none"
             id="path442"
             inkscape:connector-curvature="0" /></g><g
           id="g444"
           transform="translate(103.5464,129.1353)"><path
             d="m 0,0 c 1.015,0.853 1.978,2.209 1.978,3.826 0,4.109 -2.107,7.682 -4.255,10.478 l -0.281,0.366 c -1.153,1.506 -2.172,2.903 -3.205,4.165 -1.034,1.264 -2.04,2.51 -3.307,4.165 -3.629,4.738 -4.972,7.347 -4.284,8.32 -0.886,-1.07 -1.188,-2.587 -0.687,-3.95 0.582,-1.582 1.603,-3.443 3.222,-5.556 1.284,-1.678 2.362,-2.996 3.404,-4.271 1.024,-1.251 1.992,-2.433 3.128,-3.917 l 0.283,-0.369 C -1.926,10.551 0.177,7.753 0.221,4.228 0.237,2.937 0.228,1.267 -0.637,0.189 -1.144,-0.443 -1.873,-1.047 -3.157,-0.933 -2.635,-1.02 -2.041,-0.976 -1.371,-0.795 -0.854,-0.646 -0.406,-0.364 0,0"
             style="fill:#263238;fill-opacity:1;fill-rule:nonzero;stroke:none"
             id="path446"
             inkscape:connector-curvature="0" /></g><g
           id="g448"
           transform="translate(103.103,132.6177)"><path
             d="m 0,0 -0.016,-0.014 c -0.054,-1.158 -0.419,-2.055 -1.045,-2.462 -0.432,-0.281 -0.957,-0.312 -1.475,-0.082 -1.536,0.683 -2.489,2.536 -2.489,4.835 0,0.651 0.264,1.492 0.619,1.719 0.112,0.071 0.267,0.129 0.559,-0.01 C -4.668,4.689 -6.013,4.071 -6.416,2.97 -6.737,2.094 -6.747,1.088 -6.349,-0.283 -6.02,-1.414 -4.4,-4.033 -2.29,-3.656 -0.18,-3.28 0,-1.183 0,0"
             style="fill:#263238;fill-opacity:1;fill-rule:nonzero;stroke:none"
             id="path450"
             inkscape:connector-curvature="0" /></g><g
           id="g452"
           transform="translate(100.6104,133.5015)"><path
             d="M 0,0 C -0.208,0.307 -0.46,0.366 -0.672,0.26 -0.885,0.153 -1.06,0.06 -1.144,-0.079 -1.37,-0.45 -0.396,-1.159 0,0"
             style="fill:#263238;fill-opacity:1;fill-rule:nonzero;stroke:none"
             id="path454"
             inkscape:connector-curvature="0" /></g><g
           id="g456"><g
             id="g458" /><g
             id="g470"><g
               clip-path="url(#clipPath462)"
               id="g468"
               style="opacity:0.10000598"><g
                 transform="translate(90.9033,160.979)"
                 id="g466"><path
                   d="M 0,0 C 0.021,0.009 0.042,0.017 0.063,0.025 0.042,0.025 0.021,0.013 0,0"
                   style="fill:#000000;fill-opacity:1;fill-rule:nonzero;stroke:none"
                   id="path464"
                   inkscape:connector-curvature="0" /></g></g></g></g><g
           id="g472"><g
             id="g474" /><g
             id="g486"><g
               clip-path="url(#clipPath478)"
               id="g484"
               style="opacity:0.10000598"><g
                 transform="translate(90.416,160.6636)"
                 id="g482"><path
                   d="M 0,0 C -0.043,-0.015 -0.085,-0.039 -0.126,-0.084 -0.158,-0.119 -0.183,-0.159 -0.213,-0.195 -0.156,-0.116 -0.071,-0.065 0,0"
                   style="fill:#000000;fill-opacity:1;fill-rule:nonzero;stroke:none"
                   id="path480"
                   inkscape:connector-curvature="0" /></g></g></g></g><g
           id="g488"
           transform="translate(137.3535,107.48)"><path
             d="M 0,0 C 0.14,0.204 0.264,0.41 0.375,0.618 0.405,0.675 0.432,0.732 0.46,0.789 0.547,0.969 0.624,1.15 0.689,1.333 0.71,1.39 0.733,1.446 0.751,1.503 0.824,1.732 0.885,1.961 0.923,2.192 0.924,2.197 0.926,2.202 0.926,2.207 0.965,2.441 0.982,2.677 0.985,2.913 0.986,2.982 0.98,3.051 0.978,3.121 0.973,3.285 0.96,3.449 0.937,3.613 0.925,3.697 0.912,3.781 0.896,3.866 0.865,4.022 0.825,4.179 0.778,4.335 0.755,4.413 0.736,4.491 0.709,4.568 0.632,4.789 0.542,5.007 0.432,5.224 0.398,5.292 0.354,5.358 0.316,5.426 0.23,5.581 0.139,5.735 0.037,5.887 c -0.061,0.09 -0.129,0.179 -0.196,0.269 -0.049,0.067 -0.092,0.135 -0.145,0.2 -0.074,0.084 -0.153,0.178 -0.234,0.271 -0.042,0.048 -0.085,0.096 -0.129,0.143 -2.974,3.421 -7.35,5.574 -12.242,5.574 -4.898,0 -9.278,-2.157 -12.254,-5.586 -0.036,-0.039 -0.07,-0.077 -0.105,-0.116 -0.085,-0.098 -0.167,-0.197 -0.246,-0.286 -0.056,-0.069 -0.101,-0.141 -0.153,-0.212 -0.062,-0.083 -0.125,-0.165 -0.182,-0.249 -0.11,-0.164 -0.209,-0.33 -0.3,-0.496 -0.031,-0.057 -0.069,-0.113 -0.098,-0.17 -0.111,-0.22 -0.204,-0.443 -0.282,-0.667 -0.024,-0.069 -0.04,-0.139 -0.061,-0.208 -0.051,-0.166 -0.093,-0.332 -0.125,-0.5 -0.015,-0.076 -0.027,-0.152 -0.038,-0.229 -0.024,-0.175 -0.038,-0.349 -0.043,-0.523 -0.002,-0.061 -0.007,-0.121 -0.006,-0.182 0.005,-0.477 0.085,-0.954 0.236,-1.424 0.016,-0.05 0.036,-0.1 0.054,-0.149 0.068,-0.192 0.149,-0.382 0.241,-0.571 0.024,-0.049 0.048,-0.099 0.074,-0.149 0.116,-0.219 0.246,-0.437 0.395,-0.651 0.006,-0.009 0.011,-0.018 0.017,-0.027 0.166,-0.236 0.353,-0.469 0.56,-0.697 0.014,-0.014 0.029,-0.028 0.042,-0.043 0.185,-0.201 0.388,-0.397 0.604,-0.59 0.05,-0.044 0.101,-0.087 0.152,-0.131 0.199,-0.17 0.41,-0.336 0.634,-0.498 0.055,-0.039 0.106,-0.08 0.163,-0.119 0.283,-0.197 0.578,-0.391 0.899,-0.575 5.419,-3.133 14.225,-3.133 19.645,0 0.318,0.183 0.611,0.374 0.892,0.57 0.063,0.044 0.122,0.09 0.184,0.135 0.215,0.156 0.418,0.315 0.61,0.478 0.057,0.049 0.114,0.098 0.17,0.147 0.207,0.186 0.4,0.374 0.579,0.566 0.02,0.022 0.043,0.043 0.063,0.066 0.203,0.224 0.387,0.452 0.551,0.685 C -0.023,-0.038 -0.013,-0.019 0,0"
             style="fill:#37474f;fill-opacity:1;fill-rule:nonzero;stroke:none"
             id="path490"
             inkscape:connector-curvature="0" /></g><g
           id="g492"><g
             id="g494" /><g
             id="g522"><g
               clip-path="url(#clipPath498)"
               id="g520"
               style="opacity:0.30000299"><g
                 transform="translate(126.4849,115.1987)"
                 id="g502"
                 style="fill:#66aafc;fill-opacity:0.8888889"><path
                   d="M 0,0 C -0.569,-0.143 0.555,-2.237 1.762,-5.952 2.399,-7.912 2.741,-10.729 5.937,-9.163 8.88,-7.72 6.412,-4.32 4.131,-2.148 2.104,-0.218 0.611,0.153 0,0"
                   style="fill:#66aafc;fill-opacity:0.8888889;fill-rule:nonzero;stroke:none"
                   id="path500"
                   inkscape:connector-curvature="0" /></g><g
                 transform="translate(127.0137,116.4795)"
                 id="g506"
                 style="fill:#66aafc;fill-opacity:0.8888889"><path
                   d="m 0,0 c 0.297,-0.154 2.142,-0.398 5.115,-3.174 1.596,-1.49 2.841,-3.378 3.437,-3.619 0.596,-0.242 1.006,2.366 0,3.67 C 7.546,-1.818 5.734,-0.275 3.677,0.341 1.621,0.958 -0.498,0.257 0,0"
                   style="fill:#66aafc;fill-opacity:0.8888889;fill-rule:nonzero;stroke:none"
                   id="path504"
                   inkscape:connector-curvature="0" /></g><g
                 transform="translate(124.4443,104.1704)"
                 id="g510"
                 style="fill:#66aafc;fill-opacity:0.8888889"><path
                   d="M 0,0 C -3.069,0 -3.587,0.553 -2.405,5.5 -1.782,8.108 -0.519,10.734 0,10.734 0.518,10.734 1.781,8.108 2.405,5.5 3.587,0.553 3.068,0 0,0"
                   style="fill:#66aafc;fill-opacity:0.8888889;fill-rule:nonzero;stroke:none"
                   id="path508"
                   inkscape:connector-curvature="0" /></g><g
                 transform="translate(122.4033,115.1987)"
                 id="g514"
                 style="fill:#66aafc;fill-opacity:0.8888889"><path
                   d="m 0,0 c 0.569,-0.143 -0.555,-2.237 -1.762,-5.952 -0.637,-1.96 -0.979,-4.777 -4.175,-3.211 -2.943,1.443 -0.475,4.843 1.806,7.015 C -2.104,-0.218 -0.611,0.153 0,0"
                   style="fill:#66aafc;fill-opacity:0.8888889;fill-rule:nonzero;stroke:none"
                   id="path512"
                   inkscape:connector-curvature="0" /></g><g
                 transform="translate(121.8745,116.4795)"
                 id="g518"
                 style="fill:#66aafc;fill-opacity:0.8888889"><path
                   d="m 0,0 c -0.297,-0.154 -2.142,-0.398 -5.115,-3.174 -1.596,-1.49 -2.841,-3.378 -3.437,-3.619 -0.596,-0.242 -1.006,2.366 0,3.67 1.006,1.305 2.818,2.848 4.874,3.464 C -1.621,0.958 0.498,0.257 0,0"
                   style="fill:#66aafc;fill-opacity:0.8888889;fill-rule:nonzero;stroke:none"
                   id="path516"
                   inkscape:connector-curvature="0" /></g></g></g></g><g
           id="g524"><g
             id="g526" /><g
             id="g538"><g
               clip-path="url(#clipPath530)"
               id="g536"
               style="opacity:0.30000299"><g
                 transform="translate(122.7075,113.0718)"
                 id="g534"><path
                   d="M 0,0 C 4.797,-0.894 9.485,-0.483 14.838,0.039 14.787,0.125 14.74,0.21 14.683,0.295 14.622,0.385 14.554,0.475 14.487,0.564 14.438,0.631 14.395,0.699 14.342,0.765 14.268,0.849 14.189,0.942 14.108,1.036 14.066,1.083 14.023,1.131 13.979,1.178 11.005,4.6 6.629,6.752 1.737,6.752 -2.194,6.752 -5.778,5.346 -8.584,3.024 -6.193,1.687 -3.362,0.626 0,0"
                   style="fill:#000000;fill-opacity:1;fill-rule:nonzero;stroke:none"
                   id="path532"
                   inkscape:connector-curvature="0" /></g></g></g></g><g
           id="g540"
           transform="translate(114.9604,152.2388)"><path
             d="m 0,0 c -9.248,-3.077 -12.152,-11.294 -10.706,-18.336 1.421,-6.919 6.843,-14.778 19.05,-17.053 12.238,-2.28 23.742,3.93 47.477,-1.187 3.913,-0.843 7.936,-2.008 9.055,-1.138 1.212,0.942 0.701,2.762 -1.284,4.252 -1.172,0.879 -3.038,1.624 -4.752,2.144 -4.155,1.261 -18.403,2.888 -24.275,9.788 -3.969,4.664 -4.211,13.18 -10.838,17.724 C 15.813,1.62 7.631,2.539 0,0"
             style="fill:#455a64;fill-opacity:1;fill-rule:nonzero;stroke:none"
             id="path542"
             inkscape:connector-curvature="0" /></g><g
           id="g544"><g
             id="g546" /><g
             id="g558"><g
               clip-path="url(#clipPath550)"
               id="g556"
               style="opacity:0.05000311"><g
                 transform="translate(140.1367,138.1445)"
                 id="g554"><path
                   d="m 0,0 c -5.777,-6.402 -14.156,-8.044 -22.421,-7.843 -0.724,0.018 -1.701,-0.178 -1.723,-0.902 -0.011,-0.368 0.264,-0.676 0.532,-0.93 4.006,-3.804 9.912,-4.836 15.436,-4.76 5.523,0.076 10.234,0.898 16.51,0.753 1.512,-0.035 3.201,-0.302 4.704,-0.465 1.476,-0.16 3.7,-0.623 4.496,-0.137 0.796,0.486 -2.012,1.225 -2.797,1.462 -2.91,0.877 -5.577,2.544 -7.67,4.745 -1.052,1.108 -1.981,2.079 -2.633,3.491 -0.671,1.45 -1.09,3.008 -1.857,4.416 C 2.275,0.383 1.781,0.978 1.156,0.892 0.743,0.835 0.437,0.493 0.161,0.18 0.107,0.12 0.054,0.06 0,0"
                   style="fill:#ffffff;fill-opacity:1;fill-rule:nonzero;stroke:none"
                   id="path552"
                   inkscape:connector-curvature="0" /></g></g></g></g><g
           id="g560"><g
             id="g562" /><g
             id="g574"><g
               clip-path="url(#clipPath566)"
               id="g572"
               style="opacity:0.10000598"><g
                 transform="translate(171.8696,118.0039)"
                 id="g570"><path
                   d="m 0,0 c -2.154,1.539 -12.429,4.416 -20.31,4.581 -9.405,0.197 -22.821,-3.027 -32.497,0.229 -15.332,5.158 -15.065,16.296 -14.491,19.184 -0.789,-2.641 -0.86,-5.451 -0.317,-8.095 1.421,-6.92 6.843,-14.778 19.05,-17.053 12.238,-2.28 23.742,3.929 47.477,-1.187 C 1.738,-2.95 4.616,-3.723 6.422,-3.78 2.317,-3.497 0.97,-1.328 0,0"
                   style="fill:#000000;fill-opacity:1;fill-rule:nonzero;stroke:none"
                   id="path568"
                   inkscape:connector-curvature="0" /></g></g></g></g><g
           id="g576"
           transform="translate(124.4443,135.1646)"><path
             d="m 0,0 c 8.912,0 16.136,4.199 16.136,9.379 0,1.12 -0.356,2.189 -0.975,3.185 -0.296,0.241 -0.594,0.481 -0.918,0.704 -7.392,5.068 -15.018,6.202 -22.21,4.26 -4.875,-1.613 -8.169,-4.655 -8.169,-8.149 C -16.136,4.199 -8.912,0 0,0"
             style="fill:#37474f;fill-opacity:1;fill-rule:nonzero;stroke:none"
             id="path578"
             inkscape:connector-curvature="0" /></g><g
           id="g580"
           transform="translate(138.2651,149.1997)"><path
             d="m 0,0 c -0.106,0.12 -0.212,0.252 -0.332,0.385 -3.262,3.793 -8.09,6.181 -13.489,6.181 -5.399,0 -10.227,-2.388 -13.49,-6.181 C -27.43,0.252 -27.536,0.12 -27.642,0 c -2.627,-3.263 -1.605,-7.255 3.051,-9.935 5.942,-3.435 15.598,-3.435 21.541,0 C 1.605,-7.255 2.626,-3.263 0,0"
             style="fill:#455a64;fill-opacity:1;fill-rule:nonzero;stroke:none"
             id="path582"
             inkscape:connector-curvature="0" /></g><g
           id="g584"
           transform="translate(126.1074,156.6421)"><path
             d="m 0,0 c 0.001,0.246 -0.161,0.493 -0.487,0.68 -0.649,0.375 -1.702,0.375 -2.351,0 C -3.163,0.493 -3.326,0.247 -3.326,0.001 v -4.259 h 0.022 c -0.068,-0.287 0.083,-0.588 0.466,-0.809 0.649,-0.375 1.702,-0.375 2.351,0 0.383,0.221 0.534,0.522 0.466,0.809 H 0 Z"
             style="fill:#37474f;fill-opacity:1;fill-rule:nonzero;stroke:none"
             id="path586"
             inkscape:connector-curvature="0" /></g><g
           id="g588"><g
             id="g590" /><g
             id="g602"><g
               clip-path="url(#clipPath594)"
               id="g600"
               style="opacity:0.10000598"><g
                 transform="translate(126.1074,156.436)"
                 id="g598"><path
                   d="M 0,0 C 0,0.09 -0.029,0.179 -0.072,0.266 -0.369,0.583 -0.757,0.814 -1.197,0.91 -1.348,0.935 -1.5,0.961 -1.656,0.961 c -0.002,0 -0.005,0.001 -0.007,0.001 -10e-4,0 -0.003,-0.001 -0.004,-0.001 -0.157,0 -0.31,-0.026 -0.461,-0.051 C -2.569,0.814 -2.956,0.583 -3.253,0.266 -3.296,0.18 -3.326,0.091 -3.326,0.001 v -2.626 c 0.401,-0.475 0.993,-0.688 1.663,-0.688 0.67,0 1.263,0.213 1.663,0.688 z"
                   style="fill:#000000;fill-opacity:1;fill-rule:nonzero;stroke:none"
                   id="path596"
                   inkscape:connector-curvature="0" /></g></g></g></g><g
           id="g604"
           transform="translate(127.292,156.77)"><path
             d="m 0,0 c 0,-1.573 -1.275,-2.848 -2.847,-2.848 -1.573,0 -2.848,1.275 -2.848,2.848 0,1.572 1.275,2.847 2.848,2.847 C -1.275,2.847 0,1.572 0,0"
             style="fill:#455a64;fill-opacity:1;fill-rule:nonzero;stroke:none"
             id="path606"
             inkscape:connector-curvature="0" /></g><g
           id="g608"
           style="fill:#66aafc;fill-opacity:1"><g
             id="g610"
             style="fill:#66aafc;fill-opacity:1" /><g
             id="g622"
             style="fill:#66aafc;fill-opacity:1"><g
               clip-path="url(#clipPath614)"
               id="g620"
               style="opacity:0.5;fill:#66aafc;fill-opacity:1"><g
                 transform="translate(122.9946,157.4258)"
                 id="g618"
                 style="fill:#66aafc;fill-opacity:1"><path
                   d="M 0,0 C 0,-1.163 0.943,-2.106 2.106,-2.106 3.269,-2.106 4.212,-1.163 4.212,0 4.212,0.004 4.21,0.007 4.21,0.011 3.961,1.045 3.151,1.855 2.117,2.104 2.113,2.104 2.11,2.106 2.106,2.106 0.943,2.106 0,1.163 0,0"
                   style="fill:#66aafc;fill-opacity:1;fill-rule:nonzero;stroke:none"
                   id="path616"
                   inkscape:connector-curvature="0" /></g></g></g></g><g
           id="g624"
           style="fill:#0f68ba;fill-opacity:0.99494952"><g
             id="g626"
             style="fill:#0f68ba;fill-opacity:0.99494952" /><g
             id="g638"
             style="fill:#0f68ba;fill-opacity:0.99494952"><g
               clip-path="url(#clipPath630)"
               id="g636"
               style="opacity:0.30000299;fill:#0f68ba;fill-opacity:0.99494952"><g
                 transform="translate(127.2051,157.437)"
                 id="g634"
                 style="fill:#0f68ba;fill-opacity:0.99494952"><path
                   d="m 0,0 c 0,-0.004 0.001,-0.007 0.001,-0.011 0,-1.163 -0.942,-2.106 -2.105,-2.106 -1.164,0 -2.106,0.943 -2.106,2.106 0,1.163 0.942,2.106 2.106,2.106 0.003,0 0.007,-0.002 0.011,-0.002 -0.215,0.053 -0.436,0.087 -0.667,0.087 -1.573,0 -2.848,-1.275 -2.848,-2.847 0,-1.573 1.275,-2.848 2.848,-2.848 1.572,0 2.847,1.275 2.847,2.848 C 0.087,-0.436 0.052,-0.215 0,0"
                   style="fill:#0f68ba;fill-opacity:0.99494952;fill-rule:nonzero;stroke:none"
                   id="path632"
                   inkscape:connector-curvature="0" /></g></g></g></g><g
           id="g640"
           transform="translate(174.4712,119.0132)"><path
             d="M 0,0 C -0.905,-0.35 -0.705,-1.385 0.446,-2.314 1.597,-3.242 3.264,-3.712 4.168,-3.362 5.073,-3.013 4.874,-1.978 3.723,-1.049 2.571,-0.121 0.905,0.349 0,0"
             style="fill:#27debf;fill-opacity:1;fill-rule:nonzero;stroke:none"
             id="path642"
             inkscape:connector-curvature="0" /></g><g
           id="g644"
           transform="translate(174.4712,119.0132)"><path
             d="M 0,0 C -0.905,-0.35 -0.705,-1.385 0.446,-2.314 1.597,-3.242 3.264,-3.712 4.168,-3.362 5.073,-3.013 4.874,-1.978 3.723,-1.049 2.571,-0.121 0.905,0.349 0,0"
             style="fill:#263238;fill-opacity:1;fill-rule:nonzero;stroke:none"
             id="path646"
             inkscape:connector-curvature="0" /></g><g
           id="g648"
           style="fill:#66aafc;fill-opacity:0.8888889"><g
             id="g650"
             style="fill:#66aafc;fill-opacity:0.8888889" /><g
             id="g662"
             style="fill:#66aafc;fill-opacity:0.8888889"><g
               clip-path="url(#clipPath654)"
               id="g660"
               style="opacity:0.30000299;fill:#66aafc;fill-opacity:0.8888889"><g
                 transform="translate(126.8472,150.7681)"
                 id="g658"
                 style="fill:#66aafc;fill-opacity:0.8888889"><path
                   d="m 0,0 c -0.67,-0.168 0.653,-2.634 2.075,-7.009 0.75,-2.308 1.153,-5.625 4.916,-3.781 3.466,1.699 0.559,5.703 -2.127,8.261 C 2.478,-0.257 0.72,0.181 0,0"
                   style="fill:#66aafc;fill-opacity:0.8888889;fill-rule:nonzero;stroke:none"
                   id="path656"
                   inkscape:connector-curvature="0" /></g></g></g></g><g
           id="g664"
           style="fill:#66aafc;fill-opacity:0.8888889"><g
             id="g666"
             style="fill:#66aafc;fill-opacity:0.8888889" /><g
             id="g678"
             style="fill:#66aafc;fill-opacity:0.8888889"><g
               clip-path="url(#clipPath670)"
               id="g676"
               style="opacity:0.30000299;fill:#66aafc;fill-opacity:0.8888889"><g
                 transform="translate(127.4697,152.2759)"
                 id="g674"
                 style="fill:#66aafc;fill-opacity:0.8888889"><path
                   d="m 0,0 c 0.35,-0.181 2.522,-0.469 6.023,-3.737 1.88,-1.755 3.346,-3.978 4.048,-4.263 0.702,-0.284 1.184,2.788 0,4.323 C 8.886,-2.141 6.752,-0.324 4.331,0.402 1.909,1.128 -0.586,0.303 0,0"
                   style="fill:#66aafc;fill-opacity:0.8888889;fill-rule:nonzero;stroke:none"
                   id="path672"
                   inkscape:connector-curvature="0" /></g></g></g></g><g
           id="g680"
           style="fill:#66aafc;fill-opacity:0.8888889"><g
             id="g682"
             style="fill:#66aafc;fill-opacity:0.8888889" /><g
             id="g694"
             style="fill:#66aafc;fill-opacity:0.8888889"><g
               clip-path="url(#clipPath686)"
               id="g692"
               style="opacity:0.30000299;fill:#66aafc;fill-opacity:0.8888889"><g
                 transform="translate(124.4443,137.7817)"
                 id="g690"
                 style="fill:#66aafc;fill-opacity:0.8888889"><path
                   d="M 0,0 C -3.614,0 -4.225,0.651 -2.832,6.477 -2.098,9.548 -0.611,12.64 0,12.64 0.61,12.64 2.097,9.548 2.832,6.477 4.224,0.651 3.613,0 0,0"
                   style="fill:#66aafc;fill-opacity:0.8888889;fill-rule:nonzero;stroke:none"
                   id="path688"
                   inkscape:connector-curvature="0" /></g></g></g></g><g
           id="g696"
           style="fill:#66aafc;fill-opacity:0.8888889"><g
             id="g698"
             style="fill:#66aafc;fill-opacity:0.8888889" /><g
             id="g710"
             style="fill:#66aafc;fill-opacity:0.8888889"><g
               clip-path="url(#clipPath702)"
               id="g708"
               style="opacity:0.30000299;fill:#66aafc;fill-opacity:0.8888889"><g
                 transform="translate(122.041,150.7681)"
                 id="g706"
                 style="fill:#66aafc;fill-opacity:0.8888889"><path
                   d="m 0,0 c 0.67,-0.168 -0.653,-2.634 -2.075,-7.009 -0.75,-2.308 -1.153,-5.625 -4.916,-3.781 -3.466,1.699 -0.559,5.703 2.127,8.261 C -2.478,-0.257 -0.72,0.181 0,0"
                   style="fill:#66aafc;fill-opacity:0.8888889;fill-rule:nonzero;stroke:none"
                   id="path704"
                   inkscape:connector-curvature="0" /></g></g></g></g><g
           id="g712"
           style="fill:#66aafc;fill-opacity:0.8888889"><g
             id="g714"
             style="fill:#66aafc;fill-opacity:0.8888889" /><g
             id="g726"
             style="fill:#66aafc;fill-opacity:0.8888889"><g
               clip-path="url(#clipPath718)"
               id="g724"
               style="opacity:0.30000299;fill:#66aafc;fill-opacity:0.8888889"><g
                 transform="translate(121.4185,152.2759)"
                 id="g722"
                 style="fill:#66aafc;fill-opacity:0.8888889"><path
                   d="m 0,0 c -0.35,-0.181 -2.522,-0.469 -6.023,-3.737 -1.88,-1.755 -3.346,-3.978 -4.048,-4.263 -0.702,-0.284 -1.184,2.788 0,4.323 1.185,1.536 3.319,3.353 5.74,4.079 C -1.909,1.128 0.586,0.303 0,0"
                   style="fill:#66aafc;fill-opacity:0.8888889;fill-rule:nonzero;stroke:none"
                   id="path720"
                   inkscape:connector-curvature="0" /></g></g></g></g></g></g><g
       id="g728"><g
         id="g730"
         clip-path="url(#clipPath734)"><g
           id="g736"
           transform="translate(360.8779,293.1172)"><path
             d="m 0,0 c 5.491,1.223 11.668,-2.697 15.849,-11.45 4.005,-8.384 15.581,-29.476 15.847,-35.398 0.277,-6.142 -24.723,-25.262 -24.02,-24.93 0.216,0.102 -5.589,11.82 -5.589,11.82 l 13.762,13.72 -8.252,16.246 z"
             style="fill:#ffa8a7;fill-opacity:1;fill-rule:nonzero;stroke:none"
             id="path738"
             inkscape:connector-curvature="0" /></g><g
           id="g740"
           transform="translate(357.9854,294.4336)"><path
             d="m 0,0 c 4.628,0.565 13.015,-1.187 16.218,-6.745 4.641,-8.053 8.514,-15.472 14.534,-26.663 0,0 -4.086,-8.615 -15.608,-9.434 l -5.346,10.154 z"
             style="fill:#37474f;fill-opacity:1;fill-rule:nonzero;stroke:none"
             id="path742"
             inkscape:connector-curvature="0" /></g><g
           id="g744"
           transform="translate(367.0596,94.4756)"><path
             d="m 0,0 c 0.727,-0.294 0.88,-1.693 0.929,-4.47 0.037,-2.101 0.403,-5.776 -2.072,-6.452 -2.474,-0.676 -6.068,-0.221 -7.599,1.793 -1.911,2.514 -3.193,4.718 -5.932,7.794 -2.376,2.669 -4.954,5.168 -5.854,8.856 -0.814,3.333 -0.042,4.753 2.24,5.666 3.138,1.254 7.923,-3.184 10.343,-3.92 C -5.861,8.633 -0.726,0.294 0,0"
             style="fill:#263238;fill-opacity:1;fill-rule:nonzero;stroke:none"
             id="path746"
             inkscape:connector-curvature="0" /></g><g
           id="g748"
           transform="translate(367.1182,97.0439)"><path
             d="m 0,0 -0.077,-3.406 c 0,0 -3.603,-2.641 -8.612,-0.039 -0.142,0.332 -0.785,4.893 -0.785,4.893 z"
             style="fill:#ffa8a7;fill-opacity:1;fill-rule:nonzero;stroke:none"
             id="path750"
             inkscape:connector-curvature="0" /></g><g
           id="g752"
           transform="translate(339.0342,75.4673)"><path
             d="m 0,0 c 0,0 0.91,-2.984 1.378,-5.586 0.372,-2.069 0.895,-5.524 0.139,-7.057 -0.756,-1.533 -3.591,-2.469 -7.952,-2.337 -2.824,0.084 -7.268,-1.734 -10.32,-3.348 -3.152,-1.667 -9.641,-2.213 -12.925,-1.752 -3.87,0.543 -7.839,2.883 -8.429,4.504 -0.591,1.621 0.28,3.271 9.511,6.961 0.084,0.034 12.804,3.856 17.339,8.638 z"
             style="fill:#263238;fill-opacity:1;fill-rule:nonzero;stroke:none"
             id="path754"
             inkscape:connector-curvature="0" /></g><g
           id="g756"
           transform="translate(339.1162,79.1499)"><path
             d="m 0,0 c 0,0 -0.069,-2.528 -0.089,-3.973 -0.02,-1.444 -1.774,-3.558 -6.187,-3.301 -3.099,0.181 -5.245,1.064 -5.065,3.615 l 0.083,3.682 z"
             style="fill:#ffa8a7;fill-opacity:1;fill-rule:nonzero;stroke:none"
             id="path758"
             inkscape:connector-curvature="0" /></g><g
           id="g760"
           transform="translate(370.3516,142.1958)"><path
             d="m 0,0 c -1.309,11.165 -3.623,17.83 -3.623,17.83 0,0 1.56,15.278 2.471,29.776 0.983,15.66 0.763,35.378 1.15,39.281 0,0 -48.571,11.215 -49.882,-6.884 -1.474,-20.36 0.093,-65.206 0.392,-70.883 0.418,-7.974 0.435,-16.264 1.79,-29.203 1.336,-12.769 5.209,-42.94 5.209,-42.94 5.707,-3.253 11.258,-0.023 11.258,-0.023 0,0 4.376,36.15 4.209,45.342 -0.203,11.225 -3.032,20.126 -3.032,20.126 l 6.037,50.462 c 0,0 0.604,-22.445 1.023,-30.418 0.419,-7.974 1.513,-12.84 3.482,-27.676 1.709,-12.871 7.047,-40.143 7.047,-40.143 5.708,-3.254 9.236,0.201 9.236,0.201 0,0 4.542,33.987 3.233,45.152"
             style="fill:#37474f;fill-opacity:1;fill-rule:nonzero;stroke:none"
             id="path762"
             inkscape:connector-curvature="0" /></g><g
           id="g764"
           transform="translate(363.8994,205.6499)"><path
             d="m 0,0 c 0,0 -5.883,-7.906 -13.448,-11.299 0,0 -3.289,-27.791 -3.263,-27.239 l -0.857,27.968 c 0,0 11.304,5.255 17.568,10.57"
             style="fill:#263238;fill-opacity:1;fill-rule:nonzero;stroke:none"
             id="path766"
             inkscape:connector-curvature="0" /></g><g
           id="g768"
           transform="translate(336.6309,300.6567)"><path
             d="m 0,0 2.621,-16.54 16.397,0.875 -2.352,19.224 z"
             style="fill:#ffa8a7;fill-opacity:1;fill-rule:nonzero;stroke:none"
             id="path770"
             inkscape:connector-curvature="0" /></g><g
           id="g772"
           transform="translate(368.7158,284.8696)"><path
             d="M 0,0 C -1.373,4.512 -5.763,10.363 -11.474,9.435 -12.8,9.219 -12.834,9.222 -14.092,9 -14.777,6.212 -23.164,3.837 -30.465,5.556 c -2.2,-0.577 -4.217,-1.17 -6.049,-1.779 -5.247,-1.742 -10.09,-6.134 -10.908,-23.248 0,0 -1.449,-39.53 -1.19,-50.215 12.956,-5.467 24.629,-5.574 32.18,-4.102 15.72,3.066 18.304,9.802 18.304,9.802 0,0 0.566,30.988 0.376,43.397 C 2.088,-10.047 0.942,-3.098 0,0"
             style="fill:#455a64;fill-opacity:1;fill-rule:nonzero;stroke:none"
             id="path774"
             inkscape:connector-curvature="0" /></g><g
           id="g776"
           transform="translate(325.6016,320.9512)"><path
             d="m 0,0 c 0,0 -3.909,-5.931 -3.464,-6.513 0.445,-0.583 3.322,-1.109 3.322,-1.109 z"
             style="fill:#f28f8f;fill-opacity:1;fill-rule:nonzero;stroke:none"
             id="path778"
             inkscape:connector-curvature="0" /></g><g
           id="g780"
           transform="translate(336.4541,337.3584)"><path
             d="m 0,0 c -7.909,-1.668 -10.193,-5.146 -10.938,-17.71 -0.779,-13.13 0.561,-17.257 2.286,-19.025 1.165,-1.193 7.634,-1.408 10.899,-0.508 4.086,1.126 13.317,4.398 17.642,11.002 5.086,7.77 6.423,18.301 0.977,22.62 C 13.202,2.459 3.22,0.679 0,0"
             style="fill:#ffa8a7;fill-opacity:1;fill-rule:nonzero;stroke:none"
             id="path782"
             inkscape:connector-curvature="0" /></g><g
           id="g784"
           transform="translate(336.7744,299.749)"><path
             d="m 0,0 c 0,0 2.213,0.39 4.166,1.051 0,0 -1.145,-1.551 -3.97,-2.288 z"
             style="fill:#f28f8f;fill-opacity:1;fill-rule:nonzero;stroke:none"
             id="path786"
             inkscape:connector-curvature="0" /></g><g
           id="g788"
           transform="translate(323.918,332.5044)"><path
             d="m 0,0 c 0.589,-0.624 1.297,-1.131 2.019,-1.598 1.058,-0.685 2.164,-1.298 3.304,-1.835 1.072,-0.503 2.243,-0.812 3.211,-1.502 1.436,-1.024 1.62,-2.38 1.657,-4.03 0.025,-1.079 0.022,-2.419 0.038,-3.87 0.024,-2.18 1.416,-3.838 2.094,-0.916 0,0 1.251,4.853 5.341,4.243 4.117,-0.615 4.45,-5.22 2.5,-8.838 -1.186,-2.2 -4.364,-1.625 -4.364,-1.625 0,0 -0.721,-6.049 4.271,-11.004 0,0 3.154,-0.956 9.585,0.415 3.954,0.843 7.749,5.195 10.1,10.429 4.972,11.07 5.319,21.032 -1.748,24.018 -0.765,5.101 -4.781,7.388 -9.361,8.44 C 21.799,13.9 15.396,9.835 8.623,11.352 7.522,11.598 6.384,11.862 5.32,12.218 4.886,12.364 4.397,12.507 3.983,12.31 3.458,12.059 3.305,11.378 3.344,10.797 3.432,9.49 4.202,8.249 5.335,7.59 5.195,7.671 4.539,7.491 4.355,7.479 3.977,7.454 3.596,7.448 3.216,7.439 2.482,7.421 1.729,7.53 0.993,7.597 0.479,7.644 -0.048,7.689 -0.542,7.546 -1.678,7.216 -2.33,5.938 -2.296,4.756 -2.263,3.574 -1.692,2.479 -1.075,1.47 -0.825,1.062 -0.565,0.66 -0.259,0.292 -0.176,0.192 -0.089,0.095 0,0"
             style="fill:#263238;fill-opacity:1;fill-rule:nonzero;stroke:none"
             id="path790"
             inkscape:connector-curvature="0" /></g><g
           id="g792"
           transform="translate(362.0469,334.6836)"><path
             d="M 0,0 4.733,2.791 C 3.963,4.097 2.279,4.532 0.972,3.762 -0.335,2.991 -0.77,1.307 0,0"
             style="fill:#263238;fill-opacity:1;fill-rule:nonzero;stroke:none"
             id="path794"
             inkscape:connector-curvature="0" /></g><g
           id="g796"
           transform="translate(268.6162,260.4121)"><path
             d="m 0,0 c 2.424,-1.143 31.366,-23.829 35.917,-21.449 4.55,2.38 28.279,29.307 28.279,29.307 6.947,10.945 -0.202,20.437 -0.202,20.437 0,0 -7.426,-1.2 -11.423,-6.962 C 48.574,15.571 31.388,-5.013 31.388,-5.013 27.307,-2.854 23.24,-0.666 19.188,1.548 15.851,3.373 12.505,5.196 9.24,7.151 8.426,7.639 7.346,8.121 6.678,8.813 c -1.594,1.649 -1.227,5.543 -1.149,7.664 0.036,0.991 0.073,1.985 0.21,2.968 0.169,1.208 0.467,4.17 -1.735,3.277 C 3.579,22.55 3.23,22.227 2.942,21.871 2.589,21.433 2.312,20.933 2.128,20.401 1.688,19.127 1.789,17.721 1.382,16.437 1.322,16.25 1.247,16.058 1.102,15.927 0.919,15.761 0.655,15.718 0.408,15.731 c -3.175,0.167 -6.081,4.687 -7.486,7.083 -0.627,1.067 -1.239,2.253 -2.349,2.802 -1.72,0.852 -3.835,-0.264 -4.989,-1.798 -1.472,-1.956 -1.958,-4.527 -1.731,-6.964 0.315,-3.378 1.536,-6.523 3.943,-8.871 C -8.553,4.423 -4.555,2.148 0,0"
             style="fill:#ffa8a7;fill-opacity:1;fill-rule:nonzero;stroke:none"
             id="path798"
             inkscape:connector-curvature="0" /></g><g
           id="g800"
           transform="translate(334.9785,289.5239)"><path
             d="m 0,0 c -3.188,-0.295 -8.477,-0.416 -13.783,-6.16 -6.205,-6.717 -15.763,-19.96 -15.763,-19.96 0,0 1.126,-9.912 11.274,-13.693 0,0 14.871,13.419 18.043,19.504 C 2.943,-14.224 3.651,-4.238 0,0"
             style="fill:#37474f;fill-opacity:1;fill-rule:nonzero;stroke:none"
             id="path802"
             inkscape:connector-curvature="0" /></g></g></g><g
       id="g804"><g
         id="g806"
         clip-path="url(#clipPath810)"><g
           id="g812"
           transform="translate(336.4609,362.999)"><path
             d="m 0,0 -2.791,5.247 2.245,6.482 v 3.967 L -7.417,11.729 V 7.761 l 2.954,-5.116 c 0.05,-0.087 0.121,-0.144 0.201,-0.179 L -4.264,2.463 Z"
             style="fill:#66aafc;fill-opacity:0.98989898;fill-rule:nonzero;stroke:none"
             id="path814"
             inkscape:connector-curvature="0" /></g><g
           id="g832"
           transform="translate(366,409.5933)"><path
             d="m 0,0 c 0,1.314 -0.923,2.911 -2.061,3.568 l -1.677,0.969 c -1.137,0.657 -2.983,0.657 -4.12,0 l -38.855,-22.449 c -1.138,-0.657 -2.06,-2.255 -2.06,-3.568 v -20.095 c 0,-1.315 0.922,-2.912 2.06,-3.569 l 1.678,-0.968 c 1.138,-0.658 2.982,-0.658 4.12,0 l 8.273,4.78 2.949,-5.107 c 0.188,-0.326 0.673,-0.28 0.797,0.076 l 3.116,8.995 23.72,13.705 c 1.138,0.657 2.06,2.254 2.06,3.568 z"
             style="fill:#66aafc;fill-opacity:0.969697;fill-rule:nonzero;stroke:none"
             id="path834"
             inkscape:connector-curvature="0" /></g><g
           id="g836"
           style="fill:#66aafc;fill-opacity:0"><g
             id="g838"
             style="fill:#66aafc;fill-opacity:0" /><g
             id="g850"
             style="fill:#66aafc;fill-opacity:0"><g
               clip-path="url(#clipPath842)"
               id="g848"
               style="opacity:0.19999701;fill:#66aafc;fill-opacity:0"><g
                 transform="translate(317.2266,368.0176)"
                 id="g846"
                 style="fill:#66aafc;fill-opacity:0"><path
                   d="M 0,0 C 0,-1.314 0.923,-2.911 2.061,-3.568 L 3.738,-4.537 C 4.767,-5.13 6.366,-5.182 7.506,-4.703 6.536,-5.069 5.798,-4.522 5.798,-3.347 v 20.095 c 0,0.657 0.23,1.384 0.603,2.03 L 0.604,22.125 C 0.23,21.48 0,20.752 0,20.095 Z"
                   style="fill:#66aafc;fill-opacity:0;fill-rule:nonzero;stroke:none"
                   id="path844"
                   inkscape:connector-curvature="0" /></g></g></g></g><g
           id="g852"
           style="fill:#66aafc;fill-opacity:0.94949496"><g
             id="g854"
             style="fill:#66aafc;fill-opacity:0.94949496" /><g
             id="g866"
             style="fill:#66aafc;fill-opacity:0.94949496"><g
               clip-path="url(#clipPath858)"
               id="g864"
               style="opacity:0.19999701;fill:#66aafc;fill-opacity:0.94949496"><g
                 transform="translate(365.9326,410.1787)"
                 id="g862"
                 style="fill:#66aafc;fill-opacity:0.94949496"><path
                   d="M 0,0 C -0.24,0.875 -1.038,1.153 -1.989,0.605 L -40.85,-21.847 c -0.566,-0.327 -1.086,-0.884 -1.451,-1.538 l -5.795,3.345 c 0.374,0.654 0.884,1.211 1.451,1.538 L -7.795,3.95 c 1.144,0.654 2.989,0.654 4.123,0 L -1.989,2.979 C -1.019,2.422 -0.202,1.173 0,0"
                   style="fill:#66aafc;fill-opacity:0.94949496;fill-rule:nonzero;stroke:none"
                   id="path860"
                   inkscape:connector-curvature="0" /></g></g></g></g><g
           id="g868"
           transform="translate(334.375,384.4424)"><path
             d="m 0,0 c -1.518,-0.877 -2.749,-3.009 -2.749,-4.762 0,-1.754 1.231,-2.465 2.749,-1.588 1.519,0.877 2.75,3.009 2.75,4.763 C 2.75,0.166 1.52,0.876 0,0"
             style="fill:#ffffff;fill-opacity:1;fill-rule:nonzero;stroke:none"
             id="path870"
             inkscape:connector-curvature="0" /></g><g
           id="g872"
           transform="translate(344.5127,390.3066)"><path
             d="m 0,0 c -1.519,-0.877 -2.75,-3.009 -2.75,-4.762 0,-1.754 1.231,-2.465 2.75,-1.588 1.518,0.877 2.749,3.009 2.749,4.763 C 2.749,0.166 1.519,0.877 0,0"
             style="fill:#ffffff;fill-opacity:1;fill-rule:nonzero;stroke:none"
             id="path874"
             inkscape:connector-curvature="0" /></g><g
           id="g876"
           transform="translate(354.6494,396.1709)"><path
             d="M 0,0 C -1.519,-0.876 -2.75,-3.009 -2.75,-4.762 -2.749,-6.516 -1.519,-7.226 0,-6.35 1.519,-5.473 2.749,-3.341 2.749,-1.587 2.749,0.166 1.519,0.877 0,0"
             style="fill:#ffffff;fill-opacity:1;fill-rule:nonzero;stroke:none"
             id="path878"
             inkscape:connector-curvature="0" /></g></g></g></g></svg>